%TF.GenerationSoftware,KiCad,Pcbnew,8.0.2-1*%
%TF.CreationDate,2025-02-04T18:40:10-06:00*%
%TF.ProjectId,ADACHI,41444143-4849-42e6-9b69-6361645f7063,rev?*%
%TF.SameCoordinates,Original*%
%TF.FileFunction,Copper,L2,Bot*%
%TF.FilePolarity,Positive*%
%FSLAX46Y46*%
G04 Gerber Fmt 4.6, Leading zero omitted, Abs format (unit mm)*
G04 Created by KiCad (PCBNEW 8.0.2-1) date 2025-02-04 18:40:10*
%MOMM*%
%LPD*%
G01*
G04 APERTURE LIST*
%TA.AperFunction,ComponentPad*%
%ADD10R,1.700000X1.700000*%
%TD*%
%TA.AperFunction,ComponentPad*%
%ADD11O,1.700000X1.700000*%
%TD*%
%TA.AperFunction,ComponentPad*%
%ADD12C,2.600000*%
%TD*%
%TA.AperFunction,ConnectorPad*%
%ADD13C,3.500000*%
%TD*%
%TA.AperFunction,ComponentPad*%
%ADD14R,1.500000X1.500000*%
%TD*%
%TA.AperFunction,ComponentPad*%
%ADD15C,1.600000*%
%TD*%
%TA.AperFunction,ConnectorPad*%
%ADD16C,3.800000*%
%TD*%
%TA.AperFunction,ComponentPad*%
%ADD17C,0.630000*%
%TD*%
%TA.AperFunction,SMDPad,CuDef*%
%ADD18R,2.600000X3.300000*%
%TD*%
%TA.AperFunction,ComponentPad*%
%ADD19R,2.200000X2.200000*%
%TD*%
%TA.AperFunction,ComponentPad*%
%ADD20O,2.200000X2.200000*%
%TD*%
%TA.AperFunction,ViaPad*%
%ADD21C,0.600000*%
%TD*%
%TA.AperFunction,Conductor*%
%ADD22C,0.200000*%
%TD*%
G04 APERTURE END LIST*
D10*
%TO.P,J2,1,Pin_1*%
%TO.N,GND*%
X148100000Y-98420000D03*
D11*
%TO.P,J2,2,Pin_2*%
%TO.N,BOOT*%
X148100000Y-100960000D03*
%TO.P,J2,3,Pin_3*%
%TO.N,EN*%
X148100000Y-103500000D03*
%TO.P,J2,4,Pin_4*%
%TO.N,TX*%
X148100000Y-106040000D03*
%TO.P,J2,5,Pin_5*%
%TO.N,RX*%
X148100000Y-108580000D03*
%TO.P,J2,6,Pin_6*%
%TO.N,3.3v*%
X148100000Y-111120000D03*
%TD*%
D10*
%TO.P,xt30,1,Pin_1*%
%TO.N,Net-(positivo1-B)*%
X149525000Y-154300000D03*
D11*
%TO.P,xt30,2,Pin_2*%
%TO.N,Net-(negativo1-B)*%
X152065000Y-154300000D03*
%TD*%
D12*
%TO.P,H4,1*%
%TO.N,N/C*%
X126100000Y-153900000D03*
D13*
X126100000Y-153900000D03*
%TD*%
D10*
%TO.P,voltajesensores1,1,Pin_1*%
%TO.N,5v*%
X125800000Y-104625000D03*
D11*
%TO.P,voltajesensores1,2,Pin_2*%
%TO.N,GND*%
X125800000Y-107165000D03*
%TD*%
D10*
%TO.P,servo2,1,Pin_1*%
%TO.N,servo2*%
X152100000Y-111360000D03*
D11*
%TO.P,servo2,2,Pin_2*%
%TO.N,5v*%
X152100000Y-113900000D03*
%TO.P,servo2,3,Pin_3*%
%TO.N,GND*%
X152100000Y-116440000D03*
%TD*%
D10*
%TO.P,sensores1,1,Pin_1*%
%TO.N,Net-(sensores1-Pin_1)*%
X125100000Y-114480000D03*
D11*
%TO.P,sensores1,2,Pin_2*%
%TO.N,Net-(sensores1-Pin_2)*%
X125100000Y-117020000D03*
%TO.P,sensores1,3,Pin_3*%
%TO.N,Net-(sensores1-Pin_3)*%
X125100000Y-119560000D03*
%TO.P,sensores1,4,Pin_4*%
%TO.N,Net-(sensores1-Pin_4)*%
X125100000Y-122100000D03*
%TO.P,sensores1,5,Pin_5*%
%TO.N,Net-(sensores1-Pin_5)*%
X125100000Y-124640000D03*
%TO.P,sensores1,6,Pin_6*%
%TO.N,Net-(sensores1-Pin_6)*%
X125100000Y-127180000D03*
%TO.P,sensores1,7,Pin_7*%
%TO.N,Net-(sensores1-Pin_7)*%
X125100000Y-129720000D03*
%TO.P,sensores1,8,Pin_8*%
%TO.N,Net-(sensores1-Pin_8)*%
X125100000Y-132260000D03*
%TO.P,sensores1,9,Pin_9*%
%TO.N,Net-(sensores1-Pin_9)*%
X125100000Y-134800000D03*
%TO.P,sensores1,10,Pin_10*%
%TO.N,Net-(sensores1-Pin_10)*%
X125100000Y-137340000D03*
%TD*%
D12*
%TO.P,H1,1*%
%TO.N,N/C*%
X151700000Y-98300000D03*
D13*
X151700000Y-98300000D03*
%TD*%
D14*
%TO.P,negativo1,1,B*%
%TO.N,Net-(negativo1-B)*%
X152600000Y-146740000D03*
D15*
%TO.P,negativo1,2,C*%
%TO.N,GND*%
X152600000Y-144200000D03*
%TO.P,negativo1,3,A*%
%TO.N,unconnected-(negativo1-A-Pad3)*%
X152600000Y-149280000D03*
%TD*%
D12*
%TO.P,H2,1*%
%TO.N,N/C*%
X126400000Y-98600000D03*
D16*
X126400000Y-98600000D03*
%TD*%
D14*
%TO.P,positivo1,1,B*%
%TO.N,Net-(positivo1-B)*%
X149600000Y-146740000D03*
D15*
%TO.P,positivo1,2,C*%
%TO.N,Net-(D3-K)*%
X149600000Y-144200000D03*
%TO.P,positivo1,3,A*%
%TO.N,unconnected-(positivo1-A-Pad3)*%
X149600000Y-149280000D03*
%TD*%
D10*
%TO.P,conectormotor1,1,Pin_1*%
%TO.N,Net-(conectormotor1-Pin_1)*%
X152075000Y-133450000D03*
D11*
%TO.P,conectormotor1,2,Pin_2*%
%TO.N,Net-(conectormotor1-Pin_2)*%
X152075000Y-130910000D03*
%TD*%
D17*
%TO.P,driver1,9,GND*%
%TO.N,GND*%
X137125000Y-136505000D03*
X137125000Y-137805000D03*
X137125000Y-139105000D03*
D18*
X137775000Y-137805000D03*
D17*
X138425000Y-136505000D03*
X138425000Y-137805000D03*
X138425000Y-139105000D03*
%TD*%
D10*
%TO.P,arrancador1,1,Pin_1*%
%TO.N,arrancador*%
X152100000Y-120075000D03*
D11*
%TO.P,arrancador1,2,Pin_2*%
%TO.N,GND*%
X152100000Y-122615000D03*
%TO.P,arrancador1,3,Pin_3*%
%TO.N,5v*%
X152100000Y-125155000D03*
%TD*%
D10*
%TO.P,servo1,1,Pin_1*%
%TO.N,servo1*%
X152100000Y-102560000D03*
D11*
%TO.P,servo1,2,Pin_2*%
%TO.N,5v*%
X152100000Y-105100000D03*
%TO.P,servo1,3,Pin_3*%
%TO.N,GND*%
X152100000Y-107640000D03*
%TD*%
D17*
%TO.P,driver2,9,GND*%
%TO.N,GND*%
X137125000Y-142195000D03*
X137125000Y-143495000D03*
X137125000Y-144795000D03*
D18*
X137775000Y-143495000D03*
D17*
X138425000Y-142195000D03*
X138425000Y-143495000D03*
X138425000Y-144795000D03*
%TD*%
D10*
%TO.P,conectormotor2,1,Pin_1*%
%TO.N,Net-(conectormotor2-Pin_1)*%
X151975000Y-139640000D03*
D11*
%TO.P,conectormotor2,2,Pin_2*%
%TO.N,Net-(conectormotor2-Pin_2)*%
X151975000Y-137100000D03*
%TD*%
D10*
%TO.P,voltajesensores2,1,Pin_1*%
%TO.N,5v*%
X126300000Y-144500000D03*
D11*
%TO.P,voltajesensores2,2,Pin_2*%
%TO.N,GND*%
X126300000Y-147040000D03*
%TD*%
D19*
%TO.P,D3,1,K*%
%TO.N,Net-(D3-K)*%
X145305000Y-154300000D03*
D20*
%TO.P,D3,2,A*%
%TO.N,24v*%
X135145000Y-154300000D03*
%TD*%
D21*
%TO.N,arrancador*%
X137584400Y-114096400D03*
%TO.N,BOOT*%
X129795500Y-100864000D03*
%TO.N,5v*%
X144770300Y-127032800D03*
X132420700Y-143204900D03*
%TO.N,Net-(conectormotor1-Pin_1)*%
X142502800Y-134773000D03*
%TO.N,Net-(conectormotor1-Pin_2)*%
X141645800Y-131911700D03*
%TO.N,EN*%
X149982900Y-116964600D03*
X148854700Y-118649900D03*
%TO.N,BT2*%
X150324400Y-114135700D03*
X149976900Y-100547800D03*
X150082100Y-117984800D03*
X143659300Y-99805000D03*
%TO.N,24v*%
X140799000Y-148112500D03*
%TO.N,sensor2*%
X127404400Y-105142600D03*
X127755300Y-113089500D03*
%TO.N,sensor5*%
X126518700Y-123327100D03*
X132246500Y-108933300D03*
%TO.N,sensor3*%
X128494100Y-115419100D03*
X127423500Y-111459600D03*
%TO.N,Net-(conectormotor2-Pin_1)*%
X141112400Y-140738000D03*
%TO.N,Net-(conectormotor2-Pin_2)*%
X139761500Y-140738000D03*
%TO.N,MA1*%
X129795500Y-106809500D03*
X132959300Y-138070300D03*
%TO.N,MA2*%
X132693300Y-109698300D03*
X133125900Y-136264800D03*
%TO.N,leds*%
X138937700Y-134812400D03*
X141550700Y-122932500D03*
X135398100Y-114615800D03*
X133505000Y-147353200D03*
%TO.N,sensor8*%
X130540100Y-114747700D03*
X130543900Y-116683100D03*
%TO.N,sensor1*%
X133409300Y-102990300D03*
X124733200Y-106178200D03*
%TO.N,sensor7*%
X130246000Y-127419100D03*
X131811300Y-110112300D03*
%TO.N,sensor6*%
X128513500Y-109653300D03*
X125929900Y-115914800D03*
X126377900Y-120662400D03*
X130202600Y-121417500D03*
%TO.N,servo1*%
X133409300Y-105975200D03*
%TO.N,servo2*%
X133409300Y-112851600D03*
%TO.N,Net-(D2-DIN)*%
X131817400Y-146725000D03*
X130344700Y-152775000D03*
%TO.N,3.3v*%
X132694900Y-107091000D03*
%TO.N,MB1*%
X150665800Y-115170000D03*
X136201300Y-147201000D03*
X139461500Y-113176500D03*
X150227400Y-140538100D03*
%TO.N,BT1*%
X149564100Y-127029600D03*
X141032200Y-149632000D03*
%TO.N,Net-(sensores1-Pin_2)*%
X130466400Y-115668400D03*
%TO.N,Net-(sensores1-Pin_3)*%
X130115800Y-118419100D03*
%TO.N,Net-(sensores1-Pin_9)*%
X130656700Y-135345100D03*
%TD*%
D22*
%TO.N,arrancador*%
X143563000Y-120075000D02*
X150948300Y-120075000D01*
X137584400Y-114096400D02*
X143563000Y-120075000D01*
X152100000Y-120075000D02*
X150948300Y-120075000D01*
%TO.N,BOOT*%
X129891500Y-100960000D02*
X129795500Y-100864000D01*
X148100000Y-100960000D02*
X129891500Y-100960000D01*
%TO.N,5v*%
X150948300Y-125155000D02*
X146648100Y-125155000D01*
X152100000Y-125155000D02*
X150948300Y-125155000D01*
X130995700Y-104540900D02*
X133076400Y-106621600D01*
X132195700Y-142979900D02*
X130675600Y-144500000D01*
X144770300Y-127110200D02*
X144770300Y-127032800D01*
X130675600Y-144500000D02*
X127451700Y-144500000D01*
X126951700Y-104625000D02*
X127035800Y-104540900D01*
X150700800Y-104852500D02*
X150948300Y-105100000D01*
X152100000Y-105100000D02*
X150948300Y-105100000D01*
X133076400Y-106621600D02*
X143956100Y-106621600D01*
X125800000Y-104625000D02*
X126951700Y-104625000D01*
X132195700Y-142979900D02*
X132195700Y-139684800D01*
X145725200Y-104852500D02*
X150700800Y-104852500D01*
X146648100Y-125155000D02*
X144770300Y-127032800D01*
X132195700Y-139684800D02*
X144770300Y-127110200D01*
X127035800Y-104540900D02*
X130995700Y-104540900D01*
X126300000Y-144500000D02*
X127451700Y-144500000D01*
X132195700Y-142979900D02*
X132420700Y-143204900D01*
X143956100Y-106621600D02*
X145725200Y-104852500D01*
%TO.N,Net-(conectormotor1-Pin_1)*%
X149600300Y-134773000D02*
X150923300Y-133450000D01*
X152075000Y-133450000D02*
X150923300Y-133450000D01*
X142502800Y-134773000D02*
X149600300Y-134773000D01*
%TO.N,Net-(conectormotor1-Pin_2)*%
X141645800Y-131911700D02*
X149921600Y-131911700D01*
X149921600Y-131911700D02*
X150923300Y-130910000D01*
X152075000Y-130910000D02*
X150923300Y-130910000D01*
%TO.N,EN*%
X148854700Y-118092800D02*
X148854700Y-118649900D01*
X149982900Y-116964600D02*
X148854700Y-118092800D01*
%TO.N,BT2*%
X150612000Y-114135700D02*
X151581700Y-115105400D01*
X150324400Y-114135700D02*
X150612000Y-114135700D01*
X153251700Y-115940300D02*
X153251700Y-116917100D01*
X149234100Y-99805000D02*
X143659300Y-99805000D01*
X149976900Y-100547800D02*
X149234100Y-99805000D01*
X153251700Y-116917100D02*
X152184000Y-117984800D01*
X152184000Y-117984800D02*
X150082100Y-117984800D01*
X152416800Y-115105400D02*
X153251700Y-115940300D01*
X151581700Y-115105400D02*
X152416800Y-115105400D01*
%TO.N,24v*%
X136013200Y-152898300D02*
X140799000Y-148112500D01*
X135145000Y-152898300D02*
X136013200Y-152898300D01*
X135145000Y-154300000D02*
X135145000Y-152898300D01*
%TO.N,sensor2*%
X129178600Y-106916800D02*
X127404400Y-105142600D01*
X127755300Y-113089500D02*
X129178600Y-111666200D01*
X129178600Y-111666200D02*
X129178600Y-106916800D01*
%TO.N,sensor5*%
X131209600Y-110361400D02*
X131484600Y-110636400D01*
X131484600Y-110636400D02*
X131484600Y-121009500D01*
X132246500Y-108933300D02*
X132139500Y-108933300D01*
X131484600Y-121009500D02*
X129167000Y-123327100D01*
X132139500Y-108933300D02*
X131209600Y-109863200D01*
X129167000Y-123327100D02*
X126518700Y-123327100D01*
X131209600Y-109863200D02*
X131209600Y-110361400D01*
%TO.N,sensor3*%
X127423500Y-111459600D02*
X127153600Y-111729500D01*
X127153600Y-111729500D02*
X127153600Y-114078600D01*
X127153600Y-114078600D02*
X128494100Y-115419100D01*
%TO.N,Net-(conectormotor2-Pin_1)*%
X151975000Y-139640000D02*
X150823300Y-139640000D01*
X142210400Y-139640000D02*
X141112400Y-140738000D01*
X150823300Y-139640000D02*
X142210400Y-139640000D01*
%TO.N,Net-(conectormotor2-Pin_2)*%
X143399500Y-137100000D02*
X139761500Y-140738000D01*
X151975000Y-137100000D02*
X143399500Y-137100000D01*
%TO.N,MA1*%
X132790400Y-112459000D02*
X133302000Y-111947400D01*
X133727700Y-137301900D02*
X133727700Y-130012500D01*
X133302000Y-109137900D02*
X130973600Y-106809500D01*
X130973600Y-106809500D02*
X129795500Y-106809500D01*
X132790400Y-129075200D02*
X132790400Y-112459000D01*
X133302000Y-111947400D02*
X133302000Y-109137900D01*
X133727700Y-130012500D02*
X132790400Y-129075200D01*
X132959300Y-138070300D02*
X133727700Y-137301900D01*
%TO.N,MA2*%
X133125900Y-136264800D02*
X132340200Y-135479100D01*
X132340200Y-110434300D02*
X132693300Y-110081200D01*
X132340200Y-135479100D02*
X132340200Y-110434300D01*
X132693300Y-110081200D02*
X132693300Y-109698300D01*
%TO.N,leds*%
X133505000Y-144388300D02*
X137755500Y-140137800D01*
X133505000Y-147353200D02*
X133505000Y-144388300D01*
X139376700Y-135251400D02*
X138937700Y-134812400D01*
X138869000Y-140137800D02*
X139376700Y-139630100D01*
X141550700Y-122932500D02*
X135398100Y-116779900D01*
X135398100Y-116779900D02*
X135398100Y-114615800D01*
X139376700Y-139630100D02*
X139376700Y-135251400D01*
X137755500Y-140137800D02*
X138869000Y-140137800D01*
%TO.N,sensor8*%
X131068200Y-116158800D02*
X130543900Y-116683100D01*
X130540100Y-114747700D02*
X131068200Y-115275800D01*
X131068200Y-115275800D02*
X131068200Y-116158800D01*
%TO.N,sensor1*%
X124648300Y-103639900D02*
X124648300Y-106093300D01*
X133409300Y-102990300D02*
X125297900Y-102990300D01*
X125297900Y-102990300D02*
X124648300Y-103639900D01*
X124648300Y-106093300D02*
X124733200Y-106178200D01*
%TO.N,sensor7*%
X131811300Y-110112300D02*
X131886300Y-110187300D01*
X131886300Y-110187300D02*
X131886300Y-125778800D01*
X131886300Y-125778800D02*
X130246000Y-127419100D01*
%TO.N,sensor6*%
X125929900Y-115914800D02*
X126251700Y-115593000D01*
X126251700Y-115593000D02*
X126251700Y-111767400D01*
X126251700Y-111767400D02*
X128365800Y-109653300D01*
X127133000Y-121417500D02*
X130202600Y-121417500D01*
X126377900Y-120662400D02*
X127133000Y-121417500D01*
X128365800Y-109653300D02*
X128513500Y-109653300D01*
%TO.N,servo1*%
X137072000Y-102312500D02*
X150700800Y-102312500D01*
X150700800Y-102312500D02*
X150948300Y-102560000D01*
X152100000Y-102560000D02*
X150948300Y-102560000D01*
X133409300Y-105975200D02*
X137072000Y-102312500D01*
%TO.N,servo2*%
X149871900Y-112436400D02*
X133824500Y-112436400D01*
X133824500Y-112436400D02*
X133409300Y-112851600D01*
X150948300Y-111360000D02*
X149871900Y-112436400D01*
X152100000Y-111360000D02*
X150948300Y-111360000D01*
%TO.N,Net-(D2-DIN)*%
X131817400Y-151302300D02*
X130344700Y-152775000D01*
X131817400Y-146725000D02*
X131817400Y-151302300D01*
%TO.N,3.3v*%
X148100000Y-111120000D02*
X146948300Y-111120000D01*
X148814100Y-110149800D02*
X149279900Y-109684000D01*
X133032200Y-107428300D02*
X132694900Y-107091000D01*
X146948300Y-111120000D02*
X146948300Y-110594400D01*
X149279900Y-108131100D02*
X148577100Y-107428300D01*
X147291000Y-110251700D02*
X148339800Y-110251700D01*
X148339800Y-110251700D02*
X148441700Y-110149800D01*
X149279900Y-109684000D02*
X149279900Y-108131100D01*
X148577100Y-107428300D02*
X133032200Y-107428300D01*
X146948300Y-110594400D02*
X147291000Y-110251700D01*
X148441700Y-110149800D02*
X148814100Y-110149800D01*
%TO.N,MB1*%
X150665800Y-115170000D02*
X141455000Y-115170000D01*
X136201300Y-147201000D02*
X143954900Y-147201000D01*
X143954900Y-147201000D02*
X150227400Y-140928500D01*
X150227400Y-140928500D02*
X150227400Y-140538100D01*
X141455000Y-115170000D02*
X139461500Y-113176500D01*
%TO.N,BT1*%
X153306200Y-130512100D02*
X149823700Y-127029600D01*
X141032200Y-149632000D02*
X142150800Y-149632000D01*
X142150800Y-149632000D02*
X150523500Y-141259300D01*
X149823700Y-127029600D02*
X149564100Y-127029600D01*
X150523500Y-141259300D02*
X152506300Y-141259300D01*
X152506300Y-141259300D02*
X153306200Y-140459400D01*
X153306200Y-140459400D02*
X153306200Y-130512100D01*
%TO.N,Net-(sensores1-Pin_2)*%
X129114800Y-117020000D02*
X130466400Y-115668400D01*
X125100000Y-117020000D02*
X129114800Y-117020000D01*
%TO.N,Net-(sensores1-Pin_3)*%
X128974900Y-119560000D02*
X130115800Y-118419100D01*
X125100000Y-119560000D02*
X128974900Y-119560000D01*
%TO.N,Net-(sensores1-Pin_9)*%
X126251700Y-134800000D02*
X126796800Y-135345100D01*
X126796800Y-135345100D02*
X130656700Y-135345100D01*
X125100000Y-134800000D02*
X126251700Y-134800000D01*
%TD*%
%TA.AperFunction,Conductor*%
%TO.N,GND*%
G36*
X131205134Y-122240714D02*
G01*
X131261067Y-122282586D01*
X131285484Y-122348050D01*
X131285800Y-122356896D01*
X131285800Y-125478702D01*
X131266115Y-125545741D01*
X131249481Y-125566383D01*
X130227465Y-126588398D01*
X130166142Y-126621883D01*
X130153668Y-126623937D01*
X130066750Y-126633730D01*
X129896478Y-126693310D01*
X129743737Y-126789284D01*
X129616184Y-126916837D01*
X129520211Y-127069576D01*
X129460631Y-127239845D01*
X129460630Y-127239850D01*
X129440435Y-127419096D01*
X129440435Y-127419103D01*
X129460630Y-127598349D01*
X129460631Y-127598354D01*
X129520211Y-127768623D01*
X129616184Y-127921362D01*
X129743738Y-128048916D01*
X129896478Y-128144889D01*
X130066745Y-128204468D01*
X130066750Y-128204469D01*
X130245996Y-128224665D01*
X130246000Y-128224665D01*
X130246004Y-128224665D01*
X130425249Y-128204469D01*
X130425252Y-128204468D01*
X130425255Y-128204468D01*
X130595522Y-128144889D01*
X130748262Y-128048916D01*
X130875816Y-127921362D01*
X130971789Y-127768622D01*
X131031368Y-127598355D01*
X131041161Y-127511429D01*
X131068226Y-127447018D01*
X131076690Y-127437643D01*
X131528020Y-126986314D01*
X131589342Y-126952830D01*
X131659034Y-126957814D01*
X131714967Y-126999686D01*
X131739384Y-127065150D01*
X131739700Y-127073996D01*
X131739700Y-135392430D01*
X131739699Y-135392448D01*
X131739699Y-135558154D01*
X131739698Y-135558154D01*
X131739756Y-135558369D01*
X131780623Y-135710885D01*
X131789070Y-135725515D01*
X131789071Y-135725517D01*
X131859677Y-135847812D01*
X131859681Y-135847817D01*
X131978549Y-135966685D01*
X131978555Y-135966690D01*
X132295198Y-136283333D01*
X132328683Y-136344656D01*
X132330737Y-136357130D01*
X132340530Y-136444049D01*
X132400110Y-136614321D01*
X132455872Y-136703065D01*
X132496084Y-136767062D01*
X132623638Y-136894616D01*
X132776378Y-136990589D01*
X132896345Y-137032567D01*
X132953121Y-137073289D01*
X132978869Y-137138241D01*
X132965413Y-137206803D01*
X132943091Y-137237271D01*
X132940784Y-137239579D01*
X132879468Y-137273077D01*
X132866968Y-137275137D01*
X132780050Y-137284930D01*
X132609778Y-137344510D01*
X132457037Y-137440484D01*
X132329484Y-137568037D01*
X132233511Y-137720776D01*
X132173931Y-137891045D01*
X132173930Y-137891050D01*
X132153735Y-138070296D01*
X132153735Y-138070303D01*
X132173930Y-138249549D01*
X132173931Y-138249554D01*
X132233511Y-138419823D01*
X132326735Y-138568188D01*
X132345735Y-138635425D01*
X132325367Y-138702260D01*
X132309422Y-138721841D01*
X131826986Y-139204278D01*
X131715181Y-139316082D01*
X131715177Y-139316087D01*
X131667704Y-139398315D01*
X131667704Y-139398316D01*
X131636123Y-139453014D01*
X131636123Y-139453015D01*
X131595199Y-139605743D01*
X131595199Y-139605745D01*
X131595199Y-139773846D01*
X131595200Y-139773859D01*
X131595200Y-142679803D01*
X131575515Y-142746842D01*
X131558881Y-142767484D01*
X130463184Y-143863181D01*
X130401861Y-143896666D01*
X130375503Y-143899500D01*
X127774499Y-143899500D01*
X127707460Y-143879815D01*
X127661705Y-143827011D01*
X127650499Y-143775500D01*
X127650499Y-143602129D01*
X127650498Y-143602123D01*
X127650497Y-143602116D01*
X127644091Y-143542517D01*
X127593796Y-143407669D01*
X127593795Y-143407668D01*
X127593793Y-143407664D01*
X127507547Y-143292455D01*
X127507544Y-143292452D01*
X127392335Y-143206206D01*
X127392328Y-143206202D01*
X127257482Y-143155908D01*
X127257483Y-143155908D01*
X127197883Y-143149501D01*
X127197881Y-143149500D01*
X127197873Y-143149500D01*
X127197864Y-143149500D01*
X125402129Y-143149500D01*
X125402123Y-143149501D01*
X125342516Y-143155908D01*
X125207671Y-143206202D01*
X125207664Y-143206206D01*
X125092455Y-143292452D01*
X125092452Y-143292455D01*
X125006206Y-143407664D01*
X125006202Y-143407671D01*
X124955908Y-143542517D01*
X124954159Y-143558791D01*
X124949501Y-143602123D01*
X124949500Y-143602135D01*
X124949500Y-145397870D01*
X124949501Y-145397876D01*
X124955908Y-145457483D01*
X125006202Y-145592328D01*
X125006206Y-145592335D01*
X125092452Y-145707544D01*
X125092455Y-145707547D01*
X125207664Y-145793793D01*
X125207671Y-145793797D01*
X125342517Y-145844091D01*
X125342516Y-145844091D01*
X125349444Y-145844835D01*
X125402127Y-145850500D01*
X127197872Y-145850499D01*
X127257483Y-145844091D01*
X127392331Y-145793796D01*
X127507546Y-145707546D01*
X127593796Y-145592331D01*
X127644091Y-145457483D01*
X127650500Y-145397873D01*
X127650500Y-145224500D01*
X127670185Y-145157461D01*
X127722989Y-145111706D01*
X127774500Y-145100500D01*
X130588931Y-145100500D01*
X130588947Y-145100501D01*
X130596543Y-145100501D01*
X130754654Y-145100501D01*
X130754657Y-145100501D01*
X130907385Y-145059577D01*
X130957504Y-145030639D01*
X131044316Y-144980520D01*
X131156120Y-144868716D01*
X131156120Y-144868714D01*
X131166328Y-144858507D01*
X131166330Y-144858504D01*
X132033100Y-143991733D01*
X132094421Y-143958250D01*
X132161731Y-143962374D01*
X132241445Y-143990268D01*
X132241449Y-143990268D01*
X132241453Y-143990269D01*
X132420696Y-144010465D01*
X132420700Y-144010465D01*
X132420704Y-144010465D01*
X132599949Y-143990269D01*
X132599952Y-143990268D01*
X132599955Y-143990268D01*
X132770222Y-143930689D01*
X132826417Y-143895379D01*
X132893651Y-143876379D01*
X132960486Y-143896746D01*
X133005701Y-143950013D01*
X133014940Y-144019269D01*
X132999776Y-144062371D01*
X132974361Y-144106393D01*
X132974359Y-144106396D01*
X132945425Y-144156509D01*
X132945424Y-144156510D01*
X132933771Y-144200000D01*
X132904499Y-144309243D01*
X132904499Y-144309245D01*
X132904499Y-144477346D01*
X132904500Y-144477359D01*
X132904500Y-146770787D01*
X132884815Y-146837826D01*
X132877450Y-146848096D01*
X132875184Y-146850937D01*
X132839606Y-146907558D01*
X132787271Y-146953849D01*
X132718217Y-146964496D01*
X132654369Y-146936120D01*
X132615998Y-146877730D01*
X132611393Y-146827701D01*
X132622965Y-146725002D01*
X132622965Y-146724996D01*
X132602769Y-146545750D01*
X132602768Y-146545745D01*
X132543188Y-146375476D01*
X132447215Y-146222737D01*
X132319662Y-146095184D01*
X132166923Y-145999211D01*
X131996654Y-145939631D01*
X131996649Y-145939630D01*
X131817404Y-145919435D01*
X131817396Y-145919435D01*
X131638150Y-145939630D01*
X131638145Y-145939631D01*
X131467876Y-145999211D01*
X131315137Y-146095184D01*
X131187584Y-146222737D01*
X131091611Y-146375476D01*
X131032031Y-146545745D01*
X131032030Y-146545750D01*
X131011835Y-146724996D01*
X131011835Y-146725003D01*
X131032030Y-146904249D01*
X131032031Y-146904254D01*
X131091611Y-147074523D01*
X131151915Y-147170496D01*
X131171084Y-147201003D01*
X131187585Y-147227263D01*
X131189845Y-147230097D01*
X131190734Y-147232275D01*
X131191289Y-147233158D01*
X131191134Y-147233255D01*
X131216255Y-147294783D01*
X131216900Y-147307412D01*
X131216900Y-151002202D01*
X131197215Y-151069241D01*
X131180581Y-151089883D01*
X130326165Y-151944298D01*
X130264842Y-151977783D01*
X130252368Y-151979837D01*
X130165450Y-151989630D01*
X129995178Y-152049210D01*
X129842437Y-152145184D01*
X129714884Y-152272737D01*
X129618911Y-152425476D01*
X129559331Y-152595745D01*
X129559330Y-152595750D01*
X129539135Y-152774996D01*
X129539135Y-152775003D01*
X129559330Y-152954249D01*
X129559331Y-152954254D01*
X129618911Y-153124523D01*
X129671157Y-153207671D01*
X129714884Y-153277262D01*
X129842438Y-153404816D01*
X129995178Y-153500789D01*
X130140245Y-153551550D01*
X130165445Y-153560368D01*
X130165450Y-153560369D01*
X130344696Y-153580565D01*
X130344700Y-153580565D01*
X130344704Y-153580565D01*
X130523949Y-153560369D01*
X130523952Y-153560368D01*
X130523955Y-153560368D01*
X130694222Y-153500789D01*
X130846962Y-153404816D01*
X130974516Y-153277262D01*
X131070489Y-153124522D01*
X131130068Y-152954255D01*
X131139861Y-152867329D01*
X131166926Y-152802918D01*
X131175390Y-152793543D01*
X132186113Y-151782821D01*
X132186116Y-151782820D01*
X132297920Y-151671016D01*
X132348039Y-151584204D01*
X132376977Y-151534085D01*
X132417900Y-151381358D01*
X132417900Y-151223243D01*
X132417900Y-147307412D01*
X132437585Y-147240373D01*
X132444955Y-147230097D01*
X132447209Y-147227268D01*
X132447216Y-147227262D01*
X132482792Y-147170642D01*
X132535126Y-147124351D01*
X132604180Y-147113702D01*
X132668028Y-147142077D01*
X132706400Y-147200467D01*
X132711006Y-147250497D01*
X132699435Y-147353196D01*
X132699435Y-147353203D01*
X132719630Y-147532449D01*
X132719631Y-147532454D01*
X132779211Y-147702723D01*
X132852388Y-147819182D01*
X132875184Y-147855462D01*
X133002738Y-147983016D01*
X133056177Y-148016594D01*
X133147515Y-148073986D01*
X133155478Y-148078989D01*
X133251236Y-148112496D01*
X133325745Y-148138568D01*
X133325750Y-148138569D01*
X133504996Y-148158765D01*
X133505000Y-148158765D01*
X133505004Y-148158765D01*
X133684249Y-148138569D01*
X133684252Y-148138568D01*
X133684255Y-148138568D01*
X133854522Y-148078989D01*
X134007262Y-147983016D01*
X134134816Y-147855462D01*
X134230789Y-147702722D01*
X134290368Y-147532455D01*
X134307517Y-147380254D01*
X134310565Y-147353203D01*
X134310565Y-147353196D01*
X134290369Y-147173950D01*
X134290368Y-147173945D01*
X134255578Y-147074522D01*
X134230789Y-147003678D01*
X134134816Y-146850938D01*
X134134814Y-146850936D01*
X134134813Y-146850934D01*
X134132550Y-146848096D01*
X134131659Y-146845915D01*
X134131111Y-146845042D01*
X134131264Y-146844945D01*
X134106144Y-146783409D01*
X134105500Y-146770787D01*
X134105500Y-144688397D01*
X134125185Y-144621358D01*
X134141819Y-144600716D01*
X137967917Y-140774619D01*
X138029240Y-140741134D01*
X138055598Y-140738300D01*
X138782331Y-140738300D01*
X138782347Y-140738301D01*
X138845156Y-140738301D01*
X138912195Y-140757986D01*
X138957950Y-140810790D01*
X138968376Y-140848419D01*
X138976130Y-140917249D01*
X138976131Y-140917254D01*
X139035711Y-141087523D01*
X139086049Y-141167635D01*
X139131684Y-141240262D01*
X139259238Y-141367816D01*
X139335071Y-141415465D01*
X139409641Y-141462321D01*
X139411978Y-141463789D01*
X139582245Y-141523368D01*
X139582250Y-141523369D01*
X139761496Y-141543565D01*
X139761500Y-141543565D01*
X139761504Y-141543565D01*
X139940749Y-141523369D01*
X139940752Y-141523368D01*
X139940755Y-141523368D01*
X140111022Y-141463789D01*
X140263762Y-141367816D01*
X140349269Y-141282309D01*
X140410592Y-141248824D01*
X140480284Y-141253808D01*
X140524631Y-141282309D01*
X140610138Y-141367816D01*
X140685971Y-141415465D01*
X140760541Y-141462321D01*
X140762878Y-141463789D01*
X140933145Y-141523368D01*
X140933150Y-141523369D01*
X141112396Y-141543565D01*
X141112400Y-141543565D01*
X141112404Y-141543565D01*
X141291649Y-141523369D01*
X141291652Y-141523368D01*
X141291655Y-141523368D01*
X141461922Y-141463789D01*
X141614662Y-141367816D01*
X141742216Y-141240262D01*
X141838189Y-141087522D01*
X141897768Y-140917255D01*
X141907561Y-140830329D01*
X141934626Y-140765918D01*
X141943090Y-140756543D01*
X142422816Y-140276819D01*
X142484139Y-140243334D01*
X142510497Y-140240500D01*
X149316610Y-140240500D01*
X149383649Y-140260185D01*
X149429404Y-140312989D01*
X149439830Y-140378383D01*
X149421835Y-140538096D01*
X149421835Y-140538103D01*
X149442030Y-140717346D01*
X149442032Y-140717357D01*
X149454474Y-140752912D01*
X149458036Y-140822691D01*
X149425114Y-140881548D01*
X143742484Y-146564181D01*
X143681161Y-146597666D01*
X143654803Y-146600500D01*
X136783712Y-146600500D01*
X136716673Y-146580815D01*
X136706397Y-146573445D01*
X136703563Y-146571185D01*
X136703562Y-146571184D01*
X136646796Y-146535515D01*
X136550823Y-146475211D01*
X136380554Y-146415631D01*
X136380549Y-146415630D01*
X136201304Y-146395435D01*
X136201296Y-146395435D01*
X136022050Y-146415630D01*
X136022045Y-146415631D01*
X135851776Y-146475211D01*
X135699037Y-146571184D01*
X135571484Y-146698737D01*
X135475511Y-146851476D01*
X135415931Y-147021745D01*
X135415930Y-147021750D01*
X135395735Y-147200996D01*
X135395735Y-147201003D01*
X135415930Y-147380249D01*
X135415931Y-147380254D01*
X135475511Y-147550523D01*
X135571145Y-147702722D01*
X135571484Y-147703262D01*
X135699038Y-147830816D01*
X135851778Y-147926789D01*
X136012463Y-147983015D01*
X136022045Y-147986368D01*
X136022050Y-147986369D01*
X136201296Y-148006565D01*
X136201300Y-148006565D01*
X136201304Y-148006565D01*
X136380549Y-147986369D01*
X136380552Y-147986368D01*
X136380555Y-147986368D01*
X136550822Y-147926789D01*
X136703562Y-147830816D01*
X136703567Y-147830810D01*
X136706397Y-147828555D01*
X136708575Y-147827665D01*
X136709458Y-147827111D01*
X136709555Y-147827265D01*
X136771083Y-147802145D01*
X136783712Y-147801500D01*
X139889720Y-147801500D01*
X139956759Y-147821185D01*
X140002514Y-147873989D01*
X140012940Y-147939385D01*
X140003837Y-148020169D01*
X139976770Y-148084583D01*
X139968298Y-148093965D01*
X135800784Y-152261481D01*
X135739461Y-152294966D01*
X135713103Y-152297800D01*
X135065943Y-152297800D01*
X134913216Y-152338723D01*
X134913209Y-152338726D01*
X134776290Y-152417775D01*
X134776282Y-152417781D01*
X134664481Y-152529582D01*
X134664475Y-152529590D01*
X134585426Y-152666509D01*
X134585421Y-152666520D01*
X134561192Y-152756941D01*
X134524827Y-152816601D01*
X134488872Y-152839407D01*
X134416138Y-152869534D01*
X134201346Y-153001160D01*
X134201343Y-153001161D01*
X134009776Y-153164776D01*
X133846161Y-153356343D01*
X133846160Y-153356346D01*
X133714533Y-153571140D01*
X133618126Y-153803889D01*
X133559317Y-154048848D01*
X133539551Y-154300000D01*
X133559317Y-154551151D01*
X133618126Y-154796110D01*
X133714533Y-155028859D01*
X133846160Y-155243653D01*
X133846161Y-155243655D01*
X133846162Y-155243657D01*
X133846164Y-155243659D01*
X133975395Y-155394970D01*
X134003966Y-155458730D01*
X133993529Y-155527815D01*
X133947398Y-155580291D01*
X133881105Y-155599500D01*
X127876576Y-155599500D01*
X127809537Y-155579815D01*
X127763782Y-155527011D01*
X127753838Y-155457853D01*
X127782863Y-155394297D01*
X127783348Y-155393741D01*
X127831799Y-155338493D01*
X127889273Y-155272957D01*
X128053172Y-155027665D01*
X128183652Y-154763077D01*
X128278481Y-154483722D01*
X128336034Y-154194380D01*
X128345573Y-154048848D01*
X128355329Y-153900007D01*
X128355329Y-153899992D01*
X128336035Y-153605636D01*
X128336034Y-153605620D01*
X128278481Y-153316278D01*
X128183652Y-153036923D01*
X128053172Y-152772336D01*
X128042885Y-152756941D01*
X127982468Y-152666520D01*
X127889273Y-152527043D01*
X127800201Y-152425476D01*
X127694758Y-152305241D01*
X127472955Y-152110725D01*
X127227667Y-151946829D01*
X127227660Y-151946825D01*
X126963080Y-151816349D01*
X126683730Y-151721521D01*
X126683724Y-151721519D01*
X126683722Y-151721519D01*
X126394380Y-151663966D01*
X126394373Y-151663965D01*
X126394363Y-151663964D01*
X126100007Y-151644671D01*
X126099993Y-151644671D01*
X125805636Y-151663964D01*
X125805624Y-151663965D01*
X125805620Y-151663966D01*
X125805612Y-151663967D01*
X125805609Y-151663968D01*
X125516283Y-151721518D01*
X125516269Y-151721521D01*
X125236919Y-151816349D01*
X124972334Y-151946828D01*
X124727041Y-152110728D01*
X124572187Y-152246531D01*
X124508805Y-152275934D01*
X124439588Y-152266402D01*
X124386513Y-152220962D01*
X124366430Y-152154041D01*
X124366428Y-152153713D01*
X124349300Y-138674852D01*
X124368899Y-138607789D01*
X124421645Y-138561967D01*
X124490791Y-138551936D01*
X124525703Y-138562313D01*
X124636337Y-138613903D01*
X124864592Y-138675063D01*
X125052918Y-138691539D01*
X125099999Y-138695659D01*
X125100000Y-138695659D01*
X125100001Y-138695659D01*
X125139234Y-138692226D01*
X125335408Y-138675063D01*
X125563663Y-138613903D01*
X125777830Y-138514035D01*
X125971401Y-138378495D01*
X126138495Y-138211401D01*
X126274035Y-138017830D01*
X126373903Y-137803663D01*
X126435063Y-137575408D01*
X126455659Y-137340000D01*
X126435063Y-137104592D01*
X126373903Y-136876337D01*
X126274035Y-136662171D01*
X126244144Y-136619481D01*
X126138494Y-136468597D01*
X125971402Y-136301506D01*
X125971396Y-136301501D01*
X125785842Y-136171575D01*
X125742217Y-136116998D01*
X125735023Y-136047500D01*
X125766546Y-135985145D01*
X125785842Y-135968425D01*
X125876886Y-135904675D01*
X125971401Y-135838495D01*
X126118502Y-135691393D01*
X126179822Y-135657911D01*
X126249513Y-135662895D01*
X126293861Y-135691396D01*
X126311939Y-135709474D01*
X126311949Y-135709485D01*
X126316279Y-135713815D01*
X126316280Y-135713816D01*
X126428084Y-135825620D01*
X126502112Y-135868359D01*
X126514895Y-135875739D01*
X126514897Y-135875741D01*
X126552951Y-135897711D01*
X126565015Y-135904677D01*
X126717743Y-135945601D01*
X126717746Y-135945601D01*
X126883453Y-135945601D01*
X126883469Y-135945600D01*
X130074288Y-135945600D01*
X130141327Y-135965285D01*
X130151603Y-135972655D01*
X130154436Y-135974914D01*
X130154438Y-135974916D01*
X130307178Y-136070889D01*
X130438950Y-136116998D01*
X130477445Y-136130468D01*
X130477450Y-136130469D01*
X130656696Y-136150665D01*
X130656700Y-136150665D01*
X130656704Y-136150665D01*
X130835949Y-136130469D01*
X130835952Y-136130468D01*
X130835955Y-136130468D01*
X131006222Y-136070889D01*
X131158962Y-135974916D01*
X131286516Y-135847362D01*
X131382489Y-135694622D01*
X131442068Y-135524355D01*
X131451323Y-135442215D01*
X131462265Y-135345103D01*
X131462265Y-135345096D01*
X131442069Y-135165850D01*
X131442068Y-135165845D01*
X131430053Y-135131507D01*
X131382489Y-134995578D01*
X131380023Y-134991654D01*
X131337827Y-134924499D01*
X131286516Y-134842838D01*
X131158962Y-134715284D01*
X131147817Y-134708281D01*
X131006223Y-134619311D01*
X130835954Y-134559731D01*
X130835949Y-134559730D01*
X130656704Y-134539535D01*
X130656696Y-134539535D01*
X130477450Y-134559730D01*
X130477445Y-134559731D01*
X130307176Y-134619311D01*
X130154436Y-134715285D01*
X130151603Y-134717545D01*
X130149424Y-134718434D01*
X130148542Y-134718989D01*
X130148444Y-134718834D01*
X130086917Y-134743955D01*
X130074288Y-134744600D01*
X127096897Y-134744600D01*
X127029858Y-134724915D01*
X127009216Y-134708281D01*
X126739290Y-134438355D01*
X126739288Y-134438352D01*
X126620417Y-134319481D01*
X126620409Y-134319475D01*
X126504963Y-134252823D01*
X126504962Y-134252822D01*
X126489866Y-134244107D01*
X126483486Y-134240423D01*
X126362994Y-134208137D01*
X126303334Y-134171771D01*
X126282708Y-134140768D01*
X126274038Y-134122176D01*
X126274034Y-134122169D01*
X126138494Y-133928597D01*
X125971402Y-133761506D01*
X125971396Y-133761501D01*
X125785842Y-133631575D01*
X125742217Y-133576998D01*
X125735023Y-133507500D01*
X125766546Y-133445145D01*
X125785842Y-133428425D01*
X125808026Y-133412891D01*
X125971401Y-133298495D01*
X126138495Y-133131401D01*
X126274035Y-132937830D01*
X126373903Y-132723663D01*
X126435063Y-132495408D01*
X126455659Y-132260000D01*
X126435063Y-132024592D01*
X126373903Y-131796337D01*
X126274035Y-131582171D01*
X126138495Y-131388599D01*
X126138494Y-131388597D01*
X125971402Y-131221506D01*
X125971396Y-131221501D01*
X125785842Y-131091575D01*
X125742217Y-131036998D01*
X125735023Y-130967500D01*
X125766546Y-130905145D01*
X125785842Y-130888425D01*
X125860661Y-130836036D01*
X125971401Y-130758495D01*
X126138495Y-130591401D01*
X126274035Y-130397830D01*
X126373903Y-130183663D01*
X126435063Y-129955408D01*
X126455659Y-129720000D01*
X126435063Y-129484592D01*
X126373903Y-129256337D01*
X126274035Y-129042171D01*
X126148428Y-128862784D01*
X126138494Y-128848597D01*
X125971402Y-128681506D01*
X125971396Y-128681501D01*
X125785842Y-128551575D01*
X125742217Y-128496998D01*
X125735023Y-128427500D01*
X125766546Y-128365145D01*
X125785842Y-128348425D01*
X125808026Y-128332891D01*
X125971401Y-128218495D01*
X126138495Y-128051401D01*
X126274035Y-127857830D01*
X126373903Y-127643663D01*
X126435063Y-127415408D01*
X126455659Y-127180000D01*
X126435063Y-126944592D01*
X126373903Y-126716337D01*
X126274035Y-126502171D01*
X126222733Y-126428903D01*
X126138494Y-126308597D01*
X125971402Y-126141506D01*
X125971396Y-126141501D01*
X125785842Y-126011575D01*
X125742217Y-125956998D01*
X125735023Y-125887500D01*
X125766546Y-125825145D01*
X125785842Y-125808425D01*
X125857379Y-125758334D01*
X125971401Y-125678495D01*
X126138495Y-125511401D01*
X126274035Y-125317830D01*
X126373903Y-125103663D01*
X126435063Y-124875408D01*
X126455659Y-124640000D01*
X126435063Y-124404592D01*
X126404026Y-124288758D01*
X126405689Y-124218908D01*
X126444852Y-124161046D01*
X126509081Y-124133542D01*
X126512981Y-124133309D01*
X126518698Y-124132664D01*
X126518700Y-124132665D01*
X126611667Y-124122190D01*
X126697949Y-124112469D01*
X126697952Y-124112468D01*
X126697955Y-124112468D01*
X126868222Y-124052889D01*
X127020962Y-123956916D01*
X127020967Y-123956910D01*
X127023797Y-123954655D01*
X127025975Y-123953765D01*
X127026858Y-123953211D01*
X127026955Y-123953365D01*
X127088483Y-123928245D01*
X127101112Y-123927600D01*
X129080331Y-123927600D01*
X129080347Y-123927601D01*
X129087943Y-123927601D01*
X129246054Y-123927601D01*
X129246057Y-123927601D01*
X129398785Y-123886677D01*
X129448904Y-123857739D01*
X129535716Y-123807620D01*
X129647520Y-123695816D01*
X129647520Y-123695814D01*
X129657728Y-123685607D01*
X129657729Y-123685604D01*
X131074120Y-122269213D01*
X131135442Y-122235730D01*
X131205134Y-122240714D01*
G37*
%TD.AperFunction*%
%TA.AperFunction,Conductor*%
G36*
X153296898Y-141420449D02*
G01*
X153352831Y-141462321D01*
X153377248Y-141527785D01*
X153377564Y-141536405D01*
X153384527Y-145365274D01*
X153364964Y-145432350D01*
X153312243Y-145478201D01*
X153260527Y-145489500D01*
X151802129Y-145489500D01*
X151802123Y-145489501D01*
X151742516Y-145495908D01*
X151607671Y-145546202D01*
X151607664Y-145546206D01*
X151492455Y-145632452D01*
X151492452Y-145632455D01*
X151406206Y-145747664D01*
X151406202Y-145747671D01*
X151355908Y-145882517D01*
X151349768Y-145939630D01*
X151349501Y-145942123D01*
X151349500Y-145942135D01*
X151349500Y-147537870D01*
X151349501Y-147537876D01*
X151355908Y-147597483D01*
X151406202Y-147732328D01*
X151406206Y-147732335D01*
X151492452Y-147847544D01*
X151492455Y-147847547D01*
X151607664Y-147933793D01*
X151607671Y-147933797D01*
X151632740Y-147943147D01*
X151742517Y-147984091D01*
X151796157Y-147989858D01*
X151860703Y-148016594D01*
X151900552Y-148073986D01*
X151903047Y-148143811D01*
X151867395Y-148203900D01*
X151854022Y-148214721D01*
X151760856Y-148279956D01*
X151599954Y-148440858D01*
X151469432Y-148627265D01*
X151469431Y-148627267D01*
X151373261Y-148833502D01*
X151373258Y-148833511D01*
X151314366Y-149053302D01*
X151314364Y-149053313D01*
X151294532Y-149279998D01*
X151294532Y-149280001D01*
X151314364Y-149506686D01*
X151314366Y-149506697D01*
X151373258Y-149726488D01*
X151373261Y-149726497D01*
X151469431Y-149932732D01*
X151469432Y-149932734D01*
X151599954Y-150119141D01*
X151760858Y-150280045D01*
X151760861Y-150280047D01*
X151947266Y-150410568D01*
X152153504Y-150506739D01*
X152373308Y-150565635D01*
X152535230Y-150579801D01*
X152599998Y-150585468D01*
X152600000Y-150585468D01*
X152600002Y-150585468D01*
X152656673Y-150580509D01*
X152826692Y-150565635D01*
X153046496Y-150506739D01*
X153217530Y-150426983D01*
X153286606Y-150416492D01*
X153350390Y-150445011D01*
X153388630Y-150503488D01*
X153393934Y-150539141D01*
X153399240Y-153457465D01*
X153379677Y-153524540D01*
X153326956Y-153570391D01*
X153257816Y-153580460D01*
X153194208Y-153551550D01*
X153173665Y-153528813D01*
X153103493Y-153428596D01*
X152936402Y-153261506D01*
X152936395Y-153261501D01*
X152929681Y-153256800D01*
X152859518Y-153207671D01*
X152742834Y-153125967D01*
X152742830Y-153125965D01*
X152739733Y-153124521D01*
X152528663Y-153026097D01*
X152528659Y-153026096D01*
X152528655Y-153026094D01*
X152300413Y-152964938D01*
X152300403Y-152964936D01*
X152065001Y-152944341D01*
X152064999Y-152944341D01*
X151829596Y-152964936D01*
X151829586Y-152964938D01*
X151601344Y-153026094D01*
X151601335Y-153026098D01*
X151387171Y-153125964D01*
X151387169Y-153125965D01*
X151193600Y-153261503D01*
X151071673Y-153383430D01*
X151010350Y-153416914D01*
X150940658Y-153411930D01*
X150884725Y-153370058D01*
X150867810Y-153339081D01*
X150818797Y-153207671D01*
X150818793Y-153207664D01*
X150732547Y-153092455D01*
X150732544Y-153092452D01*
X150617335Y-153006206D01*
X150617328Y-153006202D01*
X150482482Y-152955908D01*
X150482483Y-152955908D01*
X150422883Y-152949501D01*
X150422881Y-152949500D01*
X150422873Y-152949500D01*
X150422864Y-152949500D01*
X148627129Y-152949500D01*
X148627123Y-152949501D01*
X148567516Y-152955908D01*
X148432671Y-153006202D01*
X148432664Y-153006206D01*
X148317455Y-153092452D01*
X148317452Y-153092455D01*
X148231206Y-153207664D01*
X148231202Y-153207671D01*
X148180908Y-153342517D01*
X148174501Y-153402116D01*
X148174500Y-153402135D01*
X148174500Y-155197870D01*
X148174501Y-155197876D01*
X148180908Y-155257483D01*
X148231202Y-155392328D01*
X148231206Y-155392334D01*
X148237835Y-155401190D01*
X148262252Y-155466654D01*
X148247400Y-155534927D01*
X148197995Y-155584332D01*
X148138568Y-155599500D01*
X147027244Y-155599500D01*
X146960205Y-155579815D01*
X146914450Y-155527011D01*
X146903954Y-155462247D01*
X146905500Y-155447873D01*
X146905499Y-153152128D01*
X146899091Y-153092517D01*
X146878354Y-153036919D01*
X146848797Y-152957671D01*
X146848793Y-152957664D01*
X146762547Y-152842455D01*
X146762544Y-152842452D01*
X146647335Y-152756206D01*
X146647328Y-152756202D01*
X146512482Y-152705908D01*
X146512483Y-152705908D01*
X146452883Y-152699501D01*
X146452881Y-152699500D01*
X146452873Y-152699500D01*
X146452864Y-152699500D01*
X144157129Y-152699500D01*
X144157123Y-152699501D01*
X144097516Y-152705908D01*
X143962671Y-152756202D01*
X143962664Y-152756206D01*
X143847455Y-152842452D01*
X143847452Y-152842455D01*
X143761206Y-152957664D01*
X143761202Y-152957671D01*
X143710908Y-153092517D01*
X143704501Y-153152116D01*
X143704501Y-153152123D01*
X143704500Y-153152135D01*
X143704500Y-155447870D01*
X143704501Y-155447878D01*
X143706046Y-155462248D01*
X143693639Y-155531007D01*
X143646027Y-155582143D01*
X143582756Y-155599500D01*
X136408895Y-155599500D01*
X136341856Y-155579815D01*
X136296101Y-155527011D01*
X136286157Y-155457853D01*
X136314604Y-155394970D01*
X136443836Y-155243659D01*
X136575466Y-155028859D01*
X136671873Y-154796111D01*
X136730683Y-154551148D01*
X136750449Y-154300000D01*
X136730683Y-154048852D01*
X136671873Y-153803889D01*
X136598353Y-153626395D01*
X136575466Y-153571140D01*
X136479926Y-153415234D01*
X136461681Y-153347788D01*
X136482797Y-153281186D01*
X136497986Y-153262748D01*
X136503925Y-153256810D01*
X136503929Y-153256805D01*
X140034651Y-149726082D01*
X140095972Y-149692599D01*
X140165664Y-149697583D01*
X140221597Y-149739455D01*
X140245550Y-149799882D01*
X140246830Y-149811249D01*
X140246831Y-149811254D01*
X140306411Y-149981523D01*
X140392882Y-150119139D01*
X140402384Y-150134262D01*
X140529938Y-150261816D01*
X140682678Y-150357789D01*
X140833509Y-150410567D01*
X140852945Y-150417368D01*
X140852950Y-150417369D01*
X141032196Y-150437565D01*
X141032200Y-150437565D01*
X141032204Y-150437565D01*
X141211449Y-150417369D01*
X141211452Y-150417368D01*
X141211455Y-150417368D01*
X141381722Y-150357789D01*
X141534462Y-150261816D01*
X141534467Y-150261810D01*
X141537297Y-150259555D01*
X141539475Y-150258665D01*
X141540358Y-150258111D01*
X141540455Y-150258265D01*
X141601983Y-150233145D01*
X141614612Y-150232500D01*
X142064131Y-150232500D01*
X142064147Y-150232501D01*
X142071743Y-150232501D01*
X142229854Y-150232501D01*
X142229857Y-150232501D01*
X142382585Y-150191577D01*
X142432704Y-150162639D01*
X142519516Y-150112520D01*
X142631320Y-150000716D01*
X142631320Y-150000714D01*
X142641528Y-149990507D01*
X142641530Y-149990504D01*
X148139459Y-144492574D01*
X148200780Y-144459091D01*
X148270472Y-144464075D01*
X148326405Y-144505947D01*
X148346913Y-144548164D01*
X148373258Y-144646488D01*
X148373261Y-144646497D01*
X148469431Y-144852732D01*
X148469432Y-144852734D01*
X148599954Y-145039141D01*
X148760858Y-145200045D01*
X148854021Y-145265278D01*
X148897646Y-145319854D01*
X148904840Y-145389353D01*
X148873317Y-145451708D01*
X148813088Y-145487122D01*
X148796152Y-145490143D01*
X148742516Y-145495908D01*
X148607671Y-145546202D01*
X148607664Y-145546206D01*
X148492455Y-145632452D01*
X148492452Y-145632455D01*
X148406206Y-145747664D01*
X148406202Y-145747671D01*
X148355908Y-145882517D01*
X148349768Y-145939630D01*
X148349501Y-145942123D01*
X148349500Y-145942135D01*
X148349500Y-147537870D01*
X148349501Y-147537876D01*
X148355908Y-147597483D01*
X148406202Y-147732328D01*
X148406206Y-147732335D01*
X148492452Y-147847544D01*
X148492455Y-147847547D01*
X148607664Y-147933793D01*
X148607671Y-147933797D01*
X148632740Y-147943147D01*
X148742517Y-147984091D01*
X148796157Y-147989858D01*
X148860703Y-148016594D01*
X148900552Y-148073986D01*
X148903047Y-148143811D01*
X148867395Y-148203900D01*
X148854022Y-148214721D01*
X148760856Y-148279956D01*
X148599954Y-148440858D01*
X148469432Y-148627265D01*
X148469431Y-148627267D01*
X148373261Y-148833502D01*
X148373258Y-148833511D01*
X148314366Y-149053302D01*
X148314364Y-149053313D01*
X148294532Y-149279998D01*
X148294532Y-149280001D01*
X148314364Y-149506686D01*
X148314366Y-149506697D01*
X148373258Y-149726488D01*
X148373261Y-149726497D01*
X148469431Y-149932732D01*
X148469432Y-149932734D01*
X148599954Y-150119141D01*
X148760858Y-150280045D01*
X148760861Y-150280047D01*
X148947266Y-150410568D01*
X149153504Y-150506739D01*
X149373308Y-150565635D01*
X149535230Y-150579801D01*
X149599998Y-150585468D01*
X149600000Y-150585468D01*
X149600002Y-150585468D01*
X149656673Y-150580509D01*
X149826692Y-150565635D01*
X150046496Y-150506739D01*
X150252734Y-150410568D01*
X150439139Y-150280047D01*
X150600047Y-150119139D01*
X150730568Y-149932734D01*
X150826739Y-149726496D01*
X150885635Y-149506692D01*
X150905468Y-149280000D01*
X150885635Y-149053308D01*
X150826739Y-148833504D01*
X150730568Y-148627266D01*
X150600047Y-148440861D01*
X150600045Y-148440858D01*
X150439141Y-148279954D01*
X150345978Y-148214721D01*
X150302353Y-148160144D01*
X150295159Y-148090646D01*
X150326682Y-148028291D01*
X150386911Y-147992877D01*
X150403842Y-147989857D01*
X150457483Y-147984091D01*
X150592331Y-147933796D01*
X150707546Y-147847546D01*
X150793796Y-147732331D01*
X150844091Y-147597483D01*
X150850500Y-147537873D01*
X150850499Y-145942128D01*
X150844091Y-145882517D01*
X150832149Y-145850500D01*
X150793797Y-145747671D01*
X150793793Y-145747664D01*
X150707547Y-145632455D01*
X150707544Y-145632452D01*
X150592335Y-145546206D01*
X150592328Y-145546202D01*
X150457482Y-145495908D01*
X150457483Y-145495908D01*
X150403846Y-145490142D01*
X150339295Y-145463404D01*
X150299446Y-145406012D01*
X150296953Y-145336187D01*
X150332605Y-145276098D01*
X150345972Y-145265282D01*
X150439139Y-145200047D01*
X150600047Y-145039139D01*
X150730568Y-144852734D01*
X150826739Y-144646496D01*
X150885635Y-144426692D01*
X150905468Y-144200000D01*
X150885635Y-143973308D01*
X150826739Y-143753504D01*
X150730568Y-143547266D01*
X150632819Y-143407664D01*
X150600045Y-143360858D01*
X150439141Y-143199954D01*
X150252734Y-143069432D01*
X150252732Y-143069431D01*
X150046497Y-142973261D01*
X150046488Y-142973258D01*
X149948164Y-142946913D01*
X149888503Y-142910548D01*
X149857974Y-142847701D01*
X149866269Y-142778326D01*
X149892573Y-142739460D01*
X150735916Y-141896119D01*
X150797239Y-141862634D01*
X150823597Y-141859800D01*
X152419631Y-141859800D01*
X152419647Y-141859801D01*
X152427243Y-141859801D01*
X152585354Y-141859801D01*
X152585357Y-141859801D01*
X152738085Y-141818877D01*
X152788204Y-141789939D01*
X152875016Y-141739820D01*
X152986820Y-141628016D01*
X152986820Y-141628014D01*
X152997028Y-141617807D01*
X152997030Y-141617804D01*
X153165885Y-141448948D01*
X153227206Y-141415465D01*
X153296898Y-141420449D01*
G37*
%TD.AperFunction*%
%TA.AperFunction,Conductor*%
G36*
X138059326Y-134772921D02*
G01*
X138115259Y-134814793D01*
X138139212Y-134875219D01*
X138152330Y-134991650D01*
X138152331Y-134991654D01*
X138211911Y-135161923D01*
X138254916Y-135230364D01*
X138307884Y-135314662D01*
X138435438Y-135442216D01*
X138588178Y-135538189D01*
X138693155Y-135574922D01*
X138749930Y-135615642D01*
X138775678Y-135680595D01*
X138776200Y-135691963D01*
X138776200Y-139330003D01*
X138756515Y-139397042D01*
X138739881Y-139417684D01*
X138656584Y-139500981D01*
X138595261Y-139534466D01*
X138568903Y-139537300D01*
X137842170Y-139537300D01*
X137842154Y-139537299D01*
X137834558Y-139537299D01*
X137676443Y-139537299D01*
X137600079Y-139557761D01*
X137523714Y-139578223D01*
X137523709Y-139578226D01*
X137386790Y-139657275D01*
X137386782Y-139657281D01*
X133343783Y-143700280D01*
X133282460Y-143733765D01*
X133212768Y-143728781D01*
X133156835Y-143686909D01*
X133132418Y-143621445D01*
X133144385Y-143558791D01*
X133146488Y-143554424D01*
X133146489Y-143554422D01*
X133206068Y-143384155D01*
X133216400Y-143292454D01*
X133226265Y-143204903D01*
X133226265Y-143204896D01*
X133206069Y-143025650D01*
X133206068Y-143025645D01*
X133146488Y-142855376D01*
X133073651Y-142739457D01*
X133050516Y-142702638D01*
X132922962Y-142575084D01*
X132922959Y-142575082D01*
X132854227Y-142531894D01*
X132807936Y-142479559D01*
X132796200Y-142426901D01*
X132796200Y-139984896D01*
X132815885Y-139917857D01*
X132832514Y-139897220D01*
X137928313Y-134801420D01*
X137989634Y-134767937D01*
X138059326Y-134772921D01*
G37*
%TD.AperFunction*%
%TA.AperFunction,Conductor*%
G36*
X138599947Y-113056585D02*
G01*
X138645702Y-113109389D01*
X138655293Y-113169538D01*
X138655935Y-113169538D01*
X138655935Y-113173563D01*
X138656129Y-113174780D01*
X138655935Y-113176502D01*
X138676130Y-113355749D01*
X138676131Y-113355754D01*
X138735711Y-113526023D01*
X138818114Y-113657165D01*
X138831684Y-113678762D01*
X138959238Y-113806316D01*
X139111978Y-113902289D01*
X139282245Y-113961868D01*
X139369169Y-113971661D01*
X139433580Y-113998726D01*
X139442964Y-114007199D01*
X141086284Y-115650520D01*
X141086286Y-115650521D01*
X141086290Y-115650524D01*
X141223209Y-115729573D01*
X141223216Y-115729577D01*
X141375943Y-115770501D01*
X141375945Y-115770501D01*
X141541654Y-115770501D01*
X141541670Y-115770500D01*
X150083388Y-115770500D01*
X150150427Y-115790185D01*
X150160703Y-115797555D01*
X150163536Y-115799814D01*
X150163538Y-115799816D01*
X150316278Y-115895789D01*
X150486545Y-115955368D01*
X150486550Y-115955369D01*
X150665796Y-115975565D01*
X150665800Y-115975565D01*
X150665804Y-115975565D01*
X150845049Y-115955369D01*
X150845052Y-115955368D01*
X150845055Y-115955368D01*
X151015322Y-115895789D01*
X151168062Y-115799816D01*
X151262216Y-115705661D01*
X151323535Y-115672179D01*
X151381983Y-115673569D01*
X151502643Y-115705901D01*
X151502646Y-115705901D01*
X151668353Y-115705901D01*
X151668369Y-115705900D01*
X152116703Y-115705900D01*
X152183742Y-115725585D01*
X152204384Y-115742219D01*
X152614881Y-116152716D01*
X152648366Y-116214039D01*
X152651200Y-116240397D01*
X152651200Y-116617003D01*
X152631515Y-116684042D01*
X152614881Y-116704684D01*
X151971584Y-117347981D01*
X151910261Y-117381466D01*
X151883903Y-117384300D01*
X150858895Y-117384300D01*
X150791856Y-117364615D01*
X150746101Y-117311811D01*
X150736157Y-117242653D01*
X150741853Y-117219346D01*
X150757602Y-117174333D01*
X150768268Y-117143855D01*
X150788465Y-116964600D01*
X150785319Y-116936682D01*
X150768269Y-116785350D01*
X150768268Y-116785345D01*
X150736042Y-116693248D01*
X150708689Y-116615078D01*
X150612716Y-116462338D01*
X150485162Y-116334784D01*
X150332423Y-116238811D01*
X150162154Y-116179231D01*
X150162149Y-116179230D01*
X149982904Y-116159035D01*
X149982896Y-116159035D01*
X149803650Y-116179230D01*
X149803645Y-116179231D01*
X149633376Y-116238811D01*
X149480637Y-116334784D01*
X149353084Y-116462337D01*
X149257110Y-116615078D01*
X149197530Y-116785350D01*
X149187737Y-116872268D01*
X149160670Y-116936682D01*
X149152198Y-116946065D01*
X148485986Y-117612278D01*
X148374181Y-117724082D01*
X148374180Y-117724084D01*
X148336537Y-117789284D01*
X148295123Y-117861015D01*
X148254199Y-118013743D01*
X148254199Y-118013745D01*
X148254199Y-118067489D01*
X148234514Y-118134528D01*
X148227145Y-118144803D01*
X148224884Y-118147637D01*
X148128911Y-118300376D01*
X148069331Y-118470645D01*
X148069330Y-118470650D01*
X148049135Y-118649896D01*
X148049135Y-118649903D01*
X148069330Y-118829149D01*
X148069331Y-118829154D01*
X148128911Y-118999423D01*
X148224884Y-119152162D01*
X148335541Y-119262819D01*
X148369026Y-119324142D01*
X148364042Y-119393834D01*
X148322170Y-119449767D01*
X148256706Y-119474184D01*
X148247860Y-119474500D01*
X143863097Y-119474500D01*
X143796058Y-119454815D01*
X143775416Y-119438181D01*
X138415100Y-114077865D01*
X138381615Y-114016542D01*
X138379563Y-114004086D01*
X138369768Y-113917145D01*
X138310189Y-113746878D01*
X138214216Y-113594138D01*
X138086662Y-113466584D01*
X137933923Y-113370611D01*
X137763654Y-113311031D01*
X137763649Y-113311030D01*
X137584404Y-113290835D01*
X137584396Y-113290835D01*
X137405150Y-113311030D01*
X137405145Y-113311031D01*
X137234876Y-113370611D01*
X137082137Y-113466584D01*
X136954584Y-113594137D01*
X136858611Y-113746876D01*
X136799031Y-113917145D01*
X136799030Y-113917150D01*
X136778835Y-114096396D01*
X136778835Y-114096403D01*
X136799030Y-114275649D01*
X136799031Y-114275654D01*
X136858611Y-114445923D01*
X136936260Y-114569500D01*
X136954584Y-114598662D01*
X137082138Y-114726216D01*
X137234878Y-114822189D01*
X137405145Y-114881768D01*
X137492069Y-114891561D01*
X137556480Y-114918626D01*
X137565865Y-114927100D01*
X143078139Y-120439374D01*
X143078149Y-120439385D01*
X143082479Y-120443715D01*
X143082480Y-120443716D01*
X143194284Y-120555520D01*
X143268720Y-120598495D01*
X143326976Y-120632130D01*
X143331215Y-120634577D01*
X143483942Y-120675500D01*
X143483943Y-120675500D01*
X150625501Y-120675500D01*
X150692540Y-120695185D01*
X150738295Y-120747989D01*
X150749501Y-120799500D01*
X150749501Y-120972876D01*
X150755908Y-121032483D01*
X150806202Y-121167328D01*
X150806206Y-121167335D01*
X150892452Y-121282544D01*
X150892455Y-121282547D01*
X151007664Y-121368793D01*
X151007671Y-121368797D01*
X151142517Y-121419091D01*
X151142516Y-121419091D01*
X151149444Y-121419835D01*
X151202127Y-121425500D01*
X152997872Y-121425499D01*
X153057483Y-121419091D01*
X153173788Y-121375711D01*
X153243477Y-121370728D01*
X153304800Y-121404213D01*
X153338285Y-121465536D01*
X153341119Y-121491669D01*
X153346028Y-124191544D01*
X153326465Y-124258619D01*
X153273744Y-124304470D01*
X153204604Y-124314539D01*
X153140996Y-124285629D01*
X153134347Y-124279451D01*
X153073804Y-124218908D01*
X152971401Y-124116505D01*
X152971397Y-124116502D01*
X152971396Y-124116501D01*
X152777834Y-123980967D01*
X152777830Y-123980965D01*
X152726257Y-123956916D01*
X152563663Y-123881097D01*
X152563659Y-123881096D01*
X152563655Y-123881094D01*
X152335413Y-123819938D01*
X152335403Y-123819936D01*
X152100001Y-123799341D01*
X152099999Y-123799341D01*
X151864596Y-123819936D01*
X151864586Y-123819938D01*
X151636344Y-123881094D01*
X151636335Y-123881098D01*
X151422171Y-123980964D01*
X151422169Y-123980965D01*
X151228597Y-124116505D01*
X151061506Y-124283596D01*
X150925965Y-124477170D01*
X150925962Y-124477175D01*
X150923289Y-124482909D01*
X150877115Y-124535346D01*
X150810909Y-124554500D01*
X146727157Y-124554500D01*
X146569042Y-124554500D01*
X146416315Y-124595423D01*
X146416314Y-124595423D01*
X146416312Y-124595424D01*
X146416309Y-124595425D01*
X146366196Y-124624359D01*
X146366195Y-124624360D01*
X146339106Y-124640000D01*
X146279385Y-124674479D01*
X146279382Y-124674481D01*
X146167578Y-124786286D01*
X144751765Y-126202098D01*
X144690442Y-126235583D01*
X144677968Y-126237637D01*
X144591050Y-126247430D01*
X144420778Y-126307010D01*
X144268037Y-126402984D01*
X144140484Y-126530537D01*
X144044511Y-126683276D01*
X143984931Y-126853545D01*
X143984930Y-126853549D01*
X143965309Y-127027696D01*
X143938242Y-127092110D01*
X143929770Y-127101493D01*
X134539881Y-136491383D01*
X134478558Y-136524868D01*
X134408866Y-136519884D01*
X134352933Y-136478012D01*
X134328516Y-136412548D01*
X134328200Y-136403702D01*
X134328200Y-129933445D01*
X134328200Y-129933443D01*
X134287277Y-129780716D01*
X134252223Y-129720000D01*
X134208224Y-129643790D01*
X134208221Y-129643786D01*
X134208220Y-129643784D01*
X134096416Y-129531980D01*
X134096415Y-129531979D01*
X134092085Y-129527649D01*
X134092074Y-129527639D01*
X133427219Y-128862784D01*
X133393734Y-128801461D01*
X133390900Y-128775103D01*
X133390900Y-114615796D01*
X134592535Y-114615796D01*
X134592535Y-114615803D01*
X134612730Y-114795049D01*
X134612731Y-114795054D01*
X134672311Y-114965323D01*
X134732615Y-115061296D01*
X134755189Y-115097222D01*
X134768285Y-115118063D01*
X134770545Y-115120897D01*
X134771434Y-115123075D01*
X134771989Y-115123958D01*
X134771834Y-115124055D01*
X134796955Y-115185583D01*
X134797600Y-115198212D01*
X134797600Y-116693230D01*
X134797599Y-116693248D01*
X134797599Y-116858954D01*
X134797598Y-116858954D01*
X134797599Y-116858957D01*
X134838523Y-117011685D01*
X134843319Y-117019992D01*
X134843322Y-117020002D01*
X134843324Y-117020001D01*
X134917575Y-117148609D01*
X134917581Y-117148617D01*
X135036449Y-117267485D01*
X135036455Y-117267490D01*
X140719998Y-122951033D01*
X140753483Y-123012356D01*
X140755537Y-123024830D01*
X140765330Y-123111749D01*
X140824910Y-123282021D01*
X140838050Y-123302933D01*
X140920884Y-123434762D01*
X141048438Y-123562316D01*
X141201178Y-123658289D01*
X141308424Y-123695816D01*
X141371445Y-123717868D01*
X141371450Y-123717869D01*
X141550696Y-123738065D01*
X141550700Y-123738065D01*
X141550704Y-123738065D01*
X141729949Y-123717869D01*
X141729952Y-123717868D01*
X141729955Y-123717868D01*
X141900222Y-123658289D01*
X142052962Y-123562316D01*
X142180516Y-123434762D01*
X142276489Y-123282022D01*
X142336068Y-123111755D01*
X142345862Y-123024830D01*
X142356265Y-122932503D01*
X142356265Y-122932496D01*
X142336069Y-122753250D01*
X142336068Y-122753245D01*
X142276489Y-122582978D01*
X142180516Y-122430238D01*
X142052962Y-122302684D01*
X142020976Y-122282586D01*
X141900221Y-122206710D01*
X141729949Y-122147130D01*
X141643030Y-122137337D01*
X141578616Y-122110270D01*
X141569233Y-122101798D01*
X136034919Y-116567484D01*
X136001434Y-116506161D01*
X135998600Y-116479803D01*
X135998600Y-115198212D01*
X136018285Y-115131173D01*
X136025655Y-115120897D01*
X136027910Y-115118067D01*
X136027916Y-115118062D01*
X136123889Y-114965322D01*
X136183468Y-114795055D01*
X136183469Y-114795049D01*
X136203665Y-114615803D01*
X136203665Y-114615796D01*
X136183469Y-114436550D01*
X136183468Y-114436545D01*
X136123888Y-114266276D01*
X136041839Y-114135696D01*
X136027916Y-114113538D01*
X135900362Y-113985984D01*
X135877566Y-113971660D01*
X135747623Y-113890011D01*
X135577354Y-113830431D01*
X135577349Y-113830430D01*
X135398104Y-113810235D01*
X135398096Y-113810235D01*
X135218850Y-113830430D01*
X135218845Y-113830431D01*
X135048576Y-113890011D01*
X134895837Y-113985984D01*
X134768284Y-114113537D01*
X134672311Y-114266276D01*
X134612731Y-114436545D01*
X134612730Y-114436550D01*
X134592535Y-114615796D01*
X133390900Y-114615796D01*
X133390900Y-113770051D01*
X133410585Y-113703012D01*
X133463389Y-113657257D01*
X133501018Y-113646831D01*
X133588549Y-113636969D01*
X133588552Y-113636968D01*
X133588555Y-113636968D01*
X133758822Y-113577389D01*
X133911562Y-113481416D01*
X134039116Y-113353862D01*
X134135089Y-113201122D01*
X134163494Y-113119944D01*
X134204216Y-113063169D01*
X134269169Y-113037422D01*
X134280536Y-113036900D01*
X138532908Y-113036900D01*
X138599947Y-113056585D01*
G37*
%TD.AperFunction*%
%TA.AperFunction,Conductor*%
G36*
X127052363Y-105867509D02*
G01*
X127225141Y-105927967D01*
X127225142Y-105927967D01*
X127225145Y-105927968D01*
X127312069Y-105937761D01*
X127376480Y-105964826D01*
X127385865Y-105973300D01*
X128541781Y-107129216D01*
X128575266Y-107190539D01*
X128578100Y-107216897D01*
X128578100Y-108729642D01*
X128558415Y-108796681D01*
X128505611Y-108842436D01*
X128467984Y-108852862D01*
X128334249Y-108867930D01*
X128334245Y-108867931D01*
X128163976Y-108927511D01*
X128011237Y-109023484D01*
X127883684Y-109151037D01*
X127787712Y-109303775D01*
X127787711Y-109303776D01*
X127754871Y-109397627D01*
X127725511Y-109444352D01*
X125882986Y-111286878D01*
X125771181Y-111398682D01*
X125771180Y-111398684D01*
X125736011Y-111459600D01*
X125721061Y-111485494D01*
X125721059Y-111485496D01*
X125692125Y-111535609D01*
X125692124Y-111535610D01*
X125676244Y-111594872D01*
X125651199Y-111688343D01*
X125651199Y-111688345D01*
X125651199Y-111856446D01*
X125651200Y-111856459D01*
X125651200Y-113005500D01*
X125631515Y-113072539D01*
X125578711Y-113118294D01*
X125527200Y-113129500D01*
X124440681Y-113129500D01*
X124373642Y-113109815D01*
X124327887Y-113057011D01*
X124316681Y-113005658D01*
X124314018Y-110910140D01*
X124309115Y-107052815D01*
X124328714Y-106985753D01*
X124381460Y-106939931D01*
X124450606Y-106929900D01*
X124474070Y-106935619D01*
X124553937Y-106963566D01*
X124553943Y-106963567D01*
X124553945Y-106963568D01*
X124553946Y-106963568D01*
X124553950Y-106963569D01*
X124733196Y-106983765D01*
X124733200Y-106983765D01*
X124733204Y-106983765D01*
X124912449Y-106963569D01*
X124912452Y-106963568D01*
X124912455Y-106963568D01*
X125082722Y-106903989D01*
X125235462Y-106808016D01*
X125363016Y-106680462D01*
X125458989Y-106527722D01*
X125518568Y-106357455D01*
X125518569Y-106357449D01*
X125538765Y-106178203D01*
X125538765Y-106178197D01*
X125531462Y-106113383D01*
X125543516Y-106044561D01*
X125590865Y-105993181D01*
X125654682Y-105975499D01*
X126697871Y-105975499D01*
X126697872Y-105975499D01*
X126757483Y-105969091D01*
X126892331Y-105918796D01*
X126937099Y-105885282D01*
X127002561Y-105860866D01*
X127052363Y-105867509D01*
G37*
%TD.AperFunction*%
%TA.AperFunction,Conductor*%
G36*
X150467740Y-105472685D02*
G01*
X150488382Y-105489318D01*
X150579584Y-105580520D01*
X150657801Y-105625678D01*
X150716515Y-105659577D01*
X150837005Y-105691862D01*
X150896664Y-105728227D01*
X150917291Y-105759229D01*
X150925966Y-105777832D01*
X150925967Y-105777834D01*
X151024671Y-105918797D01*
X151061505Y-105971401D01*
X151228599Y-106138495D01*
X151325384Y-106206265D01*
X151422165Y-106274032D01*
X151422167Y-106274033D01*
X151422170Y-106274035D01*
X151636337Y-106373903D01*
X151864592Y-106435063D01*
X152052918Y-106451539D01*
X152099999Y-106455659D01*
X152100000Y-106455659D01*
X152100001Y-106455659D01*
X152139234Y-106452226D01*
X152335408Y-106435063D01*
X152563663Y-106373903D01*
X152777830Y-106274035D01*
X152971401Y-106138495D01*
X153101449Y-106008446D01*
X153162768Y-105974964D01*
X153232460Y-105979948D01*
X153288394Y-106021819D01*
X153312811Y-106087283D01*
X153313127Y-106095905D01*
X153320108Y-109935043D01*
X153300545Y-110002118D01*
X153247824Y-110047969D01*
X153178684Y-110058038D01*
X153152775Y-110051450D01*
X153057482Y-110015908D01*
X153057483Y-110015908D01*
X152997883Y-110009501D01*
X152997881Y-110009500D01*
X152997873Y-110009500D01*
X152997864Y-110009500D01*
X151202129Y-110009500D01*
X151202123Y-110009501D01*
X151142516Y-110015908D01*
X151007671Y-110066202D01*
X151007664Y-110066206D01*
X150892455Y-110152452D01*
X150892452Y-110152455D01*
X150806206Y-110267664D01*
X150806202Y-110267671D01*
X150755908Y-110402517D01*
X150749501Y-110462116D01*
X150749500Y-110462135D01*
X150749500Y-110709787D01*
X150729815Y-110776826D01*
X150687500Y-110817174D01*
X150579587Y-110879477D01*
X150579582Y-110879481D01*
X150522566Y-110936498D01*
X150467780Y-110991284D01*
X150467778Y-110991286D01*
X150060380Y-111398685D01*
X149659484Y-111799581D01*
X149598161Y-111833066D01*
X149571803Y-111835900D01*
X149450924Y-111835900D01*
X149383885Y-111816215D01*
X149338130Y-111763411D01*
X149328186Y-111694253D01*
X149338542Y-111659496D01*
X149373900Y-111583669D01*
X149373903Y-111583663D01*
X149435063Y-111355408D01*
X149455659Y-111120000D01*
X149435063Y-110884592D01*
X149373903Y-110656337D01*
X149341553Y-110586964D01*
X149331062Y-110517887D01*
X149359582Y-110454103D01*
X149366241Y-110446893D01*
X149760420Y-110052716D01*
X149839477Y-109915784D01*
X149880401Y-109763057D01*
X149880401Y-109604942D01*
X149880401Y-109597347D01*
X149880400Y-109597329D01*
X149880400Y-108052045D01*
X149880400Y-108052043D01*
X149842024Y-107908819D01*
X149839477Y-107899315D01*
X149783789Y-107802861D01*
X149760420Y-107762384D01*
X149648616Y-107650580D01*
X149648615Y-107650579D01*
X149644285Y-107646249D01*
X149644274Y-107646239D01*
X149111646Y-107113611D01*
X149078161Y-107052288D01*
X149083145Y-106982596D01*
X149111643Y-106938252D01*
X149138495Y-106911401D01*
X149274035Y-106717830D01*
X149373903Y-106503663D01*
X149435063Y-106275408D01*
X149455659Y-106040000D01*
X149453757Y-106018266D01*
X149442123Y-105885283D01*
X149435063Y-105804592D01*
X149382680Y-105609093D01*
X149384343Y-105539243D01*
X149423506Y-105481381D01*
X149487734Y-105453877D01*
X149502455Y-105453000D01*
X150400701Y-105453000D01*
X150467740Y-105472685D01*
G37*
%TD.AperFunction*%
%TA.AperFunction,Conductor*%
G36*
X149904408Y-96718295D02*
G01*
X149950167Y-96771096D01*
X149960116Y-96840253D01*
X149931096Y-96903811D01*
X149930607Y-96904373D01*
X149910727Y-96927041D01*
X149746828Y-97172334D01*
X149616349Y-97436919D01*
X149521521Y-97716269D01*
X149521518Y-97716283D01*
X149463968Y-98005609D01*
X149463964Y-98005636D01*
X149444671Y-98299992D01*
X149444671Y-98300007D01*
X149463964Y-98594363D01*
X149463965Y-98594373D01*
X149463966Y-98594380D01*
X149498081Y-98765892D01*
X149521518Y-98883716D01*
X149521521Y-98883730D01*
X149587582Y-99078336D01*
X149590492Y-99148145D01*
X149555198Y-99208445D01*
X149492906Y-99240092D01*
X149438070Y-99237970D01*
X149313157Y-99204499D01*
X149155043Y-99204499D01*
X149147447Y-99204499D01*
X149147431Y-99204500D01*
X144241712Y-99204500D01*
X144174673Y-99184815D01*
X144164397Y-99177445D01*
X144161563Y-99175185D01*
X144161562Y-99175184D01*
X144104796Y-99139515D01*
X144008823Y-99079211D01*
X143838554Y-99019631D01*
X143838549Y-99019630D01*
X143659304Y-98999435D01*
X143659296Y-98999435D01*
X143480050Y-99019630D01*
X143480045Y-99019631D01*
X143309776Y-99079211D01*
X143157037Y-99175184D01*
X143029484Y-99302737D01*
X142933511Y-99455476D01*
X142873931Y-99625745D01*
X142873930Y-99625750D01*
X142853735Y-99804996D01*
X142853735Y-99805003D01*
X142873930Y-99984249D01*
X142873931Y-99984254D01*
X142933511Y-100154524D01*
X142942939Y-100169527D01*
X142961940Y-100236763D01*
X142941573Y-100303599D01*
X142888306Y-100348813D01*
X142837946Y-100359500D01*
X130474440Y-100359500D01*
X130407401Y-100339815D01*
X130386759Y-100323181D01*
X130297762Y-100234184D01*
X130145023Y-100138211D01*
X129974754Y-100078631D01*
X129974749Y-100078630D01*
X129795504Y-100058435D01*
X129795496Y-100058435D01*
X129616250Y-100078630D01*
X129616245Y-100078631D01*
X129445976Y-100138211D01*
X129293237Y-100234184D01*
X129165684Y-100361737D01*
X129069711Y-100514476D01*
X129010131Y-100684745D01*
X129010130Y-100684750D01*
X128989935Y-100863996D01*
X128989935Y-100864003D01*
X129010130Y-101043249D01*
X129010131Y-101043254D01*
X129069711Y-101213523D01*
X129137361Y-101321186D01*
X129165684Y-101366262D01*
X129293238Y-101493816D01*
X129445978Y-101589789D01*
X129503915Y-101610062D01*
X129616245Y-101649368D01*
X129616250Y-101649369D01*
X129795496Y-101669565D01*
X129795500Y-101669565D01*
X129795504Y-101669565D01*
X129974749Y-101649369D01*
X129974752Y-101649368D01*
X129974755Y-101649368D01*
X130145022Y-101589789D01*
X130161386Y-101579506D01*
X130227359Y-101560500D01*
X136710727Y-101560500D01*
X136777766Y-101580185D01*
X136823521Y-101632989D01*
X136833465Y-101702147D01*
X136804440Y-101765703D01*
X136772727Y-101791887D01*
X136703287Y-101831977D01*
X136703282Y-101831981D01*
X136591478Y-101943786D01*
X133390765Y-105144498D01*
X133329442Y-105177983D01*
X133316968Y-105180037D01*
X133230050Y-105189830D01*
X133059778Y-105249410D01*
X132907037Y-105345384D01*
X132865908Y-105386513D01*
X132804585Y-105419997D01*
X132734893Y-105415012D01*
X132690547Y-105386512D01*
X131483290Y-104179255D01*
X131483288Y-104179252D01*
X131364417Y-104060381D01*
X131364412Y-104060377D01*
X131237695Y-103987218D01*
X131237693Y-103987217D01*
X131227485Y-103981323D01*
X131074757Y-103940399D01*
X130916643Y-103940399D01*
X130909047Y-103940399D01*
X130909031Y-103940400D01*
X127274499Y-103940400D01*
X127207460Y-103920715D01*
X127161705Y-103867911D01*
X127150499Y-103816400D01*
X127150499Y-103727129D01*
X127150321Y-103723804D01*
X127151370Y-103723747D01*
X127163015Y-103659275D01*
X127210635Y-103608146D01*
X127273889Y-103590800D01*
X132826888Y-103590800D01*
X132893927Y-103610485D01*
X132904203Y-103617855D01*
X132907036Y-103620114D01*
X132907038Y-103620116D01*
X133059778Y-103716089D01*
X133114989Y-103735408D01*
X133230045Y-103775668D01*
X133230050Y-103775669D01*
X133409296Y-103795865D01*
X133409300Y-103795865D01*
X133409304Y-103795865D01*
X133588549Y-103775669D01*
X133588552Y-103775668D01*
X133588555Y-103775668D01*
X133758822Y-103716089D01*
X133911562Y-103620116D01*
X134039116Y-103492562D01*
X134135089Y-103339822D01*
X134194668Y-103169555D01*
X134194669Y-103169549D01*
X134214865Y-102990303D01*
X134214865Y-102990296D01*
X134194669Y-102811050D01*
X134194668Y-102811045D01*
X134135088Y-102640776D01*
X134039115Y-102488037D01*
X133911562Y-102360484D01*
X133758823Y-102264511D01*
X133588554Y-102204931D01*
X133588549Y-102204930D01*
X133409304Y-102184735D01*
X133409296Y-102184735D01*
X133230050Y-102204930D01*
X133230045Y-102204931D01*
X133059776Y-102264511D01*
X132907036Y-102360485D01*
X132904203Y-102362745D01*
X132902024Y-102363634D01*
X132901142Y-102364189D01*
X132901044Y-102364034D01*
X132839517Y-102389155D01*
X132826888Y-102389800D01*
X125376957Y-102389800D01*
X125218843Y-102389800D01*
X125066115Y-102430723D01*
X125066114Y-102430723D01*
X125066112Y-102430724D01*
X125066109Y-102430725D01*
X125030966Y-102451016D01*
X125030964Y-102451017D01*
X124929190Y-102509775D01*
X124929182Y-102509781D01*
X124817378Y-102621586D01*
X124515438Y-102923525D01*
X124454115Y-102957010D01*
X124384423Y-102952026D01*
X124328490Y-102910154D01*
X124304073Y-102844690D01*
X124303757Y-102836002D01*
X124300372Y-100172503D01*
X124319971Y-100105441D01*
X124372717Y-100059619D01*
X124441863Y-100049588D01*
X124505456Y-100078532D01*
X124519912Y-100093303D01*
X124582970Y-100169527D01*
X124646652Y-100246505D01*
X124866836Y-100453272D01*
X124866846Y-100453280D01*
X125111193Y-100630808D01*
X125111198Y-100630810D01*
X125111205Y-100630816D01*
X125375896Y-100776332D01*
X125375901Y-100776334D01*
X125375903Y-100776335D01*
X125375904Y-100776336D01*
X125656734Y-100887524D01*
X125656737Y-100887525D01*
X125754259Y-100912564D01*
X125949302Y-100962642D01*
X126096039Y-100981179D01*
X126248963Y-101000499D01*
X126248969Y-101000499D01*
X126248973Y-101000500D01*
X126248975Y-101000500D01*
X126551025Y-101000500D01*
X126551027Y-101000500D01*
X126551032Y-101000499D01*
X126551036Y-101000499D01*
X126630591Y-100990448D01*
X126850698Y-100962642D01*
X127143262Y-100887525D01*
X127143265Y-100887524D01*
X127424095Y-100776336D01*
X127424096Y-100776335D01*
X127424094Y-100776335D01*
X127424104Y-100776332D01*
X127688795Y-100630816D01*
X127933162Y-100453274D01*
X128153349Y-100246504D01*
X128345885Y-100013768D01*
X128507733Y-99758736D01*
X128636341Y-99485430D01*
X128729681Y-99198160D01*
X128786280Y-98901457D01*
X128786281Y-98901446D01*
X128805246Y-98600005D01*
X128805246Y-98599994D01*
X128786281Y-98298553D01*
X128786280Y-98298546D01*
X128786280Y-98298543D01*
X128729681Y-98001840D01*
X128636341Y-97714570D01*
X128507733Y-97441264D01*
X128345885Y-97186232D01*
X128153349Y-96953496D01*
X128125180Y-96927043D01*
X128112068Y-96914730D01*
X128076674Y-96854489D01*
X128079468Y-96784675D01*
X128119562Y-96727454D01*
X128184227Y-96700994D01*
X128196925Y-96700339D01*
X149837370Y-96698616D01*
X149904408Y-96718295D01*
G37*
%TD.AperFunction*%
%TD*%
%TA.AperFunction,NonConductor*%
G36*
X153229173Y-100048685D02*
G01*
X153282250Y-100094123D01*
X153302335Y-100161044D01*
X153302337Y-100161560D01*
X153304096Y-101129071D01*
X153284533Y-101196146D01*
X153231812Y-101241997D01*
X153162672Y-101252066D01*
X153136763Y-101245478D01*
X153057482Y-101215908D01*
X153057483Y-101215908D01*
X152997883Y-101209501D01*
X152997881Y-101209500D01*
X152997873Y-101209500D01*
X152997864Y-101209500D01*
X151202129Y-101209500D01*
X151202123Y-101209501D01*
X151142516Y-101215908D01*
X151007671Y-101266202D01*
X151007664Y-101266206D01*
X150892455Y-101352452D01*
X150892452Y-101352455D01*
X150806206Y-101467664D01*
X150806202Y-101467671D01*
X150755908Y-101602517D01*
X150754126Y-101610062D01*
X150752549Y-101609689D01*
X150729313Y-101665799D01*
X150671923Y-101705651D01*
X150632756Y-101711999D01*
X150614147Y-101711999D01*
X150614131Y-101712000D01*
X149434090Y-101712000D01*
X149367051Y-101692315D01*
X149321296Y-101639511D01*
X149311352Y-101570353D01*
X149321708Y-101535595D01*
X149373903Y-101423663D01*
X149401361Y-101321185D01*
X149437725Y-101261526D01*
X149500572Y-101230996D01*
X149569948Y-101239290D01*
X149587101Y-101248281D01*
X149615622Y-101266202D01*
X149627378Y-101273589D01*
X149797645Y-101333168D01*
X149797650Y-101333169D01*
X149976896Y-101353365D01*
X149976900Y-101353365D01*
X149976904Y-101353365D01*
X150156149Y-101333169D01*
X150156152Y-101333168D01*
X150156155Y-101333168D01*
X150326422Y-101273589D01*
X150479162Y-101177616D01*
X150606716Y-101050062D01*
X150702689Y-100897322D01*
X150762268Y-100727055D01*
X150767035Y-100684745D01*
X150782465Y-100547803D01*
X150782465Y-100540836D01*
X150784890Y-100540836D01*
X150794990Y-100483167D01*
X150842338Y-100431787D01*
X150909948Y-100414161D01*
X150946013Y-100420683D01*
X151116278Y-100478481D01*
X151405620Y-100536034D01*
X151433888Y-100537886D01*
X151699993Y-100555329D01*
X151700000Y-100555329D01*
X151700007Y-100555329D01*
X151935675Y-100539881D01*
X151994380Y-100536034D01*
X152283722Y-100478481D01*
X152563077Y-100383652D01*
X152827665Y-100253172D01*
X153072957Y-100089273D01*
X153096578Y-100068557D01*
X153159956Y-100039155D01*
X153229173Y-100048685D01*
G37*
%TD.AperFunction*%
%TA.AperFunction,NonConductor*%
G36*
X150467740Y-102932685D02*
G01*
X150488382Y-102949318D01*
X150579584Y-103040520D01*
X150666395Y-103090639D01*
X150666394Y-103090639D01*
X150679824Y-103098392D01*
X150687498Y-103102823D01*
X150735715Y-103153389D01*
X150749500Y-103210211D01*
X150749500Y-103457869D01*
X150749501Y-103457876D01*
X150755908Y-103517483D01*
X150806202Y-103652328D01*
X150806206Y-103652335D01*
X150892452Y-103767544D01*
X150892455Y-103767547D01*
X151007664Y-103853793D01*
X151007671Y-103853797D01*
X151139082Y-103902810D01*
X151195016Y-103944681D01*
X151219433Y-104010145D01*
X151204582Y-104078418D01*
X151183431Y-104106673D01*
X151061503Y-104228601D01*
X151061498Y-104228607D01*
X151053009Y-104240730D01*
X150998430Y-104284351D01*
X150928931Y-104291540D01*
X150919346Y-104289375D01*
X150824793Y-104264039D01*
X150779857Y-104251999D01*
X150621743Y-104251999D01*
X150614147Y-104251999D01*
X150614131Y-104252000D01*
X149434090Y-104252000D01*
X149367051Y-104232315D01*
X149321296Y-104179511D01*
X149311352Y-104110353D01*
X149321708Y-104075595D01*
X149328278Y-104061505D01*
X149373903Y-103963663D01*
X149435063Y-103735408D01*
X149455659Y-103500000D01*
X149435063Y-103264592D01*
X149382680Y-103069093D01*
X149384343Y-102999243D01*
X149423506Y-102941381D01*
X149487734Y-102913877D01*
X149502455Y-102913000D01*
X150400701Y-102913000D01*
X150467740Y-102932685D01*
G37*
%TD.AperFunction*%
%TA.AperFunction,NonConductor*%
G36*
X146764584Y-102932685D02*
G01*
X146810339Y-102985489D01*
X146820283Y-103054647D01*
X146817320Y-103069093D01*
X146764938Y-103264586D01*
X146764936Y-103264596D01*
X146744341Y-103499999D01*
X146744341Y-103500000D01*
X146764936Y-103735403D01*
X146764938Y-103735413D01*
X146826094Y-103963655D01*
X146826096Y-103963659D01*
X146826097Y-103963663D01*
X146871722Y-104061505D01*
X146878292Y-104075595D01*
X146888784Y-104144673D01*
X146860264Y-104208457D01*
X146801788Y-104246696D01*
X146765910Y-104252000D01*
X145804257Y-104252000D01*
X145646142Y-104252000D01*
X145493415Y-104292923D01*
X145493414Y-104292923D01*
X145493412Y-104292924D01*
X145493409Y-104292925D01*
X145443296Y-104321859D01*
X145443295Y-104321860D01*
X145433684Y-104327409D01*
X145356485Y-104371979D01*
X145356482Y-104371981D01*
X145244680Y-104483784D01*
X145244678Y-104483786D01*
X144479054Y-105249411D01*
X143743684Y-105984781D01*
X143682361Y-106018266D01*
X143656003Y-106021100D01*
X134511997Y-106021100D01*
X134444958Y-106001415D01*
X134399203Y-105948611D01*
X134389259Y-105879453D01*
X134418284Y-105815897D01*
X134424316Y-105809419D01*
X137284416Y-102949319D01*
X137345739Y-102915834D01*
X137372097Y-102913000D01*
X146697545Y-102913000D01*
X146764584Y-102932685D01*
G37*
%TD.AperFunction*%
%TA.AperFunction,NonConductor*%
G36*
X130762642Y-105161085D02*
G01*
X130783284Y-105177719D01*
X132045023Y-106439458D01*
X132078508Y-106500781D01*
X132073524Y-106570473D01*
X132062336Y-106593111D01*
X131969144Y-106741425D01*
X131916809Y-106787716D01*
X131847756Y-106798364D01*
X131783907Y-106769989D01*
X131776469Y-106763134D01*
X131461190Y-106447855D01*
X131461188Y-106447852D01*
X131342317Y-106328981D01*
X131342309Y-106328975D01*
X131218090Y-106257258D01*
X131218087Y-106257257D01*
X131205385Y-106249923D01*
X131052657Y-106208999D01*
X130894543Y-106208999D01*
X130886947Y-106208999D01*
X130886931Y-106209000D01*
X130377912Y-106209000D01*
X130310873Y-106189315D01*
X130300597Y-106181945D01*
X130297763Y-106179685D01*
X130297762Y-106179684D01*
X130164429Y-106095905D01*
X130145023Y-106083711D01*
X129974754Y-106024131D01*
X129974749Y-106024130D01*
X129795504Y-106003935D01*
X129795496Y-106003935D01*
X129616250Y-106024130D01*
X129616245Y-106024131D01*
X129445976Y-106083711D01*
X129375420Y-106128045D01*
X129308183Y-106147045D01*
X129241348Y-106126677D01*
X129221767Y-106110732D01*
X128464116Y-105353081D01*
X128430631Y-105291758D01*
X128435615Y-105222066D01*
X128477487Y-105166133D01*
X128542951Y-105141716D01*
X128551797Y-105141400D01*
X130695603Y-105141400D01*
X130762642Y-105161085D01*
G37*
%TD.AperFunction*%
%TA.AperFunction,NonConductor*%
G36*
X146764584Y-105472685D02*
G01*
X146810339Y-105525489D01*
X146820283Y-105594647D01*
X146817320Y-105609093D01*
X146764938Y-105804586D01*
X146764936Y-105804596D01*
X146744341Y-106039999D01*
X146744341Y-106040000D01*
X146764936Y-106275403D01*
X146764938Y-106275413D01*
X146826094Y-106503655D01*
X146826096Y-106503659D01*
X146826097Y-106503663D01*
X146881557Y-106622597D01*
X146894986Y-106651395D01*
X146905478Y-106720473D01*
X146876958Y-106784257D01*
X146818482Y-106822496D01*
X146782604Y-106827800D01*
X144898497Y-106827800D01*
X144831458Y-106808115D01*
X144785703Y-106755311D01*
X144775759Y-106686153D01*
X144804784Y-106622597D01*
X144810816Y-106616119D01*
X145937616Y-105489319D01*
X145998939Y-105455834D01*
X146025297Y-105453000D01*
X146697545Y-105453000D01*
X146764584Y-105472685D01*
G37*
%TD.AperFunction*%
%TA.AperFunction,NonConductor*%
G36*
X128497434Y-110473414D02*
G01*
X128553367Y-110515286D01*
X128577784Y-110580750D01*
X128578100Y-110589596D01*
X128578100Y-111366102D01*
X128558415Y-111433141D01*
X128541781Y-111453783D01*
X128440673Y-111554891D01*
X128379350Y-111588376D01*
X128309658Y-111583392D01*
X128253725Y-111541520D01*
X128229308Y-111476056D01*
X128229503Y-111466564D01*
X128229065Y-111466564D01*
X128229065Y-111459596D01*
X128208869Y-111280350D01*
X128208868Y-111280345D01*
X128152761Y-111120000D01*
X128149289Y-111110078D01*
X128053316Y-110957338D01*
X128053315Y-110957337D01*
X128051008Y-110953665D01*
X128032008Y-110886428D01*
X128052376Y-110819593D01*
X128068316Y-110800017D01*
X128366419Y-110501915D01*
X128427742Y-110468430D01*
X128497434Y-110473414D01*
G37*
%TD.AperFunction*%
%TA.AperFunction,NonConductor*%
G36*
X146754991Y-108048485D02*
G01*
X146800746Y-108101289D01*
X146810690Y-108170447D01*
X146807727Y-108184893D01*
X146764938Y-108344586D01*
X146764936Y-108344596D01*
X146744341Y-108579999D01*
X146744341Y-108580000D01*
X146764936Y-108815403D01*
X146764938Y-108815413D01*
X146826094Y-109043655D01*
X146826096Y-109043659D01*
X146826097Y-109043663D01*
X146876167Y-109151038D01*
X146925965Y-109257830D01*
X146925967Y-109257834D01*
X147061501Y-109451395D01*
X147061506Y-109451402D01*
X147099826Y-109489722D01*
X147133311Y-109551045D01*
X147128327Y-109620737D01*
X147086455Y-109676670D01*
X147059605Y-109691961D01*
X147059214Y-109692122D01*
X147033830Y-109706779D01*
X147033829Y-109706780D01*
X146978056Y-109738980D01*
X146922285Y-109771179D01*
X146922282Y-109771181D01*
X146467779Y-110225684D01*
X146444473Y-110266052D01*
X146434622Y-110283116D01*
X146388723Y-110362615D01*
X146347799Y-110515343D01*
X146347799Y-110515345D01*
X146347799Y-110683446D01*
X146347800Y-110683459D01*
X146347800Y-111199057D01*
X146369583Y-111280350D01*
X146388723Y-111351783D01*
X146388726Y-111351790D01*
X146467775Y-111488709D01*
X146467779Y-111488714D01*
X146467780Y-111488716D01*
X146579584Y-111600520D01*
X146579585Y-111600521D01*
X146579587Y-111600522D01*
X146586498Y-111604512D01*
X146634715Y-111655078D01*
X146647939Y-111723685D01*
X146621972Y-111788550D01*
X146565059Y-111829079D01*
X146524500Y-111835900D01*
X134026500Y-111835900D01*
X133959461Y-111816215D01*
X133913706Y-111763411D01*
X133902500Y-111711900D01*
X133902500Y-109226959D01*
X133902501Y-109226946D01*
X133902501Y-109058845D01*
X133902501Y-109058843D01*
X133861577Y-108906115D01*
X133786733Y-108776482D01*
X133782520Y-108769184D01*
X133670716Y-108657380D01*
X133670715Y-108657379D01*
X133666385Y-108653049D01*
X133666374Y-108653039D01*
X133253816Y-108240481D01*
X133220331Y-108179158D01*
X133225315Y-108109466D01*
X133267187Y-108053533D01*
X133332651Y-108029116D01*
X133341497Y-108028800D01*
X146687952Y-108028800D01*
X146754991Y-108048485D01*
G37*
%TD.AperFunction*%
%TA.AperFunction,NonConductor*%
G36*
X150792790Y-112467257D02*
G01*
X150848721Y-112509126D01*
X150892454Y-112567546D01*
X150938643Y-112602123D01*
X151007664Y-112653793D01*
X151007671Y-112653797D01*
X151139081Y-112702810D01*
X151195015Y-112744681D01*
X151219432Y-112810145D01*
X151204580Y-112878418D01*
X151183430Y-112906673D01*
X151061503Y-113028600D01*
X150925965Y-113222169D01*
X150925964Y-113222171D01*
X150860525Y-113362505D01*
X150814352Y-113414944D01*
X150747159Y-113434096D01*
X150682170Y-113415093D01*
X150673924Y-113409911D01*
X150503654Y-113350331D01*
X150503649Y-113350330D01*
X150324404Y-113330135D01*
X150324396Y-113330135D01*
X150145150Y-113350330D01*
X150145145Y-113350331D01*
X149974876Y-113409911D01*
X149822137Y-113505884D01*
X149694584Y-113633437D01*
X149598611Y-113786176D01*
X149539031Y-113956445D01*
X149539030Y-113956450D01*
X149518835Y-114135696D01*
X149518835Y-114135703D01*
X149539030Y-114314949D01*
X149539033Y-114314962D01*
X149570380Y-114404545D01*
X149573942Y-114474324D01*
X149539214Y-114534951D01*
X149477220Y-114567179D01*
X149453339Y-114569500D01*
X141755098Y-114569500D01*
X141688059Y-114549815D01*
X141667417Y-114533181D01*
X141036525Y-113902289D01*
X140382815Y-113248580D01*
X140349331Y-113187258D01*
X140354315Y-113117566D01*
X140396187Y-113061633D01*
X140461651Y-113037216D01*
X140470497Y-113036900D01*
X149785231Y-113036900D01*
X149785247Y-113036901D01*
X149792843Y-113036901D01*
X149950954Y-113036901D01*
X149950957Y-113036901D01*
X150103685Y-112995977D01*
X150153804Y-112967039D01*
X150240616Y-112916920D01*
X150352420Y-112805116D01*
X150352420Y-112805114D01*
X150362628Y-112794907D01*
X150362630Y-112794904D01*
X150661777Y-112495756D01*
X150723098Y-112462273D01*
X150792790Y-112467257D01*
G37*
%TD.AperFunction*%
%TA.AperFunction,NonConductor*%
G36*
X130740542Y-107429685D02*
G01*
X130761184Y-107446319D01*
X131596623Y-108281758D01*
X131630108Y-108343081D01*
X131625124Y-108412773D01*
X131613936Y-108435411D01*
X131520709Y-108583780D01*
X131465963Y-108740234D01*
X131436603Y-108786960D01*
X130840886Y-109382678D01*
X130729081Y-109494482D01*
X130729080Y-109494484D01*
X130695456Y-109552723D01*
X130650023Y-109631415D01*
X130609099Y-109784143D01*
X130609099Y-109784145D01*
X130609099Y-109952246D01*
X130609100Y-109952259D01*
X130609100Y-110274730D01*
X130609099Y-110274748D01*
X130609099Y-110440454D01*
X130609098Y-110440454D01*
X130614908Y-110462135D01*
X130649061Y-110589596D01*
X130650024Y-110593187D01*
X130662364Y-110614560D01*
X130662365Y-110614562D01*
X130729077Y-110730112D01*
X130729081Y-110730117D01*
X130847781Y-110848817D01*
X130881266Y-110910140D01*
X130884100Y-110936498D01*
X130884100Y-113845216D01*
X130864415Y-113912255D01*
X130811611Y-113958010D01*
X130742453Y-113967954D01*
X130720695Y-113962637D01*
X130719353Y-113962331D01*
X130540104Y-113942135D01*
X130540096Y-113942135D01*
X130360850Y-113962330D01*
X130360845Y-113962331D01*
X130190576Y-114021911D01*
X130037837Y-114117884D01*
X129910284Y-114245437D01*
X129814311Y-114398176D01*
X129754731Y-114568445D01*
X129754730Y-114568450D01*
X129734535Y-114747696D01*
X129734535Y-114747703D01*
X129754730Y-114926949D01*
X129754733Y-114926962D01*
X129816610Y-115103794D01*
X129814663Y-115104475D01*
X129824378Y-115163512D01*
X129806301Y-115214330D01*
X129740611Y-115318875D01*
X129681030Y-115489150D01*
X129671237Y-115576068D01*
X129644170Y-115640482D01*
X129635698Y-115649865D01*
X129444153Y-115841410D01*
X129382830Y-115874895D01*
X129313138Y-115869911D01*
X129257205Y-115828039D01*
X129232788Y-115762575D01*
X129239431Y-115712773D01*
X129253679Y-115672057D01*
X129279468Y-115598355D01*
X129288979Y-115513943D01*
X129299665Y-115419103D01*
X129299665Y-115419096D01*
X129279469Y-115239850D01*
X129279468Y-115239845D01*
X129252758Y-115163512D01*
X129219889Y-115069578D01*
X129123916Y-114916838D01*
X128996362Y-114789284D01*
X128843621Y-114693310D01*
X128673349Y-114633730D01*
X128586430Y-114623937D01*
X128522016Y-114596870D01*
X128512633Y-114588398D01*
X127973758Y-114049523D01*
X127940273Y-113988200D01*
X127945257Y-113918508D01*
X127987129Y-113862575D01*
X128020485Y-113844800D01*
X128061546Y-113830432D01*
X128104822Y-113815289D01*
X128257562Y-113719316D01*
X128385116Y-113591762D01*
X128481089Y-113439022D01*
X128540668Y-113268755D01*
X128550461Y-113181829D01*
X128577526Y-113117418D01*
X128585990Y-113108043D01*
X129547313Y-112146721D01*
X129547316Y-112146720D01*
X129659120Y-112034916D01*
X129709239Y-111948104D01*
X129738177Y-111897985D01*
X129779100Y-111745257D01*
X129779100Y-111587143D01*
X129779100Y-107727726D01*
X129798785Y-107660687D01*
X129851589Y-107614932D01*
X129889217Y-107604506D01*
X129974749Y-107594869D01*
X129974752Y-107594868D01*
X129974755Y-107594868D01*
X130145022Y-107535289D01*
X130297762Y-107439316D01*
X130297767Y-107439310D01*
X130300597Y-107437055D01*
X130302775Y-107436165D01*
X130303658Y-107435611D01*
X130303755Y-107435765D01*
X130365283Y-107410645D01*
X130377912Y-107410000D01*
X130673503Y-107410000D01*
X130740542Y-107429685D01*
G37*
%TD.AperFunction*%
%TA.AperFunction,NonConductor*%
G36*
X127057403Y-114832084D02*
G01*
X127063881Y-114838116D01*
X127663398Y-115437633D01*
X127696883Y-115498956D01*
X127698937Y-115511430D01*
X127708730Y-115598349D01*
X127768310Y-115768621D01*
X127817970Y-115847654D01*
X127864284Y-115921362D01*
X127991838Y-116048916D01*
X128144578Y-116144889D01*
X128240513Y-116178458D01*
X128297289Y-116219180D01*
X128323036Y-116284133D01*
X128309580Y-116352694D01*
X128261193Y-116403097D01*
X128199558Y-116419500D01*
X126776152Y-116419500D01*
X126709113Y-116399815D01*
X126663358Y-116347011D01*
X126653414Y-116277853D01*
X126659110Y-116254546D01*
X126685463Y-116179232D01*
X126715268Y-116094055D01*
X126726787Y-115991814D01*
X126742617Y-115943707D01*
X126798073Y-115847655D01*
X126811277Y-115824785D01*
X126852201Y-115672057D01*
X126852201Y-115513943D01*
X126852201Y-115506348D01*
X126852200Y-115506330D01*
X126852200Y-114925797D01*
X126871885Y-114858758D01*
X126924689Y-114813003D01*
X126993847Y-114803059D01*
X127057403Y-114832084D01*
G37*
%TD.AperFunction*%
%TA.AperFunction,NonConductor*%
G36*
X153254073Y-117866474D02*
G01*
X153310006Y-117908346D01*
X153334423Y-117973810D01*
X153334739Y-117982430D01*
X153335964Y-118655956D01*
X153316401Y-118723032D01*
X153263681Y-118768882D01*
X153194540Y-118778952D01*
X153168631Y-118772364D01*
X153057482Y-118730908D01*
X153057483Y-118730908D01*
X152997883Y-118724501D01*
X152997881Y-118724500D01*
X152997873Y-118724500D01*
X152997865Y-118724500D01*
X152566575Y-118724500D01*
X152499536Y-118704815D01*
X152453781Y-118652011D01*
X152443837Y-118582853D01*
X152472862Y-118519297D01*
X152503969Y-118493465D01*
X152504022Y-118493434D01*
X152504731Y-118493257D01*
X152504630Y-118493082D01*
X152552716Y-118465320D01*
X152664520Y-118353516D01*
X152664520Y-118353514D01*
X152674724Y-118343311D01*
X152674728Y-118343306D01*
X153123060Y-117894973D01*
X153184381Y-117861490D01*
X153254073Y-117866474D01*
G37*
%TD.AperFunction*%
%TA.AperFunction,NonConductor*%
G36*
X129899712Y-117186836D02*
G01*
X129944059Y-117215337D01*
X130041638Y-117312916D01*
X130146014Y-117378500D01*
X130158544Y-117386373D01*
X130204835Y-117438708D01*
X130215483Y-117507761D01*
X130187108Y-117571610D01*
X130128718Y-117609982D01*
X130106456Y-117614587D01*
X129936549Y-117633730D01*
X129936545Y-117633731D01*
X129766276Y-117693311D01*
X129613537Y-117789284D01*
X129485984Y-117916837D01*
X129390010Y-118069578D01*
X129330430Y-118239850D01*
X129320637Y-118326768D01*
X129293570Y-118391182D01*
X129285098Y-118400565D01*
X128762484Y-118923181D01*
X128701161Y-118956666D01*
X128674803Y-118959500D01*
X126389091Y-118959500D01*
X126322052Y-118939815D01*
X126276711Y-118887909D01*
X126274037Y-118882175D01*
X126274034Y-118882170D01*
X126263728Y-118867452D01*
X126209752Y-118790365D01*
X126138494Y-118688597D01*
X125971402Y-118521506D01*
X125971396Y-118521501D01*
X125785842Y-118391575D01*
X125742217Y-118336998D01*
X125735023Y-118267500D01*
X125766546Y-118205145D01*
X125785842Y-118188425D01*
X125844093Y-118147637D01*
X125971401Y-118058495D01*
X126138495Y-117891401D01*
X126274035Y-117697830D01*
X126276707Y-117692097D01*
X126322878Y-117639658D01*
X126389091Y-117620500D01*
X129028131Y-117620500D01*
X129028147Y-117620501D01*
X129035743Y-117620501D01*
X129193854Y-117620501D01*
X129193857Y-117620501D01*
X129346585Y-117579577D01*
X129426872Y-117533223D01*
X129483516Y-117500520D01*
X129595320Y-117388716D01*
X129595320Y-117388714D01*
X129605521Y-117378514D01*
X129605524Y-117378509D01*
X129768699Y-117215334D01*
X129830020Y-117181852D01*
X129899712Y-117186836D01*
G37*
%TD.AperFunction*%
%TA.AperFunction,NonConductor*%
G36*
X150963845Y-118604985D02*
G01*
X151009600Y-118657789D01*
X151019544Y-118726947D01*
X150990519Y-118790503D01*
X150971117Y-118808566D01*
X150892455Y-118867452D01*
X150892452Y-118867455D01*
X150806206Y-118982664D01*
X150806202Y-118982671D01*
X150755908Y-119117517D01*
X150749501Y-119177116D01*
X150749500Y-119177135D01*
X150749500Y-119350500D01*
X150729815Y-119417539D01*
X150677011Y-119463294D01*
X150625500Y-119474500D01*
X149461540Y-119474500D01*
X149394501Y-119454815D01*
X149348746Y-119402011D01*
X149338802Y-119332853D01*
X149367827Y-119269297D01*
X149373859Y-119262819D01*
X149422418Y-119214260D01*
X149484516Y-119152162D01*
X149580489Y-118999422D01*
X149640068Y-118829155D01*
X149640068Y-118829149D01*
X149641092Y-118824668D01*
X149675196Y-118763687D01*
X149736854Y-118730824D01*
X149802940Y-118735210D01*
X149902837Y-118770166D01*
X149902843Y-118770167D01*
X149902845Y-118770168D01*
X149902846Y-118770168D01*
X149902850Y-118770169D01*
X150082096Y-118790365D01*
X150082100Y-118790365D01*
X150082104Y-118790365D01*
X150261349Y-118770169D01*
X150261352Y-118770168D01*
X150261355Y-118770168D01*
X150431622Y-118710589D01*
X150584362Y-118614616D01*
X150584367Y-118614610D01*
X150587197Y-118612355D01*
X150589375Y-118611465D01*
X150590258Y-118610911D01*
X150590355Y-118611065D01*
X150651883Y-118585945D01*
X150664512Y-118585300D01*
X150896806Y-118585300D01*
X150963845Y-118604985D01*
G37*
%TD.AperFunction*%
%TA.AperFunction,NonConductor*%
G36*
X130803434Y-118966058D02*
G01*
X130859367Y-119007930D01*
X130883784Y-119073394D01*
X130884100Y-119082240D01*
X130884100Y-120675945D01*
X130864415Y-120742984D01*
X130811611Y-120788739D01*
X130742453Y-120798683D01*
X130694128Y-120780939D01*
X130552123Y-120691711D01*
X130381854Y-120632131D01*
X130381849Y-120632130D01*
X130202604Y-120611935D01*
X130202596Y-120611935D01*
X130023350Y-120632130D01*
X130023345Y-120632131D01*
X129853076Y-120691711D01*
X129700336Y-120787685D01*
X129697503Y-120789945D01*
X129695324Y-120790834D01*
X129694442Y-120791389D01*
X129694344Y-120791234D01*
X129632817Y-120816355D01*
X129620188Y-120817000D01*
X127433098Y-120817000D01*
X127366059Y-120797315D01*
X127345421Y-120780685D01*
X127208598Y-120643863D01*
X127175115Y-120582543D01*
X127173063Y-120570086D01*
X127163268Y-120483145D01*
X127108090Y-120325454D01*
X127104529Y-120255675D01*
X127139258Y-120195048D01*
X127201251Y-120162821D01*
X127225132Y-120160500D01*
X128888231Y-120160500D01*
X128888247Y-120160501D01*
X128895843Y-120160501D01*
X129053954Y-120160501D01*
X129053957Y-120160501D01*
X129206685Y-120119577D01*
X129256804Y-120090639D01*
X129343616Y-120040520D01*
X129455420Y-119928716D01*
X129455420Y-119928714D01*
X129465628Y-119918507D01*
X129465630Y-119918504D01*
X130134335Y-119249798D01*
X130195656Y-119216315D01*
X130208111Y-119214263D01*
X130295055Y-119204468D01*
X130465322Y-119144889D01*
X130618062Y-119048916D01*
X130672419Y-118994559D01*
X130733742Y-118961074D01*
X130803434Y-118966058D01*
G37*
%TD.AperFunction*%
%TA.AperFunction,NonConductor*%
G36*
X126632650Y-121768587D02*
G01*
X126647594Y-121781329D01*
X126764284Y-121898020D01*
X126764286Y-121898021D01*
X126764287Y-121898022D01*
X126764290Y-121898024D01*
X126901209Y-121977073D01*
X126901216Y-121977077D01*
X127053943Y-122018001D01*
X127053945Y-122018001D01*
X127219654Y-122018001D01*
X127219670Y-122018000D01*
X129327503Y-122018000D01*
X129394542Y-122037685D01*
X129440297Y-122090489D01*
X129450241Y-122159647D01*
X129421216Y-122223203D01*
X129415184Y-122229681D01*
X128954584Y-122690281D01*
X128893261Y-122723766D01*
X128866903Y-122726600D01*
X127101112Y-122726600D01*
X127034073Y-122706915D01*
X127023797Y-122699545D01*
X127020963Y-122697285D01*
X127020962Y-122697284D01*
X126964196Y-122661615D01*
X126868223Y-122601311D01*
X126697954Y-122541731D01*
X126697950Y-122541730D01*
X126532287Y-122523065D01*
X126467873Y-122495998D01*
X126428318Y-122438404D01*
X126426181Y-122368567D01*
X126426346Y-122367938D01*
X126435063Y-122335408D01*
X126455659Y-122100000D01*
X126436396Y-121879828D01*
X126450162Y-121811329D01*
X126498778Y-121761146D01*
X126566806Y-121745212D01*
X126632650Y-121768587D01*
G37*
%TD.AperFunction*%
%TA.AperFunction,NonConductor*%
G36*
X150877948Y-125775185D02*
G01*
X150923292Y-125827097D01*
X150925965Y-125832830D01*
X151061505Y-126026401D01*
X151228599Y-126193495D01*
X151301059Y-126244232D01*
X151422165Y-126329032D01*
X151422167Y-126329033D01*
X151422170Y-126329035D01*
X151636337Y-126428903D01*
X151864592Y-126490063D01*
X152052918Y-126506539D01*
X152099999Y-126510659D01*
X152100000Y-126510659D01*
X152100001Y-126510659D01*
X152139234Y-126507226D01*
X152335408Y-126490063D01*
X152563663Y-126428903D01*
X152777830Y-126329035D01*
X152971401Y-126193495D01*
X153137846Y-126027049D01*
X153199167Y-125993566D01*
X153268858Y-125998550D01*
X153324792Y-126040421D01*
X153349209Y-126105886D01*
X153349525Y-126114507D01*
X153355521Y-129412599D01*
X153335958Y-129479674D01*
X153283237Y-129525525D01*
X153214097Y-129535594D01*
X153150489Y-129506684D01*
X153143840Y-129500505D01*
X150311290Y-126667955D01*
X150311288Y-126667952D01*
X150243090Y-126599754D01*
X150225777Y-126578045D01*
X150193916Y-126527338D01*
X150066362Y-126399784D01*
X149953766Y-126329035D01*
X149913623Y-126303811D01*
X149743354Y-126244231D01*
X149743349Y-126244230D01*
X149564104Y-126224035D01*
X149564096Y-126224035D01*
X149384850Y-126244230D01*
X149384845Y-126244231D01*
X149214576Y-126303811D01*
X149061837Y-126399784D01*
X148934284Y-126527337D01*
X148838311Y-126680076D01*
X148778731Y-126850345D01*
X148778730Y-126850350D01*
X148758535Y-127029596D01*
X148758535Y-127029603D01*
X148778730Y-127208849D01*
X148778731Y-127208854D01*
X148838311Y-127379123D01*
X148921448Y-127511433D01*
X148934284Y-127531862D01*
X149061838Y-127659416D01*
X149214578Y-127755389D01*
X149252396Y-127768622D01*
X149384845Y-127814968D01*
X149384850Y-127814969D01*
X149564096Y-127835165D01*
X149564100Y-127835165D01*
X149564102Y-127835165D01*
X149613276Y-127829624D01*
X149698825Y-127819985D01*
X149767646Y-127832039D01*
X149800389Y-127855524D01*
X151465400Y-129520535D01*
X151498885Y-129581858D01*
X151493901Y-129651550D01*
X151452029Y-129707483D01*
X151430125Y-129720597D01*
X151397176Y-129735961D01*
X151397169Y-129735965D01*
X151203597Y-129871505D01*
X151036505Y-130038597D01*
X150900965Y-130232169D01*
X150900964Y-130232170D01*
X150892290Y-130250772D01*
X150846115Y-130303209D01*
X150812005Y-130318136D01*
X150691520Y-130350421D01*
X150691509Y-130350426D01*
X150554590Y-130429475D01*
X150554582Y-130429481D01*
X149709184Y-131274881D01*
X149647861Y-131308366D01*
X149621503Y-131311200D01*
X142228212Y-131311200D01*
X142161173Y-131291515D01*
X142150897Y-131284145D01*
X142148063Y-131281885D01*
X142148062Y-131281884D01*
X141995322Y-131185911D01*
X141995319Y-131185909D01*
X141847127Y-131134054D01*
X141790351Y-131093333D01*
X141764604Y-131028380D01*
X141778060Y-130959818D01*
X141800398Y-130929335D01*
X144876062Y-127853671D01*
X144937383Y-127820188D01*
X144949297Y-127818226D01*
X144949548Y-127818168D01*
X144949555Y-127818168D01*
X145119822Y-127758589D01*
X145272562Y-127662616D01*
X145400116Y-127535062D01*
X145496089Y-127382322D01*
X145555668Y-127212055D01*
X145565461Y-127125129D01*
X145592526Y-127060718D01*
X145600990Y-127051343D01*
X146860516Y-125791819D01*
X146921839Y-125758334D01*
X146948197Y-125755500D01*
X150810909Y-125755500D01*
X150877948Y-125775185D01*
G37*
%TD.AperFunction*%
%TA.AperFunction,NonConductor*%
G36*
X150752948Y-137720185D02*
G01*
X150798292Y-137772097D01*
X150800965Y-137777830D01*
X150819054Y-137803664D01*
X150936501Y-137971395D01*
X150936506Y-137971402D01*
X151058430Y-138093326D01*
X151091915Y-138154649D01*
X151086931Y-138224341D01*
X151045059Y-138280274D01*
X151014083Y-138297189D01*
X150882669Y-138346203D01*
X150882664Y-138346206D01*
X150767455Y-138432452D01*
X150767452Y-138432455D01*
X150681206Y-138547664D01*
X150681202Y-138547671D01*
X150630908Y-138682517D01*
X150624501Y-138742116D01*
X150624500Y-138742135D01*
X150624500Y-138915500D01*
X150604815Y-138982539D01*
X150552011Y-139028294D01*
X150500500Y-139039500D01*
X142608597Y-139039500D01*
X142541558Y-139019815D01*
X142495803Y-138967011D01*
X142485859Y-138897853D01*
X142514884Y-138834297D01*
X142520916Y-138827819D01*
X143611916Y-137736819D01*
X143673239Y-137703334D01*
X143699597Y-137700500D01*
X150685909Y-137700500D01*
X150752948Y-137720185D01*
G37*
%TD.AperFunction*%
%TA.AperFunction,NonConductor*%
G36*
X151012153Y-131772895D02*
G01*
X151056500Y-131801396D01*
X151158430Y-131903326D01*
X151191915Y-131964649D01*
X151186931Y-132034341D01*
X151145059Y-132090274D01*
X151114083Y-132107189D01*
X150982669Y-132156203D01*
X150982664Y-132156206D01*
X150867455Y-132242452D01*
X150867452Y-132242455D01*
X150781206Y-132357664D01*
X150781202Y-132357671D01*
X150730908Y-132492517D01*
X150724501Y-132552116D01*
X150724500Y-132552135D01*
X150724500Y-132799787D01*
X150704815Y-132866826D01*
X150662500Y-132907174D01*
X150554587Y-132969477D01*
X150554582Y-132969481D01*
X149387884Y-134136181D01*
X149326561Y-134169666D01*
X149300203Y-134172500D01*
X143085212Y-134172500D01*
X143018173Y-134152815D01*
X143007897Y-134145445D01*
X143005063Y-134143185D01*
X143005062Y-134143184D01*
X142915027Y-134086611D01*
X142852323Y-134047211D01*
X142682054Y-133987631D01*
X142682049Y-133987630D01*
X142502804Y-133967435D01*
X142502796Y-133967435D01*
X142323550Y-133987630D01*
X142323545Y-133987631D01*
X142153276Y-134047211D01*
X142000537Y-134143184D01*
X141872984Y-134270737D01*
X141777011Y-134423476D01*
X141717431Y-134593745D01*
X141717430Y-134593750D01*
X141697235Y-134772996D01*
X141697235Y-134773003D01*
X141717430Y-134952249D01*
X141717431Y-134952254D01*
X141777011Y-135122523D01*
X141872984Y-135275262D01*
X142000538Y-135402816D01*
X142153278Y-135498789D01*
X142265877Y-135538189D01*
X142323545Y-135558368D01*
X142323550Y-135558369D01*
X142502796Y-135578565D01*
X142502800Y-135578565D01*
X142502804Y-135578565D01*
X142682049Y-135558369D01*
X142682052Y-135558368D01*
X142682055Y-135558368D01*
X142852322Y-135498789D01*
X143005062Y-135402816D01*
X143005067Y-135402810D01*
X143007897Y-135400555D01*
X143010075Y-135399665D01*
X143010958Y-135399111D01*
X143011055Y-135399265D01*
X143072583Y-135374145D01*
X143085212Y-135373500D01*
X149513631Y-135373500D01*
X149513647Y-135373501D01*
X149521243Y-135373501D01*
X149679354Y-135373501D01*
X149679357Y-135373501D01*
X149832085Y-135332577D01*
X149882204Y-135303639D01*
X149969016Y-135253520D01*
X150080820Y-135141716D01*
X150080820Y-135141714D01*
X150091028Y-135131507D01*
X150091029Y-135131504D01*
X150636776Y-134585758D01*
X150698098Y-134552274D01*
X150767790Y-134557258D01*
X150823722Y-134599128D01*
X150867455Y-134657547D01*
X150982664Y-134743793D01*
X150982671Y-134743797D01*
X151117517Y-134794091D01*
X151117516Y-134794091D01*
X151124444Y-134794835D01*
X151177127Y-134800500D01*
X152581700Y-134800499D01*
X152648739Y-134820184D01*
X152694494Y-134872987D01*
X152705700Y-134924499D01*
X152705700Y-135755977D01*
X152686015Y-135823016D01*
X152633211Y-135868771D01*
X152564053Y-135878715D01*
X152529296Y-135868359D01*
X152438669Y-135826099D01*
X152438655Y-135826094D01*
X152210413Y-135764938D01*
X152210403Y-135764936D01*
X151975001Y-135744341D01*
X151974999Y-135744341D01*
X151739596Y-135764936D01*
X151739586Y-135764938D01*
X151511344Y-135826094D01*
X151511335Y-135826098D01*
X151297171Y-135925964D01*
X151297169Y-135925965D01*
X151103597Y-136061505D01*
X150936506Y-136228596D01*
X150800965Y-136422170D01*
X150800962Y-136422175D01*
X150798289Y-136427909D01*
X150752115Y-136480346D01*
X150685909Y-136499500D01*
X143486169Y-136499500D01*
X143486153Y-136499499D01*
X143478557Y-136499499D01*
X143320443Y-136499499D01*
X143240510Y-136520917D01*
X143167716Y-136540422D01*
X143128850Y-136562862D01*
X143128849Y-136562861D01*
X143030787Y-136619477D01*
X143030782Y-136619481D01*
X140188881Y-139461383D01*
X140127558Y-139494868D01*
X140057866Y-139489884D01*
X140001933Y-139448012D01*
X139977516Y-139382548D01*
X139977200Y-139373702D01*
X139977200Y-135340460D01*
X139977201Y-135340447D01*
X139977201Y-135172344D01*
X139974409Y-135161923D01*
X139936277Y-135019616D01*
X139920131Y-134991650D01*
X139857224Y-134882690D01*
X139857218Y-134882682D01*
X139768400Y-134793864D01*
X139734915Y-134732541D01*
X139732863Y-134720084D01*
X139723068Y-134633145D01*
X139663489Y-134462878D01*
X139643638Y-134431286D01*
X139624282Y-134400480D01*
X139567516Y-134310138D01*
X139439962Y-134182584D01*
X139287223Y-134086611D01*
X139116954Y-134027031D01*
X139116950Y-134027030D01*
X139000519Y-134013912D01*
X138936105Y-133986845D01*
X138896550Y-133929250D01*
X138894413Y-133859413D01*
X138926720Y-133803013D01*
X140663434Y-132066299D01*
X140724755Y-132032816D01*
X140794447Y-132037800D01*
X140850380Y-132079672D01*
X140868154Y-132113027D01*
X140920009Y-132261219D01*
X140932071Y-132280416D01*
X141015984Y-132413962D01*
X141143538Y-132541516D01*
X141296278Y-132637489D01*
X141466545Y-132697068D01*
X141466550Y-132697069D01*
X141645796Y-132717265D01*
X141645800Y-132717265D01*
X141645804Y-132717265D01*
X141825049Y-132697069D01*
X141825052Y-132697068D01*
X141825055Y-132697068D01*
X141995322Y-132637489D01*
X142148062Y-132541516D01*
X142148067Y-132541510D01*
X142150897Y-132539255D01*
X142153075Y-132538365D01*
X142153958Y-132537811D01*
X142154055Y-132537965D01*
X142215583Y-132512845D01*
X142228212Y-132512200D01*
X149834931Y-132512200D01*
X149834947Y-132512201D01*
X149842543Y-132512201D01*
X150000654Y-132512201D01*
X150000657Y-132512201D01*
X150153385Y-132471277D01*
X150203504Y-132442339D01*
X150290316Y-132392220D01*
X150402120Y-132280416D01*
X150402120Y-132280414D01*
X150412328Y-132270207D01*
X150412329Y-132270204D01*
X150881139Y-131801395D01*
X150942461Y-131767911D01*
X151012153Y-131772895D01*
G37*
%TD.AperFunction*%
%TA.AperFunction,NonConductor*%
G36*
X142899742Y-147821185D02*
G01*
X142945497Y-147873989D01*
X142955441Y-147943147D01*
X142926416Y-148006703D01*
X142920384Y-148013181D01*
X141938384Y-148995181D01*
X141877061Y-149028666D01*
X141850703Y-149031500D01*
X141614612Y-149031500D01*
X141547573Y-149011815D01*
X141537297Y-149004445D01*
X141534463Y-149002185D01*
X141534462Y-149002184D01*
X141381722Y-148906211D01*
X141381716Y-148906207D01*
X141375447Y-148903188D01*
X141376662Y-148900665D01*
X141330160Y-148867273D01*
X141304448Y-148802306D01*
X141317942Y-148733752D01*
X141340245Y-148703332D01*
X141428816Y-148614762D01*
X141524789Y-148462022D01*
X141584368Y-148291755D01*
X141584369Y-148291749D01*
X141604565Y-148112503D01*
X141604565Y-148112496D01*
X141585060Y-147939383D01*
X141597114Y-147870562D01*
X141644464Y-147819182D01*
X141708280Y-147801500D01*
X142832703Y-147801500D01*
X142899742Y-147821185D01*
G37*
%TD.AperFunction*%
%TA.AperFunction,NonConductor*%
G36*
X151043418Y-155195417D02*
G01*
X151071673Y-155216569D01*
X151193597Y-155338493D01*
X151193603Y-155338498D01*
X151244198Y-155373925D01*
X151287823Y-155428502D01*
X151295017Y-155498000D01*
X151263494Y-155560355D01*
X151203265Y-155595769D01*
X151173075Y-155599500D01*
X150911432Y-155599500D01*
X150844393Y-155579815D01*
X150798638Y-155527011D01*
X150788694Y-155457853D01*
X150812165Y-155401190D01*
X150817740Y-155393741D01*
X150818796Y-155392331D01*
X150867810Y-155260916D01*
X150909681Y-155204984D01*
X150975145Y-155180566D01*
X151043418Y-155195417D01*
G37*
%TD.AperFunction*%
M02*
