%TF.GenerationSoftware,KiCad,Pcbnew,8.0.2-1*%
%TF.CreationDate,2025-02-04T18:40:10-06:00*%
%TF.ProjectId,ADACHI,41444143-4849-42e6-9b69-6361645f7063,rev?*%
%TF.SameCoordinates,Original*%
%TF.FileFunction,Paste,Top*%
%TF.FilePolarity,Positive*%
%FSLAX46Y46*%
G04 Gerber Fmt 4.6, Leading zero omitted, Abs format (unit mm)*
G04 Created by KiCad (PCBNEW 8.0.2-1) date 2025-02-04 18:40:10*
%MOMM*%
%LPD*%
G01*
G04 APERTURE LIST*
G04 Aperture macros list*
%AMRoundRect*
0 Rectangle with rounded corners*
0 $1 Rounding radius*
0 $2 $3 $4 $5 $6 $7 $8 $9 X,Y pos of 4 corners*
0 Add a 4 corners polygon primitive as box body*
4,1,4,$2,$3,$4,$5,$6,$7,$8,$9,$2,$3,0*
0 Add four circle primitives for the rounded corners*
1,1,$1+$1,$2,$3*
1,1,$1+$1,$4,$5*
1,1,$1+$1,$6,$7*
1,1,$1+$1,$8,$9*
0 Add four rect primitives between the rounded corners*
20,1,$1+$1,$2,$3,$4,$5,0*
20,1,$1+$1,$4,$5,$6,$7,0*
20,1,$1+$1,$6,$7,$8,$9,0*
20,1,$1+$1,$8,$9,$2,$3,0*%
%AMOutline5P*
0 Free polygon, 5 corners , with rotation*
0 The origin of the aperture is its center*
0 number of corners: always 5*
0 $1 to $10 corner X, Y*
0 $11 Rotation angle, in degrees counterclockwise*
0 create outline with 5 corners*
4,1,5,$1,$2,$3,$4,$5,$6,$7,$8,$9,$10,$1,$2,$11*%
%AMOutline6P*
0 Free polygon, 6 corners , with rotation*
0 The origin of the aperture is its center*
0 number of corners: always 6*
0 $1 to $12 corner X, Y*
0 $13 Rotation angle, in degrees counterclockwise*
0 create outline with 6 corners*
4,1,6,$1,$2,$3,$4,$5,$6,$7,$8,$9,$10,$11,$12,$1,$2,$13*%
%AMOutline7P*
0 Free polygon, 7 corners , with rotation*
0 The origin of the aperture is its center*
0 number of corners: always 7*
0 $1 to $14 corner X, Y*
0 $15 Rotation angle, in degrees counterclockwise*
0 create outline with 7 corners*
4,1,7,$1,$2,$3,$4,$5,$6,$7,$8,$9,$10,$11,$12,$13,$14,$1,$2,$15*%
%AMOutline8P*
0 Free polygon, 8 corners , with rotation*
0 The origin of the aperture is its center*
0 number of corners: always 8*
0 $1 to $16 corner X, Y*
0 $17 Rotation angle, in degrees counterclockwise*
0 create outline with 8 corners*
4,1,8,$1,$2,$3,$4,$5,$6,$7,$8,$9,$10,$11,$12,$13,$14,$15,$16,$1,$2,$17*%
G04 Aperture macros list end*
%ADD10RoundRect,0.200000X0.275000X-0.200000X0.275000X0.200000X-0.275000X0.200000X-0.275000X-0.200000X0*%
%ADD11RoundRect,0.225000X0.250000X-0.225000X0.250000X0.225000X-0.250000X0.225000X-0.250000X-0.225000X0*%
%ADD12RoundRect,0.250000X0.850000X0.350000X-0.850000X0.350000X-0.850000X-0.350000X0.850000X-0.350000X0*%
%ADD13RoundRect,0.250000X1.275000X1.125000X-1.275000X1.125000X-1.275000X-1.125000X1.275000X-1.125000X0*%
%ADD14RoundRect,0.225000X-0.250000X0.225000X-0.250000X-0.225000X0.250000X-0.225000X0.250000X0.225000X0*%
%ADD15RoundRect,0.200000X-0.275000X0.200000X-0.275000X-0.200000X0.275000X-0.200000X0.275000X0.200000X0*%
%ADD16RoundRect,0.218750X0.256250X-0.218750X0.256250X0.218750X-0.256250X0.218750X-0.256250X-0.218750X0*%
%ADD17RoundRect,0.250000X-1.100000X0.325000X-1.100000X-0.325000X1.100000X-0.325000X1.100000X0.325000X0*%
%ADD18R,1.050000X0.650000*%
%ADD19R,1.000000X0.600000*%
%ADD20R,2.400000X3.100000*%
%ADD21R,2.200000X0.500000*%
%ADD22RoundRect,0.375000X0.625000X0.375000X-0.625000X0.375000X-0.625000X-0.375000X0.625000X-0.375000X0*%
%ADD23RoundRect,0.500000X0.500000X1.400000X-0.500000X1.400000X-0.500000X-1.400000X0.500000X-1.400000X0*%
%ADD24R,0.800000X0.400000*%
%ADD25R,0.400000X0.800000*%
%ADD26Outline5P,-0.600000X0.204000X-0.204000X0.600000X0.600000X0.600000X0.600000X-0.600000X-0.600000X-0.600000X0.000000*%
%ADD27R,1.200000X1.200000*%
%ADD28R,0.800000X0.800000*%
G04 APERTURE END LIST*
D10*
%TO.C,R2210k1*%
X129400000Y-134200000D03*
X129400000Y-132550000D03*
%TD*%
D11*
%TO.C,C6*%
X143400000Y-125675000D03*
X143400000Y-124125000D03*
%TD*%
D12*
%TO.C,U1*%
X142200000Y-133200000D03*
D13*
X137575000Y-132445000D03*
X137575000Y-129395000D03*
X134225000Y-132445000D03*
X134225000Y-129395000D03*
D12*
X142200000Y-128640000D03*
%TD*%
D10*
%TO.C,R4*%
X146900000Y-129625000D03*
X146900000Y-127975000D03*
%TD*%
D14*
%TO.C,C1*%
X144900000Y-133500000D03*
X144900000Y-135050000D03*
%TD*%
D15*
%TO.C,R920k1*%
X127500000Y-114550000D03*
X127500000Y-116200000D03*
%TD*%
D10*
%TO.C,R1410k1*%
X129400000Y-122200000D03*
X129400000Y-120550000D03*
%TD*%
D15*
%TO.C,R1*%
X148400000Y-124275000D03*
X148400000Y-125925000D03*
%TD*%
%TO.C,R2*%
X148600000Y-127900000D03*
X148600000Y-129550000D03*
%TD*%
D16*
%TO.C,led5v1*%
X148500000Y-122187500D03*
X148500000Y-120612500D03*
%TD*%
D10*
%TO.C,R1120k1*%
X127500000Y-119200000D03*
X127500000Y-117550000D03*
%TD*%
D11*
%TO.C,C5*%
X144900000Y-131475000D03*
X144900000Y-129925000D03*
%TD*%
D14*
%TO.C,C7*%
X143400000Y-121125000D03*
X143400000Y-122675000D03*
%TD*%
D15*
%TO.C,R7*%
X124900000Y-110600000D03*
X124900000Y-112250000D03*
%TD*%
D17*
%TO.C,C4*%
X144800000Y-143300000D03*
X144800000Y-146250000D03*
%TD*%
D10*
%TO.C,R1210k1*%
X129400000Y-119200000D03*
X129400000Y-117550000D03*
%TD*%
D15*
%TO.C,R2610k1*%
X126500000Y-139275000D03*
X126500000Y-140925000D03*
%TD*%
D18*
%TO.C,RESET1*%
X143725000Y-115625000D03*
X147875000Y-115625000D03*
X143725000Y-117775000D03*
X147850000Y-117775000D03*
%TD*%
%TO.C,boton1*%
X138475000Y-150575000D03*
X134325000Y-150575000D03*
X138475000Y-148425000D03*
X134350000Y-148425000D03*
%TD*%
D17*
%TO.C,C2*%
X144700000Y-137700000D03*
X144700000Y-140650000D03*
%TD*%
D19*
%TO.C,D4*%
X132300000Y-151900000D03*
X132300000Y-150600000D03*
X130300000Y-150600000D03*
X130300000Y-151900000D03*
%TD*%
D10*
%TO.C,R1010k1*%
X129400000Y-116200000D03*
X129400000Y-114550000D03*
%TD*%
%TO.C,R1610k1*%
X129400000Y-125200000D03*
X129400000Y-123550000D03*
%TD*%
D15*
%TO.C,R1520k1*%
X127500000Y-123550000D03*
X127500000Y-125200000D03*
%TD*%
D10*
%TO.C,R5*%
X141800000Y-117625000D03*
X141800000Y-115975000D03*
%TD*%
D20*
%TO.C,driver1*%
X137775000Y-137805000D03*
D21*
X134900000Y-135900000D03*
X134900000Y-137170000D03*
X134900000Y-138440000D03*
X134900000Y-139710000D03*
X140650000Y-139710000D03*
X140650000Y-138440000D03*
X140650000Y-137170000D03*
X140650000Y-135900000D03*
%TD*%
D15*
%TO.C,R2320k1*%
X127500000Y-135650000D03*
X127500000Y-137300000D03*
%TD*%
D22*
%TO.C,reguladr3v1*%
X140000000Y-125000000D03*
X140000000Y-122700000D03*
D23*
X133700000Y-122700000D03*
D22*
X140000000Y-120400000D03*
%TD*%
D15*
%TO.C,R1720k1*%
X127500000Y-126650000D03*
X127500000Y-128300000D03*
%TD*%
D10*
%TO.C,R2010k1*%
X129400000Y-131200000D03*
X129400000Y-129550000D03*
%TD*%
D14*
%TO.C,C3*%
X147100000Y-133600000D03*
X147100000Y-135150000D03*
%TD*%
D15*
%TO.C,R2520k1*%
X124800000Y-139275000D03*
X124800000Y-140925000D03*
%TD*%
D16*
%TO.C,led1*%
X146900000Y-122087500D03*
X146900000Y-120512500D03*
%TD*%
D18*
%TO.C,boton2*%
X145975000Y-150475000D03*
X141825000Y-150475000D03*
X145975000Y-148325000D03*
X141850000Y-148325000D03*
%TD*%
%TO.C,BOOT1*%
X133325000Y-115725000D03*
X137475000Y-115725000D03*
X133325000Y-117875000D03*
X137450000Y-117875000D03*
%TD*%
D15*
%TO.C,R2410k1*%
X129400000Y-135650000D03*
X129400000Y-137300000D03*
%TD*%
D10*
%TO.C,R3*%
X146800000Y-126025000D03*
X146800000Y-124375000D03*
%TD*%
%TO.C,R1810k1*%
X129400000Y-128200000D03*
X129400000Y-126550000D03*
%TD*%
%TO.C,R6*%
X139400000Y-117625000D03*
X139400000Y-115975000D03*
%TD*%
D15*
%TO.C,R1920k1*%
X127400000Y-129650000D03*
X127400000Y-131300000D03*
%TD*%
D24*
%TO.C,U2*%
X130700000Y-98550000D03*
X130700000Y-99400000D03*
X130700000Y-100250000D03*
X130700000Y-101100000D03*
X130700000Y-101950000D03*
X130700000Y-102800000D03*
X130700000Y-103650000D03*
X130700000Y-104500000D03*
X130700000Y-105350000D03*
X130700000Y-106200000D03*
X130700000Y-107050000D03*
X130700000Y-107900000D03*
X130700000Y-108750000D03*
X130700000Y-109600000D03*
X130700000Y-110450000D03*
D25*
X131750000Y-111500000D03*
X132600000Y-111500000D03*
X133450000Y-111500000D03*
X134300000Y-111500000D03*
X135150000Y-111500000D03*
X136000000Y-111500000D03*
X136850000Y-111500000D03*
X137700000Y-111500000D03*
X138550000Y-111500000D03*
X139400000Y-111500000D03*
X140250000Y-111500000D03*
X141100000Y-111500000D03*
X141950000Y-111500000D03*
X142800000Y-111500000D03*
X143650000Y-111500000D03*
D24*
X144700000Y-110450000D03*
X144700000Y-109600000D03*
X144700000Y-108750000D03*
X144700000Y-107900000D03*
X144700000Y-107050000D03*
X144700000Y-106200000D03*
X144700000Y-105350000D03*
X144700000Y-104500000D03*
X144700000Y-103650000D03*
X144700000Y-102800000D03*
X144700000Y-101950000D03*
X144700000Y-101100000D03*
X144700000Y-100250000D03*
X144700000Y-99400000D03*
X144700000Y-98550000D03*
D25*
X143650000Y-97500000D03*
X142800000Y-97500000D03*
X141950000Y-97500000D03*
X141100000Y-97500000D03*
X140250000Y-97500000D03*
X139400000Y-97500000D03*
X138550000Y-97500000D03*
X137700000Y-97500000D03*
X136850000Y-97500000D03*
X136000000Y-97500000D03*
X135150000Y-97500000D03*
X134300000Y-97500000D03*
X133450000Y-97500000D03*
X132600000Y-97500000D03*
X131750000Y-97500000D03*
D26*
X136050000Y-102850000D03*
D27*
X136050000Y-104500000D03*
X136050000Y-106150000D03*
X137700000Y-102850000D03*
X137700000Y-104500000D03*
X137700000Y-106150000D03*
X139350000Y-102850000D03*
X139350000Y-104500000D03*
X139350000Y-106150000D03*
D28*
X130700000Y-97500000D03*
X130700000Y-111500000D03*
X144700000Y-111500000D03*
X144700000Y-97500000D03*
%TD*%
D15*
%TO.C,R1320k1*%
X127500000Y-120550000D03*
X127500000Y-122200000D03*
%TD*%
D10*
%TO.C,R8*%
X126400000Y-112225000D03*
X126400000Y-110575000D03*
%TD*%
D19*
%TO.C,D2*%
X130300000Y-144600000D03*
X130300000Y-145900000D03*
X132300000Y-145900000D03*
X132300000Y-144600000D03*
%TD*%
D20*
%TO.C,driver2*%
X137775000Y-143495000D03*
D21*
X134900000Y-141590000D03*
X134900000Y-142860000D03*
X134900000Y-144130000D03*
X134900000Y-145400000D03*
X140650000Y-145400000D03*
X140650000Y-144130000D03*
X140650000Y-142860000D03*
X140650000Y-141590000D03*
%TD*%
D15*
%TO.C,R2120k1*%
X127500000Y-132650000D03*
X127500000Y-134300000D03*
%TD*%
D19*
%TO.C,D1*%
X130300000Y-147550000D03*
X130300000Y-148850000D03*
X132300000Y-148850000D03*
X132300000Y-147550000D03*
%TD*%
%TO.C,D5*%
X130300000Y-153650000D03*
X130300000Y-154950000D03*
X132300000Y-154950000D03*
X132300000Y-153650000D03*
%TD*%
M02*
