%TF.GenerationSoftware,KiCad,Pcbnew,8.0.2-1*%
%TF.CreationDate,2025-02-04T18:40:10-06:00*%
%TF.ProjectId,ADACHI,41444143-4849-42e6-9b69-6361645f7063,rev?*%
%TF.SameCoordinates,Original*%
%TF.FileFunction,Soldermask,Bot*%
%TF.FilePolarity,Negative*%
%FSLAX46Y46*%
G04 Gerber Fmt 4.6, Leading zero omitted, Abs format (unit mm)*
G04 Created by KiCad (PCBNEW 8.0.2-1) date 2025-02-04 18:40:10*
%MOMM*%
%LPD*%
G01*
G04 APERTURE LIST*
%ADD10R,1.700000X1.700000*%
%ADD11O,1.700000X1.700000*%
%ADD12C,2.600000*%
%ADD13C,3.500000*%
%ADD14R,1.500000X1.500000*%
%ADD15C,1.600000*%
%ADD16C,3.800000*%
%ADD17C,0.770000*%
%ADD18R,2.200000X2.200000*%
%ADD19O,2.200000X2.200000*%
G04 APERTURE END LIST*
D10*
%TO.C,J2*%
X148100000Y-98420000D03*
D11*
X148100000Y-100960000D03*
X148100000Y-103500000D03*
X148100000Y-106040000D03*
X148100000Y-108580000D03*
X148100000Y-111120000D03*
%TD*%
D10*
%TO.C,xt30*%
X149525000Y-154300000D03*
D11*
X152065000Y-154300000D03*
%TD*%
D12*
%TO.C,H4*%
X126100000Y-153900000D03*
D13*
X126100000Y-153900000D03*
%TD*%
D10*
%TO.C,voltajesensores1*%
X125800000Y-104625000D03*
D11*
X125800000Y-107165000D03*
%TD*%
D10*
%TO.C,servo2*%
X152100000Y-111360000D03*
D11*
X152100000Y-113900000D03*
X152100000Y-116440000D03*
%TD*%
D10*
%TO.C,sensores1*%
X125100000Y-114480000D03*
D11*
X125100000Y-117020000D03*
X125100000Y-119560000D03*
X125100000Y-122100000D03*
X125100000Y-124640000D03*
X125100000Y-127180000D03*
X125100000Y-129720000D03*
X125100000Y-132260000D03*
X125100000Y-134800000D03*
X125100000Y-137340000D03*
%TD*%
D12*
%TO.C,H1*%
X151700000Y-98300000D03*
D13*
X151700000Y-98300000D03*
%TD*%
D14*
%TO.C,negativo1*%
X152600000Y-146740000D03*
D15*
X152600000Y-144200000D03*
X152600000Y-149280000D03*
%TD*%
D12*
%TO.C,H2*%
X126400000Y-98600000D03*
D16*
X126400000Y-98600000D03*
%TD*%
D14*
%TO.C,positivo1*%
X149600000Y-146740000D03*
D15*
X149600000Y-144200000D03*
X149600000Y-149280000D03*
%TD*%
D10*
%TO.C,conectormotor1*%
X152075000Y-133450000D03*
D11*
X152075000Y-130910000D03*
%TD*%
D17*
%TO.C,driver1*%
X137125000Y-136505000D03*
X137125000Y-137805000D03*
X137125000Y-139105000D03*
X138425000Y-136505000D03*
X138425000Y-137805000D03*
X138425000Y-139105000D03*
%TD*%
D10*
%TO.C,arrancador1*%
X152100000Y-120075000D03*
D11*
X152100000Y-122615000D03*
X152100000Y-125155000D03*
%TD*%
D10*
%TO.C,servo1*%
X152100000Y-102560000D03*
D11*
X152100000Y-105100000D03*
X152100000Y-107640000D03*
%TD*%
D17*
%TO.C,driver2*%
X137125000Y-142195000D03*
X137125000Y-143495000D03*
X137125000Y-144795000D03*
X138425000Y-142195000D03*
X138425000Y-143495000D03*
X138425000Y-144795000D03*
%TD*%
D10*
%TO.C,conectormotor2*%
X151975000Y-139640000D03*
D11*
X151975000Y-137100000D03*
%TD*%
D10*
%TO.C,voltajesensores2*%
X126300000Y-144500000D03*
D11*
X126300000Y-147040000D03*
%TD*%
D18*
%TO.C,D3*%
X145305000Y-154300000D03*
D19*
X135145000Y-154300000D03*
%TD*%
M02*
