%TF.GenerationSoftware,KiCad,Pcbnew,8.0.2-1*%
%TF.CreationDate,2025-02-04T18:40:10-06:00*%
%TF.ProjectId,ADACHI,41444143-4849-42e6-9b69-6361645f7063,rev?*%
%TF.SameCoordinates,Original*%
%TF.FileFunction,Copper,L1,Top*%
%TF.FilePolarity,Positive*%
%FSLAX46Y46*%
G04 Gerber Fmt 4.6, Leading zero omitted, Abs format (unit mm)*
G04 Created by KiCad (PCBNEW 8.0.2-1) date 2025-02-04 18:40:10*
%MOMM*%
%LPD*%
G01*
G04 APERTURE LIST*
G04 Aperture macros list*
%AMRoundRect*
0 Rectangle with rounded corners*
0 $1 Rounding radius*
0 $2 $3 $4 $5 $6 $7 $8 $9 X,Y pos of 4 corners*
0 Add a 4 corners polygon primitive as box body*
4,1,4,$2,$3,$4,$5,$6,$7,$8,$9,$2,$3,0*
0 Add four circle primitives for the rounded corners*
1,1,$1+$1,$2,$3*
1,1,$1+$1,$4,$5*
1,1,$1+$1,$6,$7*
1,1,$1+$1,$8,$9*
0 Add four rect primitives between the rounded corners*
20,1,$1+$1,$2,$3,$4,$5,0*
20,1,$1+$1,$4,$5,$6,$7,0*
20,1,$1+$1,$6,$7,$8,$9,0*
20,1,$1+$1,$8,$9,$2,$3,0*%
%AMOutline5P*
0 Free polygon, 5 corners , with rotation*
0 The origin of the aperture is its center*
0 number of corners: always 5*
0 $1 to $10 corner X, Y*
0 $11 Rotation angle, in degrees counterclockwise*
0 create outline with 5 corners*
4,1,5,$1,$2,$3,$4,$5,$6,$7,$8,$9,$10,$1,$2,$11*%
%AMOutline6P*
0 Free polygon, 6 corners , with rotation*
0 The origin of the aperture is its center*
0 number of corners: always 6*
0 $1 to $12 corner X, Y*
0 $13 Rotation angle, in degrees counterclockwise*
0 create outline with 6 corners*
4,1,6,$1,$2,$3,$4,$5,$6,$7,$8,$9,$10,$11,$12,$1,$2,$13*%
%AMOutline7P*
0 Free polygon, 7 corners , with rotation*
0 The origin of the aperture is its center*
0 number of corners: always 7*
0 $1 to $14 corner X, Y*
0 $15 Rotation angle, in degrees counterclockwise*
0 create outline with 7 corners*
4,1,7,$1,$2,$3,$4,$5,$6,$7,$8,$9,$10,$11,$12,$13,$14,$1,$2,$15*%
%AMOutline8P*
0 Free polygon, 8 corners , with rotation*
0 The origin of the aperture is its center*
0 number of corners: always 8*
0 $1 to $16 corner X, Y*
0 $17 Rotation angle, in degrees counterclockwise*
0 create outline with 8 corners*
4,1,8,$1,$2,$3,$4,$5,$6,$7,$8,$9,$10,$11,$12,$13,$14,$15,$16,$1,$2,$17*%
G04 Aperture macros list end*
%TA.AperFunction,ComponentPad*%
%ADD10R,1.700000X1.700000*%
%TD*%
%TA.AperFunction,ComponentPad*%
%ADD11O,1.700000X1.700000*%
%TD*%
%TA.AperFunction,SMDPad,CuDef*%
%ADD12RoundRect,0.200000X0.275000X-0.200000X0.275000X0.200000X-0.275000X0.200000X-0.275000X-0.200000X0*%
%TD*%
%TA.AperFunction,SMDPad,CuDef*%
%ADD13RoundRect,0.225000X0.250000X-0.225000X0.250000X0.225000X-0.250000X0.225000X-0.250000X-0.225000X0*%
%TD*%
%TA.AperFunction,ComponentPad*%
%ADD14C,2.600000*%
%TD*%
%TA.AperFunction,ConnectorPad*%
%ADD15C,3.500000*%
%TD*%
%TA.AperFunction,SMDPad,CuDef*%
%ADD16RoundRect,0.250000X0.850000X0.350000X-0.850000X0.350000X-0.850000X-0.350000X0.850000X-0.350000X0*%
%TD*%
%TA.AperFunction,SMDPad,CuDef*%
%ADD17RoundRect,0.250000X1.275000X1.125000X-1.275000X1.125000X-1.275000X-1.125000X1.275000X-1.125000X0*%
%TD*%
%TA.AperFunction,SMDPad,CuDef*%
%ADD18RoundRect,0.249997X2.950003X2.650003X-2.950003X2.650003X-2.950003X-2.650003X2.950003X-2.650003X0*%
%TD*%
%TA.AperFunction,SMDPad,CuDef*%
%ADD19RoundRect,0.225000X-0.250000X0.225000X-0.250000X-0.225000X0.250000X-0.225000X0.250000X0.225000X0*%
%TD*%
%TA.AperFunction,SMDPad,CuDef*%
%ADD20RoundRect,0.200000X-0.275000X0.200000X-0.275000X-0.200000X0.275000X-0.200000X0.275000X0.200000X0*%
%TD*%
%TA.AperFunction,ComponentPad*%
%ADD21R,1.500000X1.500000*%
%TD*%
%TA.AperFunction,ComponentPad*%
%ADD22C,1.600000*%
%TD*%
%TA.AperFunction,SMDPad,CuDef*%
%ADD23RoundRect,0.218750X0.256250X-0.218750X0.256250X0.218750X-0.256250X0.218750X-0.256250X-0.218750X0*%
%TD*%
%TA.AperFunction,SMDPad,CuDef*%
%ADD24RoundRect,0.250000X-1.100000X0.325000X-1.100000X-0.325000X1.100000X-0.325000X1.100000X0.325000X0*%
%TD*%
%TA.AperFunction,SMDPad,CuDef*%
%ADD25R,1.050000X0.650000*%
%TD*%
%TA.AperFunction,ConnectorPad*%
%ADD26C,3.800000*%
%TD*%
%TA.AperFunction,SMDPad,CuDef*%
%ADD27R,1.000000X0.600000*%
%TD*%
%TA.AperFunction,SMDPad,CuDef*%
%ADD28R,2.200000X0.500000*%
%TD*%
%TA.AperFunction,ComponentPad*%
%ADD29C,0.630000*%
%TD*%
%TA.AperFunction,SMDPad,CuDef*%
%ADD30R,2.950000X4.900000*%
%TD*%
%TA.AperFunction,SMDPad,CuDef*%
%ADD31RoundRect,0.375000X0.625000X0.375000X-0.625000X0.375000X-0.625000X-0.375000X0.625000X-0.375000X0*%
%TD*%
%TA.AperFunction,SMDPad,CuDef*%
%ADD32RoundRect,0.500000X0.500000X1.400000X-0.500000X1.400000X-0.500000X-1.400000X0.500000X-1.400000X0*%
%TD*%
%TA.AperFunction,SMDPad,CuDef*%
%ADD33R,0.800000X0.400000*%
%TD*%
%TA.AperFunction,SMDPad,CuDef*%
%ADD34R,0.400000X0.800000*%
%TD*%
%TA.AperFunction,SMDPad,CuDef*%
%ADD35Outline5P,-0.600000X0.204000X-0.204000X0.600000X0.600000X0.600000X0.600000X-0.600000X-0.600000X-0.600000X0.000000*%
%TD*%
%TA.AperFunction,SMDPad,CuDef*%
%ADD36R,1.200000X1.200000*%
%TD*%
%TA.AperFunction,SMDPad,CuDef*%
%ADD37R,0.800000X0.800000*%
%TD*%
%TA.AperFunction,ComponentPad*%
%ADD38R,2.200000X2.200000*%
%TD*%
%TA.AperFunction,ComponentPad*%
%ADD39O,2.200000X2.200000*%
%TD*%
%TA.AperFunction,ViaPad*%
%ADD40C,0.600000*%
%TD*%
%TA.AperFunction,Conductor*%
%ADD41C,0.200000*%
%TD*%
G04 APERTURE END LIST*
D10*
%TO.P,J2,1,Pin_1*%
%TO.N,GND*%
X148100000Y-98420000D03*
D11*
%TO.P,J2,2,Pin_2*%
%TO.N,BOOT*%
X148100000Y-100960000D03*
%TO.P,J2,3,Pin_3*%
%TO.N,EN*%
X148100000Y-103500000D03*
%TO.P,J2,4,Pin_4*%
%TO.N,TX*%
X148100000Y-106040000D03*
%TO.P,J2,5,Pin_5*%
%TO.N,RX*%
X148100000Y-108580000D03*
%TO.P,J2,6,Pin_6*%
%TO.N,3.3v*%
X148100000Y-111120000D03*
%TD*%
D12*
%TO.P,R2210k1,1*%
%TO.N,Net-(sensores1-Pin_8)*%
X129400000Y-134200000D03*
%TO.P,R2210k1,2*%
%TO.N,sensor8*%
X129400000Y-132550000D03*
%TD*%
D13*
%TO.P,C6,1*%
%TO.N,5v*%
X143400000Y-125675000D03*
%TO.P,C6,2*%
%TO.N,GND*%
X143400000Y-124125000D03*
%TD*%
D10*
%TO.P,xt30,1,Pin_1*%
%TO.N,Net-(positivo1-B)*%
X149525000Y-154300000D03*
D11*
%TO.P,xt30,2,Pin_2*%
%TO.N,Net-(negativo1-B)*%
X152065000Y-154300000D03*
%TD*%
D14*
%TO.P,H4,1*%
%TO.N,N/C*%
X126100000Y-153900000D03*
D15*
X126100000Y-153900000D03*
%TD*%
D16*
%TO.P,U1,1,IN*%
%TO.N,24v*%
X142200000Y-133200000D03*
D17*
%TO.P,U1,2,GND*%
%TO.N,GND*%
X137575000Y-132445000D03*
X137575000Y-129395000D03*
D18*
X135900000Y-130920000D03*
D17*
X134225000Y-132445000D03*
X134225000Y-129395000D03*
D16*
%TO.P,U1,3,OUT*%
%TO.N,5v*%
X142200000Y-128640000D03*
%TD*%
D10*
%TO.P,voltajesensores1,1,Pin_1*%
%TO.N,5v*%
X125800000Y-104625000D03*
D11*
%TO.P,voltajesensores1,2,Pin_2*%
%TO.N,GND*%
X125800000Y-107165000D03*
%TD*%
D12*
%TO.P,R4,1*%
%TO.N,5v*%
X146900000Y-129625000D03*
%TO.P,R4,2*%
%TO.N,Net-(led5v1-A)*%
X146900000Y-127975000D03*
%TD*%
D19*
%TO.P,C1,1*%
%TO.N,24v*%
X144900000Y-133500000D03*
%TO.P,C1,2*%
%TO.N,GND*%
X144900000Y-135050000D03*
%TD*%
D20*
%TO.P,R920k1,1*%
%TO.N,sensor2*%
X127500000Y-114550000D03*
%TO.P,R920k1,2*%
%TO.N,GND*%
X127500000Y-116200000D03*
%TD*%
D10*
%TO.P,servo2,1,Pin_1*%
%TO.N,servo2*%
X152100000Y-111360000D03*
D11*
%TO.P,servo2,2,Pin_2*%
%TO.N,5v*%
X152100000Y-113900000D03*
%TO.P,servo2,3,Pin_3*%
%TO.N,GND*%
X152100000Y-116440000D03*
%TD*%
D12*
%TO.P,R1410k1,1*%
%TO.N,Net-(sensores1-Pin_4)*%
X129400000Y-122200000D03*
%TO.P,R1410k1,2*%
%TO.N,sensor4*%
X129400000Y-120550000D03*
%TD*%
D10*
%TO.P,sensores1,1,Pin_1*%
%TO.N,Net-(sensores1-Pin_1)*%
X125100000Y-114480000D03*
D11*
%TO.P,sensores1,2,Pin_2*%
%TO.N,Net-(sensores1-Pin_2)*%
X125100000Y-117020000D03*
%TO.P,sensores1,3,Pin_3*%
%TO.N,Net-(sensores1-Pin_3)*%
X125100000Y-119560000D03*
%TO.P,sensores1,4,Pin_4*%
%TO.N,Net-(sensores1-Pin_4)*%
X125100000Y-122100000D03*
%TO.P,sensores1,5,Pin_5*%
%TO.N,Net-(sensores1-Pin_5)*%
X125100000Y-124640000D03*
%TO.P,sensores1,6,Pin_6*%
%TO.N,Net-(sensores1-Pin_6)*%
X125100000Y-127180000D03*
%TO.P,sensores1,7,Pin_7*%
%TO.N,Net-(sensores1-Pin_7)*%
X125100000Y-129720000D03*
%TO.P,sensores1,8,Pin_8*%
%TO.N,Net-(sensores1-Pin_8)*%
X125100000Y-132260000D03*
%TO.P,sensores1,9,Pin_9*%
%TO.N,Net-(sensores1-Pin_9)*%
X125100000Y-134800000D03*
%TO.P,sensores1,10,Pin_10*%
%TO.N,Net-(sensores1-Pin_10)*%
X125100000Y-137340000D03*
%TD*%
D14*
%TO.P,H1,1*%
%TO.N,N/C*%
X151700000Y-98300000D03*
D15*
X151700000Y-98300000D03*
%TD*%
D20*
%TO.P,R1,1*%
%TO.N,BT1*%
X148400000Y-124275000D03*
%TO.P,R1,2*%
%TO.N,GND*%
X148400000Y-125925000D03*
%TD*%
D21*
%TO.P,negativo1,1,B*%
%TO.N,Net-(negativo1-B)*%
X152600000Y-146740000D03*
D22*
%TO.P,negativo1,2,C*%
%TO.N,GND*%
X152600000Y-144200000D03*
%TO.P,negativo1,3,A*%
%TO.N,unconnected-(negativo1-A-Pad3)*%
X152600000Y-149280000D03*
%TD*%
D20*
%TO.P,R2,1*%
%TO.N,BT2*%
X148600000Y-127900000D03*
%TO.P,R2,2*%
%TO.N,GND*%
X148600000Y-129550000D03*
%TD*%
D23*
%TO.P,led5v1,1,K*%
%TO.N,GND*%
X148500000Y-122187500D03*
%TO.P,led5v1,2,A*%
%TO.N,Net-(led5v1-A)*%
X148500000Y-120612500D03*
%TD*%
D12*
%TO.P,R1120k1,1*%
%TO.N,sensor3*%
X127500000Y-119200000D03*
%TO.P,R1120k1,2*%
%TO.N,GND*%
X127500000Y-117550000D03*
%TD*%
D13*
%TO.P,C5,1*%
%TO.N,24v*%
X144900000Y-131475000D03*
%TO.P,C5,2*%
%TO.N,GND*%
X144900000Y-129925000D03*
%TD*%
D19*
%TO.P,C7,1*%
%TO.N,3.3v*%
X143400000Y-121125000D03*
%TO.P,C7,2*%
%TO.N,GND*%
X143400000Y-122675000D03*
%TD*%
D20*
%TO.P,R7,1*%
%TO.N,sensor1*%
X124900000Y-110600000D03*
%TO.P,R7,2*%
%TO.N,GND*%
X124900000Y-112250000D03*
%TD*%
D24*
%TO.P,C4,1*%
%TO.N,24v*%
X144800000Y-143300000D03*
%TO.P,C4,2*%
%TO.N,GND*%
X144800000Y-146250000D03*
%TD*%
D12*
%TO.P,R1210k1,1*%
%TO.N,Net-(sensores1-Pin_3)*%
X129400000Y-119200000D03*
%TO.P,R1210k1,2*%
%TO.N,sensor3*%
X129400000Y-117550000D03*
%TD*%
D20*
%TO.P,R2610k1,1*%
%TO.N,Net-(sensores1-Pin_10)*%
X126500000Y-139275000D03*
%TO.P,R2610k1,2*%
%TO.N,sensor10*%
X126500000Y-140925000D03*
%TD*%
D25*
%TO.P,RESET1,1,1*%
%TO.N,GND*%
X143725000Y-115625000D03*
X147875000Y-115625000D03*
%TO.P,RESET1,2,2*%
%TO.N,EN*%
X143725000Y-117775000D03*
X147850000Y-117775000D03*
%TD*%
D14*
%TO.P,H2,1*%
%TO.N,N/C*%
X126400000Y-98600000D03*
D26*
X126400000Y-98600000D03*
%TD*%
D25*
%TO.P,boton1,1,1*%
%TO.N,BT1*%
X138475000Y-150575000D03*
X134325000Y-150575000D03*
%TO.P,boton1,2,2*%
%TO.N,3.3v*%
X138475000Y-148425000D03*
X134350000Y-148425000D03*
%TD*%
D24*
%TO.P,C2,1*%
%TO.N,24v*%
X144700000Y-137700000D03*
%TO.P,C2,2*%
%TO.N,GND*%
X144700000Y-140650000D03*
%TD*%
D21*
%TO.P,positivo1,1,B*%
%TO.N,Net-(positivo1-B)*%
X149600000Y-146740000D03*
D22*
%TO.P,positivo1,2,C*%
%TO.N,Net-(D3-K)*%
X149600000Y-144200000D03*
%TO.P,positivo1,3,A*%
%TO.N,unconnected-(positivo1-A-Pad3)*%
X149600000Y-149280000D03*
%TD*%
D27*
%TO.P,D4,1,DOUT*%
%TO.N,Net-(D4-DOUT)*%
X132300000Y-151900000D03*
%TO.P,D4,2,VSS*%
%TO.N,GND*%
X132300000Y-150600000D03*
%TO.P,D4,3,DIN*%
%TO.N,Net-(D1-DOUT)*%
X130300000Y-150600000D03*
%TO.P,D4,4,VDD*%
%TO.N,5v*%
X130300000Y-151900000D03*
%TD*%
D12*
%TO.P,R1010k1,1*%
%TO.N,Net-(sensores1-Pin_2)*%
X129400000Y-116200000D03*
%TO.P,R1010k1,2*%
%TO.N,sensor2*%
X129400000Y-114550000D03*
%TD*%
%TO.P,R1610k1,1*%
%TO.N,Net-(sensores1-Pin_5)*%
X129400000Y-125200000D03*
%TO.P,R1610k1,2*%
%TO.N,sensor5*%
X129400000Y-123550000D03*
%TD*%
D20*
%TO.P,R1520k1,1*%
%TO.N,sensor5*%
X127500000Y-123550000D03*
%TO.P,R1520k1,2*%
%TO.N,GND*%
X127500000Y-125200000D03*
%TD*%
D12*
%TO.P,R5,1*%
%TO.N,EN*%
X141800000Y-117625000D03*
%TO.P,R5,2*%
%TO.N,3.3v*%
X141800000Y-115975000D03*
%TD*%
D10*
%TO.P,conectormotor1,1,Pin_1*%
%TO.N,Net-(conectormotor1-Pin_1)*%
X152075000Y-133450000D03*
D11*
%TO.P,conectormotor1,2,Pin_2*%
%TO.N,Net-(conectormotor1-Pin_2)*%
X152075000Y-130910000D03*
%TD*%
D28*
%TO.P,driver1,1,GND*%
%TO.N,GND*%
X134900000Y-135900000D03*
%TO.P,driver1,2,IN2*%
%TO.N,MA2*%
X134900000Y-137170000D03*
%TO.P,driver1,3,IN1*%
%TO.N,MA1*%
X134900000Y-138440000D03*
%TO.P,driver1,4,ILIM*%
%TO.N,GND*%
X134900000Y-139710000D03*
%TO.P,driver1,5,VM*%
%TO.N,24v*%
X140650000Y-139710000D03*
%TO.P,driver1,6,OUT1*%
%TO.N,Net-(conectormotor1-Pin_1)*%
X140650000Y-138440000D03*
%TO.P,driver1,7,GND*%
%TO.N,GND*%
X140650000Y-137170000D03*
%TO.P,driver1,8,OUT2*%
%TO.N,Net-(conectormotor1-Pin_2)*%
X140650000Y-135900000D03*
D29*
%TO.P,driver1,9,GND*%
%TO.N,GND*%
X137125000Y-136505000D03*
X137125000Y-137805000D03*
X137125000Y-139105000D03*
D30*
X137775000Y-137805000D03*
D29*
X138425000Y-136505000D03*
X138425000Y-137805000D03*
X138425000Y-139105000D03*
%TD*%
D20*
%TO.P,R2320k1,1*%
%TO.N,sensor9*%
X127500000Y-135650000D03*
%TO.P,R2320k1,2*%
%TO.N,GND*%
X127500000Y-137300000D03*
%TD*%
D31*
%TO.P,reguladr3v1,1,ADJ*%
%TO.N,GND*%
X140000000Y-125000000D03*
%TO.P,reguladr3v1,2,VO*%
%TO.N,3.3v*%
X140000000Y-122700000D03*
D32*
X133700000Y-122700000D03*
D31*
%TO.P,reguladr3v1,3,VI*%
%TO.N,5v*%
X140000000Y-120400000D03*
%TD*%
D20*
%TO.P,R1720k1,1*%
%TO.N,sensor6*%
X127500000Y-126650000D03*
%TO.P,R1720k1,2*%
%TO.N,GND*%
X127500000Y-128300000D03*
%TD*%
D12*
%TO.P,R2010k1,1*%
%TO.N,Net-(sensores1-Pin_7)*%
X129400000Y-131200000D03*
%TO.P,R2010k1,2*%
%TO.N,sensor7*%
X129400000Y-129550000D03*
%TD*%
D19*
%TO.P,C3,1*%
%TO.N,24v*%
X147100000Y-133600000D03*
%TO.P,C3,2*%
%TO.N,GND*%
X147100000Y-135150000D03*
%TD*%
D20*
%TO.P,R2520k1,1*%
%TO.N,sensor10*%
X124800000Y-139275000D03*
%TO.P,R2520k1,2*%
%TO.N,GND*%
X124800000Y-140925000D03*
%TD*%
D23*
%TO.P,led1,1,K*%
%TO.N,GND*%
X146900000Y-122087500D03*
%TO.P,led1,2,A*%
%TO.N,Net-(led1-A)*%
X146900000Y-120512500D03*
%TD*%
D25*
%TO.P,boton2,1,1*%
%TO.N,BT2*%
X145975000Y-150475000D03*
X141825000Y-150475000D03*
%TO.P,boton2,2,2*%
%TO.N,3.3v*%
X145975000Y-148325000D03*
X141850000Y-148325000D03*
%TD*%
%TO.P,BOOT1,1,1*%
%TO.N,GND*%
X133325000Y-115725000D03*
X137475000Y-115725000D03*
%TO.P,BOOT1,2,2*%
%TO.N,GPIO0*%
X133325000Y-117875000D03*
X137450000Y-117875000D03*
%TD*%
D10*
%TO.P,arrancador1,1,Pin_1*%
%TO.N,arrancador*%
X152100000Y-120075000D03*
D11*
%TO.P,arrancador1,2,Pin_2*%
%TO.N,GND*%
X152100000Y-122615000D03*
%TO.P,arrancador1,3,Pin_3*%
%TO.N,5v*%
X152100000Y-125155000D03*
%TD*%
D20*
%TO.P,R2410k1,1*%
%TO.N,Net-(sensores1-Pin_9)*%
X129400000Y-135650000D03*
%TO.P,R2410k1,2*%
%TO.N,sensor9*%
X129400000Y-137300000D03*
%TD*%
D12*
%TO.P,R3,1*%
%TO.N,3.3v*%
X146800000Y-126025000D03*
%TO.P,R3,2*%
%TO.N,Net-(led1-A)*%
X146800000Y-124375000D03*
%TD*%
D10*
%TO.P,servo1,1,Pin_1*%
%TO.N,servo1*%
X152100000Y-102560000D03*
D11*
%TO.P,servo1,2,Pin_2*%
%TO.N,5v*%
X152100000Y-105100000D03*
%TO.P,servo1,3,Pin_3*%
%TO.N,GND*%
X152100000Y-107640000D03*
%TD*%
D12*
%TO.P,R1810k1,1*%
%TO.N,Net-(sensores1-Pin_6)*%
X129400000Y-128200000D03*
%TO.P,R1810k1,2*%
%TO.N,sensor6*%
X129400000Y-126550000D03*
%TD*%
%TO.P,R6,1*%
%TO.N,GPIO0*%
X139400000Y-117625000D03*
%TO.P,R6,2*%
%TO.N,3.3v*%
X139400000Y-115975000D03*
%TD*%
D20*
%TO.P,R1920k1,1*%
%TO.N,sensor7*%
X127400000Y-129650000D03*
%TO.P,R1920k1,2*%
%TO.N,GND*%
X127400000Y-131300000D03*
%TD*%
D33*
%TO.P,U2,1,GND*%
%TO.N,GND*%
X130700000Y-98550000D03*
%TO.P,U2,2,GND*%
X130700000Y-99400000D03*
%TO.P,U2,3,3V3*%
%TO.N,3.3v*%
X130700000Y-100250000D03*
%TO.P,U2,4,IO0*%
%TO.N,BOOT*%
X130700000Y-101100000D03*
%TO.P,U2,5,IO1*%
%TO.N,sensor2*%
X130700000Y-101950000D03*
%TO.P,U2,6,IO2*%
%TO.N,sensor3*%
X130700000Y-102800000D03*
%TO.P,U2,7,IO3*%
%TO.N,unconnected-(U2-IO3-Pad7)*%
X130700000Y-103650000D03*
%TO.P,U2,8,IO4*%
%TO.N,sensor4*%
X130700000Y-104500000D03*
%TO.P,U2,9,IO5*%
%TO.N,MA1*%
X130700000Y-105350000D03*
%TO.P,U2,10,IO6*%
%TO.N,MA2*%
X130700000Y-106200000D03*
%TO.P,U2,11,IO7*%
%TO.N,sensor5*%
X130700000Y-107050000D03*
%TO.P,U2,12,IO8*%
%TO.N,sensor6*%
X130700000Y-107900000D03*
%TO.P,U2,13,IO9*%
%TO.N,sensor7*%
X130700000Y-108750000D03*
%TO.P,U2,14,IO10*%
%TO.N,sensor8*%
X130700000Y-109600000D03*
%TO.P,U2,15,IO11*%
%TO.N,sensor9*%
X130700000Y-110450000D03*
D34*
%TO.P,U2,16,IO12*%
%TO.N,sensor10*%
X131750000Y-111500000D03*
%TO.P,U2,17,IO13*%
%TO.N,servo2*%
X132600000Y-111500000D03*
%TO.P,U2,18,IO14*%
%TO.N,servo1*%
X133450000Y-111500000D03*
%TO.P,U2,19,IO15*%
%TO.N,unconnected-(U2-IO15-Pad19)*%
X134300000Y-111500000D03*
%TO.P,U2,20,IO16*%
%TO.N,unconnected-(U2-IO16-Pad20)*%
X135150000Y-111500000D03*
%TO.P,U2,21,IO17*%
%TO.N,sensor1*%
X136000000Y-111500000D03*
%TO.P,U2,22,IO18*%
%TO.N,leds*%
X136850000Y-111500000D03*
%TO.P,U2,23,IO19*%
%TO.N,arrancador*%
X137700000Y-111500000D03*
%TO.P,U2,24,IO20*%
%TO.N,MB2*%
X138550000Y-111500000D03*
%TO.P,U2,25,IO21*%
%TO.N,MB1*%
X139400000Y-111500000D03*
%TO.P,U2,26,IO26*%
%TO.N,unconnected-(U2-IO26-Pad26)*%
X140250000Y-111500000D03*
%TO.P,U2,27,IO47*%
%TO.N,unconnected-(U2-IO47-Pad27)*%
X141100000Y-111500000D03*
%TO.P,U2,28,IO33*%
%TO.N,unconnected-(U2-IO33-Pad28)*%
X141950000Y-111500000D03*
%TO.P,U2,29,IO34*%
%TO.N,unconnected-(U2-IO34-Pad29)*%
X142800000Y-111500000D03*
%TO.P,U2,30,IO48*%
%TO.N,unconnected-(U2-IO48-Pad30)*%
X143650000Y-111500000D03*
D33*
%TO.P,U2,31,IO35*%
%TO.N,unconnected-(U2-IO35-Pad31)*%
X144700000Y-110450000D03*
%TO.P,U2,32,IO36*%
%TO.N,unconnected-(U2-IO36-Pad32)*%
X144700000Y-109600000D03*
%TO.P,U2,33,IO37*%
%TO.N,unconnected-(U2-IO37-Pad33)*%
X144700000Y-108750000D03*
%TO.P,U2,34,IO38*%
%TO.N,BT1*%
X144700000Y-107900000D03*
%TO.P,U2,35,IO39*%
%TO.N,BT2*%
X144700000Y-107050000D03*
%TO.P,U2,36,IO40*%
%TO.N,unconnected-(U2-IO40-Pad36)*%
X144700000Y-106200000D03*
%TO.P,U2,37,IO41*%
%TO.N,unconnected-(U2-IO41-Pad37)*%
X144700000Y-105350000D03*
%TO.P,U2,38,IO42*%
%TO.N,unconnected-(U2-IO42-Pad38)*%
X144700000Y-104500000D03*
%TO.P,U2,39,TXD0*%
%TO.N,RX*%
X144700000Y-103650000D03*
%TO.P,U2,40,RXD0*%
%TO.N,TX*%
X144700000Y-102800000D03*
%TO.P,U2,41,IO45*%
%TO.N,unconnected-(U2-IO45-Pad41)*%
X144700000Y-101950000D03*
%TO.P,U2,42,GND*%
%TO.N,GND*%
X144700000Y-101100000D03*
%TO.P,U2,43,GND*%
X144700000Y-100250000D03*
%TO.P,U2,44,IO46*%
%TO.N,unconnected-(U2-IO46-Pad44)*%
X144700000Y-99400000D03*
%TO.P,U2,45,EN*%
%TO.N,EN*%
X144700000Y-98550000D03*
D34*
%TO.P,U2,46,GND*%
%TO.N,GND*%
X143650000Y-97500000D03*
%TO.P,U2,47,GND*%
X142800000Y-97500000D03*
%TO.P,U2,48,GND*%
X141950000Y-97500000D03*
%TO.P,U2,49,GND*%
X141100000Y-97500000D03*
%TO.P,U2,50,GND*%
X140250000Y-97500000D03*
%TO.P,U2,51,GND*%
X139400000Y-97500000D03*
%TO.P,U2,52,GND*%
X138550000Y-97500000D03*
%TO.P,U2,53,GND*%
X137700000Y-97500000D03*
%TO.P,U2,54,GND*%
X136850000Y-97500000D03*
%TO.P,U2,55,GND*%
X136000000Y-97500000D03*
%TO.P,U2,56,GND*%
X135150000Y-97500000D03*
%TO.P,U2,57,GND*%
X134300000Y-97500000D03*
%TO.P,U2,58,GND*%
X133450000Y-97500000D03*
%TO.P,U2,59,GND*%
X132600000Y-97500000D03*
%TO.P,U2,60,GND*%
X131750000Y-97500000D03*
D35*
%TO.P,U2,61,GND*%
X136050000Y-102850000D03*
D36*
X136050000Y-104500000D03*
X136050000Y-106150000D03*
X137700000Y-102850000D03*
X137700000Y-104500000D03*
X137700000Y-106150000D03*
X139350000Y-102850000D03*
X139350000Y-104500000D03*
X139350000Y-106150000D03*
D37*
%TO.P,U2,62,GND*%
X130700000Y-97500000D03*
%TO.P,U2,63,GND*%
X130700000Y-111500000D03*
%TO.P,U2,64,GND*%
X144700000Y-111500000D03*
%TO.P,U2,65,GND*%
X144700000Y-97500000D03*
%TD*%
D20*
%TO.P,R1320k1,1*%
%TO.N,sensor4*%
X127500000Y-120550000D03*
%TO.P,R1320k1,2*%
%TO.N,GND*%
X127500000Y-122200000D03*
%TD*%
D12*
%TO.P,R8,1*%
%TO.N,Net-(sensores1-Pin_1)*%
X126400000Y-112225000D03*
%TO.P,R8,2*%
%TO.N,sensor1*%
X126400000Y-110575000D03*
%TD*%
D27*
%TO.P,D2,1,DOUT*%
%TO.N,unconnected-(D2-DOUT-Pad1)*%
X130300000Y-144600000D03*
%TO.P,D2,2,VSS*%
%TO.N,GND*%
X130300000Y-145900000D03*
%TO.P,D2,3,DIN*%
%TO.N,Net-(D2-DIN)*%
X132300000Y-145900000D03*
%TO.P,D2,4,VDD*%
%TO.N,5v*%
X132300000Y-144600000D03*
%TD*%
D28*
%TO.P,driver2,1,GND*%
%TO.N,GND*%
X134900000Y-141590000D03*
%TO.P,driver2,2,IN2*%
%TO.N,MB2*%
X134900000Y-142860000D03*
%TO.P,driver2,3,IN1*%
%TO.N,MB1*%
X134900000Y-144130000D03*
%TO.P,driver2,4,ILIM*%
%TO.N,GND*%
X134900000Y-145400000D03*
%TO.P,driver2,5,VM*%
%TO.N,24v*%
X140650000Y-145400000D03*
%TO.P,driver2,6,OUT1*%
%TO.N,Net-(conectormotor2-Pin_1)*%
X140650000Y-144130000D03*
%TO.P,driver2,7,GND*%
%TO.N,GND*%
X140650000Y-142860000D03*
%TO.P,driver2,8,OUT2*%
%TO.N,Net-(conectormotor2-Pin_2)*%
X140650000Y-141590000D03*
D29*
%TO.P,driver2,9,GND*%
%TO.N,GND*%
X137125000Y-142195000D03*
X137125000Y-143495000D03*
X137125000Y-144795000D03*
D30*
X137775000Y-143495000D03*
D29*
X138425000Y-142195000D03*
X138425000Y-143495000D03*
X138425000Y-144795000D03*
%TD*%
D20*
%TO.P,R2120k1,1*%
%TO.N,sensor8*%
X127500000Y-132650000D03*
%TO.P,R2120k1,2*%
%TO.N,GND*%
X127500000Y-134300000D03*
%TD*%
D10*
%TO.P,conectormotor2,1,Pin_1*%
%TO.N,Net-(conectormotor2-Pin_1)*%
X151975000Y-139640000D03*
D11*
%TO.P,conectormotor2,2,Pin_2*%
%TO.N,Net-(conectormotor2-Pin_2)*%
X151975000Y-137100000D03*
%TD*%
D27*
%TO.P,D1,1,DOUT*%
%TO.N,Net-(D1-DOUT)*%
X130300000Y-147550000D03*
%TO.P,D1,2,VSS*%
%TO.N,GND*%
X130300000Y-148850000D03*
%TO.P,D1,3,DIN*%
%TO.N,leds*%
X132300000Y-148850000D03*
%TO.P,D1,4,VDD*%
%TO.N,5v*%
X132300000Y-147550000D03*
%TD*%
D10*
%TO.P,voltajesensores2,1,Pin_1*%
%TO.N,5v*%
X126300000Y-144500000D03*
D11*
%TO.P,voltajesensores2,2,Pin_2*%
%TO.N,GND*%
X126300000Y-147040000D03*
%TD*%
D27*
%TO.P,D5,1,DOUT*%
%TO.N,Net-(D2-DIN)*%
X130300000Y-153650000D03*
%TO.P,D5,2,VSS*%
%TO.N,GND*%
X130300000Y-154950000D03*
%TO.P,D5,3,DIN*%
%TO.N,Net-(D4-DOUT)*%
X132300000Y-154950000D03*
%TO.P,D5,4,VDD*%
%TO.N,5v*%
X132300000Y-153650000D03*
%TD*%
D38*
%TO.P,D3,1,K*%
%TO.N,Net-(D3-K)*%
X145305000Y-154300000D03*
D39*
%TO.P,D3,2,A*%
%TO.N,24v*%
X135145000Y-154300000D03*
%TD*%
D40*
%TO.N,arrancador*%
X137584400Y-114096400D03*
%TO.N,BOOT*%
X129795500Y-100864000D03*
%TO.N,5v*%
X144770300Y-127032800D03*
X132420700Y-143204900D03*
%TO.N,Net-(conectormotor1-Pin_1)*%
X142502800Y-134773000D03*
%TO.N,Net-(conectormotor1-Pin_2)*%
X141645800Y-131911700D03*
%TO.N,EN*%
X149982900Y-116964600D03*
X148854700Y-118649900D03*
%TO.N,BT2*%
X150324400Y-114135700D03*
X149976900Y-100547800D03*
X150082100Y-117984800D03*
X143659300Y-99805000D03*
%TO.N,24v*%
X140799000Y-148112500D03*
%TO.N,sensor2*%
X127404400Y-105142600D03*
X127755300Y-113089500D03*
%TO.N,sensor5*%
X126518700Y-123327100D03*
X132246500Y-108933300D03*
%TO.N,sensor3*%
X128494100Y-115419100D03*
X127423500Y-111459600D03*
%TO.N,Net-(conectormotor2-Pin_1)*%
X141112400Y-140738000D03*
%TO.N,Net-(conectormotor2-Pin_2)*%
X139761500Y-140738000D03*
%TO.N,MA1*%
X129795500Y-106809500D03*
X132959300Y-138070300D03*
%TO.N,MA2*%
X132693300Y-109698300D03*
X133125900Y-136264800D03*
%TO.N,leds*%
X138937700Y-134812400D03*
X141550700Y-122932500D03*
X135398100Y-114615800D03*
X133505000Y-147353200D03*
%TO.N,sensor8*%
X130540100Y-114747700D03*
X130543900Y-116683100D03*
%TO.N,sensor1*%
X133409300Y-102990300D03*
X124733200Y-106178200D03*
%TO.N,sensor7*%
X130246000Y-127419100D03*
X131811300Y-110112300D03*
%TO.N,sensor6*%
X128513500Y-109653300D03*
X125929900Y-115914800D03*
X126377900Y-120662400D03*
X130202600Y-121417500D03*
%TO.N,servo1*%
X133409300Y-105975200D03*
%TO.N,servo2*%
X133409300Y-112851600D03*
%TO.N,Net-(D2-DIN)*%
X131817400Y-146725000D03*
X130344700Y-152775000D03*
%TO.N,3.3v*%
X132694900Y-107091000D03*
%TO.N,MB1*%
X150665800Y-115170000D03*
X136201300Y-147201000D03*
X139461500Y-113176500D03*
X150227400Y-140538100D03*
%TO.N,BT1*%
X149564100Y-127029600D03*
X141032200Y-149632000D03*
%TO.N,Net-(sensores1-Pin_2)*%
X130466400Y-115668400D03*
%TO.N,Net-(sensores1-Pin_3)*%
X130115800Y-118419100D03*
%TO.N,Net-(sensores1-Pin_9)*%
X130656700Y-135345100D03*
%TD*%
D41*
%TO.N,arrancador*%
X137700000Y-113980800D02*
X137584400Y-114096400D01*
X137700000Y-111500000D02*
X137700000Y-113980800D01*
%TO.N,RX*%
X148100000Y-108580000D02*
X148100000Y-107428300D01*
X147831500Y-107428300D02*
X148100000Y-107428300D01*
X144700000Y-103650000D02*
X145401700Y-103650000D01*
X145401700Y-103650000D02*
X145401700Y-104998500D01*
X145401700Y-104998500D02*
X147831500Y-107428300D01*
%TO.N,BOOT*%
X129998300Y-101066800D02*
X129998300Y-101100000D01*
X129795500Y-100864000D02*
X129998300Y-101066800D01*
X130700000Y-101100000D02*
X129998300Y-101100000D01*
%TO.N,5v*%
X152100000Y-105100000D02*
X152100000Y-106251700D01*
X130300000Y-151900000D02*
X131101700Y-151900000D01*
X144764100Y-127039000D02*
X144764000Y-127039100D01*
X131498300Y-151900200D02*
X131498100Y-151900000D01*
X146796300Y-129625000D02*
X146900000Y-129625000D01*
X132300000Y-153650000D02*
X131498300Y-153650000D01*
X144770300Y-127032800D02*
X144764100Y-127039000D01*
X131498100Y-151900000D02*
X131498100Y-147550200D01*
X142200000Y-128640000D02*
X142200000Y-125675000D01*
X131498300Y-144600000D02*
X131215700Y-144882600D01*
X142200000Y-122600000D02*
X140000000Y-120400000D01*
X153251700Y-107115400D02*
X153251700Y-112411100D01*
X132300000Y-147550000D02*
X131498300Y-147550000D01*
X152100000Y-124003300D02*
X152387900Y-124003300D01*
X131498300Y-153650000D02*
X131498300Y-151900200D01*
X152914500Y-112748300D02*
X152100000Y-112748300D01*
X132300000Y-143325600D02*
X132300000Y-144600000D01*
X153295600Y-123095600D02*
X153295600Y-113129400D01*
X152100000Y-113900000D02*
X152100000Y-112748300D01*
X132420700Y-143204900D02*
X132300000Y-143325600D01*
X142200000Y-125675000D02*
X142200000Y-122600000D01*
X142200000Y-125675000D02*
X143400000Y-125675000D01*
X153251700Y-112411100D02*
X152914500Y-112748300D01*
X153295600Y-113129400D02*
X152914500Y-112748300D01*
X131498100Y-147550200D02*
X131498300Y-147550000D01*
X152100000Y-106251700D02*
X152388000Y-106251700D01*
X131215700Y-147267400D02*
X131498300Y-147550000D01*
X152387900Y-124003300D02*
X153295600Y-123095600D01*
X152388000Y-106251700D02*
X153251700Y-107115400D01*
X131215700Y-144882600D02*
X131215700Y-147267400D01*
X143400000Y-125675000D02*
X144764100Y-127039000D01*
X144764000Y-127039100D02*
X144764000Y-127592700D01*
X144764000Y-127592700D02*
X146796300Y-129625000D01*
X131498100Y-151900000D02*
X131101700Y-151900000D01*
X152100000Y-125155000D02*
X152100000Y-124003300D01*
X132300000Y-144600000D02*
X131498300Y-144600000D01*
%TO.N,Net-(conectormotor1-Pin_1)*%
X142502800Y-134773000D02*
X142502800Y-137988900D01*
X142502800Y-137988900D02*
X142051700Y-138440000D01*
X140650000Y-138440000D02*
X142051700Y-138440000D01*
%TO.N,Net-(conectormotor1-Pin_2)*%
X140742000Y-134176600D02*
X140742000Y-132555800D01*
X141386100Y-131911700D02*
X141645800Y-131911700D01*
X142051700Y-135486300D02*
X140742000Y-134176600D01*
X140650000Y-135900000D02*
X142051700Y-135900000D01*
X140742000Y-132555800D02*
X141386100Y-131911700D01*
X142051700Y-135900000D02*
X142051700Y-135486300D01*
%TO.N,EN*%
X149722700Y-105122700D02*
X149722700Y-116704400D01*
X147850000Y-117775000D02*
X148676700Y-117775000D01*
X148100000Y-102924100D02*
X148100000Y-102514600D01*
X148676700Y-118471900D02*
X148854700Y-118649900D01*
X148100000Y-103500000D02*
X148100000Y-103061000D01*
X143725000Y-117775000D02*
X147850000Y-117775000D01*
X141800000Y-117625000D02*
X142748300Y-117625000D01*
X148100000Y-103500000D02*
X149722700Y-105122700D01*
X144700000Y-98550000D02*
X145401700Y-98550000D01*
X145401700Y-98550000D02*
X145401700Y-99934200D01*
X143412500Y-117775000D02*
X143725000Y-117775000D01*
X143412500Y-117775000D02*
X142898300Y-117775000D01*
X147982100Y-102514600D02*
X148100000Y-102514600D01*
X145401700Y-99934200D02*
X147982100Y-102514600D01*
X149722700Y-116704400D02*
X149982900Y-116964600D01*
X142748300Y-117625000D02*
X142898300Y-117775000D01*
X148100000Y-102924100D02*
X148100000Y-103061000D01*
X148676700Y-117775000D02*
X148676700Y-118471900D01*
%TO.N,BT2*%
X143659300Y-106246900D02*
X143659300Y-99805000D01*
X150082100Y-117984800D02*
X150220700Y-118123400D01*
X146801700Y-150475000D02*
X147405800Y-149870900D01*
X150220700Y-127245400D02*
X149083100Y-128383000D01*
X150324400Y-114135700D02*
X150324400Y-100895300D01*
X141825000Y-150475000D02*
X145975000Y-150475000D01*
X144700000Y-107050000D02*
X144462400Y-107050000D01*
X149083100Y-128383000D02*
X148600000Y-127900000D01*
X144462400Y-107050000D02*
X143659300Y-106246900D01*
X150324400Y-100895300D02*
X149976900Y-100547800D01*
X145975000Y-150475000D02*
X146801700Y-150475000D01*
X149400900Y-135492400D02*
X149400900Y-128700900D01*
X147405800Y-149870900D02*
X147405800Y-137487500D01*
X150220700Y-118123400D02*
X150220700Y-127245400D01*
X147405800Y-137487500D02*
X149400900Y-135492400D01*
X149400900Y-128700900D02*
X149083100Y-128383000D01*
%TO.N,TX*%
X147490000Y-104888300D02*
X148100000Y-104888300D01*
X148100000Y-106040000D02*
X148100000Y-104888300D01*
X144700000Y-102800000D02*
X145401700Y-102800000D01*
X145401700Y-102800000D02*
X147490000Y-104888300D01*
%TO.N,24v*%
X142200000Y-133200000D02*
X143779800Y-133200000D01*
X144700000Y-137700000D02*
X146368500Y-139368500D01*
X142477300Y-139710000D02*
X140650000Y-139710000D01*
X144700000Y-137700000D02*
X145681200Y-136718800D01*
X142989800Y-139710000D02*
X142477300Y-139710000D01*
X144900000Y-133500000D02*
X144900000Y-131475000D01*
X140650000Y-145400000D02*
X141350900Y-145400000D01*
X142477300Y-144974400D02*
X142477300Y-139710000D01*
X146700600Y-133999400D02*
X145681200Y-133999400D01*
X142051700Y-145400000D02*
X142477300Y-144974400D01*
X144079800Y-133500000D02*
X144900000Y-133500000D01*
X144079800Y-138620000D02*
X142989800Y-139710000D01*
X141350900Y-145400000D02*
X142051700Y-145400000D01*
X146368500Y-139368500D02*
X146368500Y-141731500D01*
X144079800Y-133500000D02*
X144079800Y-138620000D01*
X146368500Y-141731500D02*
X144800000Y-143300000D01*
X140799000Y-145951900D02*
X141350900Y-145400000D01*
X145399400Y-133999400D02*
X144900000Y-133500000D01*
X140799000Y-148112500D02*
X140799000Y-145951900D01*
X145681200Y-133999400D02*
X145399400Y-133999400D01*
X143779800Y-133200000D02*
X144079800Y-133500000D01*
X145681200Y-136718800D02*
X145681200Y-133999400D01*
X147100000Y-133600000D02*
X146700600Y-133999400D01*
%TO.N,Net-(led1-A)*%
X146101700Y-121310800D02*
X146101700Y-123676700D01*
X146900000Y-120512500D02*
X146101700Y-121310800D01*
X146101700Y-123676700D02*
X146800000Y-124375000D01*
%TO.N,sensor2*%
X127500000Y-114550000D02*
X129400000Y-114550000D01*
X127500000Y-113344800D02*
X127500000Y-114550000D01*
X127755300Y-113089500D02*
X127500000Y-113344800D01*
X130700000Y-101950000D02*
X129998300Y-101950000D01*
X129998300Y-102548700D02*
X127404400Y-105142600D01*
X129998300Y-101950000D02*
X129998300Y-102548700D01*
%TO.N,sensor9*%
X131304400Y-114027000D02*
X131304400Y-135581500D01*
X131304400Y-135581500D02*
X129618400Y-137267500D01*
X129998300Y-110450000D02*
X129998300Y-112720900D01*
X129400000Y-137300000D02*
X129400000Y-137267500D01*
X130700000Y-110450000D02*
X129998300Y-110450000D01*
X127782500Y-135650000D02*
X129400000Y-137267500D01*
X129998300Y-112720900D02*
X131304400Y-114027000D01*
X129618400Y-137267500D02*
X129400000Y-137267500D01*
X127500000Y-135650000D02*
X127782500Y-135650000D01*
%TO.N,sensor5*%
X132246400Y-108410400D02*
X132246400Y-108933300D01*
X126518700Y-123327100D02*
X127277100Y-123327100D01*
X127277100Y-123327100D02*
X127500000Y-123550000D01*
X130700000Y-107050000D02*
X130886000Y-107050000D01*
X130886000Y-107050000D02*
X132246400Y-108410400D01*
X127500000Y-123550000D02*
X129400000Y-123550000D01*
X132246400Y-108933300D02*
X132246500Y-108933300D01*
%TO.N,sensor3*%
X127423500Y-111459600D02*
X127423500Y-105974400D01*
X128494100Y-115419100D02*
X128494100Y-117550000D01*
X128006100Y-105391800D02*
X128006100Y-105297400D01*
X129400000Y-117550000D02*
X128494100Y-117550000D01*
X130503500Y-102800000D02*
X130700000Y-102800000D01*
X128494100Y-118205900D02*
X127500000Y-119200000D01*
X128006100Y-105297400D02*
X130503500Y-102800000D01*
X127423500Y-105974400D02*
X128006100Y-105391800D01*
X128494100Y-117550000D02*
X128494100Y-118205900D01*
%TO.N,sensor4*%
X127500000Y-120550000D02*
X129400000Y-120550000D01*
X128025200Y-111210400D02*
X127864300Y-111049500D01*
X126679400Y-119729400D02*
X126679400Y-113314600D01*
X126679400Y-113314600D02*
X128025200Y-111968800D01*
X127864300Y-106634000D02*
X129998300Y-104500000D01*
X128025200Y-111968800D02*
X128025200Y-111210400D01*
X127864300Y-111049500D02*
X127864300Y-106634000D01*
X130700000Y-104500000D02*
X129998300Y-104500000D01*
X127500000Y-120550000D02*
X126679400Y-119729400D01*
%TO.N,Net-(conectormotor2-Pin_1)*%
X142051700Y-141171800D02*
X142051700Y-144130000D01*
X140650000Y-144130000D02*
X142051700Y-144130000D01*
X141617900Y-140738000D02*
X142051700Y-141171800D01*
X141112400Y-140738000D02*
X141617900Y-140738000D01*
%TO.N,Net-(conectormotor2-Pin_2)*%
X139761500Y-140738000D02*
X140613500Y-141590000D01*
X140613500Y-141590000D02*
X140650000Y-141590000D01*
%TO.N,MA1*%
X132959300Y-138070300D02*
X133128600Y-138070300D01*
X134900000Y-138440000D02*
X133498300Y-138440000D01*
X129998300Y-106606700D02*
X129795500Y-106809500D01*
X129998300Y-105350000D02*
X129998300Y-106606700D01*
X130700000Y-105350000D02*
X129998300Y-105350000D01*
X133128600Y-138070300D02*
X133498300Y-138440000D01*
%TO.N,MA2*%
X132848200Y-108171500D02*
X130876700Y-106200000D01*
X132693300Y-109698300D02*
X132848200Y-109543400D01*
X133498300Y-137170000D02*
X133498300Y-136637200D01*
X133498300Y-136637200D02*
X133125900Y-136264800D01*
X132848200Y-109543400D02*
X132848200Y-108171500D01*
X134900000Y-137170000D02*
X133498300Y-137170000D01*
X130876700Y-106200000D02*
X130700000Y-106200000D01*
%TO.N,Net-(D1-DOUT)*%
X129498300Y-148085700D02*
X129499800Y-148084200D01*
X129498300Y-150600000D02*
X129498300Y-148085700D01*
X129498300Y-147550100D02*
X129498300Y-147550000D01*
X129499800Y-147551600D02*
X129498300Y-147550100D01*
X130300000Y-150600000D02*
X129498300Y-150600000D01*
X129499800Y-148084200D02*
X129499800Y-147551600D01*
X130300000Y-147550000D02*
X129498300Y-147550000D01*
%TO.N,leds*%
X140109900Y-133640200D02*
X140109900Y-128297800D01*
X135398100Y-114615800D02*
X136850000Y-113163900D01*
X138937700Y-134812400D02*
X140109900Y-133640200D01*
X133101700Y-148850000D02*
X133101700Y-147756500D01*
X140109900Y-128297800D02*
X141550700Y-126857000D01*
X133101700Y-147756500D02*
X133505000Y-147353200D01*
X136850000Y-113163900D02*
X136850000Y-111500000D01*
X132300000Y-148850000D02*
X133101700Y-148850000D01*
X141550700Y-126857000D02*
X141550700Y-122932500D01*
%TO.N,Net-(negativo1-B)*%
X152065000Y-154300000D02*
X152065000Y-153148300D01*
X152468500Y-147791700D02*
X151491600Y-148768600D01*
X151491600Y-152574900D02*
X152065000Y-153148300D01*
X152600000Y-147791700D02*
X152468500Y-147791700D01*
X152600000Y-146740000D02*
X152600000Y-147791700D01*
X151491600Y-148768600D02*
X151491600Y-152574900D01*
%TO.N,Net-(positivo1-B)*%
X150750400Y-151922900D02*
X149525000Y-153148300D01*
X149600000Y-147791700D02*
X149731500Y-147791700D01*
X149731500Y-147791700D02*
X150750400Y-148810600D01*
X149525000Y-154300000D02*
X149525000Y-153148300D01*
X149600000Y-146740000D02*
X149600000Y-147791700D01*
X150750400Y-148810600D02*
X150750400Y-151922900D01*
%TO.N,sensor8*%
X127600000Y-132550000D02*
X129400000Y-132550000D01*
X129400000Y-132550000D02*
X130847700Y-131102300D01*
X130847700Y-116986900D02*
X130543900Y-116683100D01*
X127500000Y-132650000D02*
X127600000Y-132550000D01*
X130540100Y-113879300D02*
X130540100Y-114747700D01*
X130700000Y-109600000D02*
X129998300Y-109600000D01*
X129998300Y-109600000D02*
X129586700Y-110011600D01*
X130847700Y-131102300D02*
X130847700Y-116986900D01*
X129586700Y-112925900D02*
X130540100Y-113879300D01*
X129586700Y-110011600D02*
X129586700Y-112925900D01*
%TO.N,sensor1*%
X135148300Y-104729300D02*
X133409300Y-102990300D01*
X124622000Y-110322000D02*
X124900000Y-110600000D01*
X135148300Y-109548400D02*
X135148300Y-104729300D01*
X124900000Y-110600000D02*
X126375000Y-110600000D01*
X136000000Y-110400100D02*
X135148300Y-109548400D01*
X126375000Y-110600000D02*
X126400000Y-110575000D01*
X136000000Y-111500000D02*
X136000000Y-110400100D01*
X124733200Y-106178200D02*
X124622000Y-106289400D01*
X124622000Y-106289400D02*
X124622000Y-110322000D01*
%TO.N,sensor7*%
X129300000Y-129650000D02*
X129400000Y-129550000D01*
X130246000Y-128704000D02*
X129400000Y-129550000D01*
X130246000Y-127419100D02*
X130246000Y-128704000D01*
X131401700Y-108750000D02*
X131401700Y-109702700D01*
X130700000Y-108750000D02*
X131401700Y-108750000D01*
X127400000Y-129650000D02*
X129300000Y-129650000D01*
X131401700Y-109702700D02*
X131811300Y-110112300D01*
%TO.N,sensor6*%
X126277700Y-116262600D02*
X125929900Y-115914800D01*
X126277700Y-120562200D02*
X126277700Y-116262600D01*
X129300000Y-126650000D02*
X129400000Y-126550000D01*
X128513500Y-109653300D02*
X129998300Y-108168500D01*
X126377900Y-120662400D02*
X126277700Y-120562200D01*
X130202600Y-125747400D02*
X130202600Y-121417500D01*
X127500000Y-126650000D02*
X129300000Y-126650000D01*
X130700000Y-107900000D02*
X129998300Y-107900000D01*
X129400000Y-126550000D02*
X130202600Y-125747400D01*
X129998300Y-108168500D02*
X129998300Y-107900000D01*
%TO.N,sensor10*%
X127002200Y-140925000D02*
X131750000Y-136177200D01*
X131750000Y-111500000D02*
X131750000Y-112201700D01*
X126450000Y-140925000D02*
X126500000Y-140925000D01*
X124800000Y-139275000D02*
X126450000Y-140925000D01*
X126500000Y-140925000D02*
X127002200Y-140925000D01*
X131750000Y-136177200D02*
X131750000Y-112201700D01*
%TO.N,servo1*%
X133450000Y-111500000D02*
X133450000Y-106015900D01*
X133450000Y-106015900D02*
X133409300Y-105975200D01*
%TO.N,servo2*%
X132759400Y-112201700D02*
X133409300Y-112851600D01*
X132600000Y-112201700D02*
X132759400Y-112201700D01*
X132600000Y-111500000D02*
X132600000Y-112201700D01*
%TO.N,Net-(D2-DIN)*%
X130300000Y-152819700D02*
X130300000Y-153650000D01*
X130344700Y-152775000D02*
X130300000Y-152819700D01*
X132300000Y-146242400D02*
X131817400Y-146725000D01*
X132300000Y-145900000D02*
X132300000Y-146242400D01*
%TO.N,Net-(D3-K)*%
X145305000Y-152898300D02*
X148111700Y-150091600D01*
X148111700Y-150091600D02*
X148111700Y-146060500D01*
X148111700Y-146060500D02*
X149600000Y-144572200D01*
X145305000Y-154300000D02*
X145305000Y-152898300D01*
X149600000Y-144572200D02*
X149600000Y-144200000D01*
%TO.N,3.3v*%
X146122500Y-126702500D02*
X146800000Y-126025000D01*
X141381500Y-148793500D02*
X139670200Y-148793500D01*
X147750000Y-129285700D02*
X147141800Y-128677500D01*
X134350000Y-148425000D02*
X138475000Y-148425000D01*
X146416800Y-128677500D02*
X146122500Y-128383200D01*
X148100000Y-111120000D02*
X146655000Y-111120000D01*
X145975000Y-148325000D02*
X146801700Y-148325000D01*
X144198900Y-121923900D02*
X143400000Y-121125000D01*
X147141800Y-128677500D02*
X146416800Y-128677500D01*
X140561700Y-119304300D02*
X141579300Y-119304300D01*
X141850000Y-148325000D02*
X145975000Y-148325000D01*
X140000000Y-122700000D02*
X138678700Y-122700000D01*
X138678700Y-122700000D02*
X133700000Y-122700000D01*
X130700000Y-100250000D02*
X131401700Y-100250000D01*
X141579300Y-119304300D02*
X143400000Y-121125000D01*
X132694900Y-107091000D02*
X131401700Y-105797800D01*
X131401700Y-105797800D02*
X131401700Y-100250000D01*
X141850000Y-148325000D02*
X141381500Y-148793500D01*
X139400000Y-115975000D02*
X140561700Y-115975000D01*
X147918400Y-132943300D02*
X147750000Y-132774900D01*
X138678700Y-122700000D02*
X138678700Y-119726300D01*
X138678700Y-119726300D02*
X139100700Y-119304300D01*
X144198900Y-123423900D02*
X144198900Y-121923900D01*
X139100700Y-119304300D02*
X140561700Y-119304300D01*
X147750000Y-132774900D02*
X147750000Y-129285700D01*
X139670200Y-148793500D02*
X139301700Y-148425000D01*
X146801700Y-148325000D02*
X146801700Y-136669400D01*
X146122500Y-128383200D02*
X146122500Y-126702500D01*
X140561700Y-115975000D02*
X140561700Y-119304300D01*
X140561700Y-115975000D02*
X141800000Y-115975000D01*
X146801700Y-136669400D02*
X147918400Y-135552700D01*
X146655000Y-111120000D02*
X141800000Y-115975000D01*
X138475000Y-148425000D02*
X139301700Y-148425000D01*
X146800000Y-126025000D02*
X144198900Y-123423900D01*
X147918400Y-135552700D02*
X147918400Y-132943300D01*
%TO.N,MB1*%
X150683800Y-115188000D02*
X150665800Y-115170000D01*
X133498300Y-145833200D02*
X134866000Y-147200900D01*
X134866000Y-147200900D02*
X136201300Y-147200900D01*
X133498300Y-144130000D02*
X133498300Y-145833200D01*
X150683800Y-140081700D02*
X150683800Y-115188000D01*
X139400000Y-113115000D02*
X139400000Y-111500000D01*
X150227400Y-140538100D02*
X150683800Y-140081700D01*
X139461500Y-113176500D02*
X139400000Y-113115000D01*
X136201300Y-147200900D02*
X136201300Y-147201000D01*
X134900000Y-144130000D02*
X133498300Y-144130000D01*
%TO.N,MB2*%
X134900000Y-142860000D02*
X133498300Y-142860000D01*
X133376700Y-116523600D02*
X134640700Y-116523600D01*
X137858900Y-114698100D02*
X138550000Y-114007000D01*
X138550000Y-114007000D02*
X138550000Y-111500000D01*
X132354900Y-141716600D02*
X132354900Y-117545400D01*
X136466200Y-114698100D02*
X137858900Y-114698100D01*
X134640700Y-116523600D02*
X136466200Y-114698100D01*
X133498300Y-142860000D02*
X132354900Y-141716600D01*
X132354900Y-117545400D02*
X133376700Y-116523600D01*
%TO.N,BT1*%
X149472200Y-118416300D02*
X149472200Y-123202800D01*
X138162500Y-150575000D02*
X139105500Y-149632000D01*
X149564100Y-125439100D02*
X149564100Y-127029600D01*
X149300000Y-118244100D02*
X149472200Y-118416300D01*
X149472200Y-123202800D02*
X148400000Y-124275000D01*
X148498200Y-109850000D02*
X149300000Y-110651800D01*
X139105500Y-149632000D02*
X141032200Y-149632000D01*
X138162500Y-150575000D02*
X138475000Y-150575000D01*
X147700000Y-109850000D02*
X148498200Y-109850000D01*
X145750000Y-107900000D02*
X147700000Y-109850000D01*
X134325000Y-150575000D02*
X138162500Y-150575000D01*
X148400000Y-124275000D02*
X149564100Y-125439100D01*
X149300000Y-110651800D02*
X149300000Y-118244100D01*
X144700000Y-107900000D02*
X145750000Y-107900000D01*
%TO.N,GPIO0*%
X139150000Y-117875000D02*
X139400000Y-117625000D01*
X137450000Y-117875000D02*
X139150000Y-117875000D01*
X133325000Y-117875000D02*
X137450000Y-117875000D01*
%TO.N,Net-(sensores1-Pin_1)*%
X125296700Y-113328300D02*
X126400000Y-112225000D01*
X125100000Y-114480000D02*
X125100000Y-113328300D01*
X125100000Y-113328300D02*
X125296700Y-113328300D01*
%TO.N,Net-(sensores1-Pin_2)*%
X129931600Y-115668400D02*
X129400000Y-116200000D01*
X130466400Y-115668400D02*
X129931600Y-115668400D01*
%TO.N,Net-(sensores1-Pin_3)*%
X129400000Y-119134900D02*
X129400000Y-119200000D01*
X130115800Y-118419100D02*
X129400000Y-119134900D01*
%TO.N,Net-(sensores1-Pin_4)*%
X126886100Y-121465600D02*
X128665600Y-121465600D01*
X125100000Y-122100000D02*
X126251700Y-122100000D01*
X126251700Y-122100000D02*
X126886100Y-121465600D01*
X128665600Y-121465600D02*
X129400000Y-122200000D01*
%TO.N,Net-(sensores1-Pin_5)*%
X125100000Y-124640000D02*
X126251700Y-124640000D01*
X126251700Y-124640000D02*
X126450500Y-124441200D01*
X128641200Y-124441200D02*
X129400000Y-125200000D01*
X126450500Y-124441200D02*
X128641200Y-124441200D01*
%TO.N,Net-(sensores1-Pin_6)*%
X128675000Y-127475000D02*
X126546700Y-127475000D01*
X129400000Y-128200000D02*
X128675000Y-127475000D01*
X125100000Y-127180000D02*
X126251700Y-127180000D01*
X126546700Y-127475000D02*
X126251700Y-127180000D01*
%TO.N,Net-(sensores1-Pin_7)*%
X125100000Y-129720000D02*
X126251700Y-129720000D01*
X128675000Y-130475000D02*
X129400000Y-131200000D01*
X126251700Y-129720000D02*
X127006700Y-130475000D01*
X127006700Y-130475000D02*
X128675000Y-130475000D01*
%TO.N,Net-(sensores1-Pin_8)*%
X126251700Y-132620000D02*
X127043400Y-133411700D01*
X125100000Y-132260000D02*
X126251700Y-132260000D01*
X127043400Y-133411700D02*
X128611700Y-133411700D01*
X128611700Y-133411700D02*
X129400000Y-134200000D01*
X126251700Y-132260000D02*
X126251700Y-132620000D01*
%TO.N,Net-(sensores1-Pin_9)*%
X129400000Y-135650000D02*
X130351800Y-135650000D01*
X130351800Y-135650000D02*
X130656700Y-135345100D01*
%TO.N,Net-(sensores1-Pin_10)*%
X125716700Y-138491700D02*
X126500000Y-139275000D01*
X125100000Y-138491700D02*
X125716700Y-138491700D01*
X125100000Y-137340000D02*
X125100000Y-138491700D01*
%TO.N,Net-(led5v1-A)*%
X147600000Y-123355400D02*
X147600000Y-127275000D01*
X147600000Y-127275000D02*
X146900000Y-127975000D01*
X147722500Y-121752800D02*
X147722500Y-123232900D01*
X148499900Y-120975400D02*
X147722500Y-121752800D01*
X148500000Y-120975400D02*
X148499900Y-120975400D01*
X147722500Y-123232900D02*
X147600000Y-123355400D01*
X148500000Y-120612500D02*
X148500000Y-120975400D01*
%TO.N,Net-(D4-DOUT)*%
X133101700Y-151900000D02*
X133101700Y-154950000D01*
X132300000Y-154950000D02*
X133101700Y-154950000D01*
X132300000Y-151900000D02*
X133101700Y-151900000D01*
%TD*%
%TA.AperFunction,Conductor*%
%TO.N,GND*%
G36*
X131673734Y-137205214D02*
G01*
X131729667Y-137247086D01*
X131754084Y-137312550D01*
X131754400Y-137321396D01*
X131754400Y-141629930D01*
X131754399Y-141629948D01*
X131754399Y-141795654D01*
X131754398Y-141795654D01*
X131771694Y-141860202D01*
X131795323Y-141948385D01*
X131801284Y-141958710D01*
X131801286Y-141958717D01*
X131801288Y-141958717D01*
X131874375Y-142085309D01*
X131874381Y-142085317D01*
X131993249Y-142204185D01*
X131993255Y-142204190D01*
X132082209Y-142293144D01*
X132115694Y-142354467D01*
X132110710Y-142424159D01*
X132068838Y-142480092D01*
X132060501Y-142485818D01*
X131918440Y-142575082D01*
X131918437Y-142575084D01*
X131790884Y-142702637D01*
X131694911Y-142855376D01*
X131635331Y-143025645D01*
X131635330Y-143025650D01*
X131615135Y-143204896D01*
X131615135Y-143204903D01*
X131635330Y-143384149D01*
X131635333Y-143384162D01*
X131692541Y-143547649D01*
X131699500Y-143588604D01*
X131699500Y-143717209D01*
X131679815Y-143784248D01*
X131627011Y-143830003D01*
X131618833Y-143833391D01*
X131557671Y-143856202D01*
X131557664Y-143856206D01*
X131442455Y-143942452D01*
X131420574Y-143971680D01*
X131364638Y-144013549D01*
X131353405Y-144017139D01*
X131317904Y-144026652D01*
X131248054Y-144024991D01*
X131190191Y-143985829D01*
X131186557Y-143981209D01*
X131157546Y-143942454D01*
X131042331Y-143856204D01*
X131042329Y-143856203D01*
X131042328Y-143856202D01*
X130907482Y-143805908D01*
X130907483Y-143805908D01*
X130847883Y-143799501D01*
X130847881Y-143799500D01*
X130847873Y-143799500D01*
X130847864Y-143799500D01*
X129752129Y-143799500D01*
X129752123Y-143799501D01*
X129692516Y-143805908D01*
X129557671Y-143856202D01*
X129557664Y-143856206D01*
X129442455Y-143942452D01*
X129442452Y-143942455D01*
X129356206Y-144057664D01*
X129356202Y-144057671D01*
X129305910Y-144192513D01*
X129305909Y-144192517D01*
X129299500Y-144252127D01*
X129299500Y-144252134D01*
X129299500Y-144252135D01*
X129299500Y-144947870D01*
X129299501Y-144947876D01*
X129305908Y-145007483D01*
X129356202Y-145142328D01*
X129356206Y-145142335D01*
X129442452Y-145257544D01*
X129442455Y-145257547D01*
X129557664Y-145343793D01*
X129557671Y-145343797D01*
X129692517Y-145394091D01*
X129692516Y-145394091D01*
X129699444Y-145394835D01*
X129752127Y-145400500D01*
X130491200Y-145400499D01*
X130558239Y-145420183D01*
X130603994Y-145472987D01*
X130615200Y-145524499D01*
X130615200Y-146625500D01*
X130595515Y-146692539D01*
X130542711Y-146738294D01*
X130491200Y-146749500D01*
X129752129Y-146749500D01*
X129752123Y-146749501D01*
X129692516Y-146755908D01*
X129557671Y-146806202D01*
X129557664Y-146806206D01*
X129442457Y-146892451D01*
X129442449Y-146892459D01*
X129420575Y-146921678D01*
X129364640Y-146963548D01*
X129353406Y-146967139D01*
X129266518Y-146990422D01*
X129266509Y-146990426D01*
X129129590Y-147069475D01*
X129129582Y-147069481D01*
X129017781Y-147181282D01*
X129017775Y-147181290D01*
X128938726Y-147318209D01*
X128938723Y-147318216D01*
X128897799Y-147470948D01*
X128897799Y-147629157D01*
X128898239Y-147632499D01*
X128899300Y-147648686D01*
X128899300Y-147987117D01*
X128898239Y-148003305D01*
X128897799Y-148006646D01*
X128897799Y-148174746D01*
X128897800Y-148174759D01*
X128897800Y-150679056D01*
X128938723Y-150831783D01*
X128938726Y-150831790D01*
X129017775Y-150968709D01*
X129017779Y-150968714D01*
X129017780Y-150968716D01*
X129129584Y-151080520D01*
X129129586Y-151080521D01*
X129129590Y-151080524D01*
X129262995Y-151157544D01*
X129266516Y-151159577D01*
X129287765Y-151165270D01*
X129347425Y-151201633D01*
X129377956Y-151264480D01*
X129369662Y-151333855D01*
X129360419Y-151349867D01*
X129360454Y-151349886D01*
X129356202Y-151357671D01*
X129305910Y-151492513D01*
X129305909Y-151492517D01*
X129299500Y-151552127D01*
X129299500Y-151552134D01*
X129299500Y-151552135D01*
X129299500Y-152247870D01*
X129299501Y-152247876D01*
X129305908Y-152307483D01*
X129356202Y-152442328D01*
X129356206Y-152442335D01*
X129442452Y-152557544D01*
X129442453Y-152557544D01*
X129442454Y-152557546D01*
X129479121Y-152584995D01*
X129497348Y-152598640D01*
X129539218Y-152654574D01*
X129546256Y-152711788D01*
X129539135Y-152774995D01*
X129539135Y-152775004D01*
X129546256Y-152838211D01*
X129534201Y-152907032D01*
X129497348Y-152951359D01*
X129442457Y-152992450D01*
X129442451Y-152992457D01*
X129356206Y-153107664D01*
X129356202Y-153107671D01*
X129305910Y-153242513D01*
X129305909Y-153242517D01*
X129299500Y-153302127D01*
X129299500Y-153302134D01*
X129299500Y-153302135D01*
X129299500Y-153997870D01*
X129299501Y-153997876D01*
X129305908Y-154057483D01*
X129356202Y-154192328D01*
X129356206Y-154192335D01*
X129442452Y-154307544D01*
X129442455Y-154307547D01*
X129557664Y-154393793D01*
X129557671Y-154393797D01*
X129692517Y-154444091D01*
X129692516Y-154444091D01*
X129699444Y-154444835D01*
X129752127Y-154450500D01*
X130847872Y-154450499D01*
X130907483Y-154444091D01*
X131042331Y-154393796D01*
X131146893Y-154315521D01*
X131212357Y-154291103D01*
X131280630Y-154305954D01*
X131330036Y-154355359D01*
X131344888Y-154423632D01*
X131337386Y-154458119D01*
X131305910Y-154542511D01*
X131305909Y-154542515D01*
X131305909Y-154542517D01*
X131299500Y-154602127D01*
X131299500Y-154602134D01*
X131299500Y-154602135D01*
X131299500Y-155297870D01*
X131299501Y-155297876D01*
X131305908Y-155357483D01*
X131333764Y-155432167D01*
X131338748Y-155501859D01*
X131305263Y-155563182D01*
X131243939Y-155596666D01*
X131217582Y-155599500D01*
X127876576Y-155599500D01*
X127809537Y-155579815D01*
X127763782Y-155527011D01*
X127753838Y-155457853D01*
X127782863Y-155394297D01*
X127783348Y-155393741D01*
X127849143Y-155318716D01*
X127889273Y-155272957D01*
X128053172Y-155027665D01*
X128183652Y-154763077D01*
X128278481Y-154483722D01*
X128336034Y-154194380D01*
X128348914Y-153997870D01*
X128355329Y-153900007D01*
X128355329Y-153899992D01*
X128336035Y-153605636D01*
X128336034Y-153605620D01*
X128278481Y-153316278D01*
X128183652Y-153036923D01*
X128053172Y-152772336D01*
X128042394Y-152756206D01*
X127980416Y-152663449D01*
X127889273Y-152527043D01*
X127793450Y-152417778D01*
X127694758Y-152305241D01*
X127472955Y-152110725D01*
X127227667Y-151946829D01*
X127227660Y-151946825D01*
X126963080Y-151816349D01*
X126683730Y-151721521D01*
X126683724Y-151721519D01*
X126683722Y-151721519D01*
X126394380Y-151663966D01*
X126394373Y-151663965D01*
X126394363Y-151663964D01*
X126100007Y-151644671D01*
X126099993Y-151644671D01*
X125805636Y-151663964D01*
X125805624Y-151663965D01*
X125805620Y-151663966D01*
X125805612Y-151663967D01*
X125805609Y-151663968D01*
X125516283Y-151721518D01*
X125516269Y-151721521D01*
X125236919Y-151816349D01*
X124972334Y-151946828D01*
X124727041Y-152110728D01*
X124572187Y-152246531D01*
X124508805Y-152275934D01*
X124439588Y-152266402D01*
X124386513Y-152220962D01*
X124366430Y-152154041D01*
X124366428Y-152153704D01*
X124355561Y-143602135D01*
X124949500Y-143602135D01*
X124949500Y-145397870D01*
X124949501Y-145397876D01*
X124955908Y-145457483D01*
X125006202Y-145592328D01*
X125006206Y-145592335D01*
X125092452Y-145707544D01*
X125092455Y-145707547D01*
X125207664Y-145793793D01*
X125207671Y-145793797D01*
X125342517Y-145844091D01*
X125342516Y-145844091D01*
X125349444Y-145844835D01*
X125402127Y-145850500D01*
X127197872Y-145850499D01*
X127257483Y-145844091D01*
X127392331Y-145793796D01*
X127507546Y-145707546D01*
X127593796Y-145592331D01*
X127644091Y-145457483D01*
X127650500Y-145397873D01*
X127650499Y-143602128D01*
X127644091Y-143542517D01*
X127636608Y-143522455D01*
X127593797Y-143407671D01*
X127593793Y-143407664D01*
X127507547Y-143292455D01*
X127507544Y-143292452D01*
X127392335Y-143206206D01*
X127392328Y-143206202D01*
X127257482Y-143155908D01*
X127257483Y-143155908D01*
X127197883Y-143149501D01*
X127197881Y-143149500D01*
X127197873Y-143149500D01*
X127197864Y-143149500D01*
X125402129Y-143149500D01*
X125402123Y-143149501D01*
X125342516Y-143155908D01*
X125207671Y-143206202D01*
X125207664Y-143206206D01*
X125092455Y-143292452D01*
X125092452Y-143292455D01*
X125006206Y-143407664D01*
X125006202Y-143407671D01*
X124955908Y-143542517D01*
X124950954Y-143588604D01*
X124949501Y-143602123D01*
X124949500Y-143602135D01*
X124355561Y-143602135D01*
X124351364Y-140299656D01*
X124370963Y-140232593D01*
X124423709Y-140186771D01*
X124475364Y-140175500D01*
X124799903Y-140175500D01*
X124866942Y-140195185D01*
X124887584Y-140211819D01*
X125488181Y-140812416D01*
X125521666Y-140873739D01*
X125524500Y-140900097D01*
X125524500Y-141181613D01*
X125530913Y-141252192D01*
X125530913Y-141252194D01*
X125530914Y-141252196D01*
X125581522Y-141414606D01*
X125635673Y-141504183D01*
X125669530Y-141560188D01*
X125789811Y-141680469D01*
X125789813Y-141680470D01*
X125789815Y-141680472D01*
X125935394Y-141768478D01*
X126097804Y-141819086D01*
X126168384Y-141825500D01*
X126168387Y-141825500D01*
X126831613Y-141825500D01*
X126831616Y-141825500D01*
X126902196Y-141819086D01*
X127064606Y-141768478D01*
X127210185Y-141680472D01*
X127330472Y-141560185D01*
X127418478Y-141414606D01*
X127435027Y-141361493D01*
X127465734Y-141310701D01*
X127482720Y-141293716D01*
X127482720Y-141293715D01*
X127492922Y-141283514D01*
X127492929Y-141283504D01*
X131542721Y-137233713D01*
X131604042Y-137200230D01*
X131673734Y-137205214D01*
G37*
%TD.AperFunction*%
%TA.AperFunction,Conductor*%
G36*
X137536004Y-149045185D02*
G01*
X137568232Y-149075190D01*
X137592449Y-149107541D01*
X137592452Y-149107544D01*
X137592454Y-149107546D01*
X137592457Y-149107548D01*
X137707664Y-149193793D01*
X137707671Y-149193797D01*
X137719136Y-149198073D01*
X137842517Y-149244091D01*
X137902127Y-149250500D01*
X138338403Y-149250499D01*
X138405441Y-149270183D01*
X138451196Y-149322987D01*
X138461140Y-149392146D01*
X138432115Y-149455702D01*
X138426083Y-149462180D01*
X138175082Y-149713181D01*
X138113759Y-149746666D01*
X138087402Y-149749500D01*
X137902130Y-149749500D01*
X137902123Y-149749501D01*
X137842516Y-149755908D01*
X137707671Y-149806202D01*
X137707664Y-149806206D01*
X137592457Y-149892451D01*
X137592449Y-149892458D01*
X137568232Y-149924810D01*
X137512299Y-149966682D01*
X137468965Y-149974500D01*
X135331035Y-149974500D01*
X135263996Y-149954815D01*
X135231768Y-149924810D01*
X135207550Y-149892458D01*
X135207547Y-149892455D01*
X135207546Y-149892454D01*
X135157267Y-149854815D01*
X135092335Y-149806206D01*
X135092328Y-149806202D01*
X134957482Y-149755908D01*
X134957483Y-149755908D01*
X134897883Y-149749501D01*
X134897881Y-149749500D01*
X134897873Y-149749500D01*
X134897864Y-149749500D01*
X133752129Y-149749500D01*
X133752123Y-149749501D01*
X133692516Y-149755908D01*
X133557671Y-149806202D01*
X133557664Y-149806206D01*
X133442455Y-149892452D01*
X133442452Y-149892455D01*
X133356206Y-150007664D01*
X133356202Y-150007671D01*
X133305910Y-150142513D01*
X133305909Y-150142517D01*
X133299500Y-150202127D01*
X133299500Y-150202134D01*
X133299500Y-150202135D01*
X133299500Y-150947870D01*
X133299501Y-150947876D01*
X133305909Y-151007484D01*
X133337386Y-151091881D01*
X133342370Y-151161573D01*
X133308884Y-151222895D01*
X133247561Y-151256380D01*
X133177869Y-151251394D01*
X133146893Y-151234479D01*
X133042335Y-151156206D01*
X133042328Y-151156202D01*
X132907482Y-151105908D01*
X132907483Y-151105908D01*
X132847883Y-151099501D01*
X132847881Y-151099500D01*
X132847873Y-151099500D01*
X132847865Y-151099500D01*
X132222600Y-151099500D01*
X132155561Y-151079815D01*
X132109806Y-151027011D01*
X132098600Y-150975500D01*
X132098600Y-149774499D01*
X132118285Y-149707460D01*
X132171089Y-149661705D01*
X132222600Y-149650499D01*
X132847871Y-149650499D01*
X132847872Y-149650499D01*
X132907483Y-149644091D01*
X133042331Y-149593796D01*
X133157546Y-149507546D01*
X133179421Y-149478323D01*
X133235353Y-149436452D01*
X133246590Y-149432859D01*
X133333484Y-149409577D01*
X133470416Y-149330520D01*
X133544145Y-149256790D01*
X133605464Y-149223308D01*
X133675156Y-149228292D01*
X133710758Y-149241570D01*
X133717517Y-149244091D01*
X133777127Y-149250500D01*
X134922872Y-149250499D01*
X134982483Y-149244091D01*
X135117331Y-149193796D01*
X135232546Y-149107546D01*
X135242840Y-149093796D01*
X135256768Y-149075190D01*
X135312701Y-149033318D01*
X135356035Y-149025500D01*
X137468965Y-149025500D01*
X137536004Y-149045185D01*
G37*
%TD.AperFunction*%
%TA.AperFunction,Conductor*%
G36*
X130840639Y-148370184D02*
G01*
X130886394Y-148422988D01*
X130897600Y-148474499D01*
X130897600Y-149675500D01*
X130877915Y-149742539D01*
X130825111Y-149788294D01*
X130773600Y-149799500D01*
X130222800Y-149799500D01*
X130155761Y-149779815D01*
X130110006Y-149727011D01*
X130098800Y-149675500D01*
X130098800Y-148474499D01*
X130118485Y-148407460D01*
X130171289Y-148361705D01*
X130222800Y-148350499D01*
X130773600Y-148350499D01*
X130840639Y-148370184D01*
G37*
%TD.AperFunction*%
%TA.AperFunction,Conductor*%
G36*
X150002634Y-135842416D02*
G01*
X150058567Y-135884288D01*
X150082984Y-135949752D01*
X150083300Y-135958598D01*
X150083300Y-139652448D01*
X150063615Y-139719487D01*
X150010811Y-139765242D01*
X150000258Y-139769488D01*
X149978652Y-139777048D01*
X149877878Y-139812310D01*
X149725137Y-139908284D01*
X149597584Y-140035837D01*
X149501611Y-140188576D01*
X149442031Y-140358845D01*
X149442030Y-140358850D01*
X149421835Y-140538096D01*
X149421835Y-140538103D01*
X149442030Y-140717349D01*
X149442031Y-140717354D01*
X149501611Y-140887623D01*
X149592227Y-141031837D01*
X149597584Y-141040362D01*
X149725138Y-141167916D01*
X149806621Y-141219115D01*
X149859268Y-141252196D01*
X149877878Y-141263889D01*
X149963119Y-141293716D01*
X150048145Y-141323468D01*
X150048150Y-141323469D01*
X150227396Y-141343665D01*
X150227400Y-141343665D01*
X150227404Y-141343665D01*
X150406649Y-141323469D01*
X150406652Y-141323468D01*
X150406655Y-141323468D01*
X150576922Y-141263889D01*
X150729662Y-141167916D01*
X150857216Y-141040362D01*
X150862574Y-141031833D01*
X150914904Y-140985544D01*
X150983957Y-140974893D01*
X151010898Y-140981622D01*
X151017517Y-140984091D01*
X151077127Y-140990500D01*
X152872872Y-140990499D01*
X152932483Y-140984091D01*
X153067331Y-140933796D01*
X153178191Y-140850806D01*
X153243650Y-140826390D01*
X153311923Y-140841241D01*
X153361329Y-140890645D01*
X153376498Y-140949849D01*
X153384527Y-145365275D01*
X153364964Y-145432350D01*
X153312243Y-145478201D01*
X153260527Y-145489500D01*
X151802129Y-145489500D01*
X151802123Y-145489501D01*
X151742516Y-145495908D01*
X151607671Y-145546202D01*
X151607664Y-145546206D01*
X151492455Y-145632452D01*
X151492452Y-145632455D01*
X151406206Y-145747664D01*
X151406202Y-145747671D01*
X151355908Y-145882517D01*
X151349501Y-145942116D01*
X151349501Y-145942123D01*
X151349500Y-145942135D01*
X151349500Y-147537870D01*
X151349501Y-147537876D01*
X151355908Y-147597483D01*
X151406202Y-147732328D01*
X151406204Y-147732331D01*
X151458443Y-147802113D01*
X151482861Y-147867576D01*
X151468010Y-147935849D01*
X151446858Y-147964105D01*
X151187680Y-148223283D01*
X151126357Y-148256768D01*
X151056665Y-148251784D01*
X151012318Y-148223283D01*
X150753141Y-147964106D01*
X150719656Y-147902783D01*
X150724640Y-147833091D01*
X150741552Y-147802118D01*
X150793796Y-147732331D01*
X150844091Y-147597483D01*
X150850500Y-147537873D01*
X150850499Y-145942128D01*
X150844091Y-145882517D01*
X150843346Y-145880520D01*
X150793797Y-145747671D01*
X150793793Y-145747664D01*
X150707547Y-145632455D01*
X150707544Y-145632452D01*
X150592335Y-145546206D01*
X150592328Y-145546202D01*
X150457482Y-145495908D01*
X150457483Y-145495908D01*
X150403846Y-145490142D01*
X150339295Y-145463404D01*
X150299446Y-145406012D01*
X150296953Y-145336187D01*
X150332605Y-145276098D01*
X150345972Y-145265282D01*
X150439139Y-145200047D01*
X150600047Y-145039139D01*
X150730568Y-144852734D01*
X150826739Y-144646496D01*
X150885635Y-144426692D01*
X150905468Y-144200000D01*
X150885635Y-143973308D01*
X150834977Y-143784248D01*
X150826741Y-143753511D01*
X150826738Y-143753502D01*
X150772724Y-143637669D01*
X150730568Y-143547266D01*
X150616362Y-143384162D01*
X150600045Y-143360858D01*
X150439141Y-143199954D01*
X150252734Y-143069432D01*
X150252732Y-143069431D01*
X150046497Y-142973261D01*
X150046488Y-142973258D01*
X149826697Y-142914366D01*
X149826693Y-142914365D01*
X149826692Y-142914365D01*
X149826691Y-142914364D01*
X149826686Y-142914364D01*
X149600002Y-142894532D01*
X149599998Y-142894532D01*
X149373313Y-142914364D01*
X149373302Y-142914366D01*
X149153511Y-142973258D01*
X149153502Y-142973261D01*
X148947267Y-143069431D01*
X148947265Y-143069432D01*
X148760858Y-143199954D01*
X148599954Y-143360858D01*
X148469432Y-143547265D01*
X148469431Y-143547267D01*
X148373261Y-143753502D01*
X148373258Y-143753511D01*
X148314366Y-143973302D01*
X148314364Y-143973313D01*
X148294532Y-144199998D01*
X148294532Y-144200001D01*
X148314364Y-144426686D01*
X148314366Y-144426697D01*
X148373258Y-144646488D01*
X148373260Y-144646492D01*
X148373261Y-144646496D01*
X148393869Y-144690689D01*
X148432991Y-144774587D01*
X148443483Y-144843665D01*
X148414963Y-144907449D01*
X148408290Y-144914673D01*
X148217981Y-145104983D01*
X148156658Y-145138468D01*
X148086967Y-145133484D01*
X148031033Y-145091613D01*
X148006616Y-145026148D01*
X148006300Y-145017302D01*
X148006300Y-137787596D01*
X148025985Y-137720557D01*
X148042614Y-137699920D01*
X149759406Y-135983127D01*
X149759411Y-135983124D01*
X149769614Y-135972920D01*
X149769616Y-135972920D01*
X149871619Y-135870917D01*
X149932942Y-135837432D01*
X150002634Y-135842416D01*
G37*
%TD.AperFunction*%
%TA.AperFunction,Conductor*%
G36*
X138500123Y-123320185D02*
G01*
X138545878Y-123372989D01*
X138547574Y-123377112D01*
X138632967Y-123549292D01*
X138632969Y-123549295D01*
X138752277Y-123697721D01*
X138752278Y-123697722D01*
X138900704Y-123817030D01*
X138900707Y-123817032D01*
X139071302Y-123901639D01*
X139071303Y-123901639D01*
X139071307Y-123901641D01*
X139256111Y-123947600D01*
X139298877Y-123950500D01*
X140701122Y-123950499D01*
X140743889Y-123947600D01*
X140796275Y-123934572D01*
X140866082Y-123937496D01*
X140923228Y-123977696D01*
X140949569Y-124042410D01*
X140950200Y-124054907D01*
X140950200Y-126556902D01*
X140930515Y-126623941D01*
X140913881Y-126644583D01*
X139629381Y-127929082D01*
X139629379Y-127929084D01*
X139613500Y-127956588D01*
X139606788Y-127968215D01*
X139550323Y-128066015D01*
X139509399Y-128218743D01*
X139509399Y-128218745D01*
X139509399Y-128386846D01*
X139509400Y-128386859D01*
X139509400Y-133340102D01*
X139489715Y-133407141D01*
X139473081Y-133427783D01*
X138919165Y-133981698D01*
X138857842Y-134015183D01*
X138845368Y-134017237D01*
X138758450Y-134027030D01*
X138588178Y-134086610D01*
X138435437Y-134182584D01*
X138307884Y-134310137D01*
X138211911Y-134462876D01*
X138152331Y-134633145D01*
X138152330Y-134633150D01*
X138132135Y-134812396D01*
X138132135Y-134812403D01*
X138152330Y-134991649D01*
X138152331Y-134991654D01*
X138211911Y-135161923D01*
X138298742Y-135300113D01*
X138307884Y-135314662D01*
X138435438Y-135442216D01*
X138588178Y-135538189D01*
X138758445Y-135597768D01*
X138758450Y-135597769D01*
X138939383Y-135618155D01*
X139003797Y-135645221D01*
X139043352Y-135702816D01*
X139049500Y-135741375D01*
X139049500Y-136197870D01*
X139049501Y-136197876D01*
X139055908Y-136257483D01*
X139106202Y-136392328D01*
X139106206Y-136392335D01*
X139192452Y-136507544D01*
X139192455Y-136507547D01*
X139307664Y-136593793D01*
X139307671Y-136593797D01*
X139442517Y-136644091D01*
X139442516Y-136644091D01*
X139449444Y-136644835D01*
X139502127Y-136650500D01*
X141778300Y-136650499D01*
X141845339Y-136670184D01*
X141891094Y-136722987D01*
X141902300Y-136774499D01*
X141902300Y-137565500D01*
X141882615Y-137632539D01*
X141829811Y-137678294D01*
X141778300Y-137689500D01*
X139502129Y-137689500D01*
X139502123Y-137689501D01*
X139442516Y-137695908D01*
X139307671Y-137746202D01*
X139307664Y-137746206D01*
X139192455Y-137832452D01*
X139192452Y-137832455D01*
X139106206Y-137947664D01*
X139106202Y-137947671D01*
X139061541Y-138067416D01*
X139055909Y-138082517D01*
X139049500Y-138142127D01*
X139049500Y-138142134D01*
X139049500Y-138142135D01*
X139049500Y-138737870D01*
X139049501Y-138737876D01*
X139055908Y-138797483D01*
X139106202Y-138932328D01*
X139106203Y-138932330D01*
X139106204Y-138932331D01*
X139156544Y-138999577D01*
X139157377Y-139000689D01*
X139181794Y-139066153D01*
X139166943Y-139134426D01*
X139157377Y-139149311D01*
X139106203Y-139217669D01*
X139106202Y-139217671D01*
X139071040Y-139311948D01*
X139055909Y-139352517D01*
X139049500Y-139412127D01*
X139049500Y-139412134D01*
X139049500Y-139412135D01*
X139049500Y-140007870D01*
X139049501Y-140007876D01*
X139055908Y-140067483D01*
X139102098Y-140191323D01*
X139107082Y-140261015D01*
X139090910Y-140300627D01*
X139035709Y-140388479D01*
X138976133Y-140558737D01*
X138976130Y-140558750D01*
X138955935Y-140737996D01*
X138955935Y-140738003D01*
X138976130Y-140917249D01*
X138976131Y-140917254D01*
X139035711Y-141087524D01*
X139049718Y-141109816D01*
X139068717Y-141177053D01*
X139060907Y-141219115D01*
X139055909Y-141232517D01*
X139049500Y-141292127D01*
X139049500Y-141292134D01*
X139049500Y-141292135D01*
X139049500Y-141887870D01*
X139049501Y-141887876D01*
X139055908Y-141947483D01*
X139106202Y-142082328D01*
X139106206Y-142082335D01*
X139192452Y-142197544D01*
X139192455Y-142197547D01*
X139307664Y-142283793D01*
X139307671Y-142283797D01*
X139442517Y-142334091D01*
X139442516Y-142334091D01*
X139449444Y-142334835D01*
X139502127Y-142340500D01*
X141327200Y-142340499D01*
X141394239Y-142360184D01*
X141439994Y-142412987D01*
X141451200Y-142464499D01*
X141451200Y-143255500D01*
X141431515Y-143322539D01*
X141378711Y-143368294D01*
X141327200Y-143379500D01*
X139502129Y-143379500D01*
X139502123Y-143379501D01*
X139442516Y-143385908D01*
X139307671Y-143436202D01*
X139307664Y-143436206D01*
X139192455Y-143522452D01*
X139192452Y-143522455D01*
X139106206Y-143637664D01*
X139106202Y-143637671D01*
X139055910Y-143772513D01*
X139055909Y-143772517D01*
X139049500Y-143832127D01*
X139049500Y-143832134D01*
X139049500Y-143832135D01*
X139049500Y-144427870D01*
X139049501Y-144427876D01*
X139055908Y-144487483D01*
X139106202Y-144622328D01*
X139106203Y-144622330D01*
X139157377Y-144690689D01*
X139181794Y-144756153D01*
X139166943Y-144824426D01*
X139157378Y-144839309D01*
X139149906Y-144849290D01*
X139106203Y-144907669D01*
X139106202Y-144907671D01*
X139057168Y-145039141D01*
X139055909Y-145042517D01*
X139049500Y-145102127D01*
X139049500Y-145102134D01*
X139049500Y-145102135D01*
X139049500Y-145697870D01*
X139049501Y-145697876D01*
X139055908Y-145757483D01*
X139106202Y-145892328D01*
X139106206Y-145892335D01*
X139192452Y-146007544D01*
X139192455Y-146007547D01*
X139307664Y-146093793D01*
X139307671Y-146093797D01*
X139352618Y-146110561D01*
X139442517Y-146144091D01*
X139502127Y-146150500D01*
X140074500Y-146150499D01*
X140141539Y-146170183D01*
X140187294Y-146222987D01*
X140198500Y-146274499D01*
X140198500Y-147530087D01*
X140178815Y-147597126D01*
X140171450Y-147607396D01*
X140169186Y-147610234D01*
X140073211Y-147762976D01*
X140013631Y-147933245D01*
X140013630Y-147933249D01*
X140006568Y-147995934D01*
X139979501Y-148060348D01*
X139921907Y-148099903D01*
X139852070Y-148102040D01*
X139795667Y-148069731D01*
X139670417Y-147944481D01*
X139670412Y-147944477D01*
X139542725Y-147870758D01*
X139542720Y-147870755D01*
X139533487Y-147865423D01*
X139499377Y-147856283D01*
X139470002Y-147848412D01*
X139410344Y-147812047D01*
X139402832Y-147802948D01*
X139357550Y-147742458D01*
X139357547Y-147742455D01*
X139357546Y-147742454D01*
X139357542Y-147742451D01*
X139242335Y-147656206D01*
X139242328Y-147656202D01*
X139107482Y-147605908D01*
X139107483Y-147605908D01*
X139047883Y-147599501D01*
X139047881Y-147599500D01*
X139047873Y-147599500D01*
X139047864Y-147599500D01*
X137902129Y-147599500D01*
X137902123Y-147599501D01*
X137842516Y-147605908D01*
X137707671Y-147656202D01*
X137707664Y-147656206D01*
X137592457Y-147742451D01*
X137592449Y-147742458D01*
X137568232Y-147774810D01*
X137512299Y-147816682D01*
X137468965Y-147824500D01*
X136979298Y-147824500D01*
X136912259Y-147804815D01*
X136866504Y-147752011D01*
X136856560Y-147682853D01*
X136874305Y-147634527D01*
X136927088Y-147550524D01*
X136927089Y-147550522D01*
X136986668Y-147380255D01*
X137006865Y-147201000D01*
X137004644Y-147181290D01*
X136986669Y-147021750D01*
X136986668Y-147021745D01*
X136975708Y-146990422D01*
X136927089Y-146851478D01*
X136898641Y-146806204D01*
X136867038Y-146755908D01*
X136831116Y-146698738D01*
X136703562Y-146571184D01*
X136681857Y-146557546D01*
X136550823Y-146475211D01*
X136380554Y-146415631D01*
X136380549Y-146415630D01*
X136201304Y-146395435D01*
X136201296Y-146395435D01*
X136022050Y-146415630D01*
X136022045Y-146415631D01*
X135851776Y-146475211D01*
X135699037Y-146571184D01*
X135696326Y-146573347D01*
X135694242Y-146574197D01*
X135693142Y-146574889D01*
X135693020Y-146574696D01*
X135631639Y-146599756D01*
X135619013Y-146600400D01*
X135166097Y-146600400D01*
X135099058Y-146580715D01*
X135078416Y-146564081D01*
X134135119Y-145620784D01*
X134101634Y-145559461D01*
X134098800Y-145533103D01*
X134098800Y-145004499D01*
X134118485Y-144937460D01*
X134171289Y-144891705D01*
X134222800Y-144880499D01*
X136047871Y-144880499D01*
X136047872Y-144880499D01*
X136107483Y-144874091D01*
X136242331Y-144823796D01*
X136357546Y-144737546D01*
X136443796Y-144622331D01*
X136494091Y-144487483D01*
X136500500Y-144427873D01*
X136500499Y-143832128D01*
X136494091Y-143772517D01*
X136489901Y-143761284D01*
X136443797Y-143637671D01*
X136443796Y-143637669D01*
X136407066Y-143588604D01*
X136392622Y-143569310D01*
X136368206Y-143503847D01*
X136383057Y-143435574D01*
X136392623Y-143420689D01*
X136443796Y-143352331D01*
X136494091Y-143217483D01*
X136500500Y-143157873D01*
X136500499Y-142562128D01*
X136494091Y-142502517D01*
X136479911Y-142464499D01*
X136443797Y-142367671D01*
X136443793Y-142367664D01*
X136357547Y-142252455D01*
X136357544Y-142252452D01*
X136242335Y-142166206D01*
X136242328Y-142166202D01*
X136107482Y-142115908D01*
X136107483Y-142115908D01*
X136047883Y-142109501D01*
X136047881Y-142109500D01*
X136047873Y-142109500D01*
X136047864Y-142109500D01*
X133752129Y-142109500D01*
X133752123Y-142109501D01*
X133692513Y-142115909D01*
X133687766Y-142117031D01*
X133617996Y-142113290D01*
X133571571Y-142084035D01*
X132991719Y-141504183D01*
X132958234Y-141442860D01*
X132955400Y-141416502D01*
X132955400Y-139034729D01*
X132975085Y-138967690D01*
X133027889Y-138921935D01*
X133097047Y-138911991D01*
X133141400Y-138927342D01*
X133266516Y-138999577D01*
X133417652Y-139040074D01*
X133459868Y-139060582D01*
X133557669Y-139133796D01*
X133557671Y-139133797D01*
X133692517Y-139184091D01*
X133692516Y-139184091D01*
X133699444Y-139184835D01*
X133752127Y-139190500D01*
X136047872Y-139190499D01*
X136107483Y-139184091D01*
X136242331Y-139133796D01*
X136357546Y-139047546D01*
X136443796Y-138932331D01*
X136494091Y-138797483D01*
X136500500Y-138737873D01*
X136500499Y-138142128D01*
X136494091Y-138082517D01*
X136469964Y-138017830D01*
X136443797Y-137947671D01*
X136443796Y-137947669D01*
X136392623Y-137879311D01*
X136368206Y-137813847D01*
X136383057Y-137745574D01*
X136392623Y-137730689D01*
X136400208Y-137720557D01*
X136443796Y-137662331D01*
X136494091Y-137527483D01*
X136500500Y-137467873D01*
X136500499Y-136872128D01*
X136494091Y-136812517D01*
X136482816Y-136782288D01*
X136443797Y-136677671D01*
X136443793Y-136677664D01*
X136357547Y-136562455D01*
X136357544Y-136562452D01*
X136242335Y-136476206D01*
X136242328Y-136476202D01*
X136107482Y-136425908D01*
X136107483Y-136425908D01*
X136047883Y-136419501D01*
X136047881Y-136419500D01*
X136047873Y-136419500D01*
X136047865Y-136419500D01*
X134137600Y-136419500D01*
X134070561Y-136399815D01*
X134030213Y-136357500D01*
X134010214Y-136322861D01*
X134010213Y-136322860D01*
X133978820Y-136268484D01*
X133956600Y-136246264D01*
X133923115Y-136184941D01*
X133921063Y-136172484D01*
X133911268Y-136085545D01*
X133851689Y-135915278D01*
X133846246Y-135906616D01*
X133795651Y-135826094D01*
X133755716Y-135762538D01*
X133628162Y-135634984D01*
X133601379Y-135618155D01*
X133475423Y-135539011D01*
X133305154Y-135479431D01*
X133305149Y-135479430D01*
X133125904Y-135459235D01*
X133125903Y-135459235D01*
X133125901Y-135459235D01*
X133125900Y-135459235D01*
X133102727Y-135461845D01*
X133093281Y-135462910D01*
X133024460Y-135450854D01*
X132973081Y-135403504D01*
X132955400Y-135339689D01*
X132955400Y-125219426D01*
X132975085Y-125152387D01*
X133027889Y-125106632D01*
X133090378Y-125095913D01*
X133141963Y-125100500D01*
X134258036Y-125100499D01*
X134377418Y-125089886D01*
X134573049Y-125033909D01*
X134753407Y-124939698D01*
X134911109Y-124811109D01*
X135039698Y-124653407D01*
X135133909Y-124473049D01*
X135189886Y-124277418D01*
X135200500Y-124158037D01*
X135200500Y-123424500D01*
X135220185Y-123357461D01*
X135272989Y-123311706D01*
X135324500Y-123300500D01*
X138433084Y-123300500D01*
X138500123Y-123320185D01*
G37*
%TD.AperFunction*%
%TA.AperFunction,Conductor*%
G36*
X143266892Y-144239638D02*
G01*
X143380666Y-144309814D01*
X143547203Y-144364999D01*
X143649991Y-144375500D01*
X145950008Y-144375499D01*
X146052797Y-144364999D01*
X146052797Y-144364998D01*
X146059532Y-144364311D01*
X146059701Y-144365966D01*
X146120911Y-144370544D01*
X146176708Y-144412597D01*
X146200912Y-144478141D01*
X146201200Y-144486584D01*
X146201200Y-147375500D01*
X146181515Y-147442539D01*
X146128711Y-147488294D01*
X146077200Y-147499500D01*
X145402129Y-147499500D01*
X145402123Y-147499501D01*
X145342516Y-147505908D01*
X145207671Y-147556202D01*
X145207664Y-147556206D01*
X145092457Y-147642451D01*
X145092449Y-147642458D01*
X145068232Y-147674810D01*
X145012299Y-147716682D01*
X144968965Y-147724500D01*
X142856035Y-147724500D01*
X142788996Y-147704815D01*
X142756768Y-147674810D01*
X142732550Y-147642458D01*
X142732547Y-147642455D01*
X142732546Y-147642454D01*
X142732542Y-147642451D01*
X142617335Y-147556206D01*
X142617328Y-147556202D01*
X142482482Y-147505908D01*
X142482483Y-147505908D01*
X142422883Y-147499501D01*
X142422881Y-147499500D01*
X142422873Y-147499500D01*
X142422865Y-147499500D01*
X141523500Y-147499500D01*
X141456461Y-147479815D01*
X141410706Y-147427011D01*
X141399500Y-147375500D01*
X141399500Y-146274499D01*
X141419185Y-146207460D01*
X141471989Y-146161705D01*
X141523500Y-146150499D01*
X141797871Y-146150499D01*
X141797872Y-146150499D01*
X141857483Y-146144091D01*
X141992331Y-146093796D01*
X142090136Y-146020578D01*
X142132342Y-146000076D01*
X142283485Y-145959577D01*
X142333604Y-145930639D01*
X142420416Y-145880520D01*
X142532220Y-145768716D01*
X142532220Y-145768714D01*
X142542428Y-145758507D01*
X142542430Y-145758504D01*
X142835806Y-145465128D01*
X142835811Y-145465124D01*
X142846014Y-145454920D01*
X142846016Y-145454920D01*
X142957820Y-145343116D01*
X143021569Y-145232699D01*
X143036877Y-145206185D01*
X143077800Y-145053458D01*
X143077800Y-144895343D01*
X143077800Y-144345179D01*
X143097485Y-144278140D01*
X143150289Y-144232385D01*
X143219447Y-144222441D01*
X143266892Y-144239638D01*
G37*
%TD.AperFunction*%
%TA.AperFunction,Conductor*%
G36*
X144941941Y-138795184D02*
G01*
X144962583Y-138811818D01*
X145731681Y-139580916D01*
X145765166Y-139642239D01*
X145768000Y-139668597D01*
X145768000Y-141431402D01*
X145748315Y-141498441D01*
X145731681Y-141519083D01*
X145062583Y-142188181D01*
X145001260Y-142221666D01*
X144974902Y-142224500D01*
X143649998Y-142224500D01*
X143649981Y-142224501D01*
X143547203Y-142235000D01*
X143547200Y-142235001D01*
X143380668Y-142290185D01*
X143380659Y-142290189D01*
X143266896Y-142360359D01*
X143199504Y-142378799D01*
X143132840Y-142357876D01*
X143088071Y-142304234D01*
X143077800Y-142254820D01*
X143077800Y-140403252D01*
X143097485Y-140336213D01*
X143150289Y-140290458D01*
X143169699Y-140283479D01*
X143221585Y-140269577D01*
X143283938Y-140233577D01*
X143358516Y-140190520D01*
X143470320Y-140078716D01*
X143470320Y-140078714D01*
X143480524Y-140068511D01*
X143480527Y-140068506D01*
X144560320Y-138988716D01*
X144583940Y-138947804D01*
X144643441Y-138844746D01*
X144644606Y-138845419D01*
X144683117Y-138797638D01*
X144749413Y-138775578D01*
X144753830Y-138775499D01*
X144874902Y-138775499D01*
X144941941Y-138795184D01*
G37*
%TD.AperFunction*%
%TA.AperFunction,Conductor*%
G36*
X126468365Y-135396252D02*
G01*
X126513699Y-135449418D01*
X126524500Y-135500033D01*
X126524500Y-135906613D01*
X126530913Y-135977192D01*
X126530913Y-135977194D01*
X126530914Y-135977196D01*
X126581522Y-136139606D01*
X126652781Y-136257483D01*
X126669530Y-136285188D01*
X126789811Y-136405469D01*
X126789813Y-136405470D01*
X126789815Y-136405472D01*
X126935394Y-136493478D01*
X127097804Y-136544086D01*
X127168384Y-136550500D01*
X127168387Y-136550500D01*
X127782403Y-136550500D01*
X127849442Y-136570185D01*
X127870084Y-136586819D01*
X128388181Y-137104916D01*
X128421666Y-137166239D01*
X128424500Y-137192597D01*
X128424500Y-137556616D01*
X128425307Y-137565500D01*
X128430913Y-137627192D01*
X128430913Y-137627194D01*
X128430914Y-137627196D01*
X128453574Y-137699915D01*
X128481522Y-137789606D01*
X128569530Y-137935188D01*
X128689811Y-138055469D01*
X128689813Y-138055470D01*
X128689815Y-138055472D01*
X128761705Y-138098931D01*
X128808892Y-138150458D01*
X128820730Y-138219317D01*
X128793461Y-138283646D01*
X128785235Y-138292728D01*
X127687181Y-139390783D01*
X127625858Y-139424268D01*
X127556166Y-139419284D01*
X127500233Y-139377412D01*
X127475816Y-139311948D01*
X127475500Y-139303102D01*
X127475500Y-139018386D01*
X127469086Y-138947807D01*
X127469086Y-138947804D01*
X127418478Y-138785394D01*
X127330472Y-138639815D01*
X127330470Y-138639813D01*
X127330469Y-138639811D01*
X127210188Y-138519530D01*
X127167387Y-138493656D01*
X127064606Y-138431522D01*
X126902196Y-138380914D01*
X126902194Y-138380913D01*
X126902192Y-138380913D01*
X126852778Y-138376423D01*
X126831616Y-138374500D01*
X126831613Y-138374500D01*
X126500097Y-138374500D01*
X126433058Y-138354815D01*
X126412416Y-138338181D01*
X126272666Y-138198431D01*
X126239181Y-138137108D01*
X126244165Y-138067416D01*
X126258772Y-138039627D01*
X126274035Y-138017830D01*
X126373903Y-137803663D01*
X126435063Y-137575408D01*
X126455659Y-137340000D01*
X126435063Y-137104592D01*
X126373903Y-136876337D01*
X126274035Y-136662171D01*
X126267285Y-136652530D01*
X126138494Y-136468597D01*
X125971402Y-136301506D01*
X125971396Y-136301501D01*
X125785842Y-136171575D01*
X125742217Y-136116998D01*
X125735023Y-136047500D01*
X125766546Y-135985145D01*
X125785842Y-135968425D01*
X125812510Y-135949752D01*
X125971401Y-135838495D01*
X126138495Y-135671401D01*
X126274035Y-135477830D01*
X126288118Y-135447629D01*
X126334290Y-135395189D01*
X126401483Y-135376037D01*
X126468365Y-135396252D01*
G37*
%TD.AperFunction*%
%TA.AperFunction,Conductor*%
G36*
X145017289Y-134470184D02*
G01*
X145025734Y-134476121D01*
X145030680Y-134479916D01*
X145030684Y-134479920D01*
X145030688Y-134479922D01*
X145032184Y-134481070D01*
X145073388Y-134537497D01*
X145080700Y-134579448D01*
X145080700Y-136418701D01*
X145061015Y-136485740D01*
X145044381Y-136506382D01*
X144962582Y-136588181D01*
X144901259Y-136621666D01*
X144874901Y-136624500D01*
X144804300Y-136624500D01*
X144737261Y-136604815D01*
X144691506Y-136552011D01*
X144680300Y-136500500D01*
X144680300Y-134574499D01*
X144699985Y-134507460D01*
X144752789Y-134461705D01*
X144804300Y-134450499D01*
X144950250Y-134450499D01*
X145017289Y-134470184D01*
G37*
%TD.AperFunction*%
%TA.AperFunction,Conductor*%
G36*
X147260939Y-134570184D02*
G01*
X147306694Y-134622988D01*
X147317900Y-134674499D01*
X147317900Y-135252602D01*
X147298215Y-135319641D01*
X147281581Y-135340283D01*
X146493381Y-136128483D01*
X146432058Y-136161968D01*
X146362366Y-136156984D01*
X146306433Y-136115112D01*
X146282016Y-136049648D01*
X146281700Y-136040802D01*
X146281700Y-134723900D01*
X146301385Y-134656861D01*
X146354189Y-134611106D01*
X146405700Y-134599900D01*
X146613931Y-134599900D01*
X146613947Y-134599901D01*
X146621543Y-134599901D01*
X146779654Y-134599901D01*
X146779657Y-134599901D01*
X146932385Y-134558977D01*
X146932385Y-134558976D01*
X146940237Y-134556873D01*
X146940502Y-134557863D01*
X146977518Y-134550499D01*
X147193900Y-134550499D01*
X147260939Y-134570184D01*
G37*
%TD.AperFunction*%
%TA.AperFunction,Conductor*%
G36*
X148667032Y-128820185D02*
G01*
X148687687Y-128836832D01*
X148764094Y-128913262D01*
X148797570Y-128974590D01*
X148800400Y-129000930D01*
X148800400Y-135192303D01*
X148780715Y-135259342D01*
X148764081Y-135279984D01*
X148730581Y-135313484D01*
X148669258Y-135346969D01*
X148599566Y-135341985D01*
X148543633Y-135300113D01*
X148519216Y-135234649D01*
X148518900Y-135225803D01*
X148518900Y-133032360D01*
X148518901Y-133032347D01*
X148518901Y-132864244D01*
X148518901Y-132864243D01*
X148477977Y-132711516D01*
X148474257Y-132705073D01*
X148398924Y-132574590D01*
X148398918Y-132574582D01*
X148386819Y-132562483D01*
X148353334Y-132501160D01*
X148350500Y-132474802D01*
X148350500Y-129374760D01*
X148350501Y-129374747D01*
X148350501Y-129206644D01*
X148350501Y-129206643D01*
X148309577Y-129053916D01*
X148270653Y-128986498D01*
X148254182Y-128918599D01*
X148277035Y-128852572D01*
X148331957Y-128809382D01*
X148378042Y-128800500D01*
X148599993Y-128800500D01*
X148667032Y-128820185D01*
G37*
%TD.AperFunction*%
%TA.AperFunction,Conductor*%
G36*
X126084581Y-133307736D02*
G01*
X126109412Y-133326947D01*
X126558539Y-133776074D01*
X126558549Y-133776085D01*
X126562879Y-133780415D01*
X126562880Y-133780416D01*
X126674684Y-133892220D01*
X126737695Y-133928599D01*
X126811615Y-133971277D01*
X126964343Y-134012201D01*
X126964346Y-134012201D01*
X127130053Y-134012201D01*
X127130069Y-134012200D01*
X128300500Y-134012200D01*
X128367539Y-134031885D01*
X128413294Y-134084689D01*
X128424500Y-134136200D01*
X128424500Y-134456616D01*
X128425069Y-134462876D01*
X128430913Y-134527192D01*
X128430913Y-134527194D01*
X128430914Y-134527196D01*
X128481522Y-134689606D01*
X128548559Y-134800499D01*
X128569530Y-134835188D01*
X128571661Y-134837319D01*
X128572722Y-134839262D01*
X128574157Y-134841094D01*
X128573852Y-134841332D01*
X128605146Y-134898642D01*
X128600162Y-134968334D01*
X128574110Y-135008869D01*
X128574157Y-135008906D01*
X128573767Y-135009402D01*
X128571661Y-135012681D01*
X128569531Y-135014810D01*
X128569528Y-135014814D01*
X128556116Y-135037001D01*
X128504588Y-135084188D01*
X128435729Y-135096026D01*
X128371400Y-135068757D01*
X128343884Y-135037001D01*
X128330471Y-135014814D01*
X128330468Y-135014810D01*
X128210188Y-134894530D01*
X128155740Y-134861615D01*
X128064606Y-134806522D01*
X127902196Y-134755914D01*
X127902194Y-134755913D01*
X127902192Y-134755913D01*
X127852778Y-134751423D01*
X127831616Y-134749500D01*
X127168384Y-134749500D01*
X127149145Y-134751248D01*
X127097807Y-134755913D01*
X126935393Y-134806522D01*
X126789811Y-134894530D01*
X126669528Y-135014813D01*
X126665152Y-135020400D01*
X126608313Y-135061034D01*
X126538529Y-135064488D01*
X126477956Y-135029665D01*
X126445825Y-134967622D01*
X126444012Y-134933121D01*
X126444767Y-134924499D01*
X126455659Y-134800000D01*
X126435063Y-134564592D01*
X126373903Y-134336337D01*
X126274035Y-134122171D01*
X126210817Y-134031885D01*
X126138494Y-133928597D01*
X125971402Y-133761506D01*
X125971401Y-133761505D01*
X125849746Y-133676321D01*
X125785841Y-133631574D01*
X125742216Y-133576997D01*
X125735024Y-133507498D01*
X125766546Y-133445144D01*
X125785831Y-133428432D01*
X125950612Y-133313051D01*
X126016813Y-133290726D01*
X126084581Y-133307736D01*
G37*
%TD.AperFunction*%
%TA.AperFunction,Conductor*%
G36*
X142963503Y-126602495D02*
G01*
X143002292Y-126615349D01*
X143101655Y-126625500D01*
X143449941Y-126625499D01*
X143516980Y-126645183D01*
X143537619Y-126661814D01*
X143941174Y-127065338D01*
X143974661Y-127126660D01*
X143976716Y-127139140D01*
X143984930Y-127212046D01*
X143984931Y-127212052D01*
X144044510Y-127382321D01*
X144144189Y-127540958D01*
X144141582Y-127542595D01*
X144162851Y-127594653D01*
X144163499Y-127607311D01*
X144163499Y-127671754D01*
X144163498Y-127671754D01*
X144204423Y-127824485D01*
X144212437Y-127838365D01*
X144212438Y-127838367D01*
X144283477Y-127961412D01*
X144283481Y-127961417D01*
X144402349Y-128080285D01*
X144402355Y-128080290D01*
X145888181Y-129566116D01*
X145921666Y-129627439D01*
X145924500Y-129653797D01*
X145924500Y-129881613D01*
X145930913Y-129952192D01*
X145981522Y-130114606D01*
X146069530Y-130260188D01*
X146189811Y-130380469D01*
X146189813Y-130380470D01*
X146189815Y-130380472D01*
X146335394Y-130468478D01*
X146497804Y-130519086D01*
X146568384Y-130525500D01*
X147025500Y-130525500D01*
X147092539Y-130545185D01*
X147138294Y-130597989D01*
X147149500Y-130649500D01*
X147149500Y-132525500D01*
X147129815Y-132592539D01*
X147077011Y-132638294D01*
X147025501Y-132649500D01*
X146801663Y-132649500D01*
X146801644Y-132649501D01*
X146702292Y-132659650D01*
X146702289Y-132659651D01*
X146541305Y-132712996D01*
X146541294Y-132713001D01*
X146396959Y-132802029D01*
X146396955Y-132802032D01*
X146277032Y-132921955D01*
X146277029Y-132921959D01*
X146188001Y-133066294D01*
X146187996Y-133066305D01*
X146134651Y-133227290D01*
X146128500Y-133287502D01*
X146102104Y-133352194D01*
X146044924Y-133392345D01*
X146005142Y-133398900D01*
X145999499Y-133398900D01*
X145932460Y-133379215D01*
X145886705Y-133326411D01*
X145875499Y-133274900D01*
X145875499Y-133226662D01*
X145875498Y-133226644D01*
X145865349Y-133127292D01*
X145865348Y-133127289D01*
X145833892Y-133032360D01*
X145812003Y-132966303D01*
X145811999Y-132966297D01*
X145811998Y-132966294D01*
X145722970Y-132821959D01*
X145722969Y-132821958D01*
X145722968Y-132821956D01*
X145603044Y-132702032D01*
X145603043Y-132702031D01*
X145603042Y-132702030D01*
X145559402Y-132675112D01*
X145512678Y-132623163D01*
X145500500Y-132569574D01*
X145500500Y-132405424D01*
X145520185Y-132338385D01*
X145559402Y-132299886D01*
X145603044Y-132272968D01*
X145722968Y-132153044D01*
X145812003Y-132008697D01*
X145865349Y-131847708D01*
X145875500Y-131748345D01*
X145875499Y-131201656D01*
X145867804Y-131126330D01*
X145865349Y-131102292D01*
X145865348Y-131102289D01*
X145843713Y-131036998D01*
X145812003Y-130941303D01*
X145811999Y-130941297D01*
X145811998Y-130941294D01*
X145722970Y-130796959D01*
X145722967Y-130796955D01*
X145603044Y-130677032D01*
X145603040Y-130677029D01*
X145458705Y-130588001D01*
X145458699Y-130587998D01*
X145458697Y-130587997D01*
X145388738Y-130564815D01*
X145297709Y-130534651D01*
X145198346Y-130524500D01*
X144601662Y-130524500D01*
X144601644Y-130524501D01*
X144502292Y-130534650D01*
X144502289Y-130534651D01*
X144341305Y-130587996D01*
X144341294Y-130588001D01*
X144196959Y-130677029D01*
X144196955Y-130677032D01*
X144077032Y-130796955D01*
X144077029Y-130796959D01*
X143988001Y-130941294D01*
X143987996Y-130941305D01*
X143934651Y-131102290D01*
X143924500Y-131201647D01*
X143924500Y-131748337D01*
X143924501Y-131748355D01*
X143934650Y-131847707D01*
X143934651Y-131847710D01*
X143987996Y-132008694D01*
X143988001Y-132008705D01*
X144077029Y-132153040D01*
X144077032Y-132153044D01*
X144196956Y-132272968D01*
X144240597Y-132299886D01*
X144287321Y-132351832D01*
X144299500Y-132405424D01*
X144299500Y-132569574D01*
X144279815Y-132636613D01*
X144240599Y-132675111D01*
X144221923Y-132686631D01*
X144154531Y-132705073D01*
X144094825Y-132688482D01*
X144061704Y-132669360D01*
X144061704Y-132669359D01*
X144061700Y-132669358D01*
X144011585Y-132640423D01*
X143858857Y-132599499D01*
X143858854Y-132599499D01*
X143845908Y-132599499D01*
X143778869Y-132579814D01*
X143740361Y-132535729D01*
X143738605Y-132536813D01*
X143732037Y-132526164D01*
X143642712Y-132381344D01*
X143518656Y-132257288D01*
X143369334Y-132165186D01*
X143202797Y-132110001D01*
X143202795Y-132110000D01*
X143100016Y-132099500D01*
X143100009Y-132099500D01*
X142568961Y-132099500D01*
X142501922Y-132079815D01*
X142456167Y-132027011D01*
X142445741Y-131961616D01*
X142451365Y-131911702D01*
X142451365Y-131911696D01*
X142431169Y-131732450D01*
X142431168Y-131732445D01*
X142395941Y-131631772D01*
X142371589Y-131562178D01*
X142367067Y-131554982D01*
X142294065Y-131438800D01*
X142275616Y-131409438D01*
X142148062Y-131281884D01*
X141995323Y-131185911D01*
X141825054Y-131126331D01*
X141825049Y-131126330D01*
X141645804Y-131106135D01*
X141645796Y-131106135D01*
X141466550Y-131126330D01*
X141466545Y-131126331D01*
X141296276Y-131185911D01*
X141143537Y-131281884D01*
X141015986Y-131409435D01*
X141015980Y-131409442D01*
X140984291Y-131459874D01*
X140966981Y-131481580D01*
X140922082Y-131526480D01*
X140860759Y-131559966D01*
X140791068Y-131554982D01*
X140735134Y-131513112D01*
X140710716Y-131447647D01*
X140710400Y-131438800D01*
X140710400Y-129699447D01*
X140730085Y-129632408D01*
X140782889Y-129586653D01*
X140852047Y-129576709D01*
X140899493Y-129593906D01*
X141030666Y-129674814D01*
X141197203Y-129729999D01*
X141299991Y-129740500D01*
X143100008Y-129740499D01*
X143202797Y-129729999D01*
X143369334Y-129674814D01*
X143518656Y-129582712D01*
X143642712Y-129458656D01*
X143734814Y-129309334D01*
X143789999Y-129142797D01*
X143800500Y-129040009D01*
X143800499Y-128239992D01*
X143798328Y-128218743D01*
X143789999Y-128137203D01*
X143789998Y-128137200D01*
X143734814Y-127970666D01*
X143642712Y-127821344D01*
X143518656Y-127697288D01*
X143425888Y-127640069D01*
X143369336Y-127605187D01*
X143369331Y-127605185D01*
X143367862Y-127604698D01*
X143202797Y-127550001D01*
X143202795Y-127550000D01*
X143100016Y-127539500D01*
X143100009Y-127539500D01*
X142924500Y-127539500D01*
X142857461Y-127519815D01*
X142811706Y-127467011D01*
X142800500Y-127415500D01*
X142800500Y-126720202D01*
X142820185Y-126653163D01*
X142872989Y-126607408D01*
X142942147Y-126597464D01*
X142963503Y-126602495D01*
G37*
%TD.AperFunction*%
%TA.AperFunction,Conductor*%
G36*
X126249513Y-130582895D02*
G01*
X126293861Y-130611396D01*
X126521839Y-130839374D01*
X126521849Y-130839385D01*
X126526179Y-130843715D01*
X126526180Y-130843716D01*
X126637984Y-130955520D01*
X126658735Y-130967500D01*
X126724795Y-131005639D01*
X126724797Y-131005641D01*
X126774913Y-131034576D01*
X126774915Y-131034577D01*
X126927642Y-131075500D01*
X126927643Y-131075500D01*
X128300500Y-131075500D01*
X128367539Y-131095185D01*
X128413294Y-131147989D01*
X128424500Y-131199500D01*
X128424500Y-131456613D01*
X128430913Y-131527192D01*
X128430913Y-131527194D01*
X128430914Y-131527196D01*
X128449808Y-131587830D01*
X128481522Y-131689606D01*
X128524893Y-131761350D01*
X128542729Y-131828905D01*
X128521211Y-131895379D01*
X128467171Y-131939666D01*
X128418776Y-131949500D01*
X128316520Y-131949500D01*
X128249481Y-131929815D01*
X128228839Y-131913181D01*
X128210188Y-131894530D01*
X128204818Y-131891284D01*
X128064606Y-131806522D01*
X127902196Y-131755914D01*
X127902194Y-131755913D01*
X127902192Y-131755913D01*
X127852778Y-131751423D01*
X127831616Y-131749500D01*
X127168384Y-131749500D01*
X127149145Y-131751248D01*
X127097807Y-131755913D01*
X126935393Y-131806522D01*
X126839078Y-131864747D01*
X126771523Y-131882583D01*
X126705049Y-131861065D01*
X126687247Y-131846311D01*
X126620417Y-131779481D01*
X126620409Y-131779475D01*
X126483490Y-131700426D01*
X126483485Y-131700423D01*
X126362995Y-131668138D01*
X126303335Y-131631772D01*
X126282708Y-131600769D01*
X126274038Y-131582177D01*
X126274034Y-131582170D01*
X126138494Y-131388597D01*
X125971402Y-131221506D01*
X125971396Y-131221501D01*
X125785842Y-131091575D01*
X125742217Y-131036998D01*
X125735023Y-130967500D01*
X125766546Y-130905145D01*
X125785842Y-130888425D01*
X125860661Y-130836036D01*
X125971401Y-130758495D01*
X126118502Y-130611393D01*
X126179822Y-130577911D01*
X126249513Y-130582895D01*
G37*
%TD.AperFunction*%
%TA.AperFunction,Conductor*%
G36*
X126295689Y-128023477D02*
G01*
X126308967Y-128031142D01*
X126314915Y-128034577D01*
X126467643Y-128075501D01*
X126467646Y-128075501D01*
X126633353Y-128075501D01*
X126633369Y-128075500D01*
X128300500Y-128075500D01*
X128367539Y-128095185D01*
X128413294Y-128147989D01*
X128424500Y-128199500D01*
X128424500Y-128456613D01*
X128430913Y-128527192D01*
X128430913Y-128527194D01*
X128430914Y-128527196D01*
X128481522Y-128689606D01*
X128554817Y-128810851D01*
X128572653Y-128878403D01*
X128554817Y-128939149D01*
X128524288Y-128989650D01*
X128472760Y-129036838D01*
X128418171Y-129049500D01*
X128316520Y-129049500D01*
X128249481Y-129029815D01*
X128228839Y-129013181D01*
X128110188Y-128894530D01*
X128040781Y-128852572D01*
X127964606Y-128806522D01*
X127802196Y-128755914D01*
X127802194Y-128755913D01*
X127802192Y-128755913D01*
X127752778Y-128751423D01*
X127731616Y-128749500D01*
X127068384Y-128749500D01*
X127049145Y-128751248D01*
X126997807Y-128755913D01*
X126835393Y-128806522D01*
X126689811Y-128894530D01*
X126569531Y-129014810D01*
X126569528Y-129014814D01*
X126529985Y-129080225D01*
X126478456Y-129127412D01*
X126409597Y-129139250D01*
X126391774Y-129135848D01*
X126362994Y-129128136D01*
X126303334Y-129091771D01*
X126282708Y-129060768D01*
X126274038Y-129042176D01*
X126274034Y-129042169D01*
X126138494Y-128848597D01*
X125971402Y-128681506D01*
X125971396Y-128681501D01*
X125785842Y-128551575D01*
X125742217Y-128496998D01*
X125735023Y-128427500D01*
X125766546Y-128365145D01*
X125785842Y-128348425D01*
X125808026Y-128332891D01*
X125971401Y-128218495D01*
X126138495Y-128051401D01*
X126138502Y-128051389D01*
X126138683Y-128051176D01*
X126138796Y-128051100D01*
X126142324Y-128047573D01*
X126143032Y-128048281D01*
X126196846Y-128012462D01*
X126266707Y-128011340D01*
X126295689Y-128023477D01*
G37*
%TD.AperFunction*%
%TA.AperFunction,Conductor*%
G36*
X148466942Y-125195185D02*
G01*
X148487584Y-125211819D01*
X148927281Y-125651516D01*
X148960766Y-125712839D01*
X148963600Y-125739197D01*
X148963600Y-126447187D01*
X148943915Y-126514226D01*
X148936550Y-126524496D01*
X148934286Y-126527334D01*
X148838310Y-126680078D01*
X148778730Y-126850350D01*
X148774333Y-126889383D01*
X148747267Y-126953797D01*
X148689672Y-126993352D01*
X148651113Y-126999500D01*
X148324500Y-126999500D01*
X148257461Y-126979815D01*
X148211706Y-126927011D01*
X148200500Y-126875500D01*
X148200500Y-125299500D01*
X148220185Y-125232461D01*
X148272989Y-125186706D01*
X148324500Y-125175500D01*
X148399903Y-125175500D01*
X148466942Y-125195185D01*
G37*
%TD.AperFunction*%
%TA.AperFunction,Conductor*%
G36*
X128367539Y-125061385D02*
G01*
X128413294Y-125114189D01*
X128424500Y-125165700D01*
X128424500Y-125456613D01*
X128430913Y-125527192D01*
X128430913Y-125527194D01*
X128430914Y-125527196D01*
X128481522Y-125689606D01*
X128554817Y-125810851D01*
X128572653Y-125878403D01*
X128554817Y-125939149D01*
X128524288Y-125989650D01*
X128472760Y-126036838D01*
X128418171Y-126049500D01*
X128416520Y-126049500D01*
X128349481Y-126029815D01*
X128328839Y-126013181D01*
X128210188Y-125894530D01*
X128157065Y-125862416D01*
X128064606Y-125806522D01*
X127902196Y-125755914D01*
X127902194Y-125755913D01*
X127902192Y-125755913D01*
X127852778Y-125751423D01*
X127831616Y-125749500D01*
X127168384Y-125749500D01*
X127149145Y-125751248D01*
X127097807Y-125755913D01*
X126935393Y-125806522D01*
X126789811Y-125894530D01*
X126669530Y-126014811D01*
X126581522Y-126160393D01*
X126530913Y-126322807D01*
X126524500Y-126393386D01*
X126524500Y-126469812D01*
X126504815Y-126536851D01*
X126452011Y-126582606D01*
X126382853Y-126592550D01*
X126368404Y-126589586D01*
X126362993Y-126588136D01*
X126303333Y-126551770D01*
X126282708Y-126520768D01*
X126274038Y-126502176D01*
X126274034Y-126502169D01*
X126138494Y-126308597D01*
X125971402Y-126141506D01*
X125971396Y-126141501D01*
X125785842Y-126011575D01*
X125742217Y-125956998D01*
X125735023Y-125887500D01*
X125766546Y-125825145D01*
X125785842Y-125808425D01*
X125869995Y-125749500D01*
X125971401Y-125678495D01*
X126138495Y-125511401D01*
X126274035Y-125317830D01*
X126282707Y-125299233D01*
X126328879Y-125246793D01*
X126362990Y-125231863D01*
X126483485Y-125199577D01*
X126560694Y-125155000D01*
X126620416Y-125120520D01*
X126662917Y-125078019D01*
X126724240Y-125044534D01*
X126750598Y-125041700D01*
X128300500Y-125041700D01*
X128367539Y-125061385D01*
G37*
%TD.AperFunction*%
%TA.AperFunction,Conductor*%
G36*
X142746731Y-121953874D02*
G01*
X142752396Y-121957164D01*
X142841303Y-122012003D01*
X143002292Y-122065349D01*
X143101655Y-122075500D01*
X143449902Y-122075499D01*
X143516941Y-122095183D01*
X143537583Y-122111818D01*
X143562081Y-122136316D01*
X143595566Y-122197639D01*
X143598400Y-122223997D01*
X143598400Y-123337230D01*
X143598399Y-123337248D01*
X143598399Y-123502954D01*
X143598398Y-123502954D01*
X143636364Y-123644642D01*
X143639323Y-123655685D01*
X143662493Y-123695816D01*
X143718379Y-123792614D01*
X143718381Y-123792617D01*
X143837249Y-123911485D01*
X143837255Y-123911490D01*
X145788181Y-125862416D01*
X145821666Y-125923739D01*
X145824500Y-125950097D01*
X145824500Y-126099902D01*
X145804815Y-126166941D01*
X145788181Y-126187583D01*
X145641981Y-126333782D01*
X145641979Y-126333785D01*
X145607380Y-126393714D01*
X145607379Y-126393716D01*
X145562234Y-126471908D01*
X145511666Y-126520123D01*
X145443059Y-126533345D01*
X145378195Y-126507377D01*
X145367166Y-126497588D01*
X145272562Y-126402984D01*
X145119823Y-126307011D01*
X144949554Y-126247431D01*
X144949550Y-126247430D01*
X144848622Y-126236059D01*
X144784208Y-126208992D01*
X144774828Y-126200523D01*
X144411821Y-125837542D01*
X144378334Y-125776220D01*
X144375499Y-125749858D01*
X144375499Y-125401662D01*
X144375498Y-125401644D01*
X144365349Y-125302292D01*
X144365348Y-125302289D01*
X144364335Y-125299233D01*
X144312003Y-125141303D01*
X144311999Y-125141297D01*
X144311998Y-125141294D01*
X144222970Y-124996959D01*
X144222967Y-124996955D01*
X144103044Y-124877032D01*
X144103040Y-124877029D01*
X143958705Y-124788001D01*
X143958699Y-124787998D01*
X143958697Y-124787997D01*
X143958694Y-124787996D01*
X143797709Y-124734651D01*
X143698346Y-124724500D01*
X143101662Y-124724500D01*
X143101644Y-124724501D01*
X143002292Y-124734650D01*
X143002291Y-124734651D01*
X142963502Y-124747504D01*
X142893674Y-124749904D01*
X142833632Y-124714172D01*
X142802441Y-124651651D01*
X142800500Y-124629797D01*
X142800500Y-122689059D01*
X142800501Y-122689046D01*
X142800501Y-122520945D01*
X142800501Y-122520943D01*
X142759577Y-122368215D01*
X142743585Y-122340518D01*
X142721742Y-122302683D01*
X142721741Y-122302682D01*
X142713030Y-122287595D01*
X142680520Y-122231284D01*
X142599623Y-122150387D01*
X142566138Y-122089064D01*
X142571122Y-122019372D01*
X142612994Y-121963439D01*
X142678458Y-121939022D01*
X142746731Y-121953874D01*
G37*
%TD.AperFunction*%
%TA.AperFunction,Conductor*%
G36*
X152638139Y-121445184D02*
G01*
X152683894Y-121497988D01*
X152695100Y-121549499D01*
X152695100Y-122795502D01*
X152675415Y-122862541D01*
X152658781Y-122883183D01*
X152175484Y-123366481D01*
X152114161Y-123399966D01*
X152087803Y-123402800D01*
X152020943Y-123402800D01*
X151868216Y-123443723D01*
X151868209Y-123443726D01*
X151731290Y-123522775D01*
X151731282Y-123522781D01*
X151619481Y-123634582D01*
X151619475Y-123634590D01*
X151540426Y-123771509D01*
X151540423Y-123771514D01*
X151528075Y-123817601D01*
X151491710Y-123877261D01*
X151428863Y-123907790D01*
X151359487Y-123899495D01*
X151305609Y-123855010D01*
X151284335Y-123788458D01*
X151284300Y-123785507D01*
X151284300Y-121549499D01*
X151303985Y-121482460D01*
X151356789Y-121436705D01*
X151408300Y-121425499D01*
X152571100Y-121425499D01*
X152638139Y-121445184D01*
G37*
%TD.AperFunction*%
%TA.AperFunction,Conductor*%
G36*
X147087256Y-121470185D02*
G01*
X147133011Y-121522989D01*
X147142955Y-121592147D01*
X147139992Y-121606593D01*
X147121999Y-121673743D01*
X147121999Y-121841846D01*
X147122000Y-121841859D01*
X147122000Y-122949094D01*
X147105388Y-123011091D01*
X147079932Y-123055184D01*
X147040423Y-123123615D01*
X146999499Y-123276343D01*
X146999499Y-123276345D01*
X146999499Y-123350500D01*
X146979814Y-123417539D01*
X146927010Y-123463294D01*
X146875499Y-123474500D01*
X146826200Y-123474500D01*
X146759161Y-123454815D01*
X146713406Y-123402011D01*
X146702200Y-123350500D01*
X146702200Y-121610897D01*
X146721885Y-121543858D01*
X146738519Y-121523216D01*
X146774916Y-121486819D01*
X146836239Y-121453334D01*
X146862597Y-121450500D01*
X147020217Y-121450500D01*
X147087256Y-121470185D01*
G37*
%TD.AperFunction*%
%TA.AperFunction,Conductor*%
G36*
X148791034Y-121636015D02*
G01*
X148846967Y-121677887D01*
X148871384Y-121743351D01*
X148871700Y-121752197D01*
X148871700Y-122902702D01*
X148852015Y-122969741D01*
X148835381Y-122990383D01*
X148534681Y-123291083D01*
X148473358Y-123324568D01*
X148403666Y-123319584D01*
X148347733Y-123277712D01*
X148323316Y-123212248D01*
X148323000Y-123203402D01*
X148323000Y-122052897D01*
X148342685Y-121985858D01*
X148359319Y-121965216D01*
X148521491Y-121803044D01*
X148660020Y-121664515D01*
X148721342Y-121631031D01*
X148791034Y-121636015D01*
G37*
%TD.AperFunction*%
%TA.AperFunction,Conductor*%
G36*
X128367539Y-122085785D02*
G01*
X128413294Y-122138589D01*
X128424500Y-122190100D01*
X128424500Y-122456613D01*
X128430913Y-122527192D01*
X128430913Y-122527194D01*
X128430914Y-122527196D01*
X128452623Y-122596864D01*
X128481522Y-122689606D01*
X128524893Y-122761350D01*
X128542729Y-122828905D01*
X128521211Y-122895379D01*
X128467171Y-122939666D01*
X128418776Y-122949500D01*
X128416520Y-122949500D01*
X128349481Y-122929815D01*
X128328839Y-122913181D01*
X128210188Y-122794530D01*
X128064606Y-122706522D01*
X127902196Y-122655914D01*
X127902194Y-122655913D01*
X127902192Y-122655913D01*
X127852778Y-122651423D01*
X127831616Y-122649500D01*
X127168384Y-122649500D01*
X127138135Y-122652248D01*
X127097800Y-122655914D01*
X127056936Y-122668648D01*
X126987076Y-122669798D01*
X126954075Y-122655256D01*
X126868220Y-122601309D01*
X126855516Y-122596864D01*
X126798740Y-122556141D01*
X126772994Y-122491188D01*
X126786451Y-122422627D01*
X126808784Y-122392149D01*
X127098518Y-122102416D01*
X127159839Y-122068934D01*
X127186197Y-122066100D01*
X128300500Y-122066100D01*
X128367539Y-122085785D01*
G37*
%TD.AperFunction*%
%TA.AperFunction,Conductor*%
G36*
X151635489Y-115173507D02*
G01*
X151636337Y-115173903D01*
X151636343Y-115173904D01*
X151636344Y-115173905D01*
X151691285Y-115188626D01*
X151864592Y-115235063D01*
X152052918Y-115251539D01*
X152099999Y-115255659D01*
X152100000Y-115255659D01*
X152100001Y-115255659D01*
X152139234Y-115252226D01*
X152335408Y-115235063D01*
X152539008Y-115180509D01*
X152608856Y-115182172D01*
X152666719Y-115221335D01*
X152694223Y-115285563D01*
X152695100Y-115300284D01*
X152695100Y-118600500D01*
X152675415Y-118667539D01*
X152622611Y-118713294D01*
X152571100Y-118724500D01*
X151408300Y-118724500D01*
X151341261Y-118704815D01*
X151295506Y-118652011D01*
X151284300Y-118600500D01*
X151284300Y-115725995D01*
X151303306Y-115660023D01*
X151342054Y-115598356D01*
X151391589Y-115519522D01*
X151451168Y-115349255D01*
X151459871Y-115272010D01*
X151486936Y-115207597D01*
X151544531Y-115168041D01*
X151614368Y-115165902D01*
X151635489Y-115173507D01*
G37*
%TD.AperFunction*%
%TA.AperFunction,Conductor*%
G36*
X127648299Y-115470185D02*
G01*
X127694054Y-115522989D01*
X127704479Y-115560612D01*
X127708246Y-115594042D01*
X127708732Y-115598356D01*
X127768311Y-115768623D01*
X127795828Y-115812415D01*
X127863595Y-115920266D01*
X127864285Y-115921363D01*
X127866545Y-115924197D01*
X127867434Y-115926375D01*
X127867989Y-115927258D01*
X127867834Y-115927355D01*
X127892955Y-115988883D01*
X127893600Y-116001512D01*
X127893600Y-117905802D01*
X127873915Y-117972841D01*
X127857281Y-117993483D01*
X127587584Y-118263181D01*
X127526261Y-118296666D01*
X127499903Y-118299500D01*
X127403900Y-118299500D01*
X127336861Y-118279815D01*
X127291106Y-118227011D01*
X127279900Y-118175500D01*
X127279900Y-115574500D01*
X127299585Y-115507461D01*
X127352389Y-115461706D01*
X127403900Y-115450500D01*
X127581260Y-115450500D01*
X127648299Y-115470185D01*
G37*
%TD.AperFunction*%
%TA.AperFunction,Conductor*%
G36*
X145805701Y-108805382D02*
G01*
X145812180Y-108811415D01*
X147067752Y-110066987D01*
X147101237Y-110128310D01*
X147096253Y-110198002D01*
X147067761Y-110242341D01*
X147061505Y-110248597D01*
X146925965Y-110442170D01*
X146925962Y-110442175D01*
X146923289Y-110447909D01*
X146877115Y-110500346D01*
X146810909Y-110519500D01*
X146741669Y-110519500D01*
X146741653Y-110519499D01*
X146734057Y-110519499D01*
X146575943Y-110519499D01*
X146496010Y-110540917D01*
X146423216Y-110560422D01*
X146384350Y-110582862D01*
X146384349Y-110582861D01*
X146286287Y-110639477D01*
X146286282Y-110639481D01*
X146227900Y-110697864D01*
X146174480Y-110751284D01*
X146174478Y-110751286D01*
X144015515Y-112910250D01*
X141887584Y-115038181D01*
X141826261Y-115071666D01*
X141799903Y-115074500D01*
X141468384Y-115074500D01*
X141449145Y-115076248D01*
X141397807Y-115080913D01*
X141235393Y-115131522D01*
X141089811Y-115219530D01*
X141089810Y-115219531D01*
X140971161Y-115338181D01*
X140909838Y-115371666D01*
X140883480Y-115374500D01*
X140316520Y-115374500D01*
X140249481Y-115354815D01*
X140228839Y-115338181D01*
X140110188Y-115219530D01*
X140042518Y-115178622D01*
X139964606Y-115131522D01*
X139802196Y-115080914D01*
X139802194Y-115080913D01*
X139802192Y-115080913D01*
X139752778Y-115076423D01*
X139731616Y-115074500D01*
X139068384Y-115074500D01*
X139049145Y-115076248D01*
X138997807Y-115080913D01*
X138835393Y-115131522D01*
X138689811Y-115219530D01*
X138569530Y-115339811D01*
X138481522Y-115485393D01*
X138430913Y-115647807D01*
X138424500Y-115718386D01*
X138424500Y-116231613D01*
X138430913Y-116302192D01*
X138481522Y-116464606D01*
X138569530Y-116610188D01*
X138671661Y-116712319D01*
X138705146Y-116773642D01*
X138700162Y-116843334D01*
X138671661Y-116887681D01*
X138569531Y-116989810D01*
X138569528Y-116989814D01*
X138482187Y-117134292D01*
X138430659Y-117181479D01*
X138361800Y-117193317D01*
X138301760Y-117169407D01*
X138217335Y-117106206D01*
X138217328Y-117106202D01*
X138082482Y-117055908D01*
X138082483Y-117055908D01*
X138022883Y-117049501D01*
X138022881Y-117049500D01*
X138022873Y-117049500D01*
X138022864Y-117049500D01*
X136877129Y-117049500D01*
X136877123Y-117049501D01*
X136817516Y-117055908D01*
X136682671Y-117106202D01*
X136682664Y-117106206D01*
X136567457Y-117192451D01*
X136567449Y-117192458D01*
X136543232Y-117224810D01*
X136487299Y-117266682D01*
X136443965Y-117274500D01*
X135003878Y-117274500D01*
X134936839Y-117254815D01*
X134891084Y-117202011D01*
X134881140Y-117132853D01*
X134910165Y-117069297D01*
X134941879Y-117043113D01*
X135009409Y-117004124D01*
X135009408Y-117004124D01*
X135009416Y-117004120D01*
X135121220Y-116892316D01*
X135121220Y-116892314D01*
X135131424Y-116882111D01*
X135131427Y-116882106D01*
X136678616Y-115334919D01*
X136739939Y-115301434D01*
X136766297Y-115298600D01*
X137772231Y-115298600D01*
X137772247Y-115298601D01*
X137779843Y-115298601D01*
X137937954Y-115298601D01*
X137937957Y-115298601D01*
X138090685Y-115257677D01*
X138113092Y-115244740D01*
X138141682Y-115228234D01*
X138141693Y-115228226D01*
X138141705Y-115228220D01*
X138227616Y-115178620D01*
X138339420Y-115066816D01*
X138339420Y-115066814D01*
X138349624Y-115056611D01*
X138349628Y-115056606D01*
X138908506Y-114497728D01*
X138908511Y-114497724D01*
X138918714Y-114487520D01*
X138918716Y-114487520D01*
X139030520Y-114375716D01*
X139092296Y-114268716D01*
X139109577Y-114238785D01*
X139150501Y-114086057D01*
X139150501Y-114085780D01*
X139150566Y-114085556D01*
X139151562Y-114077997D01*
X139152740Y-114078152D01*
X139170186Y-114018741D01*
X139222990Y-113972986D01*
X139288385Y-113962560D01*
X139461497Y-113982065D01*
X139461500Y-113982065D01*
X139461504Y-113982065D01*
X139640749Y-113961869D01*
X139640752Y-113961868D01*
X139640755Y-113961868D01*
X139811022Y-113902289D01*
X139963762Y-113806316D01*
X140091316Y-113678762D01*
X140187289Y-113526022D01*
X140246868Y-113355755D01*
X140246869Y-113355749D01*
X140267065Y-113176503D01*
X140267065Y-113176496D01*
X140246869Y-112997250D01*
X140246868Y-112997245D01*
X140223632Y-112930841D01*
X140187289Y-112826978D01*
X140091316Y-112674238D01*
X140036819Y-112619741D01*
X140003334Y-112558418D01*
X140000500Y-112532060D01*
X140000500Y-112524499D01*
X140020185Y-112457460D01*
X140072989Y-112411705D01*
X140124496Y-112400499D01*
X140497872Y-112400499D01*
X140557483Y-112394091D01*
X140631667Y-112366421D01*
X140701358Y-112361438D01*
X140718327Y-112366420D01*
X140775071Y-112387584D01*
X140792007Y-112393901D01*
X140792517Y-112394091D01*
X140852127Y-112400500D01*
X141347872Y-112400499D01*
X141407483Y-112394091D01*
X141481667Y-112366421D01*
X141551358Y-112361438D01*
X141568327Y-112366420D01*
X141625071Y-112387584D01*
X141642007Y-112393901D01*
X141642517Y-112394091D01*
X141702127Y-112400500D01*
X142197872Y-112400499D01*
X142257483Y-112394091D01*
X142331667Y-112366421D01*
X142401358Y-112361438D01*
X142418327Y-112366420D01*
X142475071Y-112387584D01*
X142492007Y-112393901D01*
X142492517Y-112394091D01*
X142552127Y-112400500D01*
X143047872Y-112400499D01*
X143107483Y-112394091D01*
X143181667Y-112366421D01*
X143251358Y-112361438D01*
X143268327Y-112366420D01*
X143325071Y-112387584D01*
X143342007Y-112393901D01*
X143342517Y-112394091D01*
X143402127Y-112400500D01*
X143897872Y-112400499D01*
X143957483Y-112394091D01*
X144092331Y-112343796D01*
X144207546Y-112257546D01*
X144293796Y-112142331D01*
X144344091Y-112007483D01*
X144350500Y-111947873D01*
X144350499Y-111274498D01*
X144370183Y-111207460D01*
X144422987Y-111161705D01*
X144474499Y-111150499D01*
X145147871Y-111150499D01*
X145147872Y-111150499D01*
X145207483Y-111144091D01*
X145342331Y-111093796D01*
X145457546Y-111007546D01*
X145543796Y-110892331D01*
X145594091Y-110757483D01*
X145600500Y-110697873D01*
X145600499Y-110202128D01*
X145594091Y-110142517D01*
X145566421Y-110068332D01*
X145561438Y-109998642D01*
X145566422Y-109981667D01*
X145594091Y-109907483D01*
X145600500Y-109847873D01*
X145600499Y-109352128D01*
X145594091Y-109292517D01*
X145566421Y-109218332D01*
X145561438Y-109148642D01*
X145566422Y-109131667D01*
X145594091Y-109057483D01*
X145600500Y-108997873D01*
X145600499Y-108899094D01*
X145620183Y-108832058D01*
X145672986Y-108786302D01*
X145742145Y-108776358D01*
X145805701Y-108805382D01*
G37*
%TD.AperFunction*%
%TA.AperFunction,Conductor*%
G36*
X146911482Y-111815265D02*
G01*
X146967415Y-111857137D01*
X146969723Y-111860323D01*
X147061505Y-111991401D01*
X147228599Y-112158495D01*
X147288710Y-112200585D01*
X147422165Y-112294032D01*
X147422167Y-112294033D01*
X147422170Y-112294035D01*
X147636337Y-112393903D01*
X147636343Y-112393904D01*
X147636344Y-112393905D01*
X147669616Y-112402820D01*
X147864592Y-112455063D01*
X148052918Y-112471539D01*
X148099999Y-112475659D01*
X148100000Y-112475659D01*
X148100001Y-112475659D01*
X148139936Y-112472165D01*
X148335408Y-112455063D01*
X148543408Y-112399330D01*
X148613256Y-112400993D01*
X148671119Y-112440156D01*
X148698623Y-112504384D01*
X148699500Y-112519105D01*
X148699500Y-116858257D01*
X148679815Y-116925296D01*
X148627011Y-116971051D01*
X148557853Y-116980995D01*
X148532168Y-116974439D01*
X148482485Y-116955909D01*
X148482483Y-116955908D01*
X148422883Y-116949501D01*
X148422881Y-116949500D01*
X148422873Y-116949500D01*
X148422864Y-116949500D01*
X147277129Y-116949500D01*
X147277123Y-116949501D01*
X147217516Y-116955908D01*
X147082671Y-117006202D01*
X147082664Y-117006206D01*
X146967457Y-117092451D01*
X146967449Y-117092458D01*
X146943232Y-117124810D01*
X146887299Y-117166682D01*
X146843965Y-117174500D01*
X144731035Y-117174500D01*
X144663996Y-117154815D01*
X144631768Y-117124810D01*
X144607550Y-117092458D01*
X144607547Y-117092455D01*
X144607546Y-117092454D01*
X144595154Y-117083177D01*
X144492335Y-117006206D01*
X144492328Y-117006202D01*
X144357482Y-116955908D01*
X144357483Y-116955908D01*
X144297883Y-116949501D01*
X144297881Y-116949500D01*
X144297873Y-116949500D01*
X144297864Y-116949500D01*
X143152129Y-116949500D01*
X143152123Y-116949501D01*
X143092516Y-116955908D01*
X142957672Y-117006202D01*
X142957667Y-117006205D01*
X142953540Y-117009295D01*
X142888074Y-117033709D01*
X142847140Y-117029800D01*
X142827357Y-117024499D01*
X142716519Y-117024499D01*
X142649480Y-117004814D01*
X142628838Y-116988180D01*
X142528339Y-116887681D01*
X142494854Y-116826358D01*
X142499838Y-116756666D01*
X142528339Y-116712319D01*
X142630468Y-116610189D01*
X142630469Y-116610188D01*
X142630472Y-116610185D01*
X142718478Y-116464606D01*
X142769086Y-116302196D01*
X142775500Y-116231616D01*
X142775500Y-115900096D01*
X142795185Y-115833057D01*
X142811814Y-115812420D01*
X146780469Y-111843764D01*
X146841790Y-111810281D01*
X146911482Y-111815265D01*
G37*
%TD.AperFunction*%
%TA.AperFunction,Conductor*%
G36*
X135618327Y-112366420D02*
G01*
X135675071Y-112387584D01*
X135692007Y-112393901D01*
X135692517Y-112394091D01*
X135752127Y-112400500D01*
X136125500Y-112400499D01*
X136192539Y-112420183D01*
X136238294Y-112472987D01*
X136249500Y-112524499D01*
X136249500Y-112863802D01*
X136229815Y-112930841D01*
X136213181Y-112951483D01*
X135379565Y-113785098D01*
X135318242Y-113818583D01*
X135305768Y-113820637D01*
X135218850Y-113830430D01*
X135048578Y-113890010D01*
X134895837Y-113985984D01*
X134768284Y-114113537D01*
X134672311Y-114266276D01*
X134612731Y-114436545D01*
X134612730Y-114436550D01*
X134592535Y-114615796D01*
X134592535Y-114615803D01*
X134612730Y-114795049D01*
X134612731Y-114795054D01*
X134672311Y-114965323D01*
X134768284Y-115118062D01*
X134894962Y-115244740D01*
X134928447Y-115306063D01*
X134923463Y-115375755D01*
X134894962Y-115420102D01*
X134428284Y-115886781D01*
X134366961Y-115920266D01*
X134340603Y-115923100D01*
X133297640Y-115923100D01*
X133256719Y-115934064D01*
X133256719Y-115934065D01*
X133219451Y-115944051D01*
X133144914Y-115964023D01*
X133144909Y-115964026D01*
X133007990Y-116043075D01*
X133007982Y-116043081D01*
X132562181Y-116488883D01*
X132500858Y-116522368D01*
X132431166Y-116517384D01*
X132375233Y-116475512D01*
X132350816Y-116410048D01*
X132350500Y-116401202D01*
X132350500Y-112941397D01*
X132370185Y-112874358D01*
X132422989Y-112828603D01*
X132492147Y-112818659D01*
X132555703Y-112847684D01*
X132562181Y-112853716D01*
X132578598Y-112870133D01*
X132612083Y-112931456D01*
X132614137Y-112943930D01*
X132623930Y-113030849D01*
X132683510Y-113201121D01*
X132742255Y-113294612D01*
X132779484Y-113353862D01*
X132907038Y-113481416D01*
X132935249Y-113499142D01*
X133046162Y-113568834D01*
X133059778Y-113577389D01*
X133100854Y-113591762D01*
X133230045Y-113636968D01*
X133230050Y-113636969D01*
X133409296Y-113657165D01*
X133409300Y-113657165D01*
X133409304Y-113657165D01*
X133588549Y-113636969D01*
X133588552Y-113636968D01*
X133588555Y-113636968D01*
X133758822Y-113577389D01*
X133911562Y-113481416D01*
X134039116Y-113353862D01*
X134135089Y-113201122D01*
X134194668Y-113030855D01*
X134194669Y-113030849D01*
X134214865Y-112851603D01*
X134214865Y-112851596D01*
X134194669Y-112672350D01*
X134194666Y-112672337D01*
X134157266Y-112565454D01*
X134153704Y-112495675D01*
X134188432Y-112435048D01*
X134250426Y-112402820D01*
X134274307Y-112400499D01*
X134547871Y-112400499D01*
X134547872Y-112400499D01*
X134607483Y-112394091D01*
X134681667Y-112366421D01*
X134751358Y-112361438D01*
X134768327Y-112366420D01*
X134825071Y-112387584D01*
X134842007Y-112393901D01*
X134842517Y-112394091D01*
X134902127Y-112400500D01*
X135397872Y-112400499D01*
X135457483Y-112394091D01*
X135531667Y-112366421D01*
X135601358Y-112361438D01*
X135618327Y-112366420D01*
G37*
%TD.AperFunction*%
%TA.AperFunction,Conductor*%
G36*
X125519972Y-111502150D02*
G01*
X125550040Y-111565219D01*
X125541238Y-111634532D01*
X125533727Y-111649035D01*
X125481523Y-111735391D01*
X125430913Y-111897807D01*
X125424500Y-111968386D01*
X125424500Y-112299903D01*
X125404815Y-112366942D01*
X125388181Y-112387584D01*
X125081349Y-112694415D01*
X125025762Y-112726509D01*
X125020944Y-112727800D01*
X125020943Y-112727800D01*
X124976367Y-112739744D01*
X124868214Y-112768723D01*
X124868209Y-112768726D01*
X124731290Y-112847775D01*
X124731282Y-112847781D01*
X124619481Y-112959582D01*
X124619475Y-112959590D01*
X124557175Y-113067499D01*
X124506609Y-113115715D01*
X124449788Y-113129500D01*
X124440681Y-113129500D01*
X124373642Y-113109815D01*
X124327887Y-113057011D01*
X124316681Y-113005658D01*
X124315262Y-111889738D01*
X124314901Y-111605768D01*
X124334500Y-111538704D01*
X124387246Y-111492882D01*
X124456392Y-111482851D01*
X124475778Y-111487222D01*
X124497804Y-111494086D01*
X124568384Y-111500500D01*
X124568387Y-111500500D01*
X125231613Y-111500500D01*
X125231616Y-111500500D01*
X125302196Y-111494086D01*
X125390721Y-111466500D01*
X125460580Y-111465349D01*
X125519972Y-111502150D01*
G37*
%TD.AperFunction*%
%TA.AperFunction,Conductor*%
G36*
X130992539Y-111170184D02*
G01*
X131038294Y-111222988D01*
X131049500Y-111274499D01*
X131049500Y-111947870D01*
X131049501Y-111947876D01*
X131055908Y-112007483D01*
X131106203Y-112142329D01*
X131124766Y-112167126D01*
X131149184Y-112232590D01*
X131149500Y-112241438D01*
X131149500Y-112723503D01*
X131129815Y-112790542D01*
X131077011Y-112836297D01*
X131007853Y-112846241D01*
X130944297Y-112817216D01*
X130937819Y-112811184D01*
X130635119Y-112508484D01*
X130601634Y-112447161D01*
X130598800Y-112420803D01*
X130598800Y-111274499D01*
X130618485Y-111207460D01*
X130671289Y-111161705D01*
X130722800Y-111150499D01*
X130925500Y-111150499D01*
X130992539Y-111170184D01*
G37*
%TD.AperFunction*%
%TA.AperFunction,Conductor*%
G36*
X149904408Y-96718295D02*
G01*
X149950167Y-96771096D01*
X149960116Y-96840253D01*
X149931096Y-96903811D01*
X149930607Y-96904373D01*
X149910727Y-96927041D01*
X149746828Y-97172334D01*
X149616349Y-97436919D01*
X149521521Y-97716269D01*
X149521518Y-97716283D01*
X149463968Y-98005609D01*
X149463964Y-98005636D01*
X149444671Y-98299992D01*
X149444671Y-98300007D01*
X149463964Y-98594363D01*
X149463965Y-98594373D01*
X149463966Y-98594380D01*
X149498081Y-98765892D01*
X149521518Y-98883716D01*
X149521521Y-98883730D01*
X149616349Y-99163080D01*
X149746825Y-99427660D01*
X149746829Y-99427667D01*
X149848837Y-99580333D01*
X149869715Y-99647010D01*
X149851230Y-99714390D01*
X149799251Y-99761080D01*
X149786690Y-99766264D01*
X149627380Y-99822009D01*
X149474637Y-99917984D01*
X149347085Y-100045536D01*
X149332703Y-100068425D01*
X149280367Y-100114715D01*
X149211314Y-100125362D01*
X149147466Y-100096986D01*
X149140029Y-100090132D01*
X148971402Y-99921506D01*
X148971395Y-99921501D01*
X148777834Y-99785967D01*
X148777830Y-99785965D01*
X148724464Y-99761080D01*
X148563663Y-99686097D01*
X148563659Y-99686096D01*
X148563655Y-99686094D01*
X148335413Y-99624938D01*
X148335403Y-99624936D01*
X148100001Y-99604341D01*
X148099999Y-99604341D01*
X147864596Y-99624936D01*
X147864586Y-99624938D01*
X147636344Y-99686094D01*
X147636337Y-99686096D01*
X147636337Y-99686097D01*
X147622816Y-99692401D01*
X147422171Y-99785964D01*
X147422169Y-99785965D01*
X147228597Y-99921505D01*
X147061505Y-100088597D01*
X146925966Y-100282168D01*
X146896796Y-100344723D01*
X146850623Y-100397162D01*
X146783429Y-100416313D01*
X146716548Y-100396097D01*
X146696733Y-100379998D01*
X146410858Y-100094123D01*
X146038519Y-99721783D01*
X146005034Y-99660460D01*
X146002200Y-99634102D01*
X146002200Y-98470945D01*
X146002200Y-98470943D01*
X145961277Y-98318216D01*
X145950760Y-98300000D01*
X145882224Y-98181290D01*
X145882218Y-98181282D01*
X145770417Y-98069481D01*
X145770409Y-98069475D01*
X145633490Y-97990426D01*
X145633486Y-97990424D01*
X145633484Y-97990423D01*
X145480757Y-97949500D01*
X145480756Y-97949500D01*
X145441439Y-97949500D01*
X145374400Y-97929815D01*
X145367128Y-97924767D01*
X145342331Y-97906204D01*
X145342328Y-97906202D01*
X145207482Y-97855908D01*
X145207483Y-97855908D01*
X145147883Y-97849501D01*
X145147881Y-97849500D01*
X145147873Y-97849500D01*
X145147864Y-97849500D01*
X144252129Y-97849500D01*
X144252123Y-97849501D01*
X144192516Y-97855908D01*
X144057671Y-97906202D01*
X144057664Y-97906206D01*
X143942455Y-97992452D01*
X143942452Y-97992455D01*
X143856206Y-98107664D01*
X143856202Y-98107671D01*
X143805910Y-98242513D01*
X143805909Y-98242517D01*
X143799500Y-98302127D01*
X143799500Y-98302134D01*
X143799500Y-98302135D01*
X143799500Y-98797870D01*
X143799501Y-98797879D01*
X143806620Y-98864106D01*
X143794213Y-98932865D01*
X143746601Y-98984001D01*
X143678901Y-99001279D01*
X143669446Y-99000578D01*
X143659302Y-98999435D01*
X143659296Y-98999435D01*
X143480050Y-99019630D01*
X143480045Y-99019631D01*
X143309776Y-99079211D01*
X143157037Y-99175184D01*
X143029484Y-99302737D01*
X142933511Y-99455476D01*
X142873931Y-99625745D01*
X142873930Y-99625750D01*
X142853735Y-99804996D01*
X142853735Y-99805003D01*
X142873930Y-99984249D01*
X142873931Y-99984254D01*
X142933511Y-100154523D01*
X142970569Y-100213500D01*
X143026753Y-100302916D01*
X143029485Y-100307263D01*
X143031745Y-100310097D01*
X143032634Y-100312275D01*
X143033189Y-100313158D01*
X143033034Y-100313255D01*
X143058155Y-100374783D01*
X143058800Y-100387412D01*
X143058800Y-106160230D01*
X143058799Y-106160248D01*
X143058799Y-106325954D01*
X143058798Y-106325954D01*
X143058799Y-106325957D01*
X143094710Y-106459978D01*
X143099724Y-106478688D01*
X143106498Y-106490420D01*
X143106500Y-106490423D01*
X143178777Y-106615612D01*
X143178781Y-106615617D01*
X143297649Y-106734485D01*
X143297655Y-106734490D01*
X143763181Y-107200016D01*
X143796666Y-107261339D01*
X143799500Y-107287688D01*
X143799500Y-107297865D01*
X143799501Y-107297877D01*
X143805908Y-107357483D01*
X143833577Y-107431667D01*
X143838561Y-107501358D01*
X143833577Y-107518331D01*
X143805910Y-107592511D01*
X143805909Y-107592515D01*
X143805909Y-107592517D01*
X143799500Y-107652127D01*
X143799500Y-107652134D01*
X143799500Y-107652135D01*
X143799500Y-108147870D01*
X143799501Y-108147876D01*
X143805908Y-108207483D01*
X143833577Y-108281667D01*
X143838561Y-108351358D01*
X143833577Y-108368331D01*
X143805910Y-108442511D01*
X143805909Y-108442515D01*
X143805909Y-108442517D01*
X143799500Y-108502127D01*
X143799500Y-108502134D01*
X143799500Y-108502135D01*
X143799500Y-108997870D01*
X143799501Y-108997876D01*
X143805908Y-109057483D01*
X143833577Y-109131667D01*
X143838561Y-109201358D01*
X143833577Y-109218331D01*
X143805910Y-109292511D01*
X143805909Y-109292515D01*
X143805909Y-109292517D01*
X143799500Y-109352127D01*
X143799500Y-109352134D01*
X143799500Y-109352135D01*
X143799500Y-109847870D01*
X143799501Y-109847876D01*
X143805908Y-109907483D01*
X143833577Y-109981667D01*
X143838561Y-110051358D01*
X143833577Y-110068331D01*
X143805909Y-110142514D01*
X143805908Y-110142516D01*
X143799501Y-110202116D01*
X143799501Y-110202123D01*
X143799500Y-110202135D01*
X143799500Y-110475500D01*
X143779815Y-110542539D01*
X143727011Y-110588294D01*
X143675500Y-110599500D01*
X143402130Y-110599500D01*
X143402123Y-110599501D01*
X143342516Y-110605908D01*
X143268332Y-110633577D01*
X143198640Y-110638561D01*
X143181668Y-110633577D01*
X143107488Y-110605910D01*
X143107484Y-110605909D01*
X143107483Y-110605909D01*
X143047873Y-110599500D01*
X143047863Y-110599500D01*
X142552129Y-110599500D01*
X142552123Y-110599501D01*
X142492516Y-110605908D01*
X142418332Y-110633577D01*
X142348640Y-110638561D01*
X142331668Y-110633577D01*
X142257488Y-110605910D01*
X142257484Y-110605909D01*
X142257483Y-110605909D01*
X142197873Y-110599500D01*
X142197863Y-110599500D01*
X141702129Y-110599500D01*
X141702123Y-110599501D01*
X141642516Y-110605908D01*
X141568332Y-110633577D01*
X141498640Y-110638561D01*
X141481668Y-110633577D01*
X141407488Y-110605910D01*
X141407484Y-110605909D01*
X141407483Y-110605909D01*
X141347873Y-110599500D01*
X141347863Y-110599500D01*
X140852129Y-110599500D01*
X140852123Y-110599501D01*
X140792516Y-110605908D01*
X140718332Y-110633577D01*
X140648640Y-110638561D01*
X140631668Y-110633577D01*
X140557488Y-110605910D01*
X140557484Y-110605909D01*
X140557483Y-110605909D01*
X140497873Y-110599500D01*
X140497863Y-110599500D01*
X140002129Y-110599500D01*
X140002123Y-110599501D01*
X139942516Y-110605908D01*
X139868332Y-110633577D01*
X139798640Y-110638561D01*
X139781668Y-110633577D01*
X139707488Y-110605910D01*
X139707484Y-110605909D01*
X139707483Y-110605909D01*
X139647873Y-110599500D01*
X139647863Y-110599500D01*
X139152129Y-110599500D01*
X139152123Y-110599501D01*
X139092516Y-110605908D01*
X139018332Y-110633577D01*
X138948640Y-110638561D01*
X138931668Y-110633577D01*
X138857488Y-110605910D01*
X138857484Y-110605909D01*
X138857483Y-110605909D01*
X138797873Y-110599500D01*
X138797863Y-110599500D01*
X138302129Y-110599500D01*
X138302123Y-110599501D01*
X138242516Y-110605908D01*
X138168332Y-110633577D01*
X138098640Y-110638561D01*
X138081668Y-110633577D01*
X138007488Y-110605910D01*
X138007484Y-110605909D01*
X138007483Y-110605909D01*
X137947873Y-110599500D01*
X137947863Y-110599500D01*
X137452129Y-110599500D01*
X137452123Y-110599501D01*
X137392516Y-110605908D01*
X137318332Y-110633577D01*
X137248640Y-110638561D01*
X137231668Y-110633577D01*
X137157488Y-110605910D01*
X137157484Y-110605909D01*
X137157483Y-110605909D01*
X137097873Y-110599500D01*
X137097864Y-110599500D01*
X136724501Y-110599500D01*
X136657462Y-110579815D01*
X136611707Y-110527011D01*
X136600501Y-110475500D01*
X136600501Y-110321044D01*
X136600501Y-110321043D01*
X136559577Y-110168316D01*
X136536480Y-110128310D01*
X136480524Y-110031390D01*
X136480518Y-110031382D01*
X135785119Y-109335983D01*
X135751634Y-109274660D01*
X135748800Y-109248302D01*
X135748800Y-104650245D01*
X135748800Y-104650243D01*
X135707877Y-104497516D01*
X135664377Y-104422171D01*
X135628824Y-104360590D01*
X135628821Y-104360586D01*
X135628820Y-104360584D01*
X135517016Y-104248780D01*
X135517015Y-104248779D01*
X135512685Y-104244449D01*
X135512674Y-104244439D01*
X134240000Y-102971765D01*
X134206515Y-102910442D01*
X134204463Y-102897986D01*
X134194668Y-102811045D01*
X134135089Y-102640778D01*
X134039116Y-102488038D01*
X133911562Y-102360484D01*
X133758823Y-102264511D01*
X133588554Y-102204931D01*
X133588549Y-102204930D01*
X133409304Y-102184735D01*
X133409296Y-102184735D01*
X133230050Y-102204930D01*
X133230045Y-102204931D01*
X133059776Y-102264511D01*
X132907037Y-102360484D01*
X132779484Y-102488037D01*
X132683511Y-102640776D01*
X132623931Y-102811045D01*
X132623930Y-102811050D01*
X132603735Y-102990296D01*
X132603735Y-102990303D01*
X132623930Y-103169549D01*
X132623931Y-103169554D01*
X132683511Y-103339823D01*
X132756444Y-103455894D01*
X132779484Y-103492562D01*
X132907038Y-103620116D01*
X133059778Y-103716089D01*
X133230045Y-103775668D01*
X133316969Y-103785461D01*
X133381380Y-103812526D01*
X133390765Y-103821000D01*
X134511481Y-104941716D01*
X134544966Y-105003039D01*
X134547800Y-105029397D01*
X134547800Y-109461730D01*
X134547799Y-109461748D01*
X134547799Y-109627454D01*
X134547798Y-109627454D01*
X134547799Y-109627457D01*
X134582382Y-109756522D01*
X134588724Y-109780187D01*
X134606004Y-109810116D01*
X134606005Y-109810119D01*
X134667775Y-109917109D01*
X134667781Y-109917117D01*
X134786649Y-110035985D01*
X134786654Y-110035989D01*
X135138484Y-110387820D01*
X135171969Y-110449142D01*
X135166985Y-110518834D01*
X135125113Y-110574767D01*
X135059649Y-110599184D01*
X135050804Y-110599500D01*
X134902130Y-110599500D01*
X134902123Y-110599501D01*
X134842516Y-110605908D01*
X134768332Y-110633577D01*
X134698640Y-110638561D01*
X134681668Y-110633577D01*
X134607488Y-110605910D01*
X134607484Y-110605909D01*
X134607483Y-110605909D01*
X134547873Y-110599500D01*
X134547864Y-110599500D01*
X134174500Y-110599500D01*
X134107461Y-110579815D01*
X134061706Y-110527011D01*
X134050500Y-110475500D01*
X134050500Y-106495068D01*
X134069507Y-106429095D01*
X134135088Y-106324724D01*
X134135089Y-106324722D01*
X134194668Y-106154455D01*
X134196466Y-106138498D01*
X134214865Y-105975203D01*
X134214865Y-105975196D01*
X134194669Y-105795950D01*
X134194668Y-105795945D01*
X134135088Y-105625676D01*
X134039115Y-105472937D01*
X133911562Y-105345384D01*
X133758823Y-105249411D01*
X133588554Y-105189831D01*
X133588549Y-105189830D01*
X133409304Y-105169635D01*
X133409296Y-105169635D01*
X133230050Y-105189830D01*
X133230045Y-105189831D01*
X133059776Y-105249411D01*
X132907037Y-105345384D01*
X132779484Y-105472937D01*
X132683511Y-105625676D01*
X132623931Y-105795945D01*
X132623930Y-105795949D01*
X132614802Y-105876969D01*
X132587735Y-105941383D01*
X132530140Y-105980938D01*
X132460303Y-105983075D01*
X132403901Y-105950766D01*
X132038519Y-105585384D01*
X132005034Y-105524061D01*
X132002200Y-105497703D01*
X132002200Y-100170945D01*
X132002200Y-100170943D01*
X131961277Y-100018216D01*
X131905442Y-99921506D01*
X131882224Y-99881290D01*
X131882218Y-99881282D01*
X131770417Y-99769481D01*
X131770409Y-99769475D01*
X131633490Y-99690426D01*
X131633486Y-99690424D01*
X131633484Y-99690423D01*
X131480757Y-99649500D01*
X131480756Y-99649500D01*
X131441439Y-99649500D01*
X131374400Y-99629815D01*
X131367128Y-99624767D01*
X131342331Y-99606204D01*
X131342328Y-99606202D01*
X131207482Y-99555908D01*
X131207483Y-99555908D01*
X131147883Y-99549501D01*
X131147881Y-99549500D01*
X131147873Y-99549500D01*
X131147864Y-99549500D01*
X130252129Y-99549500D01*
X130252123Y-99549501D01*
X130192516Y-99555908D01*
X130057671Y-99606202D01*
X130057664Y-99606206D01*
X129942455Y-99692452D01*
X129942452Y-99692455D01*
X129856206Y-99807664D01*
X129856202Y-99807671D01*
X129805909Y-99942516D01*
X129804046Y-99959838D01*
X129777305Y-100024388D01*
X129719911Y-100064234D01*
X129694641Y-100069798D01*
X129616249Y-100078630D01*
X129616245Y-100078631D01*
X129445976Y-100138211D01*
X129293237Y-100234184D01*
X129165684Y-100361737D01*
X129069711Y-100514476D01*
X129010131Y-100684745D01*
X129010130Y-100684750D01*
X128989935Y-100863996D01*
X128989935Y-100864003D01*
X129010130Y-101043249D01*
X129010131Y-101043254D01*
X129069711Y-101213523D01*
X129107454Y-101273590D01*
X129165684Y-101366262D01*
X129293238Y-101493816D01*
X129393924Y-101557081D01*
X129440215Y-101609416D01*
X129450863Y-101678469D01*
X129440142Y-101710005D01*
X129441834Y-101710706D01*
X129438723Y-101718216D01*
X129397800Y-101870943D01*
X129397800Y-102248602D01*
X129378115Y-102315641D01*
X129361481Y-102336283D01*
X127385865Y-104311898D01*
X127324542Y-104345383D01*
X127312069Y-104347437D01*
X127288384Y-104350106D01*
X127219562Y-104338052D01*
X127168182Y-104290704D01*
X127150499Y-104226886D01*
X127150499Y-103727129D01*
X127150498Y-103727123D01*
X127144091Y-103667516D01*
X127093797Y-103532671D01*
X127093793Y-103532664D01*
X127007547Y-103417455D01*
X127007544Y-103417452D01*
X126892335Y-103331206D01*
X126892328Y-103331202D01*
X126757482Y-103280908D01*
X126757483Y-103280908D01*
X126697883Y-103274501D01*
X126697881Y-103274500D01*
X126697873Y-103274500D01*
X126697864Y-103274500D01*
X124902129Y-103274500D01*
X124902123Y-103274501D01*
X124842516Y-103280908D01*
X124707671Y-103331202D01*
X124707664Y-103331206D01*
X124592455Y-103417452D01*
X124527777Y-103503850D01*
X124471843Y-103545720D01*
X124402151Y-103550704D01*
X124340828Y-103517218D01*
X124307344Y-103455894D01*
X124304511Y-103429701D01*
X124300372Y-100172504D01*
X124319971Y-100105441D01*
X124372717Y-100059619D01*
X124441863Y-100049588D01*
X124505456Y-100078532D01*
X124519912Y-100093303D01*
X124585435Y-100172506D01*
X124646652Y-100246505D01*
X124866836Y-100453272D01*
X124866846Y-100453280D01*
X125111193Y-100630808D01*
X125111198Y-100630810D01*
X125111205Y-100630816D01*
X125375896Y-100776332D01*
X125375901Y-100776334D01*
X125375903Y-100776335D01*
X125375904Y-100776336D01*
X125656734Y-100887524D01*
X125656737Y-100887525D01*
X125754259Y-100912564D01*
X125949302Y-100962642D01*
X126096039Y-100981179D01*
X126248963Y-101000499D01*
X126248969Y-101000499D01*
X126248973Y-101000500D01*
X126248975Y-101000500D01*
X126551025Y-101000500D01*
X126551027Y-101000500D01*
X126551032Y-101000499D01*
X126551036Y-101000499D01*
X126630591Y-100990448D01*
X126850698Y-100962642D01*
X127143262Y-100887525D01*
X127143265Y-100887524D01*
X127424095Y-100776336D01*
X127424096Y-100776335D01*
X127424094Y-100776335D01*
X127424104Y-100776332D01*
X127688795Y-100630816D01*
X127933162Y-100453274D01*
X128153349Y-100246504D01*
X128345885Y-100013768D01*
X128507733Y-99758736D01*
X128636341Y-99485430D01*
X128729681Y-99198160D01*
X128786280Y-98901457D01*
X128786281Y-98901446D01*
X128805246Y-98600005D01*
X128805246Y-98599994D01*
X128786281Y-98298553D01*
X128786280Y-98298546D01*
X128786280Y-98298543D01*
X128729681Y-98001840D01*
X128636341Y-97714570D01*
X128507733Y-97441264D01*
X128345885Y-97186232D01*
X128153349Y-96953496D01*
X128125180Y-96927043D01*
X128112068Y-96914730D01*
X128076674Y-96854489D01*
X128079468Y-96784675D01*
X128119562Y-96727454D01*
X128184227Y-96700994D01*
X128196925Y-96700339D01*
X149837370Y-96698616D01*
X149904408Y-96718295D01*
G37*
%TD.AperFunction*%
%TA.AperFunction,Conductor*%
G36*
X151130103Y-106040445D02*
G01*
X151136581Y-106046477D01*
X151228599Y-106138495D01*
X151285304Y-106178200D01*
X151422165Y-106274032D01*
X151422167Y-106274033D01*
X151422170Y-106274035D01*
X151432513Y-106278858D01*
X151440767Y-106282707D01*
X151493207Y-106328879D01*
X151508138Y-106362995D01*
X151540423Y-106483485D01*
X151540426Y-106483490D01*
X151619475Y-106620409D01*
X151619479Y-106620414D01*
X151619480Y-106620416D01*
X151731284Y-106732220D01*
X151731286Y-106732221D01*
X151731290Y-106732224D01*
X151852369Y-106802128D01*
X151868216Y-106811277D01*
X152020943Y-106852200D01*
X152087903Y-106852200D01*
X152154942Y-106871885D01*
X152175584Y-106888519D01*
X152614881Y-107327816D01*
X152648366Y-107389139D01*
X152651200Y-107415497D01*
X152651200Y-109885500D01*
X152631515Y-109952539D01*
X152578711Y-109998294D01*
X152527200Y-110009500D01*
X151202129Y-110009500D01*
X151202123Y-110009501D01*
X151142515Y-110015909D01*
X151092232Y-110034663D01*
X151022540Y-110039647D01*
X150961218Y-110006161D01*
X150927733Y-109944838D01*
X150924900Y-109918481D01*
X150924900Y-106134158D01*
X150944585Y-106067119D01*
X150997389Y-106021364D01*
X151066547Y-106011420D01*
X151130103Y-106040445D01*
G37*
%TD.AperFunction*%
%TA.AperFunction,Conductor*%
G36*
X126766039Y-105995184D02*
G01*
X126811794Y-106047988D01*
X126823000Y-106099499D01*
X126823000Y-109550500D01*
X126803315Y-109617539D01*
X126750511Y-109663294D01*
X126699000Y-109674500D01*
X126068384Y-109674500D01*
X126049145Y-109676248D01*
X125997807Y-109680913D01*
X125835393Y-109731522D01*
X125693472Y-109817317D01*
X125625917Y-109835153D01*
X125565173Y-109817317D01*
X125464606Y-109756522D01*
X125309607Y-109708223D01*
X125251462Y-109669487D01*
X125223488Y-109605462D01*
X125222500Y-109589839D01*
X125222500Y-106872340D01*
X125242185Y-106805301D01*
X125258819Y-106784659D01*
X125308993Y-106734485D01*
X125363016Y-106680462D01*
X125458989Y-106527722D01*
X125518568Y-106357455D01*
X125518569Y-106357449D01*
X125538765Y-106178203D01*
X125538765Y-106178197D01*
X125531462Y-106113383D01*
X125543516Y-106044561D01*
X125590865Y-105993181D01*
X125654682Y-105975499D01*
X126699000Y-105975499D01*
X126766039Y-105995184D01*
G37*
%TD.AperFunction*%
%TA.AperFunction,Conductor*%
G36*
X144799763Y-100120184D02*
G01*
X144840112Y-100162500D01*
X144842122Y-100165981D01*
X144842123Y-100165985D01*
X144869556Y-100213500D01*
X144892462Y-100253174D01*
X144921179Y-100302914D01*
X144921181Y-100302917D01*
X145040049Y-100421785D01*
X145040055Y-100421790D01*
X147066502Y-102448237D01*
X147099987Y-102509560D01*
X147095003Y-102579252D01*
X147066512Y-102623589D01*
X147061508Y-102628594D01*
X146925965Y-102822169D01*
X146925964Y-102822171D01*
X146826098Y-103036335D01*
X146826095Y-103036342D01*
X146810082Y-103096104D01*
X146773716Y-103155764D01*
X146710869Y-103186293D01*
X146641494Y-103177998D01*
X146602626Y-103151691D01*
X145889290Y-102438355D01*
X145889288Y-102438352D01*
X145770417Y-102319481D01*
X145770416Y-102319480D01*
X145663034Y-102257483D01*
X145663040Y-102257472D01*
X145662991Y-102257459D01*
X145662458Y-102257151D01*
X145614262Y-102206566D01*
X145600499Y-102149791D01*
X145600499Y-101702128D01*
X145594091Y-101642517D01*
X145592344Y-101637834D01*
X145543797Y-101507671D01*
X145543793Y-101507664D01*
X145457547Y-101392455D01*
X145457544Y-101392452D01*
X145342335Y-101306206D01*
X145342328Y-101306202D01*
X145207482Y-101255908D01*
X145207483Y-101255908D01*
X145147883Y-101249501D01*
X145147881Y-101249500D01*
X145147873Y-101249500D01*
X145147865Y-101249500D01*
X144383800Y-101249500D01*
X144316761Y-101229815D01*
X144271006Y-101177011D01*
X144259800Y-101125500D01*
X144259800Y-100387412D01*
X144279485Y-100320373D01*
X144286855Y-100310097D01*
X144289110Y-100307267D01*
X144289116Y-100307262D01*
X144382573Y-100158526D01*
X144434907Y-100112236D01*
X144487566Y-100100499D01*
X144732724Y-100100499D01*
X144799763Y-100120184D01*
G37*
%TD.AperFunction*%
%TD*%
%TA.AperFunction,NonConductor*%
G36*
X153229173Y-100048685D02*
G01*
X153282250Y-100094123D01*
X153302335Y-100161044D01*
X153302337Y-100161560D01*
X153304096Y-101129071D01*
X153284533Y-101196146D01*
X153231812Y-101241997D01*
X153162672Y-101252066D01*
X153136763Y-101245478D01*
X153057482Y-101215908D01*
X153057483Y-101215908D01*
X152997883Y-101209501D01*
X152997881Y-101209500D01*
X152997873Y-101209500D01*
X152997864Y-101209500D01*
X151202129Y-101209500D01*
X151202123Y-101209501D01*
X151142515Y-101215909D01*
X151092232Y-101234663D01*
X151022540Y-101239647D01*
X150961218Y-101206161D01*
X150927733Y-101144838D01*
X150924900Y-101118481D01*
X150924900Y-100816246D01*
X150924900Y-100816243D01*
X150902136Y-100731284D01*
X150883977Y-100663515D01*
X150883976Y-100663514D01*
X150883976Y-100663512D01*
X150883975Y-100663511D01*
X150859212Y-100620620D01*
X150842739Y-100552720D01*
X150865591Y-100486693D01*
X150920513Y-100443502D01*
X150990066Y-100436861D01*
X151006443Y-100441196D01*
X151116278Y-100478481D01*
X151405620Y-100536034D01*
X151433888Y-100537886D01*
X151699993Y-100555329D01*
X151700000Y-100555329D01*
X151700007Y-100555329D01*
X151935675Y-100539881D01*
X151994380Y-100536034D01*
X152283722Y-100478481D01*
X152563077Y-100383652D01*
X152827665Y-100253172D01*
X153072957Y-100089273D01*
X153096578Y-100068557D01*
X153159956Y-100039155D01*
X153229173Y-100048685D01*
G37*
%TD.AperFunction*%
%TA.AperFunction,NonConductor*%
G36*
X149569948Y-101239290D02*
G01*
X149587101Y-101248281D01*
X149627378Y-101273589D01*
X149627380Y-101273590D01*
X149640852Y-101278304D01*
X149697629Y-101319024D01*
X149723378Y-101383976D01*
X149723900Y-101395346D01*
X149723900Y-103975303D01*
X149704215Y-104042342D01*
X149651411Y-104088097D01*
X149582253Y-104098041D01*
X149518697Y-104069016D01*
X149512219Y-104062984D01*
X149432766Y-103983531D01*
X149399281Y-103922208D01*
X149400672Y-103863757D01*
X149403341Y-103853796D01*
X149435063Y-103735408D01*
X149455659Y-103500000D01*
X149435063Y-103264592D01*
X149373903Y-103036337D01*
X149274035Y-102822171D01*
X149266244Y-102811043D01*
X149138494Y-102628597D01*
X148971402Y-102461506D01*
X148971396Y-102461501D01*
X148785842Y-102331575D01*
X148742217Y-102276998D01*
X148735023Y-102207500D01*
X148766546Y-102145145D01*
X148785842Y-102128425D01*
X148808026Y-102112891D01*
X148971401Y-101998495D01*
X149138495Y-101831401D01*
X149274035Y-101637830D01*
X149373903Y-101423663D01*
X149401361Y-101321185D01*
X149437725Y-101261526D01*
X149500572Y-101230996D01*
X149569948Y-101239290D01*
G37*
%TD.AperFunction*%
%TA.AperFunction,NonConductor*%
G36*
X146207403Y-104455384D02*
G01*
X146213881Y-104461416D01*
X146930093Y-105177628D01*
X146963578Y-105238951D01*
X146958594Y-105308643D01*
X146943989Y-105336430D01*
X146925964Y-105362173D01*
X146901789Y-105414016D01*
X146855616Y-105466455D01*
X146788422Y-105485606D01*
X146721541Y-105465390D01*
X146701726Y-105449291D01*
X146038519Y-104786084D01*
X146005034Y-104724761D01*
X146002200Y-104698403D01*
X146002200Y-104549097D01*
X146021885Y-104482058D01*
X146074689Y-104436303D01*
X146143847Y-104426359D01*
X146207403Y-104455384D01*
G37*
%TD.AperFunction*%
%TA.AperFunction,NonConductor*%
G36*
X145805701Y-106252182D02*
G01*
X145812180Y-106258215D01*
X147074352Y-107520387D01*
X147107837Y-107581710D01*
X147102853Y-107651402D01*
X147074357Y-107695744D01*
X147061507Y-107708595D01*
X146925966Y-107902168D01*
X146897591Y-107963018D01*
X146851418Y-108015457D01*
X146784224Y-108034608D01*
X146717343Y-108014392D01*
X146697528Y-107998293D01*
X146237590Y-107538355D01*
X146237588Y-107538352D01*
X146118717Y-107419481D01*
X146118716Y-107419480D01*
X146011334Y-107357483D01*
X146011332Y-107357482D01*
X145981785Y-107340423D01*
X145981784Y-107340422D01*
X145981783Y-107340422D01*
X145925881Y-107325443D01*
X145829057Y-107299499D01*
X145724500Y-107299499D01*
X145657461Y-107279814D01*
X145611706Y-107227010D01*
X145600500Y-107175499D01*
X145600499Y-106802130D01*
X145600498Y-106802123D01*
X145594091Y-106742518D01*
X145590250Y-106732220D01*
X145566421Y-106668332D01*
X145561438Y-106598642D01*
X145566420Y-106581672D01*
X145594091Y-106507483D01*
X145600500Y-106447873D01*
X145600499Y-106345894D01*
X145620183Y-106278858D01*
X145672986Y-106233102D01*
X145742145Y-106223158D01*
X145805701Y-106252182D01*
G37*
%TD.AperFunction*%
%TA.AperFunction,NonConductor*%
G36*
X128927752Y-106522295D02*
G01*
X128983686Y-106564166D01*
X129008103Y-106629631D01*
X129007639Y-106652360D01*
X128989935Y-106809495D01*
X128989935Y-106809503D01*
X129010130Y-106988749D01*
X129010131Y-106988754D01*
X129069711Y-107159023D01*
X129134001Y-107261339D01*
X129165684Y-107311762D01*
X129293238Y-107439316D01*
X129395832Y-107503780D01*
X129442122Y-107556114D01*
X129452770Y-107625167D01*
X129440818Y-107660289D01*
X129441833Y-107660710D01*
X129438722Y-107668219D01*
X129397800Y-107820943D01*
X129397800Y-107868403D01*
X129378115Y-107935442D01*
X129361481Y-107956084D01*
X128676481Y-108641084D01*
X128615158Y-108674569D01*
X128545466Y-108669585D01*
X128489533Y-108627713D01*
X128465116Y-108562249D01*
X128464800Y-108553403D01*
X128464800Y-106934097D01*
X128484485Y-106867058D01*
X128501119Y-106846416D01*
X128620115Y-106727420D01*
X128796740Y-106550794D01*
X128858061Y-106517311D01*
X128927752Y-106522295D01*
G37*
%TD.AperFunction*%
%TA.AperFunction,NonConductor*%
G36*
X128951651Y-110424874D02*
G01*
X128983879Y-110486868D01*
X128986200Y-110510749D01*
X128986200Y-112839230D01*
X128986199Y-112839248D01*
X128986199Y-113004954D01*
X128986198Y-113004954D01*
X129027124Y-113157688D01*
X129033398Y-113168554D01*
X129033400Y-113168557D01*
X129106177Y-113294612D01*
X129106181Y-113294617D01*
X129225049Y-113413485D01*
X129225055Y-113413490D01*
X129249384Y-113437819D01*
X129282869Y-113499142D01*
X129277885Y-113568834D01*
X129236013Y-113624767D01*
X129170549Y-113649184D01*
X129161703Y-113649500D01*
X129068384Y-113649500D01*
X129049145Y-113651248D01*
X128997807Y-113655913D01*
X128835393Y-113706522D01*
X128689811Y-113794530D01*
X128689810Y-113794531D01*
X128571161Y-113913181D01*
X128509838Y-113946666D01*
X128483480Y-113949500D01*
X128416520Y-113949500D01*
X128349481Y-113929815D01*
X128328839Y-113913181D01*
X128283949Y-113868291D01*
X128250464Y-113806968D01*
X128255448Y-113737276D01*
X128283949Y-113692929D01*
X128327694Y-113649184D01*
X128385116Y-113591762D01*
X128481089Y-113439022D01*
X128540668Y-113268755D01*
X128540669Y-113268749D01*
X128560865Y-113089503D01*
X128560865Y-113089496D01*
X128540669Y-112910250D01*
X128540668Y-112910245D01*
X128481088Y-112739975D01*
X128387903Y-112591674D01*
X128368902Y-112524437D01*
X128389269Y-112457602D01*
X128405216Y-112438019D01*
X128505717Y-112337519D01*
X128505717Y-112337518D01*
X128505720Y-112337516D01*
X128584777Y-112200584D01*
X128625701Y-112047857D01*
X128625701Y-111889742D01*
X128625701Y-111882147D01*
X128625700Y-111882129D01*
X128625700Y-111299459D01*
X128625701Y-111299446D01*
X128625701Y-111131345D01*
X128625701Y-111131343D01*
X128584777Y-110978615D01*
X128540656Y-110902196D01*
X128505720Y-110841684D01*
X128501119Y-110837083D01*
X128467634Y-110775760D01*
X128464800Y-110749402D01*
X128464800Y-110575165D01*
X128484485Y-110508126D01*
X128537289Y-110462371D01*
X128574917Y-110451945D01*
X128692749Y-110438669D01*
X128692751Y-110438668D01*
X128692755Y-110438668D01*
X128692758Y-110438666D01*
X128692762Y-110438666D01*
X128821245Y-110393708D01*
X128891024Y-110390146D01*
X128951651Y-110424874D01*
G37*
%TD.AperFunction*%
%TA.AperFunction,NonConductor*%
G36*
X141705702Y-120280383D02*
G01*
X141712180Y-120286415D01*
X142388181Y-120962416D01*
X142421666Y-121023739D01*
X142424500Y-121050097D01*
X142424500Y-121398337D01*
X142424501Y-121398355D01*
X142434650Y-121497707D01*
X142434651Y-121497710D01*
X142487996Y-121658694D01*
X142488001Y-121658705D01*
X142542834Y-121747602D01*
X142561275Y-121814994D01*
X142540353Y-121881658D01*
X142486711Y-121926428D01*
X142417380Y-121935089D01*
X142354373Y-121904893D01*
X142349615Y-121900380D01*
X141516407Y-121067172D01*
X141482922Y-121005849D01*
X141483752Y-120949567D01*
X141497600Y-120893889D01*
X141500500Y-120851123D01*
X141500499Y-120374094D01*
X141520183Y-120307057D01*
X141572987Y-120261302D01*
X141642146Y-120251358D01*
X141705702Y-120280383D01*
G37*
%TD.AperFunction*%
%TA.AperFunction,NonConductor*%
G36*
X136511004Y-118495185D02*
G01*
X136543232Y-118525190D01*
X136567449Y-118557541D01*
X136567452Y-118557544D01*
X136567454Y-118557546D01*
X136596095Y-118578987D01*
X136682664Y-118643793D01*
X136682671Y-118643797D01*
X136817517Y-118694091D01*
X136817516Y-118694091D01*
X136824444Y-118694835D01*
X136877127Y-118700500D01*
X138022872Y-118700499D01*
X138082483Y-118694091D01*
X138217331Y-118643796D01*
X138332546Y-118557546D01*
X138342840Y-118543796D01*
X138356768Y-118525190D01*
X138412701Y-118483318D01*
X138456035Y-118475500D01*
X138839056Y-118475500D01*
X138875944Y-118481114D01*
X138898585Y-118488168D01*
X138918822Y-118494474D01*
X138976969Y-118533210D01*
X139004945Y-118597235D01*
X138993864Y-118666220D01*
X138947247Y-118718264D01*
X138914028Y-118732634D01*
X138868916Y-118744722D01*
X138868909Y-118744725D01*
X138818796Y-118773659D01*
X138818795Y-118773660D01*
X138775389Y-118798720D01*
X138731985Y-118823779D01*
X138731982Y-118823781D01*
X138198181Y-119357582D01*
X138198179Y-119357585D01*
X138153331Y-119435266D01*
X138153330Y-119435267D01*
X138119123Y-119494515D01*
X138078199Y-119647243D01*
X138078199Y-119647245D01*
X138078199Y-119815346D01*
X138078200Y-119815359D01*
X138078200Y-121975500D01*
X138058515Y-122042539D01*
X138005711Y-122088294D01*
X137954200Y-122099500D01*
X135324499Y-122099500D01*
X135257460Y-122079815D01*
X135211705Y-122027011D01*
X135200499Y-121975500D01*
X135200499Y-121241971D01*
X135200499Y-121241964D01*
X135189886Y-121122582D01*
X135133909Y-120926951D01*
X135039698Y-120746593D01*
X134951775Y-120638764D01*
X134911109Y-120588890D01*
X134753409Y-120460304D01*
X134753410Y-120460304D01*
X134753407Y-120460302D01*
X134573049Y-120366091D01*
X134573048Y-120366090D01*
X134573045Y-120366089D01*
X134444599Y-120329337D01*
X134377418Y-120310114D01*
X134377415Y-120310113D01*
X134377413Y-120310113D01*
X134309629Y-120304087D01*
X134258037Y-120299500D01*
X134258032Y-120299500D01*
X133141971Y-120299500D01*
X133141965Y-120299500D01*
X133141964Y-120299501D01*
X133090379Y-120304086D01*
X133021861Y-120290416D01*
X132971610Y-120241871D01*
X132955400Y-120180574D01*
X132955400Y-118824499D01*
X132975085Y-118757460D01*
X133027889Y-118711705D01*
X133079400Y-118700499D01*
X133897871Y-118700499D01*
X133897872Y-118700499D01*
X133957483Y-118694091D01*
X134092331Y-118643796D01*
X134207546Y-118557546D01*
X134217840Y-118543796D01*
X134231768Y-118525190D01*
X134287701Y-118483318D01*
X134331035Y-118475500D01*
X136443965Y-118475500D01*
X136511004Y-118495185D01*
G37*
%TD.AperFunction*%
%TA.AperFunction,NonConductor*%
G36*
X142660851Y-118332316D02*
G01*
X142664977Y-118333940D01*
X142666510Y-118334574D01*
X142666515Y-118334577D01*
X142729993Y-118351586D01*
X142789653Y-118387952D01*
X142797165Y-118397049D01*
X142842454Y-118457546D01*
X142842457Y-118457548D01*
X142957664Y-118543793D01*
X142957671Y-118543797D01*
X143092517Y-118594091D01*
X143092516Y-118594091D01*
X143099444Y-118594835D01*
X143152127Y-118600500D01*
X144297872Y-118600499D01*
X144357483Y-118594091D01*
X144492331Y-118543796D01*
X144607546Y-118457546D01*
X144631768Y-118425190D01*
X144687701Y-118383318D01*
X144731035Y-118375500D01*
X146843965Y-118375500D01*
X146911004Y-118395185D01*
X146943232Y-118425190D01*
X146967449Y-118457541D01*
X146967452Y-118457544D01*
X146967454Y-118457546D01*
X146967457Y-118457548D01*
X147082664Y-118543793D01*
X147082671Y-118543797D01*
X147119521Y-118557541D01*
X147217517Y-118594091D01*
X147277127Y-118600500D01*
X147932755Y-118600499D01*
X147999794Y-118620183D01*
X148045549Y-118672987D01*
X148055975Y-118710615D01*
X148069330Y-118829150D01*
X148069331Y-118829154D01*
X148128911Y-118999423D01*
X148224884Y-119152162D01*
X148352438Y-119279716D01*
X148505178Y-119375689D01*
X148646196Y-119425033D01*
X148670272Y-119433458D01*
X148727048Y-119474180D01*
X148752795Y-119539133D01*
X148739339Y-119607695D01*
X148690951Y-119658097D01*
X148629317Y-119674500D01*
X148195818Y-119674500D01*
X148097316Y-119684563D01*
X148097315Y-119684564D01*
X148018219Y-119710773D01*
X147937715Y-119737450D01*
X147937704Y-119737455D01*
X147822876Y-119808283D01*
X147755484Y-119826724D01*
X147688820Y-119805802D01*
X147670098Y-119790426D01*
X147605391Y-119725719D01*
X147605387Y-119725716D01*
X147462295Y-119637455D01*
X147462289Y-119637452D01*
X147462287Y-119637451D01*
X147302685Y-119584564D01*
X147302683Y-119584563D01*
X147204181Y-119574500D01*
X147204174Y-119574500D01*
X146595826Y-119574500D01*
X146595818Y-119574500D01*
X146497316Y-119584563D01*
X146497315Y-119584564D01*
X146418219Y-119610773D01*
X146337715Y-119637450D01*
X146337704Y-119637455D01*
X146194612Y-119725716D01*
X146194608Y-119725719D01*
X146075719Y-119844608D01*
X146075716Y-119844612D01*
X145987455Y-119987704D01*
X145987451Y-119987713D01*
X145934564Y-120147315D01*
X145934564Y-120147316D01*
X145934563Y-120147316D01*
X145924500Y-120245818D01*
X145924500Y-120587402D01*
X145904815Y-120654441D01*
X145888181Y-120675083D01*
X145621181Y-120942082D01*
X145621179Y-120942085D01*
X145571061Y-121028894D01*
X145571059Y-121028896D01*
X145542125Y-121079009D01*
X145542124Y-121079010D01*
X145526244Y-121138272D01*
X145501199Y-121231743D01*
X145501199Y-121231745D01*
X145501199Y-121399846D01*
X145501200Y-121399859D01*
X145501200Y-123577603D01*
X145481515Y-123644642D01*
X145428711Y-123690397D01*
X145359553Y-123700341D01*
X145295997Y-123671316D01*
X145289519Y-123665284D01*
X144835719Y-123211484D01*
X144802234Y-123150161D01*
X144799400Y-123123803D01*
X144799400Y-121844843D01*
X144796581Y-121834320D01*
X144791403Y-121814994D01*
X144758477Y-121692115D01*
X144708481Y-121605520D01*
X144679420Y-121555184D01*
X144567616Y-121443380D01*
X144567615Y-121443379D01*
X144563285Y-121439049D01*
X144563274Y-121439039D01*
X144411818Y-121287583D01*
X144378333Y-121226260D01*
X144375499Y-121199902D01*
X144375499Y-120851662D01*
X144375498Y-120851644D01*
X144365349Y-120752292D01*
X144365348Y-120752289D01*
X144359299Y-120734035D01*
X144312003Y-120591303D01*
X144311999Y-120591297D01*
X144311998Y-120591294D01*
X144222970Y-120446959D01*
X144222967Y-120446955D01*
X144103044Y-120327032D01*
X144103040Y-120327029D01*
X143958705Y-120238001D01*
X143958699Y-120237998D01*
X143958697Y-120237997D01*
X143958694Y-120237996D01*
X143797709Y-120184651D01*
X143698352Y-120174500D01*
X143698345Y-120174500D01*
X143350098Y-120174500D01*
X143283059Y-120154815D01*
X143262417Y-120138181D01*
X142066890Y-118942655D01*
X142066888Y-118942652D01*
X141948017Y-118823781D01*
X141948016Y-118823780D01*
X141861204Y-118773660D01*
X141861204Y-118773659D01*
X141861200Y-118773658D01*
X141832150Y-118756885D01*
X141783937Y-118706319D01*
X141770715Y-118637711D01*
X141796684Y-118572847D01*
X141853598Y-118532319D01*
X141894153Y-118525500D01*
X142131613Y-118525500D01*
X142131616Y-118525500D01*
X142202196Y-118519086D01*
X142364606Y-118468478D01*
X142510185Y-118380472D01*
X142529837Y-118360820D01*
X142591159Y-118327333D01*
X142660851Y-118332316D01*
G37*
%TD.AperFunction*%
%TA.AperFunction,NonConductor*%
G36*
X153268858Y-125998550D02*
G01*
X153324792Y-126040421D01*
X153349209Y-126105886D01*
X153349525Y-126114507D01*
X153356575Y-129992250D01*
X153337012Y-130059325D01*
X153284291Y-130105176D01*
X153215151Y-130115245D01*
X153151543Y-130086335D01*
X153131000Y-130063599D01*
X153113491Y-130038594D01*
X152946402Y-129871506D01*
X152946395Y-129871501D01*
X152752834Y-129735967D01*
X152752830Y-129735965D01*
X152674517Y-129699447D01*
X152538663Y-129636097D01*
X152538659Y-129636096D01*
X152538655Y-129636094D01*
X152310413Y-129574938D01*
X152310403Y-129574936D01*
X152075001Y-129554341D01*
X152074999Y-129554341D01*
X151839596Y-129574936D01*
X151839586Y-129574938D01*
X151611344Y-129636094D01*
X151611335Y-129636098D01*
X151460705Y-129706338D01*
X151391627Y-129716830D01*
X151327843Y-129688310D01*
X151289604Y-129629834D01*
X151284300Y-129593956D01*
X151284300Y-126459386D01*
X151303985Y-126392347D01*
X151356789Y-126346592D01*
X151425947Y-126336648D01*
X151460703Y-126347003D01*
X151636337Y-126428903D01*
X151864592Y-126490063D01*
X152052918Y-126506539D01*
X152099999Y-126510659D01*
X152100000Y-126510659D01*
X152100001Y-126510659D01*
X152139234Y-126507226D01*
X152335408Y-126490063D01*
X152563663Y-126428903D01*
X152777830Y-126329035D01*
X152971401Y-126193495D01*
X153137846Y-126027049D01*
X153199167Y-125993566D01*
X153268858Y-125998550D01*
G37*
%TD.AperFunction*%
%TA.AperFunction,NonConductor*%
G36*
X130623234Y-132278515D02*
G01*
X130679167Y-132320387D01*
X130703584Y-132385851D01*
X130703900Y-132394697D01*
X130703900Y-134423403D01*
X130684215Y-134490442D01*
X130631411Y-134536197D01*
X130593784Y-134546623D01*
X130513384Y-134555682D01*
X130444562Y-134543628D01*
X130393182Y-134496279D01*
X130375500Y-134432462D01*
X130375500Y-133943386D01*
X130374156Y-133928597D01*
X130369086Y-133872804D01*
X130318478Y-133710394D01*
X130230472Y-133564815D01*
X130230470Y-133564813D01*
X130230469Y-133564811D01*
X130128339Y-133462681D01*
X130094854Y-133401358D01*
X130099838Y-133331666D01*
X130128339Y-133287319D01*
X130230468Y-133185189D01*
X130230469Y-133185188D01*
X130230472Y-133185185D01*
X130318478Y-133039606D01*
X130369086Y-132877196D01*
X130375500Y-132806616D01*
X130375500Y-132475097D01*
X130395185Y-132408058D01*
X130411819Y-132387416D01*
X130492219Y-132307016D01*
X130553542Y-132273531D01*
X130623234Y-132278515D01*
G37*
%TD.AperFunction*%
%TA.AperFunction,NonConductor*%
G36*
X140202439Y-134499408D02*
G01*
X140257481Y-134540104D01*
X140261481Y-134545317D01*
X140380349Y-134664185D01*
X140380355Y-134664190D01*
X140653983Y-134937819D01*
X140687468Y-134999142D01*
X140682484Y-135068834D01*
X140640612Y-135124767D01*
X140575148Y-135149184D01*
X140566302Y-135149500D01*
X139842532Y-135149500D01*
X139775493Y-135129815D01*
X139729738Y-135077011D01*
X139719794Y-135007853D01*
X139721641Y-134997905D01*
X139723063Y-134991666D01*
X139723068Y-134991655D01*
X139732861Y-134904729D01*
X139759926Y-134840318D01*
X139768390Y-134830943D01*
X140071426Y-134527907D01*
X140132747Y-134494424D01*
X140202439Y-134499408D01*
G37*
%TD.AperFunction*%
%TA.AperFunction,NonConductor*%
G36*
X153300813Y-134734410D02*
G01*
X153350222Y-134783811D01*
X153365395Y-134843022D01*
X153368119Y-136341553D01*
X153348556Y-136408628D01*
X153295835Y-136454479D01*
X153226695Y-136464548D01*
X153163087Y-136435638D01*
X153142544Y-136412901D01*
X153013494Y-136228597D01*
X152846402Y-136061506D01*
X152846395Y-136061501D01*
X152652834Y-135925967D01*
X152652830Y-135925965D01*
X152611336Y-135906616D01*
X152438663Y-135826097D01*
X152438659Y-135826096D01*
X152438655Y-135826094D01*
X152210413Y-135764938D01*
X152210403Y-135764936D01*
X151975001Y-135744341D01*
X151974999Y-135744341D01*
X151739596Y-135764936D01*
X151739586Y-135764938D01*
X151511344Y-135826094D01*
X151511330Y-135826099D01*
X151460704Y-135849707D01*
X151391627Y-135860199D01*
X151327843Y-135831679D01*
X151289604Y-135773202D01*
X151284300Y-135737325D01*
X151284300Y-134924499D01*
X151303985Y-134857460D01*
X151356789Y-134811705D01*
X151408300Y-134800499D01*
X152972871Y-134800499D01*
X152972872Y-134800499D01*
X153032483Y-134794091D01*
X153167331Y-134743796D01*
X153167334Y-134743793D01*
X153175114Y-134739546D01*
X153175767Y-134740743D01*
X153232538Y-134719564D01*
X153300813Y-134734410D01*
G37*
%TD.AperFunction*%
%TA.AperFunction,NonConductor*%
G36*
X143412494Y-135025822D02*
G01*
X143462897Y-135074209D01*
X143479300Y-135135844D01*
X143479300Y-136534824D01*
X143459615Y-136601863D01*
X143406811Y-136647618D01*
X143394304Y-136652530D01*
X143280660Y-136690188D01*
X143279698Y-136690637D01*
X143278975Y-136690746D01*
X143273811Y-136692458D01*
X143273518Y-136691575D01*
X143210620Y-136701125D01*
X143146837Y-136672601D01*
X143108602Y-136614122D01*
X143103300Y-136578252D01*
X143103300Y-135355412D01*
X143122985Y-135288373D01*
X143130355Y-135278097D01*
X143132610Y-135275267D01*
X143132616Y-135275262D01*
X143228589Y-135122522D01*
X143238258Y-135094890D01*
X143278980Y-135038114D01*
X143343932Y-135012366D01*
X143412494Y-135025822D01*
G37*
%TD.AperFunction*%
%TA.AperFunction,NonConductor*%
G36*
X153331724Y-137763875D02*
G01*
X153367138Y-137824104D01*
X153370869Y-137854068D01*
X153371728Y-138326127D01*
X153352165Y-138393203D01*
X153299445Y-138439053D01*
X153230304Y-138449123D01*
X153173417Y-138425620D01*
X153169782Y-138422898D01*
X153067331Y-138346204D01*
X153067329Y-138346203D01*
X153067328Y-138346202D01*
X152935917Y-138297189D01*
X152879983Y-138255318D01*
X152855566Y-138189853D01*
X152870418Y-138121580D01*
X152891563Y-138093332D01*
X153013495Y-137971401D01*
X153145296Y-137783168D01*
X153199870Y-137739546D01*
X153269369Y-137732352D01*
X153331724Y-137763875D01*
G37*
%TD.AperFunction*%
%TA.AperFunction,NonConductor*%
G36*
X142970617Y-138472831D02*
G01*
X143014964Y-138501332D01*
X143094416Y-138580784D01*
X143127901Y-138642107D01*
X143122917Y-138711799D01*
X143094417Y-138756146D01*
X143038746Y-138811818D01*
X142777382Y-139073182D01*
X142716062Y-139106666D01*
X142689703Y-139109500D01*
X142530798Y-139109500D01*
X142463759Y-139089815D01*
X142418004Y-139037011D01*
X142408060Y-138967853D01*
X142437085Y-138904297D01*
X142443117Y-138897819D01*
X142489152Y-138851784D01*
X142532220Y-138808716D01*
X142532221Y-138808714D01*
X142839604Y-138501330D01*
X142900925Y-138467847D01*
X142970617Y-138472831D01*
G37*
%TD.AperFunction*%
%TA.AperFunction,NonConductor*%
G36*
X145036004Y-148945185D02*
G01*
X145068232Y-148975190D01*
X145092449Y-149007541D01*
X145092452Y-149007544D01*
X145092454Y-149007546D01*
X145092457Y-149007548D01*
X145207664Y-149093793D01*
X145207671Y-149093797D01*
X145342517Y-149144091D01*
X145342516Y-149144091D01*
X145349444Y-149144835D01*
X145402127Y-149150500D01*
X146547872Y-149150499D01*
X146607483Y-149144091D01*
X146637967Y-149132720D01*
X146707657Y-149127737D01*
X146768981Y-149161221D01*
X146802466Y-149222544D01*
X146805300Y-149248903D01*
X146805300Y-149551096D01*
X146785615Y-149618135D01*
X146732811Y-149663890D01*
X146663653Y-149673834D01*
X146637969Y-149667279D01*
X146607481Y-149655908D01*
X146607483Y-149655908D01*
X146547883Y-149649501D01*
X146547881Y-149649500D01*
X146547873Y-149649500D01*
X146547864Y-149649500D01*
X145402129Y-149649500D01*
X145402123Y-149649501D01*
X145342516Y-149655908D01*
X145207671Y-149706202D01*
X145207664Y-149706206D01*
X145092457Y-149792451D01*
X145092449Y-149792458D01*
X145068232Y-149824810D01*
X145012299Y-149866682D01*
X144968965Y-149874500D01*
X142831035Y-149874500D01*
X142763996Y-149854815D01*
X142731768Y-149824810D01*
X142707550Y-149792458D01*
X142707547Y-149792455D01*
X142707546Y-149792454D01*
X142701989Y-149788294D01*
X142592335Y-149706206D01*
X142592328Y-149706202D01*
X142457482Y-149655908D01*
X142457483Y-149655908D01*
X142397883Y-149649501D01*
X142397881Y-149649500D01*
X142397873Y-149649500D01*
X142397865Y-149649500D01*
X141950550Y-149649500D01*
X141883511Y-149629815D01*
X141837756Y-149577011D01*
X141827330Y-149539383D01*
X141817569Y-149452750D01*
X141817567Y-149452740D01*
X141779515Y-149343997D01*
X141775952Y-149274218D01*
X141808877Y-149215358D01*
X141826163Y-149198073D01*
X141837422Y-149186815D01*
X141898746Y-149153332D01*
X141925100Y-149150499D01*
X142422871Y-149150499D01*
X142422872Y-149150499D01*
X142482483Y-149144091D01*
X142617331Y-149093796D01*
X142732546Y-149007546D01*
X142756768Y-148975190D01*
X142812701Y-148933318D01*
X142856035Y-148925500D01*
X144968965Y-148925500D01*
X145036004Y-148945185D01*
G37*
%TD.AperFunction*%
%TA.AperFunction,NonConductor*%
G36*
X150869644Y-152755403D02*
G01*
X150925577Y-152797275D01*
X150933696Y-152809583D01*
X150952675Y-152842455D01*
X150956741Y-152849496D01*
X150956742Y-152849500D01*
X150956743Y-152849500D01*
X150995433Y-152916515D01*
X151011079Y-152943614D01*
X151011081Y-152943617D01*
X151129949Y-153062485D01*
X151129955Y-153062490D01*
X151173603Y-153106138D01*
X151207088Y-153167461D01*
X151202104Y-153237153D01*
X151173603Y-153281500D01*
X151071673Y-153383430D01*
X151010350Y-153416915D01*
X150940658Y-153411931D01*
X150884725Y-153370059D01*
X150867810Y-153339082D01*
X150818797Y-153207671D01*
X150818793Y-153207664D01*
X150757632Y-153125965D01*
X150732546Y-153092454D01*
X150674126Y-153048721D01*
X150632257Y-152992789D01*
X150627273Y-152923097D01*
X150660756Y-152861777D01*
X150738632Y-152783902D01*
X150799952Y-152750419D01*
X150869644Y-152755403D01*
G37*
%TD.AperFunction*%
%TA.AperFunction,NonConductor*%
G36*
X153350390Y-150445011D02*
G01*
X153388630Y-150503488D01*
X153393934Y-150539141D01*
X153399240Y-153457465D01*
X153379677Y-153524540D01*
X153326956Y-153570391D01*
X153257816Y-153580460D01*
X153194208Y-153551550D01*
X153173665Y-153528813D01*
X153103493Y-153428596D01*
X152936402Y-153261506D01*
X152936395Y-153261501D01*
X152742831Y-153125965D01*
X152742829Y-153125964D01*
X152724231Y-153117292D01*
X152671792Y-153071120D01*
X152656860Y-153036998D01*
X152653939Y-153026096D01*
X152653939Y-153026097D01*
X152624577Y-152916515D01*
X152585886Y-152849501D01*
X152585886Y-152849500D01*
X152545522Y-152779587D01*
X152545521Y-152779586D01*
X152545520Y-152779584D01*
X152433716Y-152667780D01*
X152433715Y-152667779D01*
X152429385Y-152663449D01*
X152429374Y-152663439D01*
X152128419Y-152362484D01*
X152094934Y-152301161D01*
X152092100Y-152274803D01*
X152092100Y-150651885D01*
X152111785Y-150584846D01*
X152164589Y-150539091D01*
X152233747Y-150529147D01*
X152248178Y-150532106D01*
X152373308Y-150565635D01*
X152535230Y-150579801D01*
X152599998Y-150585468D01*
X152600000Y-150585468D01*
X152600002Y-150585468D01*
X152656673Y-150580509D01*
X152826692Y-150565635D01*
X153046496Y-150506739D01*
X153217530Y-150426983D01*
X153286606Y-150416492D01*
X153350390Y-150445011D01*
G37*
%TD.AperFunction*%
%TA.AperFunction,NonConductor*%
G36*
X151043418Y-155195417D02*
G01*
X151071673Y-155216569D01*
X151193597Y-155338493D01*
X151193603Y-155338498D01*
X151244198Y-155373925D01*
X151287823Y-155428502D01*
X151295017Y-155498000D01*
X151263494Y-155560355D01*
X151203265Y-155595769D01*
X151173075Y-155599500D01*
X150911432Y-155599500D01*
X150844393Y-155579815D01*
X150798638Y-155527011D01*
X150788694Y-155457853D01*
X150812165Y-155401190D01*
X150817740Y-155393741D01*
X150818796Y-155392331D01*
X150867810Y-155260916D01*
X150909681Y-155204984D01*
X150975145Y-155180566D01*
X151043418Y-155195417D01*
G37*
%TD.AperFunction*%
%TA.AperFunction,NonConductor*%
G36*
X148825732Y-150325470D02*
G01*
X148947266Y-150410568D01*
X149153504Y-150506739D01*
X149373308Y-150565635D01*
X149535230Y-150579801D01*
X149599998Y-150585468D01*
X149600000Y-150585468D01*
X149600002Y-150585468D01*
X149656673Y-150580509D01*
X149826692Y-150565635D01*
X149993807Y-150520857D01*
X150063657Y-150522520D01*
X150121519Y-150561683D01*
X150149023Y-150625911D01*
X150149900Y-150640632D01*
X150149900Y-151622802D01*
X150130215Y-151689841D01*
X150113581Y-151710483D01*
X149044481Y-152779582D01*
X149044477Y-152779587D01*
X149004114Y-152849500D01*
X149004113Y-152849501D01*
X148982173Y-152887501D01*
X148931606Y-152935716D01*
X148874787Y-152949500D01*
X148627130Y-152949500D01*
X148627123Y-152949501D01*
X148567516Y-152955908D01*
X148432671Y-153006202D01*
X148432664Y-153006206D01*
X148317455Y-153092452D01*
X148317452Y-153092455D01*
X148231206Y-153207664D01*
X148231202Y-153207671D01*
X148180908Y-153342517D01*
X148174501Y-153402116D01*
X148174500Y-153402135D01*
X148174500Y-155197870D01*
X148174501Y-155197876D01*
X148180908Y-155257483D01*
X148231202Y-155392328D01*
X148231206Y-155392334D01*
X148237835Y-155401190D01*
X148262252Y-155466654D01*
X148247400Y-155534927D01*
X148197995Y-155584332D01*
X148138568Y-155599500D01*
X147027244Y-155599500D01*
X146960205Y-155579815D01*
X146914450Y-155527011D01*
X146903954Y-155462247D01*
X146905500Y-155447873D01*
X146905499Y-153152128D01*
X146899091Y-153092517D01*
X146899068Y-153092456D01*
X146848797Y-152957671D01*
X146848793Y-152957664D01*
X146762547Y-152842455D01*
X146762544Y-152842452D01*
X146647335Y-152756206D01*
X146647328Y-152756202D01*
X146572464Y-152728280D01*
X146516530Y-152686409D01*
X146492113Y-152620945D01*
X146506965Y-152552672D01*
X146528113Y-152524420D01*
X148480413Y-150572121D01*
X148480416Y-150572120D01*
X148592220Y-150460316D01*
X148642339Y-150373504D01*
X148647229Y-150365033D01*
X148697798Y-150316825D01*
X148766406Y-150303607D01*
X148825732Y-150325470D01*
G37*
%TD.AperFunction*%
%TA.AperFunction,NonConductor*%
G36*
X140516827Y-150252185D02*
G01*
X140527103Y-150259555D01*
X140529936Y-150261814D01*
X140529938Y-150261816D01*
X140573935Y-150289461D01*
X140682677Y-150357789D01*
X140716453Y-150369607D01*
X140773229Y-150410328D01*
X140798978Y-150475280D01*
X140799500Y-150486649D01*
X140799500Y-150847869D01*
X140799501Y-150847876D01*
X140805908Y-150907483D01*
X140856202Y-151042328D01*
X140856206Y-151042335D01*
X140942452Y-151157544D01*
X140942455Y-151157547D01*
X141057664Y-151243793D01*
X141057671Y-151243797D01*
X141192517Y-151294091D01*
X141192516Y-151294091D01*
X141199444Y-151294835D01*
X141252127Y-151300500D01*
X142397872Y-151300499D01*
X142457483Y-151294091D01*
X142592331Y-151243796D01*
X142707546Y-151157546D01*
X142731768Y-151125190D01*
X142787701Y-151083318D01*
X142831035Y-151075500D01*
X144968965Y-151075500D01*
X145036004Y-151095185D01*
X145068232Y-151125190D01*
X145092449Y-151157541D01*
X145092452Y-151157544D01*
X145092454Y-151157546D01*
X145102772Y-151165270D01*
X145207664Y-151243793D01*
X145207671Y-151243797D01*
X145228040Y-151251394D01*
X145342517Y-151294091D01*
X145402127Y-151300500D01*
X145754203Y-151300499D01*
X145821241Y-151320183D01*
X145866996Y-151372987D01*
X145876940Y-151442146D01*
X145847915Y-151505701D01*
X145841883Y-151512180D01*
X144936286Y-152417778D01*
X144824481Y-152529582D01*
X144824479Y-152529585D01*
X144774361Y-152616394D01*
X144774360Y-152616395D01*
X144762175Y-152637500D01*
X144711608Y-152685716D01*
X144654788Y-152699500D01*
X144157129Y-152699500D01*
X144157123Y-152699501D01*
X144097516Y-152705908D01*
X143962671Y-152756202D01*
X143962664Y-152756206D01*
X143847455Y-152842452D01*
X143847452Y-152842455D01*
X143761206Y-152957664D01*
X143761202Y-152957671D01*
X143710908Y-153092517D01*
X143704501Y-153152116D01*
X143704501Y-153152123D01*
X143704500Y-153152135D01*
X143704500Y-155447870D01*
X143704501Y-155447878D01*
X143706046Y-155462248D01*
X143693639Y-155531007D01*
X143646027Y-155582143D01*
X143582756Y-155599500D01*
X136408895Y-155599500D01*
X136341856Y-155579815D01*
X136296101Y-155527011D01*
X136286157Y-155457853D01*
X136314604Y-155394970D01*
X136443836Y-155243659D01*
X136575466Y-155028859D01*
X136671873Y-154796111D01*
X136730683Y-154551148D01*
X136750449Y-154300000D01*
X136730683Y-154048852D01*
X136671873Y-153803889D01*
X136598353Y-153626395D01*
X136575466Y-153571140D01*
X136443839Y-153356346D01*
X136443838Y-153356343D01*
X136402555Y-153308007D01*
X136280224Y-153164776D01*
X136130615Y-153036998D01*
X136088656Y-153001161D01*
X136088653Y-153001160D01*
X135873859Y-152869533D01*
X135641110Y-152773126D01*
X135396151Y-152714317D01*
X135145000Y-152694551D01*
X134893848Y-152714317D01*
X134648889Y-152773126D01*
X134416140Y-152869533D01*
X134201346Y-153001160D01*
X134201343Y-153001161D01*
X134009776Y-153164776D01*
X133920490Y-153269316D01*
X133861983Y-153307509D01*
X133792115Y-153308007D01*
X133733069Y-153270653D01*
X133703591Y-153207306D01*
X133702200Y-153188784D01*
X133702200Y-151820945D01*
X133702200Y-151820943D01*
X133661277Y-151668216D01*
X133612509Y-151583747D01*
X133596037Y-151515849D01*
X133618890Y-151449822D01*
X133673811Y-151406631D01*
X133733152Y-151398460D01*
X133735346Y-151398695D01*
X133752127Y-151400500D01*
X134897872Y-151400499D01*
X134957483Y-151394091D01*
X135092331Y-151343796D01*
X135207546Y-151257546D01*
X135212152Y-151251394D01*
X135231768Y-151225190D01*
X135287701Y-151183318D01*
X135331035Y-151175500D01*
X137468965Y-151175500D01*
X137536004Y-151195185D01*
X137568232Y-151225190D01*
X137592449Y-151257541D01*
X137592452Y-151257544D01*
X137592454Y-151257546D01*
X137592457Y-151257548D01*
X137707664Y-151343793D01*
X137707671Y-151343797D01*
X137842517Y-151394091D01*
X137842516Y-151394091D01*
X137849444Y-151394835D01*
X137902127Y-151400500D01*
X139047872Y-151400499D01*
X139107483Y-151394091D01*
X139242331Y-151343796D01*
X139357546Y-151257546D01*
X139443796Y-151142331D01*
X139494091Y-151007483D01*
X139500500Y-150947873D01*
X139500499Y-150356499D01*
X139520183Y-150289461D01*
X139572987Y-150243706D01*
X139624499Y-150232500D01*
X140449788Y-150232500D01*
X140516827Y-150252185D01*
G37*
%TD.AperFunction*%
%TA.AperFunction,NonConductor*%
G36*
X133812397Y-155203325D02*
G01*
X133841473Y-155236005D01*
X133846161Y-155243655D01*
X133846162Y-155243657D01*
X133846164Y-155243659D01*
X133975395Y-155394970D01*
X134003966Y-155458730D01*
X133993529Y-155527815D01*
X133947398Y-155580291D01*
X133881105Y-155599500D01*
X133600798Y-155599500D01*
X133533759Y-155579815D01*
X133488004Y-155527011D01*
X133478060Y-155457853D01*
X133507085Y-155394297D01*
X133513117Y-155387819D01*
X133543453Y-155357483D01*
X133582220Y-155318716D01*
X133628360Y-155238797D01*
X133678925Y-155190582D01*
X133747532Y-155177358D01*
X133812397Y-155203325D01*
G37*
%TD.AperFunction*%
M02*
