M48
; DRILL file {KiCad 8.0.2-1} date 2025-02-04T18:40:16-0600
; FORMAT={-:-/ absolute / inch / decimal}
; #@! TF.CreationDate,2025-02-04T18:40:16-06:00
; #@! TF.GenerationSoftware,Kicad,Pcbnew,8.0.2-1
; #@! TF.FileFunction,Plated,1,2,PTH
FMAT,2
INCH
; #@! TA.AperFunction,Plated,PTH,ViaDrill
T1C0.0118
; #@! TA.AperFunction,Plated,PTH,ComponentDrill
T2C0.0130
; #@! TA.AperFunction,Plated,PTH,ComponentDrill
T3C0.0315
; #@! TA.AperFunction,Plated,PTH,ComponentDrill
T4C0.0394
; #@! TA.AperFunction,Plated,PTH,ComponentDrill
T5C0.0433
; #@! TA.AperFunction,Plated,PTH,ComponentDrill
T6C0.0866
%
G90
G05
T1
X4.9108Y-4.1802
X4.9579Y-4.5636
X4.9755Y-4.7505
X4.9811Y-4.8554
X5.0159Y-4.1395
X5.0167Y-4.3882
X5.0297Y-4.4523
X5.0588Y-4.5441
X5.0596Y-4.3171
X5.1101Y-3.971
X5.1101Y-4.2051
X5.1227Y-4.6622
X5.1261Y-4.7802
X5.1278Y-5.0165
X5.1317Y-6.0148
X5.1365Y-4.5539
X5.1394Y-4.5176
X5.1395Y-4.5938
X5.144Y-5.3285
X5.1894Y-4.3351
X5.1897Y-5.7766
X5.2066Y-4.2887
X5.2134Y-5.638
X5.2241Y-4.3188
X5.2242Y-4.2162
X5.2346Y-5.4358
X5.2412Y-5.3648
X5.2523Y-4.0547
X5.2523Y-4.1723
X5.2523Y-4.443
X5.2561Y-5.8013
X5.3306Y-4.5124
X5.3623Y-5.7953
X5.4167Y-4.492
X5.47Y-5.3076
X5.4906Y-4.4558
X5.5024Y-5.5409
X5.5433Y-5.8312
X5.5524Y-5.891
X5.5556Y-5.5409
X5.5729Y-4.8399
X5.5766Y-5.1934
X5.6103Y-5.306
X5.6559Y-3.9293
X5.6996Y-5.0013
X5.8604Y-4.6713
X5.8884Y-5.0012
X5.9046Y-3.9586
X5.9048Y-4.6049
X5.9087Y-4.6451
X5.9145Y-5.533
X5.9183Y-4.4935
X5.9317Y-4.5343
T2
X5.3986Y-5.3742
X5.3986Y-5.4254
X5.3986Y-5.4766
X5.3986Y-5.5982
X5.3986Y-5.6494
X5.3986Y-5.7006
X5.4498Y-5.3742
X5.4498Y-5.4254
X5.4498Y-5.4766
X5.4498Y-5.5982
X5.4498Y-5.6494
X5.4498Y-5.7006
T3
X5.8898Y-5.6772
X5.8898Y-5.7772
X5.8898Y-5.8772
X6.0079Y-5.6772
X6.0079Y-5.7772
X6.0079Y-5.8772
T4
X4.9252Y-4.5071
X4.9252Y-4.6071
X4.9252Y-4.7071
X4.9252Y-4.8071
X4.9252Y-4.9071
X4.9252Y-5.0071
X4.9252Y-5.1071
X4.9252Y-5.2071
X4.9252Y-5.3071
X4.9252Y-5.4071
X4.9528Y-4.1191
X4.9528Y-4.2191
X4.9724Y-5.689
X4.9724Y-5.789
X5.8307Y-3.8748
X5.8307Y-3.9748
X5.8307Y-4.0748
X5.8307Y-4.1748
X5.8307Y-4.2748
X5.8307Y-4.3748
X5.8868Y-6.0748
X5.9833Y-5.3976
X5.9833Y-5.4976
X5.9868Y-6.0748
X5.9872Y-5.1539
X5.9872Y-5.2539
X5.9882Y-4.0378
X5.9882Y-4.1378
X5.9882Y-4.2378
X5.9882Y-4.3843
X5.9882Y-4.4843
X5.9882Y-4.5843
X5.9882Y-4.7274
X5.9882Y-4.8274
X5.9882Y-4.9274
T5
X5.3207Y-6.0748
X5.7207Y-6.0748
T6
X4.9646Y-6.0591
X4.9764Y-3.8819
X5.9724Y-3.8701
M30
