%TF.GenerationSoftware,KiCad,Pcbnew,8.0.2-1*%
%TF.CreationDate,2025-02-04T18:40:10-06:00*%
%TF.ProjectId,ADACHI,41444143-4849-42e6-9b69-6361645f7063,rev?*%
%TF.SameCoordinates,Original*%
%TF.FileFunction,Legend,Top*%
%TF.FilePolarity,Positive*%
%FSLAX46Y46*%
G04 Gerber Fmt 4.6, Leading zero omitted, Abs format (unit mm)*
G04 Created by KiCad (PCBNEW 8.0.2-1) date 2025-02-04 18:40:10*
%MOMM*%
%LPD*%
G01*
G04 APERTURE LIST*
%ADD10C,0.150000*%
%ADD11C,0.120000*%
G04 APERTURE END LIST*
D10*
X147766666Y-95544819D02*
X147766666Y-96259104D01*
X147766666Y-96259104D02*
X147719047Y-96401961D01*
X147719047Y-96401961D02*
X147623809Y-96497200D01*
X147623809Y-96497200D02*
X147480952Y-96544819D01*
X147480952Y-96544819D02*
X147385714Y-96544819D01*
X148195238Y-95640057D02*
X148242857Y-95592438D01*
X148242857Y-95592438D02*
X148338095Y-95544819D01*
X148338095Y-95544819D02*
X148576190Y-95544819D01*
X148576190Y-95544819D02*
X148671428Y-95592438D01*
X148671428Y-95592438D02*
X148719047Y-95640057D01*
X148719047Y-95640057D02*
X148766666Y-95735295D01*
X148766666Y-95735295D02*
X148766666Y-95830533D01*
X148766666Y-95830533D02*
X148719047Y-95973390D01*
X148719047Y-95973390D02*
X148147619Y-96544819D01*
X148147619Y-96544819D02*
X148766666Y-96544819D01*
X128424819Y-135851190D02*
X127948628Y-136184523D01*
X128424819Y-136422618D02*
X127424819Y-136422618D01*
X127424819Y-136422618D02*
X127424819Y-136041666D01*
X127424819Y-136041666D02*
X127472438Y-135946428D01*
X127472438Y-135946428D02*
X127520057Y-135898809D01*
X127520057Y-135898809D02*
X127615295Y-135851190D01*
X127615295Y-135851190D02*
X127758152Y-135851190D01*
X127758152Y-135851190D02*
X127853390Y-135898809D01*
X127853390Y-135898809D02*
X127901009Y-135946428D01*
X127901009Y-135946428D02*
X127948628Y-136041666D01*
X127948628Y-136041666D02*
X127948628Y-136422618D01*
X127520057Y-135470237D02*
X127472438Y-135422618D01*
X127472438Y-135422618D02*
X127424819Y-135327380D01*
X127424819Y-135327380D02*
X127424819Y-135089285D01*
X127424819Y-135089285D02*
X127472438Y-134994047D01*
X127472438Y-134994047D02*
X127520057Y-134946428D01*
X127520057Y-134946428D02*
X127615295Y-134898809D01*
X127615295Y-134898809D02*
X127710533Y-134898809D01*
X127710533Y-134898809D02*
X127853390Y-134946428D01*
X127853390Y-134946428D02*
X128424819Y-135517856D01*
X128424819Y-135517856D02*
X128424819Y-134898809D01*
X127520057Y-134517856D02*
X127472438Y-134470237D01*
X127472438Y-134470237D02*
X127424819Y-134374999D01*
X127424819Y-134374999D02*
X127424819Y-134136904D01*
X127424819Y-134136904D02*
X127472438Y-134041666D01*
X127472438Y-134041666D02*
X127520057Y-133994047D01*
X127520057Y-133994047D02*
X127615295Y-133946428D01*
X127615295Y-133946428D02*
X127710533Y-133946428D01*
X127710533Y-133946428D02*
X127853390Y-133994047D01*
X127853390Y-133994047D02*
X128424819Y-134565475D01*
X128424819Y-134565475D02*
X128424819Y-133946428D01*
X128424819Y-132994047D02*
X128424819Y-133565475D01*
X128424819Y-133279761D02*
X127424819Y-133279761D01*
X127424819Y-133279761D02*
X127567676Y-133374999D01*
X127567676Y-133374999D02*
X127662914Y-133470237D01*
X127662914Y-133470237D02*
X127710533Y-133565475D01*
X127424819Y-132374999D02*
X127424819Y-132279761D01*
X127424819Y-132279761D02*
X127472438Y-132184523D01*
X127472438Y-132184523D02*
X127520057Y-132136904D01*
X127520057Y-132136904D02*
X127615295Y-132089285D01*
X127615295Y-132089285D02*
X127805771Y-132041666D01*
X127805771Y-132041666D02*
X128043866Y-132041666D01*
X128043866Y-132041666D02*
X128234342Y-132089285D01*
X128234342Y-132089285D02*
X128329580Y-132136904D01*
X128329580Y-132136904D02*
X128377200Y-132184523D01*
X128377200Y-132184523D02*
X128424819Y-132279761D01*
X128424819Y-132279761D02*
X128424819Y-132374999D01*
X128424819Y-132374999D02*
X128377200Y-132470237D01*
X128377200Y-132470237D02*
X128329580Y-132517856D01*
X128329580Y-132517856D02*
X128234342Y-132565475D01*
X128234342Y-132565475D02*
X128043866Y-132613094D01*
X128043866Y-132613094D02*
X127805771Y-132613094D01*
X127805771Y-132613094D02*
X127615295Y-132565475D01*
X127615295Y-132565475D02*
X127520057Y-132517856D01*
X127520057Y-132517856D02*
X127472438Y-132470237D01*
X127472438Y-132470237D02*
X127424819Y-132374999D01*
X128424819Y-131613094D02*
X127424819Y-131613094D01*
X128043866Y-131517856D02*
X128424819Y-131232142D01*
X127758152Y-131232142D02*
X128139104Y-131613094D01*
X128424819Y-130279761D02*
X128424819Y-130851189D01*
X128424819Y-130565475D02*
X127424819Y-130565475D01*
X127424819Y-130565475D02*
X127567676Y-130660713D01*
X127567676Y-130660713D02*
X127662914Y-130755951D01*
X127662914Y-130755951D02*
X127710533Y-130851189D01*
X142329580Y-125066666D02*
X142377200Y-125114285D01*
X142377200Y-125114285D02*
X142424819Y-125257142D01*
X142424819Y-125257142D02*
X142424819Y-125352380D01*
X142424819Y-125352380D02*
X142377200Y-125495237D01*
X142377200Y-125495237D02*
X142281961Y-125590475D01*
X142281961Y-125590475D02*
X142186723Y-125638094D01*
X142186723Y-125638094D02*
X141996247Y-125685713D01*
X141996247Y-125685713D02*
X141853390Y-125685713D01*
X141853390Y-125685713D02*
X141662914Y-125638094D01*
X141662914Y-125638094D02*
X141567676Y-125590475D01*
X141567676Y-125590475D02*
X141472438Y-125495237D01*
X141472438Y-125495237D02*
X141424819Y-125352380D01*
X141424819Y-125352380D02*
X141424819Y-125257142D01*
X141424819Y-125257142D02*
X141472438Y-125114285D01*
X141472438Y-125114285D02*
X141520057Y-125066666D01*
X141424819Y-124209523D02*
X141424819Y-124399999D01*
X141424819Y-124399999D02*
X141472438Y-124495237D01*
X141472438Y-124495237D02*
X141520057Y-124542856D01*
X141520057Y-124542856D02*
X141662914Y-124638094D01*
X141662914Y-124638094D02*
X141853390Y-124685713D01*
X141853390Y-124685713D02*
X142234342Y-124685713D01*
X142234342Y-124685713D02*
X142329580Y-124638094D01*
X142329580Y-124638094D02*
X142377200Y-124590475D01*
X142377200Y-124590475D02*
X142424819Y-124495237D01*
X142424819Y-124495237D02*
X142424819Y-124304761D01*
X142424819Y-124304761D02*
X142377200Y-124209523D01*
X142377200Y-124209523D02*
X142329580Y-124161904D01*
X142329580Y-124161904D02*
X142234342Y-124114285D01*
X142234342Y-124114285D02*
X141996247Y-124114285D01*
X141996247Y-124114285D02*
X141901009Y-124161904D01*
X141901009Y-124161904D02*
X141853390Y-124209523D01*
X141853390Y-124209523D02*
X141805771Y-124304761D01*
X141805771Y-124304761D02*
X141805771Y-124495237D01*
X141805771Y-124495237D02*
X141853390Y-124590475D01*
X141853390Y-124590475D02*
X141901009Y-124638094D01*
X141901009Y-124638094D02*
X141996247Y-124685713D01*
X147649819Y-155799999D02*
X146983152Y-155276190D01*
X146983152Y-155799999D02*
X147649819Y-155276190D01*
X146983152Y-155038094D02*
X146983152Y-154657142D01*
X146649819Y-154895237D02*
X147506961Y-154895237D01*
X147506961Y-154895237D02*
X147602200Y-154847618D01*
X147602200Y-154847618D02*
X147649819Y-154752380D01*
X147649819Y-154752380D02*
X147649819Y-154657142D01*
X146649819Y-154419046D02*
X146649819Y-153799999D01*
X146649819Y-153799999D02*
X147030771Y-154133332D01*
X147030771Y-154133332D02*
X147030771Y-153990475D01*
X147030771Y-153990475D02*
X147078390Y-153895237D01*
X147078390Y-153895237D02*
X147126009Y-153847618D01*
X147126009Y-153847618D02*
X147221247Y-153799999D01*
X147221247Y-153799999D02*
X147459342Y-153799999D01*
X147459342Y-153799999D02*
X147554580Y-153847618D01*
X147554580Y-153847618D02*
X147602200Y-153895237D01*
X147602200Y-153895237D02*
X147649819Y-153990475D01*
X147649819Y-153990475D02*
X147649819Y-154276189D01*
X147649819Y-154276189D02*
X147602200Y-154371427D01*
X147602200Y-154371427D02*
X147554580Y-154419046D01*
X146649819Y-153180951D02*
X146649819Y-153085713D01*
X146649819Y-153085713D02*
X146697438Y-152990475D01*
X146697438Y-152990475D02*
X146745057Y-152942856D01*
X146745057Y-152942856D02*
X146840295Y-152895237D01*
X146840295Y-152895237D02*
X147030771Y-152847618D01*
X147030771Y-152847618D02*
X147268866Y-152847618D01*
X147268866Y-152847618D02*
X147459342Y-152895237D01*
X147459342Y-152895237D02*
X147554580Y-152942856D01*
X147554580Y-152942856D02*
X147602200Y-152990475D01*
X147602200Y-152990475D02*
X147649819Y-153085713D01*
X147649819Y-153085713D02*
X147649819Y-153180951D01*
X147649819Y-153180951D02*
X147602200Y-153276189D01*
X147602200Y-153276189D02*
X147554580Y-153323808D01*
X147554580Y-153323808D02*
X147459342Y-153371427D01*
X147459342Y-153371427D02*
X147268866Y-153419046D01*
X147268866Y-153419046D02*
X147030771Y-153419046D01*
X147030771Y-153419046D02*
X146840295Y-153371427D01*
X146840295Y-153371427D02*
X146745057Y-153323808D01*
X146745057Y-153323808D02*
X146697438Y-153276189D01*
X146697438Y-153276189D02*
X146649819Y-153180951D01*
X125338095Y-151604819D02*
X125338095Y-150604819D01*
X125338095Y-151081009D02*
X125909523Y-151081009D01*
X125909523Y-151604819D02*
X125909523Y-150604819D01*
X126814285Y-150938152D02*
X126814285Y-151604819D01*
X126576190Y-150557200D02*
X126338095Y-151271485D01*
X126338095Y-151271485D02*
X126957142Y-151271485D01*
X136398095Y-134874819D02*
X136398095Y-135684342D01*
X136398095Y-135684342D02*
X136445714Y-135779580D01*
X136445714Y-135779580D02*
X136493333Y-135827200D01*
X136493333Y-135827200D02*
X136588571Y-135874819D01*
X136588571Y-135874819D02*
X136779047Y-135874819D01*
X136779047Y-135874819D02*
X136874285Y-135827200D01*
X136874285Y-135827200D02*
X136921904Y-135779580D01*
X136921904Y-135779580D02*
X136969523Y-135684342D01*
X136969523Y-135684342D02*
X136969523Y-134874819D01*
X137969523Y-135874819D02*
X137398095Y-135874819D01*
X137683809Y-135874819D02*
X137683809Y-134874819D01*
X137683809Y-134874819D02*
X137588571Y-135017676D01*
X137588571Y-135017676D02*
X137493333Y-135112914D01*
X137493333Y-135112914D02*
X137398095Y-135160533D01*
X119680951Y-102083152D02*
X119919046Y-102749819D01*
X119919046Y-102749819D02*
X120157141Y-102083152D01*
X120680951Y-102749819D02*
X120585713Y-102702200D01*
X120585713Y-102702200D02*
X120538094Y-102654580D01*
X120538094Y-102654580D02*
X120490475Y-102559342D01*
X120490475Y-102559342D02*
X120490475Y-102273628D01*
X120490475Y-102273628D02*
X120538094Y-102178390D01*
X120538094Y-102178390D02*
X120585713Y-102130771D01*
X120585713Y-102130771D02*
X120680951Y-102083152D01*
X120680951Y-102083152D02*
X120823808Y-102083152D01*
X120823808Y-102083152D02*
X120919046Y-102130771D01*
X120919046Y-102130771D02*
X120966665Y-102178390D01*
X120966665Y-102178390D02*
X121014284Y-102273628D01*
X121014284Y-102273628D02*
X121014284Y-102559342D01*
X121014284Y-102559342D02*
X120966665Y-102654580D01*
X120966665Y-102654580D02*
X120919046Y-102702200D01*
X120919046Y-102702200D02*
X120823808Y-102749819D01*
X120823808Y-102749819D02*
X120680951Y-102749819D01*
X121585713Y-102749819D02*
X121490475Y-102702200D01*
X121490475Y-102702200D02*
X121442856Y-102606961D01*
X121442856Y-102606961D02*
X121442856Y-101749819D01*
X121823809Y-102083152D02*
X122204761Y-102083152D01*
X121966666Y-101749819D02*
X121966666Y-102606961D01*
X121966666Y-102606961D02*
X122014285Y-102702200D01*
X122014285Y-102702200D02*
X122109523Y-102749819D01*
X122109523Y-102749819D02*
X122204761Y-102749819D01*
X122966666Y-102749819D02*
X122966666Y-102226009D01*
X122966666Y-102226009D02*
X122919047Y-102130771D01*
X122919047Y-102130771D02*
X122823809Y-102083152D01*
X122823809Y-102083152D02*
X122633333Y-102083152D01*
X122633333Y-102083152D02*
X122538095Y-102130771D01*
X122966666Y-102702200D02*
X122871428Y-102749819D01*
X122871428Y-102749819D02*
X122633333Y-102749819D01*
X122633333Y-102749819D02*
X122538095Y-102702200D01*
X122538095Y-102702200D02*
X122490476Y-102606961D01*
X122490476Y-102606961D02*
X122490476Y-102511723D01*
X122490476Y-102511723D02*
X122538095Y-102416485D01*
X122538095Y-102416485D02*
X122633333Y-102368866D01*
X122633333Y-102368866D02*
X122871428Y-102368866D01*
X122871428Y-102368866D02*
X122966666Y-102321247D01*
X123442857Y-102083152D02*
X123442857Y-102940295D01*
X123442857Y-102940295D02*
X123395238Y-103035533D01*
X123395238Y-103035533D02*
X123300000Y-103083152D01*
X123300000Y-103083152D02*
X123252381Y-103083152D01*
X123442857Y-101749819D02*
X123395238Y-101797438D01*
X123395238Y-101797438D02*
X123442857Y-101845057D01*
X123442857Y-101845057D02*
X123490476Y-101797438D01*
X123490476Y-101797438D02*
X123442857Y-101749819D01*
X123442857Y-101749819D02*
X123442857Y-101845057D01*
X124299999Y-102702200D02*
X124204761Y-102749819D01*
X124204761Y-102749819D02*
X124014285Y-102749819D01*
X124014285Y-102749819D02*
X123919047Y-102702200D01*
X123919047Y-102702200D02*
X123871428Y-102606961D01*
X123871428Y-102606961D02*
X123871428Y-102226009D01*
X123871428Y-102226009D02*
X123919047Y-102130771D01*
X123919047Y-102130771D02*
X124014285Y-102083152D01*
X124014285Y-102083152D02*
X124204761Y-102083152D01*
X124204761Y-102083152D02*
X124299999Y-102130771D01*
X124299999Y-102130771D02*
X124347618Y-102226009D01*
X124347618Y-102226009D02*
X124347618Y-102321247D01*
X124347618Y-102321247D02*
X123871428Y-102416485D01*
X124728571Y-102702200D02*
X124823809Y-102749819D01*
X124823809Y-102749819D02*
X125014285Y-102749819D01*
X125014285Y-102749819D02*
X125109523Y-102702200D01*
X125109523Y-102702200D02*
X125157142Y-102606961D01*
X125157142Y-102606961D02*
X125157142Y-102559342D01*
X125157142Y-102559342D02*
X125109523Y-102464104D01*
X125109523Y-102464104D02*
X125014285Y-102416485D01*
X125014285Y-102416485D02*
X124871428Y-102416485D01*
X124871428Y-102416485D02*
X124776190Y-102368866D01*
X124776190Y-102368866D02*
X124728571Y-102273628D01*
X124728571Y-102273628D02*
X124728571Y-102226009D01*
X124728571Y-102226009D02*
X124776190Y-102130771D01*
X124776190Y-102130771D02*
X124871428Y-102083152D01*
X124871428Y-102083152D02*
X125014285Y-102083152D01*
X125014285Y-102083152D02*
X125109523Y-102130771D01*
X125966666Y-102702200D02*
X125871428Y-102749819D01*
X125871428Y-102749819D02*
X125680952Y-102749819D01*
X125680952Y-102749819D02*
X125585714Y-102702200D01*
X125585714Y-102702200D02*
X125538095Y-102606961D01*
X125538095Y-102606961D02*
X125538095Y-102226009D01*
X125538095Y-102226009D02*
X125585714Y-102130771D01*
X125585714Y-102130771D02*
X125680952Y-102083152D01*
X125680952Y-102083152D02*
X125871428Y-102083152D01*
X125871428Y-102083152D02*
X125966666Y-102130771D01*
X125966666Y-102130771D02*
X126014285Y-102226009D01*
X126014285Y-102226009D02*
X126014285Y-102321247D01*
X126014285Y-102321247D02*
X125538095Y-102416485D01*
X126442857Y-102083152D02*
X126442857Y-102749819D01*
X126442857Y-102178390D02*
X126490476Y-102130771D01*
X126490476Y-102130771D02*
X126585714Y-102083152D01*
X126585714Y-102083152D02*
X126728571Y-102083152D01*
X126728571Y-102083152D02*
X126823809Y-102130771D01*
X126823809Y-102130771D02*
X126871428Y-102226009D01*
X126871428Y-102226009D02*
X126871428Y-102749819D01*
X127300000Y-102702200D02*
X127395238Y-102749819D01*
X127395238Y-102749819D02*
X127585714Y-102749819D01*
X127585714Y-102749819D02*
X127680952Y-102702200D01*
X127680952Y-102702200D02*
X127728571Y-102606961D01*
X127728571Y-102606961D02*
X127728571Y-102559342D01*
X127728571Y-102559342D02*
X127680952Y-102464104D01*
X127680952Y-102464104D02*
X127585714Y-102416485D01*
X127585714Y-102416485D02*
X127442857Y-102416485D01*
X127442857Y-102416485D02*
X127347619Y-102368866D01*
X127347619Y-102368866D02*
X127300000Y-102273628D01*
X127300000Y-102273628D02*
X127300000Y-102226009D01*
X127300000Y-102226009D02*
X127347619Y-102130771D01*
X127347619Y-102130771D02*
X127442857Y-102083152D01*
X127442857Y-102083152D02*
X127585714Y-102083152D01*
X127585714Y-102083152D02*
X127680952Y-102130771D01*
X128300000Y-102749819D02*
X128204762Y-102702200D01*
X128204762Y-102702200D02*
X128157143Y-102654580D01*
X128157143Y-102654580D02*
X128109524Y-102559342D01*
X128109524Y-102559342D02*
X128109524Y-102273628D01*
X128109524Y-102273628D02*
X128157143Y-102178390D01*
X128157143Y-102178390D02*
X128204762Y-102130771D01*
X128204762Y-102130771D02*
X128300000Y-102083152D01*
X128300000Y-102083152D02*
X128442857Y-102083152D01*
X128442857Y-102083152D02*
X128538095Y-102130771D01*
X128538095Y-102130771D02*
X128585714Y-102178390D01*
X128585714Y-102178390D02*
X128633333Y-102273628D01*
X128633333Y-102273628D02*
X128633333Y-102559342D01*
X128633333Y-102559342D02*
X128585714Y-102654580D01*
X128585714Y-102654580D02*
X128538095Y-102702200D01*
X128538095Y-102702200D02*
X128442857Y-102749819D01*
X128442857Y-102749819D02*
X128300000Y-102749819D01*
X129061905Y-102749819D02*
X129061905Y-102083152D01*
X129061905Y-102273628D02*
X129109524Y-102178390D01*
X129109524Y-102178390D02*
X129157143Y-102130771D01*
X129157143Y-102130771D02*
X129252381Y-102083152D01*
X129252381Y-102083152D02*
X129347619Y-102083152D01*
X130061905Y-102702200D02*
X129966667Y-102749819D01*
X129966667Y-102749819D02*
X129776191Y-102749819D01*
X129776191Y-102749819D02*
X129680953Y-102702200D01*
X129680953Y-102702200D02*
X129633334Y-102606961D01*
X129633334Y-102606961D02*
X129633334Y-102226009D01*
X129633334Y-102226009D02*
X129680953Y-102130771D01*
X129680953Y-102130771D02*
X129776191Y-102083152D01*
X129776191Y-102083152D02*
X129966667Y-102083152D01*
X129966667Y-102083152D02*
X130061905Y-102130771D01*
X130061905Y-102130771D02*
X130109524Y-102226009D01*
X130109524Y-102226009D02*
X130109524Y-102321247D01*
X130109524Y-102321247D02*
X129633334Y-102416485D01*
X130490477Y-102702200D02*
X130585715Y-102749819D01*
X130585715Y-102749819D02*
X130776191Y-102749819D01*
X130776191Y-102749819D02*
X130871429Y-102702200D01*
X130871429Y-102702200D02*
X130919048Y-102606961D01*
X130919048Y-102606961D02*
X130919048Y-102559342D01*
X130919048Y-102559342D02*
X130871429Y-102464104D01*
X130871429Y-102464104D02*
X130776191Y-102416485D01*
X130776191Y-102416485D02*
X130633334Y-102416485D01*
X130633334Y-102416485D02*
X130538096Y-102368866D01*
X130538096Y-102368866D02*
X130490477Y-102273628D01*
X130490477Y-102273628D02*
X130490477Y-102226009D01*
X130490477Y-102226009D02*
X130538096Y-102130771D01*
X130538096Y-102130771D02*
X130633334Y-102083152D01*
X130633334Y-102083152D02*
X130776191Y-102083152D01*
X130776191Y-102083152D02*
X130871429Y-102130771D01*
X131871429Y-102749819D02*
X131300001Y-102749819D01*
X131585715Y-102749819D02*
X131585715Y-101749819D01*
X131585715Y-101749819D02*
X131490477Y-101892676D01*
X131490477Y-101892676D02*
X131395239Y-101987914D01*
X131395239Y-101987914D02*
X131300001Y-102035533D01*
X145924819Y-128966666D02*
X145448628Y-129299999D01*
X145924819Y-129538094D02*
X144924819Y-129538094D01*
X144924819Y-129538094D02*
X144924819Y-129157142D01*
X144924819Y-129157142D02*
X144972438Y-129061904D01*
X144972438Y-129061904D02*
X145020057Y-129014285D01*
X145020057Y-129014285D02*
X145115295Y-128966666D01*
X145115295Y-128966666D02*
X145258152Y-128966666D01*
X145258152Y-128966666D02*
X145353390Y-129014285D01*
X145353390Y-129014285D02*
X145401009Y-129061904D01*
X145401009Y-129061904D02*
X145448628Y-129157142D01*
X145448628Y-129157142D02*
X145448628Y-129538094D01*
X145258152Y-128109523D02*
X145924819Y-128109523D01*
X144877200Y-128347618D02*
X145591485Y-128585713D01*
X145591485Y-128585713D02*
X145591485Y-127966666D01*
X146689580Y-134441666D02*
X146737200Y-134489285D01*
X146737200Y-134489285D02*
X146784819Y-134632142D01*
X146784819Y-134632142D02*
X146784819Y-134727380D01*
X146784819Y-134727380D02*
X146737200Y-134870237D01*
X146737200Y-134870237D02*
X146641961Y-134965475D01*
X146641961Y-134965475D02*
X146546723Y-135013094D01*
X146546723Y-135013094D02*
X146356247Y-135060713D01*
X146356247Y-135060713D02*
X146213390Y-135060713D01*
X146213390Y-135060713D02*
X146022914Y-135013094D01*
X146022914Y-135013094D02*
X145927676Y-134965475D01*
X145927676Y-134965475D02*
X145832438Y-134870237D01*
X145832438Y-134870237D02*
X145784819Y-134727380D01*
X145784819Y-134727380D02*
X145784819Y-134632142D01*
X145784819Y-134632142D02*
X145832438Y-134489285D01*
X145832438Y-134489285D02*
X145880057Y-134441666D01*
X146784819Y-133489285D02*
X146784819Y-134060713D01*
X146784819Y-133774999D02*
X145784819Y-133774999D01*
X145784819Y-133774999D02*
X145927676Y-133870237D01*
X145927676Y-133870237D02*
X146022914Y-133965475D01*
X146022914Y-133965475D02*
X146070533Y-134060713D01*
X129384819Y-117375000D02*
X128908628Y-117708333D01*
X129384819Y-117946428D02*
X128384819Y-117946428D01*
X128384819Y-117946428D02*
X128384819Y-117565476D01*
X128384819Y-117565476D02*
X128432438Y-117470238D01*
X128432438Y-117470238D02*
X128480057Y-117422619D01*
X128480057Y-117422619D02*
X128575295Y-117375000D01*
X128575295Y-117375000D02*
X128718152Y-117375000D01*
X128718152Y-117375000D02*
X128813390Y-117422619D01*
X128813390Y-117422619D02*
X128861009Y-117470238D01*
X128861009Y-117470238D02*
X128908628Y-117565476D01*
X128908628Y-117565476D02*
X128908628Y-117946428D01*
X129384819Y-116898809D02*
X129384819Y-116708333D01*
X129384819Y-116708333D02*
X129337200Y-116613095D01*
X129337200Y-116613095D02*
X129289580Y-116565476D01*
X129289580Y-116565476D02*
X129146723Y-116470238D01*
X129146723Y-116470238D02*
X128956247Y-116422619D01*
X128956247Y-116422619D02*
X128575295Y-116422619D01*
X128575295Y-116422619D02*
X128480057Y-116470238D01*
X128480057Y-116470238D02*
X128432438Y-116517857D01*
X128432438Y-116517857D02*
X128384819Y-116613095D01*
X128384819Y-116613095D02*
X128384819Y-116803571D01*
X128384819Y-116803571D02*
X128432438Y-116898809D01*
X128432438Y-116898809D02*
X128480057Y-116946428D01*
X128480057Y-116946428D02*
X128575295Y-116994047D01*
X128575295Y-116994047D02*
X128813390Y-116994047D01*
X128813390Y-116994047D02*
X128908628Y-116946428D01*
X128908628Y-116946428D02*
X128956247Y-116898809D01*
X128956247Y-116898809D02*
X129003866Y-116803571D01*
X129003866Y-116803571D02*
X129003866Y-116613095D01*
X129003866Y-116613095D02*
X128956247Y-116517857D01*
X128956247Y-116517857D02*
X128908628Y-116470238D01*
X128908628Y-116470238D02*
X128813390Y-116422619D01*
X128480057Y-116041666D02*
X128432438Y-115994047D01*
X128432438Y-115994047D02*
X128384819Y-115898809D01*
X128384819Y-115898809D02*
X128384819Y-115660714D01*
X128384819Y-115660714D02*
X128432438Y-115565476D01*
X128432438Y-115565476D02*
X128480057Y-115517857D01*
X128480057Y-115517857D02*
X128575295Y-115470238D01*
X128575295Y-115470238D02*
X128670533Y-115470238D01*
X128670533Y-115470238D02*
X128813390Y-115517857D01*
X128813390Y-115517857D02*
X129384819Y-116089285D01*
X129384819Y-116089285D02*
X129384819Y-115470238D01*
X128384819Y-114851190D02*
X128384819Y-114755952D01*
X128384819Y-114755952D02*
X128432438Y-114660714D01*
X128432438Y-114660714D02*
X128480057Y-114613095D01*
X128480057Y-114613095D02*
X128575295Y-114565476D01*
X128575295Y-114565476D02*
X128765771Y-114517857D01*
X128765771Y-114517857D02*
X129003866Y-114517857D01*
X129003866Y-114517857D02*
X129194342Y-114565476D01*
X129194342Y-114565476D02*
X129289580Y-114613095D01*
X129289580Y-114613095D02*
X129337200Y-114660714D01*
X129337200Y-114660714D02*
X129384819Y-114755952D01*
X129384819Y-114755952D02*
X129384819Y-114851190D01*
X129384819Y-114851190D02*
X129337200Y-114946428D01*
X129337200Y-114946428D02*
X129289580Y-114994047D01*
X129289580Y-114994047D02*
X129194342Y-115041666D01*
X129194342Y-115041666D02*
X129003866Y-115089285D01*
X129003866Y-115089285D02*
X128765771Y-115089285D01*
X128765771Y-115089285D02*
X128575295Y-115041666D01*
X128575295Y-115041666D02*
X128480057Y-114994047D01*
X128480057Y-114994047D02*
X128432438Y-114946428D01*
X128432438Y-114946428D02*
X128384819Y-114851190D01*
X129384819Y-114089285D02*
X128384819Y-114089285D01*
X129003866Y-113994047D02*
X129384819Y-113708333D01*
X128718152Y-113708333D02*
X129099104Y-114089285D01*
X129384819Y-112755952D02*
X129384819Y-113327380D01*
X129384819Y-113041666D02*
X128384819Y-113041666D01*
X128384819Y-113041666D02*
X128527676Y-113136904D01*
X128527676Y-113136904D02*
X128622914Y-113232142D01*
X128622914Y-113232142D02*
X128670533Y-113327380D01*
X149838095Y-109437200D02*
X149933333Y-109484819D01*
X149933333Y-109484819D02*
X150123809Y-109484819D01*
X150123809Y-109484819D02*
X150219047Y-109437200D01*
X150219047Y-109437200D02*
X150266666Y-109341961D01*
X150266666Y-109341961D02*
X150266666Y-109294342D01*
X150266666Y-109294342D02*
X150219047Y-109199104D01*
X150219047Y-109199104D02*
X150123809Y-109151485D01*
X150123809Y-109151485D02*
X149980952Y-109151485D01*
X149980952Y-109151485D02*
X149885714Y-109103866D01*
X149885714Y-109103866D02*
X149838095Y-109008628D01*
X149838095Y-109008628D02*
X149838095Y-108961009D01*
X149838095Y-108961009D02*
X149885714Y-108865771D01*
X149885714Y-108865771D02*
X149980952Y-108818152D01*
X149980952Y-108818152D02*
X150123809Y-108818152D01*
X150123809Y-108818152D02*
X150219047Y-108865771D01*
X151076190Y-109437200D02*
X150980952Y-109484819D01*
X150980952Y-109484819D02*
X150790476Y-109484819D01*
X150790476Y-109484819D02*
X150695238Y-109437200D01*
X150695238Y-109437200D02*
X150647619Y-109341961D01*
X150647619Y-109341961D02*
X150647619Y-108961009D01*
X150647619Y-108961009D02*
X150695238Y-108865771D01*
X150695238Y-108865771D02*
X150790476Y-108818152D01*
X150790476Y-108818152D02*
X150980952Y-108818152D01*
X150980952Y-108818152D02*
X151076190Y-108865771D01*
X151076190Y-108865771D02*
X151123809Y-108961009D01*
X151123809Y-108961009D02*
X151123809Y-109056247D01*
X151123809Y-109056247D02*
X150647619Y-109151485D01*
X151552381Y-109484819D02*
X151552381Y-108818152D01*
X151552381Y-109008628D02*
X151600000Y-108913390D01*
X151600000Y-108913390D02*
X151647619Y-108865771D01*
X151647619Y-108865771D02*
X151742857Y-108818152D01*
X151742857Y-108818152D02*
X151838095Y-108818152D01*
X152076191Y-108818152D02*
X152314286Y-109484819D01*
X152314286Y-109484819D02*
X152552381Y-108818152D01*
X153076191Y-109484819D02*
X152980953Y-109437200D01*
X152980953Y-109437200D02*
X152933334Y-109389580D01*
X152933334Y-109389580D02*
X152885715Y-109294342D01*
X152885715Y-109294342D02*
X152885715Y-109008628D01*
X152885715Y-109008628D02*
X152933334Y-108913390D01*
X152933334Y-108913390D02*
X152980953Y-108865771D01*
X152980953Y-108865771D02*
X153076191Y-108818152D01*
X153076191Y-108818152D02*
X153219048Y-108818152D01*
X153219048Y-108818152D02*
X153314286Y-108865771D01*
X153314286Y-108865771D02*
X153361905Y-108913390D01*
X153361905Y-108913390D02*
X153409524Y-109008628D01*
X153409524Y-109008628D02*
X153409524Y-109294342D01*
X153409524Y-109294342D02*
X153361905Y-109389580D01*
X153361905Y-109389580D02*
X153314286Y-109437200D01*
X153314286Y-109437200D02*
X153219048Y-109484819D01*
X153219048Y-109484819D02*
X153076191Y-109484819D01*
X153790477Y-108580057D02*
X153838096Y-108532438D01*
X153838096Y-108532438D02*
X153933334Y-108484819D01*
X153933334Y-108484819D02*
X154171429Y-108484819D01*
X154171429Y-108484819D02*
X154266667Y-108532438D01*
X154266667Y-108532438D02*
X154314286Y-108580057D01*
X154314286Y-108580057D02*
X154361905Y-108675295D01*
X154361905Y-108675295D02*
X154361905Y-108770533D01*
X154361905Y-108770533D02*
X154314286Y-108913390D01*
X154314286Y-108913390D02*
X153742858Y-109484819D01*
X153742858Y-109484819D02*
X154361905Y-109484819D01*
X128424819Y-123851190D02*
X127948628Y-124184523D01*
X128424819Y-124422618D02*
X127424819Y-124422618D01*
X127424819Y-124422618D02*
X127424819Y-124041666D01*
X127424819Y-124041666D02*
X127472438Y-123946428D01*
X127472438Y-123946428D02*
X127520057Y-123898809D01*
X127520057Y-123898809D02*
X127615295Y-123851190D01*
X127615295Y-123851190D02*
X127758152Y-123851190D01*
X127758152Y-123851190D02*
X127853390Y-123898809D01*
X127853390Y-123898809D02*
X127901009Y-123946428D01*
X127901009Y-123946428D02*
X127948628Y-124041666D01*
X127948628Y-124041666D02*
X127948628Y-124422618D01*
X128424819Y-122898809D02*
X128424819Y-123470237D01*
X128424819Y-123184523D02*
X127424819Y-123184523D01*
X127424819Y-123184523D02*
X127567676Y-123279761D01*
X127567676Y-123279761D02*
X127662914Y-123374999D01*
X127662914Y-123374999D02*
X127710533Y-123470237D01*
X127758152Y-122041666D02*
X128424819Y-122041666D01*
X127377200Y-122279761D02*
X128091485Y-122517856D01*
X128091485Y-122517856D02*
X128091485Y-121898809D01*
X128424819Y-120994047D02*
X128424819Y-121565475D01*
X128424819Y-121279761D02*
X127424819Y-121279761D01*
X127424819Y-121279761D02*
X127567676Y-121374999D01*
X127567676Y-121374999D02*
X127662914Y-121470237D01*
X127662914Y-121470237D02*
X127710533Y-121565475D01*
X127424819Y-120374999D02*
X127424819Y-120279761D01*
X127424819Y-120279761D02*
X127472438Y-120184523D01*
X127472438Y-120184523D02*
X127520057Y-120136904D01*
X127520057Y-120136904D02*
X127615295Y-120089285D01*
X127615295Y-120089285D02*
X127805771Y-120041666D01*
X127805771Y-120041666D02*
X128043866Y-120041666D01*
X128043866Y-120041666D02*
X128234342Y-120089285D01*
X128234342Y-120089285D02*
X128329580Y-120136904D01*
X128329580Y-120136904D02*
X128377200Y-120184523D01*
X128377200Y-120184523D02*
X128424819Y-120279761D01*
X128424819Y-120279761D02*
X128424819Y-120374999D01*
X128424819Y-120374999D02*
X128377200Y-120470237D01*
X128377200Y-120470237D02*
X128329580Y-120517856D01*
X128329580Y-120517856D02*
X128234342Y-120565475D01*
X128234342Y-120565475D02*
X128043866Y-120613094D01*
X128043866Y-120613094D02*
X127805771Y-120613094D01*
X127805771Y-120613094D02*
X127615295Y-120565475D01*
X127615295Y-120565475D02*
X127520057Y-120517856D01*
X127520057Y-120517856D02*
X127472438Y-120470237D01*
X127472438Y-120470237D02*
X127424819Y-120374999D01*
X128424819Y-119613094D02*
X127424819Y-119613094D01*
X128043866Y-119517856D02*
X128424819Y-119232142D01*
X127758152Y-119232142D02*
X128139104Y-119613094D01*
X128424819Y-118279761D02*
X128424819Y-118851189D01*
X128424819Y-118565475D02*
X127424819Y-118565475D01*
X127424819Y-118565475D02*
X127567676Y-118660713D01*
X127567676Y-118660713D02*
X127662914Y-118755951D01*
X127662914Y-118755951D02*
X127710533Y-118851189D01*
X121528571Y-112557200D02*
X121623809Y-112604819D01*
X121623809Y-112604819D02*
X121814285Y-112604819D01*
X121814285Y-112604819D02*
X121909523Y-112557200D01*
X121909523Y-112557200D02*
X121957142Y-112461961D01*
X121957142Y-112461961D02*
X121957142Y-112414342D01*
X121957142Y-112414342D02*
X121909523Y-112319104D01*
X121909523Y-112319104D02*
X121814285Y-112271485D01*
X121814285Y-112271485D02*
X121671428Y-112271485D01*
X121671428Y-112271485D02*
X121576190Y-112223866D01*
X121576190Y-112223866D02*
X121528571Y-112128628D01*
X121528571Y-112128628D02*
X121528571Y-112081009D01*
X121528571Y-112081009D02*
X121576190Y-111985771D01*
X121576190Y-111985771D02*
X121671428Y-111938152D01*
X121671428Y-111938152D02*
X121814285Y-111938152D01*
X121814285Y-111938152D02*
X121909523Y-111985771D01*
X122766666Y-112557200D02*
X122671428Y-112604819D01*
X122671428Y-112604819D02*
X122480952Y-112604819D01*
X122480952Y-112604819D02*
X122385714Y-112557200D01*
X122385714Y-112557200D02*
X122338095Y-112461961D01*
X122338095Y-112461961D02*
X122338095Y-112081009D01*
X122338095Y-112081009D02*
X122385714Y-111985771D01*
X122385714Y-111985771D02*
X122480952Y-111938152D01*
X122480952Y-111938152D02*
X122671428Y-111938152D01*
X122671428Y-111938152D02*
X122766666Y-111985771D01*
X122766666Y-111985771D02*
X122814285Y-112081009D01*
X122814285Y-112081009D02*
X122814285Y-112176247D01*
X122814285Y-112176247D02*
X122338095Y-112271485D01*
X123242857Y-111938152D02*
X123242857Y-112604819D01*
X123242857Y-112033390D02*
X123290476Y-111985771D01*
X123290476Y-111985771D02*
X123385714Y-111938152D01*
X123385714Y-111938152D02*
X123528571Y-111938152D01*
X123528571Y-111938152D02*
X123623809Y-111985771D01*
X123623809Y-111985771D02*
X123671428Y-112081009D01*
X123671428Y-112081009D02*
X123671428Y-112604819D01*
X124100000Y-112557200D02*
X124195238Y-112604819D01*
X124195238Y-112604819D02*
X124385714Y-112604819D01*
X124385714Y-112604819D02*
X124480952Y-112557200D01*
X124480952Y-112557200D02*
X124528571Y-112461961D01*
X124528571Y-112461961D02*
X124528571Y-112414342D01*
X124528571Y-112414342D02*
X124480952Y-112319104D01*
X124480952Y-112319104D02*
X124385714Y-112271485D01*
X124385714Y-112271485D02*
X124242857Y-112271485D01*
X124242857Y-112271485D02*
X124147619Y-112223866D01*
X124147619Y-112223866D02*
X124100000Y-112128628D01*
X124100000Y-112128628D02*
X124100000Y-112081009D01*
X124100000Y-112081009D02*
X124147619Y-111985771D01*
X124147619Y-111985771D02*
X124242857Y-111938152D01*
X124242857Y-111938152D02*
X124385714Y-111938152D01*
X124385714Y-111938152D02*
X124480952Y-111985771D01*
X125100000Y-112604819D02*
X125004762Y-112557200D01*
X125004762Y-112557200D02*
X124957143Y-112509580D01*
X124957143Y-112509580D02*
X124909524Y-112414342D01*
X124909524Y-112414342D02*
X124909524Y-112128628D01*
X124909524Y-112128628D02*
X124957143Y-112033390D01*
X124957143Y-112033390D02*
X125004762Y-111985771D01*
X125004762Y-111985771D02*
X125100000Y-111938152D01*
X125100000Y-111938152D02*
X125242857Y-111938152D01*
X125242857Y-111938152D02*
X125338095Y-111985771D01*
X125338095Y-111985771D02*
X125385714Y-112033390D01*
X125385714Y-112033390D02*
X125433333Y-112128628D01*
X125433333Y-112128628D02*
X125433333Y-112414342D01*
X125433333Y-112414342D02*
X125385714Y-112509580D01*
X125385714Y-112509580D02*
X125338095Y-112557200D01*
X125338095Y-112557200D02*
X125242857Y-112604819D01*
X125242857Y-112604819D02*
X125100000Y-112604819D01*
X125861905Y-112604819D02*
X125861905Y-111938152D01*
X125861905Y-112128628D02*
X125909524Y-112033390D01*
X125909524Y-112033390D02*
X125957143Y-111985771D01*
X125957143Y-111985771D02*
X126052381Y-111938152D01*
X126052381Y-111938152D02*
X126147619Y-111938152D01*
X126861905Y-112557200D02*
X126766667Y-112604819D01*
X126766667Y-112604819D02*
X126576191Y-112604819D01*
X126576191Y-112604819D02*
X126480953Y-112557200D01*
X126480953Y-112557200D02*
X126433334Y-112461961D01*
X126433334Y-112461961D02*
X126433334Y-112081009D01*
X126433334Y-112081009D02*
X126480953Y-111985771D01*
X126480953Y-111985771D02*
X126576191Y-111938152D01*
X126576191Y-111938152D02*
X126766667Y-111938152D01*
X126766667Y-111938152D02*
X126861905Y-111985771D01*
X126861905Y-111985771D02*
X126909524Y-112081009D01*
X126909524Y-112081009D02*
X126909524Y-112176247D01*
X126909524Y-112176247D02*
X126433334Y-112271485D01*
X127290477Y-112557200D02*
X127385715Y-112604819D01*
X127385715Y-112604819D02*
X127576191Y-112604819D01*
X127576191Y-112604819D02*
X127671429Y-112557200D01*
X127671429Y-112557200D02*
X127719048Y-112461961D01*
X127719048Y-112461961D02*
X127719048Y-112414342D01*
X127719048Y-112414342D02*
X127671429Y-112319104D01*
X127671429Y-112319104D02*
X127576191Y-112271485D01*
X127576191Y-112271485D02*
X127433334Y-112271485D01*
X127433334Y-112271485D02*
X127338096Y-112223866D01*
X127338096Y-112223866D02*
X127290477Y-112128628D01*
X127290477Y-112128628D02*
X127290477Y-112081009D01*
X127290477Y-112081009D02*
X127338096Y-111985771D01*
X127338096Y-111985771D02*
X127433334Y-111938152D01*
X127433334Y-111938152D02*
X127576191Y-111938152D01*
X127576191Y-111938152D02*
X127671429Y-111985771D01*
X128671429Y-112604819D02*
X128100001Y-112604819D01*
X128385715Y-112604819D02*
X128385715Y-111604819D01*
X128385715Y-111604819D02*
X128290477Y-111747676D01*
X128290477Y-111747676D02*
X128195239Y-111842914D01*
X128195239Y-111842914D02*
X128100001Y-111890533D01*
X150938095Y-96004819D02*
X150938095Y-95004819D01*
X150938095Y-95481009D02*
X151509523Y-95481009D01*
X151509523Y-96004819D02*
X151509523Y-95004819D01*
X152509523Y-96004819D02*
X151938095Y-96004819D01*
X152223809Y-96004819D02*
X152223809Y-95004819D01*
X152223809Y-95004819D02*
X152128571Y-95147676D01*
X152128571Y-95147676D02*
X152033333Y-95242914D01*
X152033333Y-95242914D02*
X151938095Y-95290533D01*
X150284819Y-125266666D02*
X149808628Y-125599999D01*
X150284819Y-125838094D02*
X149284819Y-125838094D01*
X149284819Y-125838094D02*
X149284819Y-125457142D01*
X149284819Y-125457142D02*
X149332438Y-125361904D01*
X149332438Y-125361904D02*
X149380057Y-125314285D01*
X149380057Y-125314285D02*
X149475295Y-125266666D01*
X149475295Y-125266666D02*
X149618152Y-125266666D01*
X149618152Y-125266666D02*
X149713390Y-125314285D01*
X149713390Y-125314285D02*
X149761009Y-125361904D01*
X149761009Y-125361904D02*
X149808628Y-125457142D01*
X149808628Y-125457142D02*
X149808628Y-125838094D01*
X150284819Y-124314285D02*
X150284819Y-124885713D01*
X150284819Y-124599999D02*
X149284819Y-124599999D01*
X149284819Y-124599999D02*
X149427676Y-124695237D01*
X149427676Y-124695237D02*
X149522914Y-124790475D01*
X149522914Y-124790475D02*
X149570533Y-124885713D01*
X154928152Y-150120952D02*
X155594819Y-150120952D01*
X155023390Y-150120952D02*
X154975771Y-150073333D01*
X154975771Y-150073333D02*
X154928152Y-149978095D01*
X154928152Y-149978095D02*
X154928152Y-149835238D01*
X154928152Y-149835238D02*
X154975771Y-149740000D01*
X154975771Y-149740000D02*
X155071009Y-149692381D01*
X155071009Y-149692381D02*
X155594819Y-149692381D01*
X155547200Y-148835238D02*
X155594819Y-148930476D01*
X155594819Y-148930476D02*
X155594819Y-149120952D01*
X155594819Y-149120952D02*
X155547200Y-149216190D01*
X155547200Y-149216190D02*
X155451961Y-149263809D01*
X155451961Y-149263809D02*
X155071009Y-149263809D01*
X155071009Y-149263809D02*
X154975771Y-149216190D01*
X154975771Y-149216190D02*
X154928152Y-149120952D01*
X154928152Y-149120952D02*
X154928152Y-148930476D01*
X154928152Y-148930476D02*
X154975771Y-148835238D01*
X154975771Y-148835238D02*
X155071009Y-148787619D01*
X155071009Y-148787619D02*
X155166247Y-148787619D01*
X155166247Y-148787619D02*
X155261485Y-149263809D01*
X154928152Y-147930476D02*
X155737676Y-147930476D01*
X155737676Y-147930476D02*
X155832914Y-147978095D01*
X155832914Y-147978095D02*
X155880533Y-148025714D01*
X155880533Y-148025714D02*
X155928152Y-148120952D01*
X155928152Y-148120952D02*
X155928152Y-148263809D01*
X155928152Y-148263809D02*
X155880533Y-148359047D01*
X155547200Y-147930476D02*
X155594819Y-148025714D01*
X155594819Y-148025714D02*
X155594819Y-148216190D01*
X155594819Y-148216190D02*
X155547200Y-148311428D01*
X155547200Y-148311428D02*
X155499580Y-148359047D01*
X155499580Y-148359047D02*
X155404342Y-148406666D01*
X155404342Y-148406666D02*
X155118628Y-148406666D01*
X155118628Y-148406666D02*
X155023390Y-148359047D01*
X155023390Y-148359047D02*
X154975771Y-148311428D01*
X154975771Y-148311428D02*
X154928152Y-148216190D01*
X154928152Y-148216190D02*
X154928152Y-148025714D01*
X154928152Y-148025714D02*
X154975771Y-147930476D01*
X155594819Y-147025714D02*
X155071009Y-147025714D01*
X155071009Y-147025714D02*
X154975771Y-147073333D01*
X154975771Y-147073333D02*
X154928152Y-147168571D01*
X154928152Y-147168571D02*
X154928152Y-147359047D01*
X154928152Y-147359047D02*
X154975771Y-147454285D01*
X155547200Y-147025714D02*
X155594819Y-147120952D01*
X155594819Y-147120952D02*
X155594819Y-147359047D01*
X155594819Y-147359047D02*
X155547200Y-147454285D01*
X155547200Y-147454285D02*
X155451961Y-147501904D01*
X155451961Y-147501904D02*
X155356723Y-147501904D01*
X155356723Y-147501904D02*
X155261485Y-147454285D01*
X155261485Y-147454285D02*
X155213866Y-147359047D01*
X155213866Y-147359047D02*
X155213866Y-147120952D01*
X155213866Y-147120952D02*
X155166247Y-147025714D01*
X154928152Y-146692380D02*
X154928152Y-146311428D01*
X154594819Y-146549523D02*
X155451961Y-146549523D01*
X155451961Y-146549523D02*
X155547200Y-146501904D01*
X155547200Y-146501904D02*
X155594819Y-146406666D01*
X155594819Y-146406666D02*
X155594819Y-146311428D01*
X155594819Y-145978094D02*
X154928152Y-145978094D01*
X154594819Y-145978094D02*
X154642438Y-146025713D01*
X154642438Y-146025713D02*
X154690057Y-145978094D01*
X154690057Y-145978094D02*
X154642438Y-145930475D01*
X154642438Y-145930475D02*
X154594819Y-145978094D01*
X154594819Y-145978094D02*
X154690057Y-145978094D01*
X154928152Y-145597142D02*
X155594819Y-145359047D01*
X155594819Y-145359047D02*
X154928152Y-145120952D01*
X155594819Y-144597142D02*
X155547200Y-144692380D01*
X155547200Y-144692380D02*
X155499580Y-144739999D01*
X155499580Y-144739999D02*
X155404342Y-144787618D01*
X155404342Y-144787618D02*
X155118628Y-144787618D01*
X155118628Y-144787618D02*
X155023390Y-144739999D01*
X155023390Y-144739999D02*
X154975771Y-144692380D01*
X154975771Y-144692380D02*
X154928152Y-144597142D01*
X154928152Y-144597142D02*
X154928152Y-144454285D01*
X154928152Y-144454285D02*
X154975771Y-144359047D01*
X154975771Y-144359047D02*
X155023390Y-144311428D01*
X155023390Y-144311428D02*
X155118628Y-144263809D01*
X155118628Y-144263809D02*
X155404342Y-144263809D01*
X155404342Y-144263809D02*
X155499580Y-144311428D01*
X155499580Y-144311428D02*
X155547200Y-144359047D01*
X155547200Y-144359047D02*
X155594819Y-144454285D01*
X155594819Y-144454285D02*
X155594819Y-144597142D01*
X155594819Y-143311428D02*
X155594819Y-143882856D01*
X155594819Y-143597142D02*
X154594819Y-143597142D01*
X154594819Y-143597142D02*
X154737676Y-143692380D01*
X154737676Y-143692380D02*
X154832914Y-143787618D01*
X154832914Y-143787618D02*
X154880533Y-143882856D01*
X150484819Y-128891666D02*
X150008628Y-129224999D01*
X150484819Y-129463094D02*
X149484819Y-129463094D01*
X149484819Y-129463094D02*
X149484819Y-129082142D01*
X149484819Y-129082142D02*
X149532438Y-128986904D01*
X149532438Y-128986904D02*
X149580057Y-128939285D01*
X149580057Y-128939285D02*
X149675295Y-128891666D01*
X149675295Y-128891666D02*
X149818152Y-128891666D01*
X149818152Y-128891666D02*
X149913390Y-128939285D01*
X149913390Y-128939285D02*
X149961009Y-128986904D01*
X149961009Y-128986904D02*
X150008628Y-129082142D01*
X150008628Y-129082142D02*
X150008628Y-129463094D01*
X149580057Y-128510713D02*
X149532438Y-128463094D01*
X149532438Y-128463094D02*
X149484819Y-128367856D01*
X149484819Y-128367856D02*
X149484819Y-128129761D01*
X149484819Y-128129761D02*
X149532438Y-128034523D01*
X149532438Y-128034523D02*
X149580057Y-127986904D01*
X149580057Y-127986904D02*
X149675295Y-127939285D01*
X149675295Y-127939285D02*
X149770533Y-127939285D01*
X149770533Y-127939285D02*
X149913390Y-127986904D01*
X149913390Y-127986904D02*
X150484819Y-128558332D01*
X150484819Y-128558332D02*
X150484819Y-127939285D01*
X147524819Y-123495238D02*
X147477200Y-123590476D01*
X147477200Y-123590476D02*
X147381961Y-123638095D01*
X147381961Y-123638095D02*
X146524819Y-123638095D01*
X147477200Y-122733333D02*
X147524819Y-122828571D01*
X147524819Y-122828571D02*
X147524819Y-123019047D01*
X147524819Y-123019047D02*
X147477200Y-123114285D01*
X147477200Y-123114285D02*
X147381961Y-123161904D01*
X147381961Y-123161904D02*
X147001009Y-123161904D01*
X147001009Y-123161904D02*
X146905771Y-123114285D01*
X146905771Y-123114285D02*
X146858152Y-123019047D01*
X146858152Y-123019047D02*
X146858152Y-122828571D01*
X146858152Y-122828571D02*
X146905771Y-122733333D01*
X146905771Y-122733333D02*
X147001009Y-122685714D01*
X147001009Y-122685714D02*
X147096247Y-122685714D01*
X147096247Y-122685714D02*
X147191485Y-123161904D01*
X147524819Y-121828571D02*
X146524819Y-121828571D01*
X147477200Y-121828571D02*
X147524819Y-121923809D01*
X147524819Y-121923809D02*
X147524819Y-122114285D01*
X147524819Y-122114285D02*
X147477200Y-122209523D01*
X147477200Y-122209523D02*
X147429580Y-122257142D01*
X147429580Y-122257142D02*
X147334342Y-122304761D01*
X147334342Y-122304761D02*
X147048628Y-122304761D01*
X147048628Y-122304761D02*
X146953390Y-122257142D01*
X146953390Y-122257142D02*
X146905771Y-122209523D01*
X146905771Y-122209523D02*
X146858152Y-122114285D01*
X146858152Y-122114285D02*
X146858152Y-121923809D01*
X146858152Y-121923809D02*
X146905771Y-121828571D01*
X146524819Y-120876190D02*
X146524819Y-121352380D01*
X146524819Y-121352380D02*
X147001009Y-121399999D01*
X147001009Y-121399999D02*
X146953390Y-121352380D01*
X146953390Y-121352380D02*
X146905771Y-121257142D01*
X146905771Y-121257142D02*
X146905771Y-121019047D01*
X146905771Y-121019047D02*
X146953390Y-120923809D01*
X146953390Y-120923809D02*
X147001009Y-120876190D01*
X147001009Y-120876190D02*
X147096247Y-120828571D01*
X147096247Y-120828571D02*
X147334342Y-120828571D01*
X147334342Y-120828571D02*
X147429580Y-120876190D01*
X147429580Y-120876190D02*
X147477200Y-120923809D01*
X147477200Y-120923809D02*
X147524819Y-121019047D01*
X147524819Y-121019047D02*
X147524819Y-121257142D01*
X147524819Y-121257142D02*
X147477200Y-121352380D01*
X147477200Y-121352380D02*
X147429580Y-121399999D01*
X146858152Y-120495237D02*
X147524819Y-120257142D01*
X147524819Y-120257142D02*
X146858152Y-120019047D01*
X147524819Y-119114285D02*
X147524819Y-119685713D01*
X147524819Y-119399999D02*
X146524819Y-119399999D01*
X146524819Y-119399999D02*
X146667676Y-119495237D01*
X146667676Y-119495237D02*
X146762914Y-119590475D01*
X146762914Y-119590475D02*
X146810533Y-119685713D01*
X126524819Y-120851190D02*
X126048628Y-121184523D01*
X126524819Y-121422618D02*
X125524819Y-121422618D01*
X125524819Y-121422618D02*
X125524819Y-121041666D01*
X125524819Y-121041666D02*
X125572438Y-120946428D01*
X125572438Y-120946428D02*
X125620057Y-120898809D01*
X125620057Y-120898809D02*
X125715295Y-120851190D01*
X125715295Y-120851190D02*
X125858152Y-120851190D01*
X125858152Y-120851190D02*
X125953390Y-120898809D01*
X125953390Y-120898809D02*
X126001009Y-120946428D01*
X126001009Y-120946428D02*
X126048628Y-121041666D01*
X126048628Y-121041666D02*
X126048628Y-121422618D01*
X126524819Y-119898809D02*
X126524819Y-120470237D01*
X126524819Y-120184523D02*
X125524819Y-120184523D01*
X125524819Y-120184523D02*
X125667676Y-120279761D01*
X125667676Y-120279761D02*
X125762914Y-120374999D01*
X125762914Y-120374999D02*
X125810533Y-120470237D01*
X126524819Y-118946428D02*
X126524819Y-119517856D01*
X126524819Y-119232142D02*
X125524819Y-119232142D01*
X125524819Y-119232142D02*
X125667676Y-119327380D01*
X125667676Y-119327380D02*
X125762914Y-119422618D01*
X125762914Y-119422618D02*
X125810533Y-119517856D01*
X125620057Y-118565475D02*
X125572438Y-118517856D01*
X125572438Y-118517856D02*
X125524819Y-118422618D01*
X125524819Y-118422618D02*
X125524819Y-118184523D01*
X125524819Y-118184523D02*
X125572438Y-118089285D01*
X125572438Y-118089285D02*
X125620057Y-118041666D01*
X125620057Y-118041666D02*
X125715295Y-117994047D01*
X125715295Y-117994047D02*
X125810533Y-117994047D01*
X125810533Y-117994047D02*
X125953390Y-118041666D01*
X125953390Y-118041666D02*
X126524819Y-118613094D01*
X126524819Y-118613094D02*
X126524819Y-117994047D01*
X125524819Y-117374999D02*
X125524819Y-117279761D01*
X125524819Y-117279761D02*
X125572438Y-117184523D01*
X125572438Y-117184523D02*
X125620057Y-117136904D01*
X125620057Y-117136904D02*
X125715295Y-117089285D01*
X125715295Y-117089285D02*
X125905771Y-117041666D01*
X125905771Y-117041666D02*
X126143866Y-117041666D01*
X126143866Y-117041666D02*
X126334342Y-117089285D01*
X126334342Y-117089285D02*
X126429580Y-117136904D01*
X126429580Y-117136904D02*
X126477200Y-117184523D01*
X126477200Y-117184523D02*
X126524819Y-117279761D01*
X126524819Y-117279761D02*
X126524819Y-117374999D01*
X126524819Y-117374999D02*
X126477200Y-117470237D01*
X126477200Y-117470237D02*
X126429580Y-117517856D01*
X126429580Y-117517856D02*
X126334342Y-117565475D01*
X126334342Y-117565475D02*
X126143866Y-117613094D01*
X126143866Y-117613094D02*
X125905771Y-117613094D01*
X125905771Y-117613094D02*
X125715295Y-117565475D01*
X125715295Y-117565475D02*
X125620057Y-117517856D01*
X125620057Y-117517856D02*
X125572438Y-117470237D01*
X125572438Y-117470237D02*
X125524819Y-117374999D01*
X126524819Y-116613094D02*
X125524819Y-116613094D01*
X126143866Y-116517856D02*
X126524819Y-116232142D01*
X125858152Y-116232142D02*
X126239104Y-116613094D01*
X126524819Y-115279761D02*
X126524819Y-115851189D01*
X126524819Y-115565475D02*
X125524819Y-115565475D01*
X125524819Y-115565475D02*
X125667676Y-115660713D01*
X125667676Y-115660713D02*
X125762914Y-115755951D01*
X125762914Y-115755951D02*
X125810533Y-115851189D01*
X143829580Y-130866666D02*
X143877200Y-130914285D01*
X143877200Y-130914285D02*
X143924819Y-131057142D01*
X143924819Y-131057142D02*
X143924819Y-131152380D01*
X143924819Y-131152380D02*
X143877200Y-131295237D01*
X143877200Y-131295237D02*
X143781961Y-131390475D01*
X143781961Y-131390475D02*
X143686723Y-131438094D01*
X143686723Y-131438094D02*
X143496247Y-131485713D01*
X143496247Y-131485713D02*
X143353390Y-131485713D01*
X143353390Y-131485713D02*
X143162914Y-131438094D01*
X143162914Y-131438094D02*
X143067676Y-131390475D01*
X143067676Y-131390475D02*
X142972438Y-131295237D01*
X142972438Y-131295237D02*
X142924819Y-131152380D01*
X142924819Y-131152380D02*
X142924819Y-131057142D01*
X142924819Y-131057142D02*
X142972438Y-130914285D01*
X142972438Y-130914285D02*
X143020057Y-130866666D01*
X142924819Y-129961904D02*
X142924819Y-130438094D01*
X142924819Y-130438094D02*
X143401009Y-130485713D01*
X143401009Y-130485713D02*
X143353390Y-130438094D01*
X143353390Y-130438094D02*
X143305771Y-130342856D01*
X143305771Y-130342856D02*
X143305771Y-130104761D01*
X143305771Y-130104761D02*
X143353390Y-130009523D01*
X143353390Y-130009523D02*
X143401009Y-129961904D01*
X143401009Y-129961904D02*
X143496247Y-129914285D01*
X143496247Y-129914285D02*
X143734342Y-129914285D01*
X143734342Y-129914285D02*
X143829580Y-129961904D01*
X143829580Y-129961904D02*
X143877200Y-130009523D01*
X143877200Y-130009523D02*
X143924819Y-130104761D01*
X143924819Y-130104761D02*
X143924819Y-130342856D01*
X143924819Y-130342856D02*
X143877200Y-130438094D01*
X143877200Y-130438094D02*
X143829580Y-130485713D01*
X145189580Y-122066666D02*
X145237200Y-122114285D01*
X145237200Y-122114285D02*
X145284819Y-122257142D01*
X145284819Y-122257142D02*
X145284819Y-122352380D01*
X145284819Y-122352380D02*
X145237200Y-122495237D01*
X145237200Y-122495237D02*
X145141961Y-122590475D01*
X145141961Y-122590475D02*
X145046723Y-122638094D01*
X145046723Y-122638094D02*
X144856247Y-122685713D01*
X144856247Y-122685713D02*
X144713390Y-122685713D01*
X144713390Y-122685713D02*
X144522914Y-122638094D01*
X144522914Y-122638094D02*
X144427676Y-122590475D01*
X144427676Y-122590475D02*
X144332438Y-122495237D01*
X144332438Y-122495237D02*
X144284819Y-122352380D01*
X144284819Y-122352380D02*
X144284819Y-122257142D01*
X144284819Y-122257142D02*
X144332438Y-122114285D01*
X144332438Y-122114285D02*
X144380057Y-122066666D01*
X144284819Y-121733332D02*
X144284819Y-121066666D01*
X144284819Y-121066666D02*
X145284819Y-121495237D01*
X126784819Y-111591666D02*
X126308628Y-111924999D01*
X126784819Y-112163094D02*
X125784819Y-112163094D01*
X125784819Y-112163094D02*
X125784819Y-111782142D01*
X125784819Y-111782142D02*
X125832438Y-111686904D01*
X125832438Y-111686904D02*
X125880057Y-111639285D01*
X125880057Y-111639285D02*
X125975295Y-111591666D01*
X125975295Y-111591666D02*
X126118152Y-111591666D01*
X126118152Y-111591666D02*
X126213390Y-111639285D01*
X126213390Y-111639285D02*
X126261009Y-111686904D01*
X126261009Y-111686904D02*
X126308628Y-111782142D01*
X126308628Y-111782142D02*
X126308628Y-112163094D01*
X125784819Y-111258332D02*
X125784819Y-110591666D01*
X125784819Y-110591666D02*
X126784819Y-111020237D01*
X147459580Y-144941666D02*
X147507200Y-144989285D01*
X147507200Y-144989285D02*
X147554819Y-145132142D01*
X147554819Y-145132142D02*
X147554819Y-145227380D01*
X147554819Y-145227380D02*
X147507200Y-145370237D01*
X147507200Y-145370237D02*
X147411961Y-145465475D01*
X147411961Y-145465475D02*
X147316723Y-145513094D01*
X147316723Y-145513094D02*
X147126247Y-145560713D01*
X147126247Y-145560713D02*
X146983390Y-145560713D01*
X146983390Y-145560713D02*
X146792914Y-145513094D01*
X146792914Y-145513094D02*
X146697676Y-145465475D01*
X146697676Y-145465475D02*
X146602438Y-145370237D01*
X146602438Y-145370237D02*
X146554819Y-145227380D01*
X146554819Y-145227380D02*
X146554819Y-145132142D01*
X146554819Y-145132142D02*
X146602438Y-144989285D01*
X146602438Y-144989285D02*
X146650057Y-144941666D01*
X146888152Y-144084523D02*
X147554819Y-144084523D01*
X146507200Y-144322618D02*
X147221485Y-144560713D01*
X147221485Y-144560713D02*
X147221485Y-143941666D01*
X128424819Y-120851190D02*
X127948628Y-121184523D01*
X128424819Y-121422618D02*
X127424819Y-121422618D01*
X127424819Y-121422618D02*
X127424819Y-121041666D01*
X127424819Y-121041666D02*
X127472438Y-120946428D01*
X127472438Y-120946428D02*
X127520057Y-120898809D01*
X127520057Y-120898809D02*
X127615295Y-120851190D01*
X127615295Y-120851190D02*
X127758152Y-120851190D01*
X127758152Y-120851190D02*
X127853390Y-120898809D01*
X127853390Y-120898809D02*
X127901009Y-120946428D01*
X127901009Y-120946428D02*
X127948628Y-121041666D01*
X127948628Y-121041666D02*
X127948628Y-121422618D01*
X128424819Y-119898809D02*
X128424819Y-120470237D01*
X128424819Y-120184523D02*
X127424819Y-120184523D01*
X127424819Y-120184523D02*
X127567676Y-120279761D01*
X127567676Y-120279761D02*
X127662914Y-120374999D01*
X127662914Y-120374999D02*
X127710533Y-120470237D01*
X127520057Y-119517856D02*
X127472438Y-119470237D01*
X127472438Y-119470237D02*
X127424819Y-119374999D01*
X127424819Y-119374999D02*
X127424819Y-119136904D01*
X127424819Y-119136904D02*
X127472438Y-119041666D01*
X127472438Y-119041666D02*
X127520057Y-118994047D01*
X127520057Y-118994047D02*
X127615295Y-118946428D01*
X127615295Y-118946428D02*
X127710533Y-118946428D01*
X127710533Y-118946428D02*
X127853390Y-118994047D01*
X127853390Y-118994047D02*
X128424819Y-119565475D01*
X128424819Y-119565475D02*
X128424819Y-118946428D01*
X128424819Y-117994047D02*
X128424819Y-118565475D01*
X128424819Y-118279761D02*
X127424819Y-118279761D01*
X127424819Y-118279761D02*
X127567676Y-118374999D01*
X127567676Y-118374999D02*
X127662914Y-118470237D01*
X127662914Y-118470237D02*
X127710533Y-118565475D01*
X127424819Y-117374999D02*
X127424819Y-117279761D01*
X127424819Y-117279761D02*
X127472438Y-117184523D01*
X127472438Y-117184523D02*
X127520057Y-117136904D01*
X127520057Y-117136904D02*
X127615295Y-117089285D01*
X127615295Y-117089285D02*
X127805771Y-117041666D01*
X127805771Y-117041666D02*
X128043866Y-117041666D01*
X128043866Y-117041666D02*
X128234342Y-117089285D01*
X128234342Y-117089285D02*
X128329580Y-117136904D01*
X128329580Y-117136904D02*
X128377200Y-117184523D01*
X128377200Y-117184523D02*
X128424819Y-117279761D01*
X128424819Y-117279761D02*
X128424819Y-117374999D01*
X128424819Y-117374999D02*
X128377200Y-117470237D01*
X128377200Y-117470237D02*
X128329580Y-117517856D01*
X128329580Y-117517856D02*
X128234342Y-117565475D01*
X128234342Y-117565475D02*
X128043866Y-117613094D01*
X128043866Y-117613094D02*
X127805771Y-117613094D01*
X127805771Y-117613094D02*
X127615295Y-117565475D01*
X127615295Y-117565475D02*
X127520057Y-117517856D01*
X127520057Y-117517856D02*
X127472438Y-117470237D01*
X127472438Y-117470237D02*
X127424819Y-117374999D01*
X128424819Y-116613094D02*
X127424819Y-116613094D01*
X128043866Y-116517856D02*
X128424819Y-116232142D01*
X127758152Y-116232142D02*
X128139104Y-116613094D01*
X128424819Y-115279761D02*
X128424819Y-115851189D01*
X128424819Y-115565475D02*
X127424819Y-115565475D01*
X127424819Y-115565475D02*
X127567676Y-115660713D01*
X127567676Y-115660713D02*
X127662914Y-115755951D01*
X127662914Y-115755951D02*
X127710533Y-115851189D01*
X128384819Y-142401190D02*
X127908628Y-142734523D01*
X128384819Y-142972618D02*
X127384819Y-142972618D01*
X127384819Y-142972618D02*
X127384819Y-142591666D01*
X127384819Y-142591666D02*
X127432438Y-142496428D01*
X127432438Y-142496428D02*
X127480057Y-142448809D01*
X127480057Y-142448809D02*
X127575295Y-142401190D01*
X127575295Y-142401190D02*
X127718152Y-142401190D01*
X127718152Y-142401190D02*
X127813390Y-142448809D01*
X127813390Y-142448809D02*
X127861009Y-142496428D01*
X127861009Y-142496428D02*
X127908628Y-142591666D01*
X127908628Y-142591666D02*
X127908628Y-142972618D01*
X127480057Y-142020237D02*
X127432438Y-141972618D01*
X127432438Y-141972618D02*
X127384819Y-141877380D01*
X127384819Y-141877380D02*
X127384819Y-141639285D01*
X127384819Y-141639285D02*
X127432438Y-141544047D01*
X127432438Y-141544047D02*
X127480057Y-141496428D01*
X127480057Y-141496428D02*
X127575295Y-141448809D01*
X127575295Y-141448809D02*
X127670533Y-141448809D01*
X127670533Y-141448809D02*
X127813390Y-141496428D01*
X127813390Y-141496428D02*
X128384819Y-142067856D01*
X128384819Y-142067856D02*
X128384819Y-141448809D01*
X127384819Y-140591666D02*
X127384819Y-140782142D01*
X127384819Y-140782142D02*
X127432438Y-140877380D01*
X127432438Y-140877380D02*
X127480057Y-140924999D01*
X127480057Y-140924999D02*
X127622914Y-141020237D01*
X127622914Y-141020237D02*
X127813390Y-141067856D01*
X127813390Y-141067856D02*
X128194342Y-141067856D01*
X128194342Y-141067856D02*
X128289580Y-141020237D01*
X128289580Y-141020237D02*
X128337200Y-140972618D01*
X128337200Y-140972618D02*
X128384819Y-140877380D01*
X128384819Y-140877380D02*
X128384819Y-140686904D01*
X128384819Y-140686904D02*
X128337200Y-140591666D01*
X128337200Y-140591666D02*
X128289580Y-140544047D01*
X128289580Y-140544047D02*
X128194342Y-140496428D01*
X128194342Y-140496428D02*
X127956247Y-140496428D01*
X127956247Y-140496428D02*
X127861009Y-140544047D01*
X127861009Y-140544047D02*
X127813390Y-140591666D01*
X127813390Y-140591666D02*
X127765771Y-140686904D01*
X127765771Y-140686904D02*
X127765771Y-140877380D01*
X127765771Y-140877380D02*
X127813390Y-140972618D01*
X127813390Y-140972618D02*
X127861009Y-141020237D01*
X127861009Y-141020237D02*
X127956247Y-141067856D01*
X128384819Y-139544047D02*
X128384819Y-140115475D01*
X128384819Y-139829761D02*
X127384819Y-139829761D01*
X127384819Y-139829761D02*
X127527676Y-139924999D01*
X127527676Y-139924999D02*
X127622914Y-140020237D01*
X127622914Y-140020237D02*
X127670533Y-140115475D01*
X127384819Y-138924999D02*
X127384819Y-138829761D01*
X127384819Y-138829761D02*
X127432438Y-138734523D01*
X127432438Y-138734523D02*
X127480057Y-138686904D01*
X127480057Y-138686904D02*
X127575295Y-138639285D01*
X127575295Y-138639285D02*
X127765771Y-138591666D01*
X127765771Y-138591666D02*
X128003866Y-138591666D01*
X128003866Y-138591666D02*
X128194342Y-138639285D01*
X128194342Y-138639285D02*
X128289580Y-138686904D01*
X128289580Y-138686904D02*
X128337200Y-138734523D01*
X128337200Y-138734523D02*
X128384819Y-138829761D01*
X128384819Y-138829761D02*
X128384819Y-138924999D01*
X128384819Y-138924999D02*
X128337200Y-139020237D01*
X128337200Y-139020237D02*
X128289580Y-139067856D01*
X128289580Y-139067856D02*
X128194342Y-139115475D01*
X128194342Y-139115475D02*
X128003866Y-139163094D01*
X128003866Y-139163094D02*
X127765771Y-139163094D01*
X127765771Y-139163094D02*
X127575295Y-139115475D01*
X127575295Y-139115475D02*
X127480057Y-139067856D01*
X127480057Y-139067856D02*
X127432438Y-139020237D01*
X127432438Y-139020237D02*
X127384819Y-138924999D01*
X128384819Y-138163094D02*
X127384819Y-138163094D01*
X128003866Y-138067856D02*
X128384819Y-137782142D01*
X127718152Y-137782142D02*
X128099104Y-138163094D01*
X128384819Y-136829761D02*
X128384819Y-137401189D01*
X128384819Y-137115475D02*
X127384819Y-137115475D01*
X127384819Y-137115475D02*
X127527676Y-137210713D01*
X127527676Y-137210713D02*
X127622914Y-137305951D01*
X127622914Y-137305951D02*
X127670533Y-137401189D01*
X144021428Y-114554819D02*
X143688095Y-114078628D01*
X143450000Y-114554819D02*
X143450000Y-113554819D01*
X143450000Y-113554819D02*
X143830952Y-113554819D01*
X143830952Y-113554819D02*
X143926190Y-113602438D01*
X143926190Y-113602438D02*
X143973809Y-113650057D01*
X143973809Y-113650057D02*
X144021428Y-113745295D01*
X144021428Y-113745295D02*
X144021428Y-113888152D01*
X144021428Y-113888152D02*
X143973809Y-113983390D01*
X143973809Y-113983390D02*
X143926190Y-114031009D01*
X143926190Y-114031009D02*
X143830952Y-114078628D01*
X143830952Y-114078628D02*
X143450000Y-114078628D01*
X144450000Y-114031009D02*
X144783333Y-114031009D01*
X144926190Y-114554819D02*
X144450000Y-114554819D01*
X144450000Y-114554819D02*
X144450000Y-113554819D01*
X144450000Y-113554819D02*
X144926190Y-113554819D01*
X145307143Y-114507200D02*
X145450000Y-114554819D01*
X145450000Y-114554819D02*
X145688095Y-114554819D01*
X145688095Y-114554819D02*
X145783333Y-114507200D01*
X145783333Y-114507200D02*
X145830952Y-114459580D01*
X145830952Y-114459580D02*
X145878571Y-114364342D01*
X145878571Y-114364342D02*
X145878571Y-114269104D01*
X145878571Y-114269104D02*
X145830952Y-114173866D01*
X145830952Y-114173866D02*
X145783333Y-114126247D01*
X145783333Y-114126247D02*
X145688095Y-114078628D01*
X145688095Y-114078628D02*
X145497619Y-114031009D01*
X145497619Y-114031009D02*
X145402381Y-113983390D01*
X145402381Y-113983390D02*
X145354762Y-113935771D01*
X145354762Y-113935771D02*
X145307143Y-113840533D01*
X145307143Y-113840533D02*
X145307143Y-113745295D01*
X145307143Y-113745295D02*
X145354762Y-113650057D01*
X145354762Y-113650057D02*
X145402381Y-113602438D01*
X145402381Y-113602438D02*
X145497619Y-113554819D01*
X145497619Y-113554819D02*
X145735714Y-113554819D01*
X145735714Y-113554819D02*
X145878571Y-113602438D01*
X146307143Y-114031009D02*
X146640476Y-114031009D01*
X146783333Y-114554819D02*
X146307143Y-114554819D01*
X146307143Y-114554819D02*
X146307143Y-113554819D01*
X146307143Y-113554819D02*
X146783333Y-113554819D01*
X147069048Y-113554819D02*
X147640476Y-113554819D01*
X147354762Y-114554819D02*
X147354762Y-113554819D01*
X148497619Y-114554819D02*
X147926191Y-114554819D01*
X148211905Y-114554819D02*
X148211905Y-113554819D01*
X148211905Y-113554819D02*
X148116667Y-113697676D01*
X148116667Y-113697676D02*
X148021429Y-113792914D01*
X148021429Y-113792914D02*
X147926191Y-113840533D01*
X125638095Y-96154819D02*
X125638095Y-95154819D01*
X125638095Y-95631009D02*
X126209523Y-95631009D01*
X126209523Y-96154819D02*
X126209523Y-95154819D01*
X126638095Y-95250057D02*
X126685714Y-95202438D01*
X126685714Y-95202438D02*
X126780952Y-95154819D01*
X126780952Y-95154819D02*
X127019047Y-95154819D01*
X127019047Y-95154819D02*
X127114285Y-95202438D01*
X127114285Y-95202438D02*
X127161904Y-95250057D01*
X127161904Y-95250057D02*
X127209523Y-95345295D01*
X127209523Y-95345295D02*
X127209523Y-95440533D01*
X127209523Y-95440533D02*
X127161904Y-95583390D01*
X127161904Y-95583390D02*
X126590476Y-96154819D01*
X126590476Y-96154819D02*
X127209523Y-96154819D01*
X133916666Y-152554819D02*
X133916666Y-151554819D01*
X133916666Y-151935771D02*
X134011904Y-151888152D01*
X134011904Y-151888152D02*
X134202380Y-151888152D01*
X134202380Y-151888152D02*
X134297618Y-151935771D01*
X134297618Y-151935771D02*
X134345237Y-151983390D01*
X134345237Y-151983390D02*
X134392856Y-152078628D01*
X134392856Y-152078628D02*
X134392856Y-152364342D01*
X134392856Y-152364342D02*
X134345237Y-152459580D01*
X134345237Y-152459580D02*
X134297618Y-152507200D01*
X134297618Y-152507200D02*
X134202380Y-152554819D01*
X134202380Y-152554819D02*
X134011904Y-152554819D01*
X134011904Y-152554819D02*
X133916666Y-152507200D01*
X134964285Y-152554819D02*
X134869047Y-152507200D01*
X134869047Y-152507200D02*
X134821428Y-152459580D01*
X134821428Y-152459580D02*
X134773809Y-152364342D01*
X134773809Y-152364342D02*
X134773809Y-152078628D01*
X134773809Y-152078628D02*
X134821428Y-151983390D01*
X134821428Y-151983390D02*
X134869047Y-151935771D01*
X134869047Y-151935771D02*
X134964285Y-151888152D01*
X134964285Y-151888152D02*
X135107142Y-151888152D01*
X135107142Y-151888152D02*
X135202380Y-151935771D01*
X135202380Y-151935771D02*
X135249999Y-151983390D01*
X135249999Y-151983390D02*
X135297618Y-152078628D01*
X135297618Y-152078628D02*
X135297618Y-152364342D01*
X135297618Y-152364342D02*
X135249999Y-152459580D01*
X135249999Y-152459580D02*
X135202380Y-152507200D01*
X135202380Y-152507200D02*
X135107142Y-152554819D01*
X135107142Y-152554819D02*
X134964285Y-152554819D01*
X135583333Y-151888152D02*
X135964285Y-151888152D01*
X135726190Y-151554819D02*
X135726190Y-152411961D01*
X135726190Y-152411961D02*
X135773809Y-152507200D01*
X135773809Y-152507200D02*
X135869047Y-152554819D01*
X135869047Y-152554819D02*
X135964285Y-152554819D01*
X136440476Y-152554819D02*
X136345238Y-152507200D01*
X136345238Y-152507200D02*
X136297619Y-152459580D01*
X136297619Y-152459580D02*
X136250000Y-152364342D01*
X136250000Y-152364342D02*
X136250000Y-152078628D01*
X136250000Y-152078628D02*
X136297619Y-151983390D01*
X136297619Y-151983390D02*
X136345238Y-151935771D01*
X136345238Y-151935771D02*
X136440476Y-151888152D01*
X136440476Y-151888152D02*
X136583333Y-151888152D01*
X136583333Y-151888152D02*
X136678571Y-151935771D01*
X136678571Y-151935771D02*
X136726190Y-151983390D01*
X136726190Y-151983390D02*
X136773809Y-152078628D01*
X136773809Y-152078628D02*
X136773809Y-152364342D01*
X136773809Y-152364342D02*
X136726190Y-152459580D01*
X136726190Y-152459580D02*
X136678571Y-152507200D01*
X136678571Y-152507200D02*
X136583333Y-152554819D01*
X136583333Y-152554819D02*
X136440476Y-152554819D01*
X137202381Y-151888152D02*
X137202381Y-152554819D01*
X137202381Y-151983390D02*
X137250000Y-151935771D01*
X137250000Y-151935771D02*
X137345238Y-151888152D01*
X137345238Y-151888152D02*
X137488095Y-151888152D01*
X137488095Y-151888152D02*
X137583333Y-151935771D01*
X137583333Y-151935771D02*
X137630952Y-152031009D01*
X137630952Y-152031009D02*
X137630952Y-152554819D01*
X138630952Y-152554819D02*
X138059524Y-152554819D01*
X138345238Y-152554819D02*
X138345238Y-151554819D01*
X138345238Y-151554819D02*
X138250000Y-151697676D01*
X138250000Y-151697676D02*
X138154762Y-151792914D01*
X138154762Y-151792914D02*
X138059524Y-151840533D01*
X147359580Y-139341666D02*
X147407200Y-139389285D01*
X147407200Y-139389285D02*
X147454819Y-139532142D01*
X147454819Y-139532142D02*
X147454819Y-139627380D01*
X147454819Y-139627380D02*
X147407200Y-139770237D01*
X147407200Y-139770237D02*
X147311961Y-139865475D01*
X147311961Y-139865475D02*
X147216723Y-139913094D01*
X147216723Y-139913094D02*
X147026247Y-139960713D01*
X147026247Y-139960713D02*
X146883390Y-139960713D01*
X146883390Y-139960713D02*
X146692914Y-139913094D01*
X146692914Y-139913094D02*
X146597676Y-139865475D01*
X146597676Y-139865475D02*
X146502438Y-139770237D01*
X146502438Y-139770237D02*
X146454819Y-139627380D01*
X146454819Y-139627380D02*
X146454819Y-139532142D01*
X146454819Y-139532142D02*
X146502438Y-139389285D01*
X146502438Y-139389285D02*
X146550057Y-139341666D01*
X146550057Y-138960713D02*
X146502438Y-138913094D01*
X146502438Y-138913094D02*
X146454819Y-138817856D01*
X146454819Y-138817856D02*
X146454819Y-138579761D01*
X146454819Y-138579761D02*
X146502438Y-138484523D01*
X146502438Y-138484523D02*
X146550057Y-138436904D01*
X146550057Y-138436904D02*
X146645295Y-138389285D01*
X146645295Y-138389285D02*
X146740533Y-138389285D01*
X146740533Y-138389285D02*
X146883390Y-138436904D01*
X146883390Y-138436904D02*
X147454819Y-139008332D01*
X147454819Y-139008332D02*
X147454819Y-138389285D01*
X151928152Y-149882856D02*
X152928152Y-149882856D01*
X151975771Y-149882856D02*
X151928152Y-149787618D01*
X151928152Y-149787618D02*
X151928152Y-149597142D01*
X151928152Y-149597142D02*
X151975771Y-149501904D01*
X151975771Y-149501904D02*
X152023390Y-149454285D01*
X152023390Y-149454285D02*
X152118628Y-149406666D01*
X152118628Y-149406666D02*
X152404342Y-149406666D01*
X152404342Y-149406666D02*
X152499580Y-149454285D01*
X152499580Y-149454285D02*
X152547200Y-149501904D01*
X152547200Y-149501904D02*
X152594819Y-149597142D01*
X152594819Y-149597142D02*
X152594819Y-149787618D01*
X152594819Y-149787618D02*
X152547200Y-149882856D01*
X152594819Y-148835237D02*
X152547200Y-148930475D01*
X152547200Y-148930475D02*
X152499580Y-148978094D01*
X152499580Y-148978094D02*
X152404342Y-149025713D01*
X152404342Y-149025713D02*
X152118628Y-149025713D01*
X152118628Y-149025713D02*
X152023390Y-148978094D01*
X152023390Y-148978094D02*
X151975771Y-148930475D01*
X151975771Y-148930475D02*
X151928152Y-148835237D01*
X151928152Y-148835237D02*
X151928152Y-148692380D01*
X151928152Y-148692380D02*
X151975771Y-148597142D01*
X151975771Y-148597142D02*
X152023390Y-148549523D01*
X152023390Y-148549523D02*
X152118628Y-148501904D01*
X152118628Y-148501904D02*
X152404342Y-148501904D01*
X152404342Y-148501904D02*
X152499580Y-148549523D01*
X152499580Y-148549523D02*
X152547200Y-148597142D01*
X152547200Y-148597142D02*
X152594819Y-148692380D01*
X152594819Y-148692380D02*
X152594819Y-148835237D01*
X152547200Y-148120951D02*
X152594819Y-148025713D01*
X152594819Y-148025713D02*
X152594819Y-147835237D01*
X152594819Y-147835237D02*
X152547200Y-147739999D01*
X152547200Y-147739999D02*
X152451961Y-147692380D01*
X152451961Y-147692380D02*
X152404342Y-147692380D01*
X152404342Y-147692380D02*
X152309104Y-147739999D01*
X152309104Y-147739999D02*
X152261485Y-147835237D01*
X152261485Y-147835237D02*
X152261485Y-147978094D01*
X152261485Y-147978094D02*
X152213866Y-148073332D01*
X152213866Y-148073332D02*
X152118628Y-148120951D01*
X152118628Y-148120951D02*
X152071009Y-148120951D01*
X152071009Y-148120951D02*
X151975771Y-148073332D01*
X151975771Y-148073332D02*
X151928152Y-147978094D01*
X151928152Y-147978094D02*
X151928152Y-147835237D01*
X151928152Y-147835237D02*
X151975771Y-147739999D01*
X152594819Y-147263808D02*
X151928152Y-147263808D01*
X151594819Y-147263808D02*
X151642438Y-147311427D01*
X151642438Y-147311427D02*
X151690057Y-147263808D01*
X151690057Y-147263808D02*
X151642438Y-147216189D01*
X151642438Y-147216189D02*
X151594819Y-147263808D01*
X151594819Y-147263808D02*
X151690057Y-147263808D01*
X151928152Y-146930475D02*
X151928152Y-146549523D01*
X151594819Y-146787618D02*
X152451961Y-146787618D01*
X152451961Y-146787618D02*
X152547200Y-146739999D01*
X152547200Y-146739999D02*
X152594819Y-146644761D01*
X152594819Y-146644761D02*
X152594819Y-146549523D01*
X152594819Y-146216189D02*
X151928152Y-146216189D01*
X151594819Y-146216189D02*
X151642438Y-146263808D01*
X151642438Y-146263808D02*
X151690057Y-146216189D01*
X151690057Y-146216189D02*
X151642438Y-146168570D01*
X151642438Y-146168570D02*
X151594819Y-146216189D01*
X151594819Y-146216189D02*
X151690057Y-146216189D01*
X151928152Y-145835237D02*
X152594819Y-145597142D01*
X152594819Y-145597142D02*
X151928152Y-145359047D01*
X152594819Y-144835237D02*
X152547200Y-144930475D01*
X152547200Y-144930475D02*
X152499580Y-144978094D01*
X152499580Y-144978094D02*
X152404342Y-145025713D01*
X152404342Y-145025713D02*
X152118628Y-145025713D01*
X152118628Y-145025713D02*
X152023390Y-144978094D01*
X152023390Y-144978094D02*
X151975771Y-144930475D01*
X151975771Y-144930475D02*
X151928152Y-144835237D01*
X151928152Y-144835237D02*
X151928152Y-144692380D01*
X151928152Y-144692380D02*
X151975771Y-144597142D01*
X151975771Y-144597142D02*
X152023390Y-144549523D01*
X152023390Y-144549523D02*
X152118628Y-144501904D01*
X152118628Y-144501904D02*
X152404342Y-144501904D01*
X152404342Y-144501904D02*
X152499580Y-144549523D01*
X152499580Y-144549523D02*
X152547200Y-144597142D01*
X152547200Y-144597142D02*
X152594819Y-144692380D01*
X152594819Y-144692380D02*
X152594819Y-144835237D01*
X152594819Y-143549523D02*
X152594819Y-144120951D01*
X152594819Y-143835237D02*
X151594819Y-143835237D01*
X151594819Y-143835237D02*
X151737676Y-143930475D01*
X151737676Y-143930475D02*
X151832914Y-144025713D01*
X151832914Y-144025713D02*
X151880533Y-144120951D01*
X130561905Y-153904819D02*
X130561905Y-152904819D01*
X130561905Y-152904819D02*
X130800000Y-152904819D01*
X130800000Y-152904819D02*
X130942857Y-152952438D01*
X130942857Y-152952438D02*
X131038095Y-153047676D01*
X131038095Y-153047676D02*
X131085714Y-153142914D01*
X131085714Y-153142914D02*
X131133333Y-153333390D01*
X131133333Y-153333390D02*
X131133333Y-153476247D01*
X131133333Y-153476247D02*
X131085714Y-153666723D01*
X131085714Y-153666723D02*
X131038095Y-153761961D01*
X131038095Y-153761961D02*
X130942857Y-153857200D01*
X130942857Y-153857200D02*
X130800000Y-153904819D01*
X130800000Y-153904819D02*
X130561905Y-153904819D01*
X131990476Y-153238152D02*
X131990476Y-153904819D01*
X131752381Y-152857200D02*
X131514286Y-153571485D01*
X131514286Y-153571485D02*
X132133333Y-153571485D01*
D11*
X133664285Y-152240724D02*
X133235714Y-152240724D01*
X133449999Y-152240724D02*
X133449999Y-151490724D01*
X133449999Y-151490724D02*
X133378571Y-151597867D01*
X133378571Y-151597867D02*
X133307142Y-151669295D01*
X133307142Y-151669295D02*
X133235714Y-151705010D01*
D10*
X128424819Y-117851190D02*
X127948628Y-118184523D01*
X128424819Y-118422618D02*
X127424819Y-118422618D01*
X127424819Y-118422618D02*
X127424819Y-118041666D01*
X127424819Y-118041666D02*
X127472438Y-117946428D01*
X127472438Y-117946428D02*
X127520057Y-117898809D01*
X127520057Y-117898809D02*
X127615295Y-117851190D01*
X127615295Y-117851190D02*
X127758152Y-117851190D01*
X127758152Y-117851190D02*
X127853390Y-117898809D01*
X127853390Y-117898809D02*
X127901009Y-117946428D01*
X127901009Y-117946428D02*
X127948628Y-118041666D01*
X127948628Y-118041666D02*
X127948628Y-118422618D01*
X128424819Y-116898809D02*
X128424819Y-117470237D01*
X128424819Y-117184523D02*
X127424819Y-117184523D01*
X127424819Y-117184523D02*
X127567676Y-117279761D01*
X127567676Y-117279761D02*
X127662914Y-117374999D01*
X127662914Y-117374999D02*
X127710533Y-117470237D01*
X127424819Y-116279761D02*
X127424819Y-116184523D01*
X127424819Y-116184523D02*
X127472438Y-116089285D01*
X127472438Y-116089285D02*
X127520057Y-116041666D01*
X127520057Y-116041666D02*
X127615295Y-115994047D01*
X127615295Y-115994047D02*
X127805771Y-115946428D01*
X127805771Y-115946428D02*
X128043866Y-115946428D01*
X128043866Y-115946428D02*
X128234342Y-115994047D01*
X128234342Y-115994047D02*
X128329580Y-116041666D01*
X128329580Y-116041666D02*
X128377200Y-116089285D01*
X128377200Y-116089285D02*
X128424819Y-116184523D01*
X128424819Y-116184523D02*
X128424819Y-116279761D01*
X128424819Y-116279761D02*
X128377200Y-116374999D01*
X128377200Y-116374999D02*
X128329580Y-116422618D01*
X128329580Y-116422618D02*
X128234342Y-116470237D01*
X128234342Y-116470237D02*
X128043866Y-116517856D01*
X128043866Y-116517856D02*
X127805771Y-116517856D01*
X127805771Y-116517856D02*
X127615295Y-116470237D01*
X127615295Y-116470237D02*
X127520057Y-116422618D01*
X127520057Y-116422618D02*
X127472438Y-116374999D01*
X127472438Y-116374999D02*
X127424819Y-116279761D01*
X128424819Y-114994047D02*
X128424819Y-115565475D01*
X128424819Y-115279761D02*
X127424819Y-115279761D01*
X127424819Y-115279761D02*
X127567676Y-115374999D01*
X127567676Y-115374999D02*
X127662914Y-115470237D01*
X127662914Y-115470237D02*
X127710533Y-115565475D01*
X127424819Y-114374999D02*
X127424819Y-114279761D01*
X127424819Y-114279761D02*
X127472438Y-114184523D01*
X127472438Y-114184523D02*
X127520057Y-114136904D01*
X127520057Y-114136904D02*
X127615295Y-114089285D01*
X127615295Y-114089285D02*
X127805771Y-114041666D01*
X127805771Y-114041666D02*
X128043866Y-114041666D01*
X128043866Y-114041666D02*
X128234342Y-114089285D01*
X128234342Y-114089285D02*
X128329580Y-114136904D01*
X128329580Y-114136904D02*
X128377200Y-114184523D01*
X128377200Y-114184523D02*
X128424819Y-114279761D01*
X128424819Y-114279761D02*
X128424819Y-114374999D01*
X128424819Y-114374999D02*
X128377200Y-114470237D01*
X128377200Y-114470237D02*
X128329580Y-114517856D01*
X128329580Y-114517856D02*
X128234342Y-114565475D01*
X128234342Y-114565475D02*
X128043866Y-114613094D01*
X128043866Y-114613094D02*
X127805771Y-114613094D01*
X127805771Y-114613094D02*
X127615295Y-114565475D01*
X127615295Y-114565475D02*
X127520057Y-114517856D01*
X127520057Y-114517856D02*
X127472438Y-114470237D01*
X127472438Y-114470237D02*
X127424819Y-114374999D01*
X128424819Y-113613094D02*
X127424819Y-113613094D01*
X128043866Y-113517856D02*
X128424819Y-113232142D01*
X127758152Y-113232142D02*
X128139104Y-113613094D01*
X128424819Y-112279761D02*
X128424819Y-112851189D01*
X128424819Y-112565475D02*
X127424819Y-112565475D01*
X127424819Y-112565475D02*
X127567676Y-112660713D01*
X127567676Y-112660713D02*
X127662914Y-112755951D01*
X127662914Y-112755951D02*
X127710533Y-112851189D01*
X128424819Y-126851190D02*
X127948628Y-127184523D01*
X128424819Y-127422618D02*
X127424819Y-127422618D01*
X127424819Y-127422618D02*
X127424819Y-127041666D01*
X127424819Y-127041666D02*
X127472438Y-126946428D01*
X127472438Y-126946428D02*
X127520057Y-126898809D01*
X127520057Y-126898809D02*
X127615295Y-126851190D01*
X127615295Y-126851190D02*
X127758152Y-126851190D01*
X127758152Y-126851190D02*
X127853390Y-126898809D01*
X127853390Y-126898809D02*
X127901009Y-126946428D01*
X127901009Y-126946428D02*
X127948628Y-127041666D01*
X127948628Y-127041666D02*
X127948628Y-127422618D01*
X128424819Y-125898809D02*
X128424819Y-126470237D01*
X128424819Y-126184523D02*
X127424819Y-126184523D01*
X127424819Y-126184523D02*
X127567676Y-126279761D01*
X127567676Y-126279761D02*
X127662914Y-126374999D01*
X127662914Y-126374999D02*
X127710533Y-126470237D01*
X127424819Y-125041666D02*
X127424819Y-125232142D01*
X127424819Y-125232142D02*
X127472438Y-125327380D01*
X127472438Y-125327380D02*
X127520057Y-125374999D01*
X127520057Y-125374999D02*
X127662914Y-125470237D01*
X127662914Y-125470237D02*
X127853390Y-125517856D01*
X127853390Y-125517856D02*
X128234342Y-125517856D01*
X128234342Y-125517856D02*
X128329580Y-125470237D01*
X128329580Y-125470237D02*
X128377200Y-125422618D01*
X128377200Y-125422618D02*
X128424819Y-125327380D01*
X128424819Y-125327380D02*
X128424819Y-125136904D01*
X128424819Y-125136904D02*
X128377200Y-125041666D01*
X128377200Y-125041666D02*
X128329580Y-124994047D01*
X128329580Y-124994047D02*
X128234342Y-124946428D01*
X128234342Y-124946428D02*
X127996247Y-124946428D01*
X127996247Y-124946428D02*
X127901009Y-124994047D01*
X127901009Y-124994047D02*
X127853390Y-125041666D01*
X127853390Y-125041666D02*
X127805771Y-125136904D01*
X127805771Y-125136904D02*
X127805771Y-125327380D01*
X127805771Y-125327380D02*
X127853390Y-125422618D01*
X127853390Y-125422618D02*
X127901009Y-125470237D01*
X127901009Y-125470237D02*
X127996247Y-125517856D01*
X128424819Y-123994047D02*
X128424819Y-124565475D01*
X128424819Y-124279761D02*
X127424819Y-124279761D01*
X127424819Y-124279761D02*
X127567676Y-124374999D01*
X127567676Y-124374999D02*
X127662914Y-124470237D01*
X127662914Y-124470237D02*
X127710533Y-124565475D01*
X127424819Y-123374999D02*
X127424819Y-123279761D01*
X127424819Y-123279761D02*
X127472438Y-123184523D01*
X127472438Y-123184523D02*
X127520057Y-123136904D01*
X127520057Y-123136904D02*
X127615295Y-123089285D01*
X127615295Y-123089285D02*
X127805771Y-123041666D01*
X127805771Y-123041666D02*
X128043866Y-123041666D01*
X128043866Y-123041666D02*
X128234342Y-123089285D01*
X128234342Y-123089285D02*
X128329580Y-123136904D01*
X128329580Y-123136904D02*
X128377200Y-123184523D01*
X128377200Y-123184523D02*
X128424819Y-123279761D01*
X128424819Y-123279761D02*
X128424819Y-123374999D01*
X128424819Y-123374999D02*
X128377200Y-123470237D01*
X128377200Y-123470237D02*
X128329580Y-123517856D01*
X128329580Y-123517856D02*
X128234342Y-123565475D01*
X128234342Y-123565475D02*
X128043866Y-123613094D01*
X128043866Y-123613094D02*
X127805771Y-123613094D01*
X127805771Y-123613094D02*
X127615295Y-123565475D01*
X127615295Y-123565475D02*
X127520057Y-123517856D01*
X127520057Y-123517856D02*
X127472438Y-123470237D01*
X127472438Y-123470237D02*
X127424819Y-123374999D01*
X128424819Y-122613094D02*
X127424819Y-122613094D01*
X128043866Y-122517856D02*
X128424819Y-122232142D01*
X127758152Y-122232142D02*
X128139104Y-122613094D01*
X128424819Y-121279761D02*
X128424819Y-121851189D01*
X128424819Y-121565475D02*
X127424819Y-121565475D01*
X127424819Y-121565475D02*
X127567676Y-121660713D01*
X127567676Y-121660713D02*
X127662914Y-121755951D01*
X127662914Y-121755951D02*
X127710533Y-121851189D01*
X129384819Y-126851190D02*
X128908628Y-127184523D01*
X129384819Y-127422618D02*
X128384819Y-127422618D01*
X128384819Y-127422618D02*
X128384819Y-127041666D01*
X128384819Y-127041666D02*
X128432438Y-126946428D01*
X128432438Y-126946428D02*
X128480057Y-126898809D01*
X128480057Y-126898809D02*
X128575295Y-126851190D01*
X128575295Y-126851190D02*
X128718152Y-126851190D01*
X128718152Y-126851190D02*
X128813390Y-126898809D01*
X128813390Y-126898809D02*
X128861009Y-126946428D01*
X128861009Y-126946428D02*
X128908628Y-127041666D01*
X128908628Y-127041666D02*
X128908628Y-127422618D01*
X129384819Y-125898809D02*
X129384819Y-126470237D01*
X129384819Y-126184523D02*
X128384819Y-126184523D01*
X128384819Y-126184523D02*
X128527676Y-126279761D01*
X128527676Y-126279761D02*
X128622914Y-126374999D01*
X128622914Y-126374999D02*
X128670533Y-126470237D01*
X128384819Y-124994047D02*
X128384819Y-125470237D01*
X128384819Y-125470237D02*
X128861009Y-125517856D01*
X128861009Y-125517856D02*
X128813390Y-125470237D01*
X128813390Y-125470237D02*
X128765771Y-125374999D01*
X128765771Y-125374999D02*
X128765771Y-125136904D01*
X128765771Y-125136904D02*
X128813390Y-125041666D01*
X128813390Y-125041666D02*
X128861009Y-124994047D01*
X128861009Y-124994047D02*
X128956247Y-124946428D01*
X128956247Y-124946428D02*
X129194342Y-124946428D01*
X129194342Y-124946428D02*
X129289580Y-124994047D01*
X129289580Y-124994047D02*
X129337200Y-125041666D01*
X129337200Y-125041666D02*
X129384819Y-125136904D01*
X129384819Y-125136904D02*
X129384819Y-125374999D01*
X129384819Y-125374999D02*
X129337200Y-125470237D01*
X129337200Y-125470237D02*
X129289580Y-125517856D01*
X128480057Y-124565475D02*
X128432438Y-124517856D01*
X128432438Y-124517856D02*
X128384819Y-124422618D01*
X128384819Y-124422618D02*
X128384819Y-124184523D01*
X128384819Y-124184523D02*
X128432438Y-124089285D01*
X128432438Y-124089285D02*
X128480057Y-124041666D01*
X128480057Y-124041666D02*
X128575295Y-123994047D01*
X128575295Y-123994047D02*
X128670533Y-123994047D01*
X128670533Y-123994047D02*
X128813390Y-124041666D01*
X128813390Y-124041666D02*
X129384819Y-124613094D01*
X129384819Y-124613094D02*
X129384819Y-123994047D01*
X128384819Y-123374999D02*
X128384819Y-123279761D01*
X128384819Y-123279761D02*
X128432438Y-123184523D01*
X128432438Y-123184523D02*
X128480057Y-123136904D01*
X128480057Y-123136904D02*
X128575295Y-123089285D01*
X128575295Y-123089285D02*
X128765771Y-123041666D01*
X128765771Y-123041666D02*
X129003866Y-123041666D01*
X129003866Y-123041666D02*
X129194342Y-123089285D01*
X129194342Y-123089285D02*
X129289580Y-123136904D01*
X129289580Y-123136904D02*
X129337200Y-123184523D01*
X129337200Y-123184523D02*
X129384819Y-123279761D01*
X129384819Y-123279761D02*
X129384819Y-123374999D01*
X129384819Y-123374999D02*
X129337200Y-123470237D01*
X129337200Y-123470237D02*
X129289580Y-123517856D01*
X129289580Y-123517856D02*
X129194342Y-123565475D01*
X129194342Y-123565475D02*
X129003866Y-123613094D01*
X129003866Y-123613094D02*
X128765771Y-123613094D01*
X128765771Y-123613094D02*
X128575295Y-123565475D01*
X128575295Y-123565475D02*
X128480057Y-123517856D01*
X128480057Y-123517856D02*
X128432438Y-123470237D01*
X128432438Y-123470237D02*
X128384819Y-123374999D01*
X129384819Y-122613094D02*
X128384819Y-122613094D01*
X129003866Y-122517856D02*
X129384819Y-122232142D01*
X128718152Y-122232142D02*
X129099104Y-122613094D01*
X129384819Y-121279761D02*
X129384819Y-121851189D01*
X129384819Y-121565475D02*
X128384819Y-121565475D01*
X128384819Y-121565475D02*
X128527676Y-121660713D01*
X128527676Y-121660713D02*
X128622914Y-121755951D01*
X128622914Y-121755951D02*
X128670533Y-121851189D01*
X140824819Y-116966666D02*
X140348628Y-117299999D01*
X140824819Y-117538094D02*
X139824819Y-117538094D01*
X139824819Y-117538094D02*
X139824819Y-117157142D01*
X139824819Y-117157142D02*
X139872438Y-117061904D01*
X139872438Y-117061904D02*
X139920057Y-117014285D01*
X139920057Y-117014285D02*
X140015295Y-116966666D01*
X140015295Y-116966666D02*
X140158152Y-116966666D01*
X140158152Y-116966666D02*
X140253390Y-117014285D01*
X140253390Y-117014285D02*
X140301009Y-117061904D01*
X140301009Y-117061904D02*
X140348628Y-117157142D01*
X140348628Y-117157142D02*
X140348628Y-117538094D01*
X139824819Y-116061904D02*
X139824819Y-116538094D01*
X139824819Y-116538094D02*
X140301009Y-116585713D01*
X140301009Y-116585713D02*
X140253390Y-116538094D01*
X140253390Y-116538094D02*
X140205771Y-116442856D01*
X140205771Y-116442856D02*
X140205771Y-116204761D01*
X140205771Y-116204761D02*
X140253390Y-116109523D01*
X140253390Y-116109523D02*
X140301009Y-116061904D01*
X140301009Y-116061904D02*
X140396247Y-116014285D01*
X140396247Y-116014285D02*
X140634342Y-116014285D01*
X140634342Y-116014285D02*
X140729580Y-116061904D01*
X140729580Y-116061904D02*
X140777200Y-116109523D01*
X140777200Y-116109523D02*
X140824819Y-116204761D01*
X140824819Y-116204761D02*
X140824819Y-116442856D01*
X140824819Y-116442856D02*
X140777200Y-116538094D01*
X140777200Y-116538094D02*
X140729580Y-116585713D01*
X146860713Y-136627200D02*
X146765475Y-136674819D01*
X146765475Y-136674819D02*
X146574999Y-136674819D01*
X146574999Y-136674819D02*
X146479761Y-136627200D01*
X146479761Y-136627200D02*
X146432142Y-136579580D01*
X146432142Y-136579580D02*
X146384523Y-136484342D01*
X146384523Y-136484342D02*
X146384523Y-136198628D01*
X146384523Y-136198628D02*
X146432142Y-136103390D01*
X146432142Y-136103390D02*
X146479761Y-136055771D01*
X146479761Y-136055771D02*
X146574999Y-136008152D01*
X146574999Y-136008152D02*
X146765475Y-136008152D01*
X146765475Y-136008152D02*
X146860713Y-136055771D01*
X147432142Y-136674819D02*
X147336904Y-136627200D01*
X147336904Y-136627200D02*
X147289285Y-136579580D01*
X147289285Y-136579580D02*
X147241666Y-136484342D01*
X147241666Y-136484342D02*
X147241666Y-136198628D01*
X147241666Y-136198628D02*
X147289285Y-136103390D01*
X147289285Y-136103390D02*
X147336904Y-136055771D01*
X147336904Y-136055771D02*
X147432142Y-136008152D01*
X147432142Y-136008152D02*
X147574999Y-136008152D01*
X147574999Y-136008152D02*
X147670237Y-136055771D01*
X147670237Y-136055771D02*
X147717856Y-136103390D01*
X147717856Y-136103390D02*
X147765475Y-136198628D01*
X147765475Y-136198628D02*
X147765475Y-136484342D01*
X147765475Y-136484342D02*
X147717856Y-136579580D01*
X147717856Y-136579580D02*
X147670237Y-136627200D01*
X147670237Y-136627200D02*
X147574999Y-136674819D01*
X147574999Y-136674819D02*
X147432142Y-136674819D01*
X148194047Y-136008152D02*
X148194047Y-136674819D01*
X148194047Y-136103390D02*
X148241666Y-136055771D01*
X148241666Y-136055771D02*
X148336904Y-136008152D01*
X148336904Y-136008152D02*
X148479761Y-136008152D01*
X148479761Y-136008152D02*
X148574999Y-136055771D01*
X148574999Y-136055771D02*
X148622618Y-136151009D01*
X148622618Y-136151009D02*
X148622618Y-136674819D01*
X149479761Y-136627200D02*
X149384523Y-136674819D01*
X149384523Y-136674819D02*
X149194047Y-136674819D01*
X149194047Y-136674819D02*
X149098809Y-136627200D01*
X149098809Y-136627200D02*
X149051190Y-136531961D01*
X149051190Y-136531961D02*
X149051190Y-136151009D01*
X149051190Y-136151009D02*
X149098809Y-136055771D01*
X149098809Y-136055771D02*
X149194047Y-136008152D01*
X149194047Y-136008152D02*
X149384523Y-136008152D01*
X149384523Y-136008152D02*
X149479761Y-136055771D01*
X149479761Y-136055771D02*
X149527380Y-136151009D01*
X149527380Y-136151009D02*
X149527380Y-136246247D01*
X149527380Y-136246247D02*
X149051190Y-136341485D01*
X150384523Y-136627200D02*
X150289285Y-136674819D01*
X150289285Y-136674819D02*
X150098809Y-136674819D01*
X150098809Y-136674819D02*
X150003571Y-136627200D01*
X150003571Y-136627200D02*
X149955952Y-136579580D01*
X149955952Y-136579580D02*
X149908333Y-136484342D01*
X149908333Y-136484342D02*
X149908333Y-136198628D01*
X149908333Y-136198628D02*
X149955952Y-136103390D01*
X149955952Y-136103390D02*
X150003571Y-136055771D01*
X150003571Y-136055771D02*
X150098809Y-136008152D01*
X150098809Y-136008152D02*
X150289285Y-136008152D01*
X150289285Y-136008152D02*
X150384523Y-136055771D01*
X150670238Y-136008152D02*
X151051190Y-136008152D01*
X150813095Y-135674819D02*
X150813095Y-136531961D01*
X150813095Y-136531961D02*
X150860714Y-136627200D01*
X150860714Y-136627200D02*
X150955952Y-136674819D01*
X150955952Y-136674819D02*
X151051190Y-136674819D01*
X151527381Y-136674819D02*
X151432143Y-136627200D01*
X151432143Y-136627200D02*
X151384524Y-136579580D01*
X151384524Y-136579580D02*
X151336905Y-136484342D01*
X151336905Y-136484342D02*
X151336905Y-136198628D01*
X151336905Y-136198628D02*
X151384524Y-136103390D01*
X151384524Y-136103390D02*
X151432143Y-136055771D01*
X151432143Y-136055771D02*
X151527381Y-136008152D01*
X151527381Y-136008152D02*
X151670238Y-136008152D01*
X151670238Y-136008152D02*
X151765476Y-136055771D01*
X151765476Y-136055771D02*
X151813095Y-136103390D01*
X151813095Y-136103390D02*
X151860714Y-136198628D01*
X151860714Y-136198628D02*
X151860714Y-136484342D01*
X151860714Y-136484342D02*
X151813095Y-136579580D01*
X151813095Y-136579580D02*
X151765476Y-136627200D01*
X151765476Y-136627200D02*
X151670238Y-136674819D01*
X151670238Y-136674819D02*
X151527381Y-136674819D01*
X152289286Y-136674819D02*
X152289286Y-136008152D01*
X152289286Y-136198628D02*
X152336905Y-136103390D01*
X152336905Y-136103390D02*
X152384524Y-136055771D01*
X152384524Y-136055771D02*
X152479762Y-136008152D01*
X152479762Y-136008152D02*
X152575000Y-136008152D01*
X152908334Y-136674819D02*
X152908334Y-136008152D01*
X152908334Y-136103390D02*
X152955953Y-136055771D01*
X152955953Y-136055771D02*
X153051191Y-136008152D01*
X153051191Y-136008152D02*
X153194048Y-136008152D01*
X153194048Y-136008152D02*
X153289286Y-136055771D01*
X153289286Y-136055771D02*
X153336905Y-136151009D01*
X153336905Y-136151009D02*
X153336905Y-136674819D01*
X153336905Y-136151009D02*
X153384524Y-136055771D01*
X153384524Y-136055771D02*
X153479762Y-136008152D01*
X153479762Y-136008152D02*
X153622619Y-136008152D01*
X153622619Y-136008152D02*
X153717858Y-136055771D01*
X153717858Y-136055771D02*
X153765477Y-136151009D01*
X153765477Y-136151009D02*
X153765477Y-136674819D01*
X154384524Y-136674819D02*
X154289286Y-136627200D01*
X154289286Y-136627200D02*
X154241667Y-136579580D01*
X154241667Y-136579580D02*
X154194048Y-136484342D01*
X154194048Y-136484342D02*
X154194048Y-136198628D01*
X154194048Y-136198628D02*
X154241667Y-136103390D01*
X154241667Y-136103390D02*
X154289286Y-136055771D01*
X154289286Y-136055771D02*
X154384524Y-136008152D01*
X154384524Y-136008152D02*
X154527381Y-136008152D01*
X154527381Y-136008152D02*
X154622619Y-136055771D01*
X154622619Y-136055771D02*
X154670238Y-136103390D01*
X154670238Y-136103390D02*
X154717857Y-136198628D01*
X154717857Y-136198628D02*
X154717857Y-136484342D01*
X154717857Y-136484342D02*
X154670238Y-136579580D01*
X154670238Y-136579580D02*
X154622619Y-136627200D01*
X154622619Y-136627200D02*
X154527381Y-136674819D01*
X154527381Y-136674819D02*
X154384524Y-136674819D01*
X155003572Y-136008152D02*
X155384524Y-136008152D01*
X155146429Y-135674819D02*
X155146429Y-136531961D01*
X155146429Y-136531961D02*
X155194048Y-136627200D01*
X155194048Y-136627200D02*
X155289286Y-136674819D01*
X155289286Y-136674819D02*
X155384524Y-136674819D01*
X155860715Y-136674819D02*
X155765477Y-136627200D01*
X155765477Y-136627200D02*
X155717858Y-136579580D01*
X155717858Y-136579580D02*
X155670239Y-136484342D01*
X155670239Y-136484342D02*
X155670239Y-136198628D01*
X155670239Y-136198628D02*
X155717858Y-136103390D01*
X155717858Y-136103390D02*
X155765477Y-136055771D01*
X155765477Y-136055771D02*
X155860715Y-136008152D01*
X155860715Y-136008152D02*
X156003572Y-136008152D01*
X156003572Y-136008152D02*
X156098810Y-136055771D01*
X156098810Y-136055771D02*
X156146429Y-136103390D01*
X156146429Y-136103390D02*
X156194048Y-136198628D01*
X156194048Y-136198628D02*
X156194048Y-136484342D01*
X156194048Y-136484342D02*
X156146429Y-136579580D01*
X156146429Y-136579580D02*
X156098810Y-136627200D01*
X156098810Y-136627200D02*
X156003572Y-136674819D01*
X156003572Y-136674819D02*
X155860715Y-136674819D01*
X156622620Y-136674819D02*
X156622620Y-136008152D01*
X156622620Y-136198628D02*
X156670239Y-136103390D01*
X156670239Y-136103390D02*
X156717858Y-136055771D01*
X156717858Y-136055771D02*
X156813096Y-136008152D01*
X156813096Y-136008152D02*
X156908334Y-136008152D01*
X157765477Y-136674819D02*
X157194049Y-136674819D01*
X157479763Y-136674819D02*
X157479763Y-135674819D01*
X157479763Y-135674819D02*
X157384525Y-135817676D01*
X157384525Y-135817676D02*
X157289287Y-135912914D01*
X157289287Y-135912914D02*
X157194049Y-135960533D01*
X135846428Y-138459819D02*
X135846428Y-137459819D01*
X135846428Y-138412200D02*
X135751190Y-138459819D01*
X135751190Y-138459819D02*
X135560714Y-138459819D01*
X135560714Y-138459819D02*
X135465476Y-138412200D01*
X135465476Y-138412200D02*
X135417857Y-138364580D01*
X135417857Y-138364580D02*
X135370238Y-138269342D01*
X135370238Y-138269342D02*
X135370238Y-137983628D01*
X135370238Y-137983628D02*
X135417857Y-137888390D01*
X135417857Y-137888390D02*
X135465476Y-137840771D01*
X135465476Y-137840771D02*
X135560714Y-137793152D01*
X135560714Y-137793152D02*
X135751190Y-137793152D01*
X135751190Y-137793152D02*
X135846428Y-137840771D01*
X136322619Y-138459819D02*
X136322619Y-137793152D01*
X136322619Y-137983628D02*
X136370238Y-137888390D01*
X136370238Y-137888390D02*
X136417857Y-137840771D01*
X136417857Y-137840771D02*
X136513095Y-137793152D01*
X136513095Y-137793152D02*
X136608333Y-137793152D01*
X136941667Y-138459819D02*
X136941667Y-137793152D01*
X136941667Y-137459819D02*
X136894048Y-137507438D01*
X136894048Y-137507438D02*
X136941667Y-137555057D01*
X136941667Y-137555057D02*
X136989286Y-137507438D01*
X136989286Y-137507438D02*
X136941667Y-137459819D01*
X136941667Y-137459819D02*
X136941667Y-137555057D01*
X137322619Y-137793152D02*
X137560714Y-138459819D01*
X137560714Y-138459819D02*
X137798809Y-137793152D01*
X138560714Y-138412200D02*
X138465476Y-138459819D01*
X138465476Y-138459819D02*
X138275000Y-138459819D01*
X138275000Y-138459819D02*
X138179762Y-138412200D01*
X138179762Y-138412200D02*
X138132143Y-138316961D01*
X138132143Y-138316961D02*
X138132143Y-137936009D01*
X138132143Y-137936009D02*
X138179762Y-137840771D01*
X138179762Y-137840771D02*
X138275000Y-137793152D01*
X138275000Y-137793152D02*
X138465476Y-137793152D01*
X138465476Y-137793152D02*
X138560714Y-137840771D01*
X138560714Y-137840771D02*
X138608333Y-137936009D01*
X138608333Y-137936009D02*
X138608333Y-138031247D01*
X138608333Y-138031247D02*
X138132143Y-138126485D01*
X139036905Y-138459819D02*
X139036905Y-137793152D01*
X139036905Y-137983628D02*
X139084524Y-137888390D01*
X139084524Y-137888390D02*
X139132143Y-137840771D01*
X139132143Y-137840771D02*
X139227381Y-137793152D01*
X139227381Y-137793152D02*
X139322619Y-137793152D01*
X140179762Y-138459819D02*
X139608334Y-138459819D01*
X139894048Y-138459819D02*
X139894048Y-137459819D01*
X139894048Y-137459819D02*
X139798810Y-137602676D01*
X139798810Y-137602676D02*
X139703572Y-137697914D01*
X139703572Y-137697914D02*
X139608334Y-137745533D01*
X129384819Y-138951190D02*
X128908628Y-139284523D01*
X129384819Y-139522618D02*
X128384819Y-139522618D01*
X128384819Y-139522618D02*
X128384819Y-139141666D01*
X128384819Y-139141666D02*
X128432438Y-139046428D01*
X128432438Y-139046428D02*
X128480057Y-138998809D01*
X128480057Y-138998809D02*
X128575295Y-138951190D01*
X128575295Y-138951190D02*
X128718152Y-138951190D01*
X128718152Y-138951190D02*
X128813390Y-138998809D01*
X128813390Y-138998809D02*
X128861009Y-139046428D01*
X128861009Y-139046428D02*
X128908628Y-139141666D01*
X128908628Y-139141666D02*
X128908628Y-139522618D01*
X128480057Y-138570237D02*
X128432438Y-138522618D01*
X128432438Y-138522618D02*
X128384819Y-138427380D01*
X128384819Y-138427380D02*
X128384819Y-138189285D01*
X128384819Y-138189285D02*
X128432438Y-138094047D01*
X128432438Y-138094047D02*
X128480057Y-138046428D01*
X128480057Y-138046428D02*
X128575295Y-137998809D01*
X128575295Y-137998809D02*
X128670533Y-137998809D01*
X128670533Y-137998809D02*
X128813390Y-138046428D01*
X128813390Y-138046428D02*
X129384819Y-138617856D01*
X129384819Y-138617856D02*
X129384819Y-137998809D01*
X128384819Y-137665475D02*
X128384819Y-137046428D01*
X128384819Y-137046428D02*
X128765771Y-137379761D01*
X128765771Y-137379761D02*
X128765771Y-137236904D01*
X128765771Y-137236904D02*
X128813390Y-137141666D01*
X128813390Y-137141666D02*
X128861009Y-137094047D01*
X128861009Y-137094047D02*
X128956247Y-137046428D01*
X128956247Y-137046428D02*
X129194342Y-137046428D01*
X129194342Y-137046428D02*
X129289580Y-137094047D01*
X129289580Y-137094047D02*
X129337200Y-137141666D01*
X129337200Y-137141666D02*
X129384819Y-137236904D01*
X129384819Y-137236904D02*
X129384819Y-137522618D01*
X129384819Y-137522618D02*
X129337200Y-137617856D01*
X129337200Y-137617856D02*
X129289580Y-137665475D01*
X128480057Y-136665475D02*
X128432438Y-136617856D01*
X128432438Y-136617856D02*
X128384819Y-136522618D01*
X128384819Y-136522618D02*
X128384819Y-136284523D01*
X128384819Y-136284523D02*
X128432438Y-136189285D01*
X128432438Y-136189285D02*
X128480057Y-136141666D01*
X128480057Y-136141666D02*
X128575295Y-136094047D01*
X128575295Y-136094047D02*
X128670533Y-136094047D01*
X128670533Y-136094047D02*
X128813390Y-136141666D01*
X128813390Y-136141666D02*
X129384819Y-136713094D01*
X129384819Y-136713094D02*
X129384819Y-136094047D01*
X128384819Y-135474999D02*
X128384819Y-135379761D01*
X128384819Y-135379761D02*
X128432438Y-135284523D01*
X128432438Y-135284523D02*
X128480057Y-135236904D01*
X128480057Y-135236904D02*
X128575295Y-135189285D01*
X128575295Y-135189285D02*
X128765771Y-135141666D01*
X128765771Y-135141666D02*
X129003866Y-135141666D01*
X129003866Y-135141666D02*
X129194342Y-135189285D01*
X129194342Y-135189285D02*
X129289580Y-135236904D01*
X129289580Y-135236904D02*
X129337200Y-135284523D01*
X129337200Y-135284523D02*
X129384819Y-135379761D01*
X129384819Y-135379761D02*
X129384819Y-135474999D01*
X129384819Y-135474999D02*
X129337200Y-135570237D01*
X129337200Y-135570237D02*
X129289580Y-135617856D01*
X129289580Y-135617856D02*
X129194342Y-135665475D01*
X129194342Y-135665475D02*
X129003866Y-135713094D01*
X129003866Y-135713094D02*
X128765771Y-135713094D01*
X128765771Y-135713094D02*
X128575295Y-135665475D01*
X128575295Y-135665475D02*
X128480057Y-135617856D01*
X128480057Y-135617856D02*
X128432438Y-135570237D01*
X128432438Y-135570237D02*
X128384819Y-135474999D01*
X129384819Y-134713094D02*
X128384819Y-134713094D01*
X129003866Y-134617856D02*
X129384819Y-134332142D01*
X128718152Y-134332142D02*
X129099104Y-134713094D01*
X129384819Y-133379761D02*
X129384819Y-133951189D01*
X129384819Y-133665475D02*
X128384819Y-133665475D01*
X128384819Y-133665475D02*
X128527676Y-133760713D01*
X128527676Y-133760713D02*
X128622914Y-133855951D01*
X128622914Y-133855951D02*
X128670533Y-133951189D01*
X132635713Y-127654819D02*
X132635713Y-126988152D01*
X132635713Y-127178628D02*
X132683332Y-127083390D01*
X132683332Y-127083390D02*
X132730951Y-127035771D01*
X132730951Y-127035771D02*
X132826189Y-126988152D01*
X132826189Y-126988152D02*
X132921427Y-126988152D01*
X133635713Y-127607200D02*
X133540475Y-127654819D01*
X133540475Y-127654819D02*
X133349999Y-127654819D01*
X133349999Y-127654819D02*
X133254761Y-127607200D01*
X133254761Y-127607200D02*
X133207142Y-127511961D01*
X133207142Y-127511961D02*
X133207142Y-127131009D01*
X133207142Y-127131009D02*
X133254761Y-127035771D01*
X133254761Y-127035771D02*
X133349999Y-126988152D01*
X133349999Y-126988152D02*
X133540475Y-126988152D01*
X133540475Y-126988152D02*
X133635713Y-127035771D01*
X133635713Y-127035771D02*
X133683332Y-127131009D01*
X133683332Y-127131009D02*
X133683332Y-127226247D01*
X133683332Y-127226247D02*
X133207142Y-127321485D01*
X134540475Y-126988152D02*
X134540475Y-127797676D01*
X134540475Y-127797676D02*
X134492856Y-127892914D01*
X134492856Y-127892914D02*
X134445237Y-127940533D01*
X134445237Y-127940533D02*
X134349999Y-127988152D01*
X134349999Y-127988152D02*
X134207142Y-127988152D01*
X134207142Y-127988152D02*
X134111904Y-127940533D01*
X134540475Y-127607200D02*
X134445237Y-127654819D01*
X134445237Y-127654819D02*
X134254761Y-127654819D01*
X134254761Y-127654819D02*
X134159523Y-127607200D01*
X134159523Y-127607200D02*
X134111904Y-127559580D01*
X134111904Y-127559580D02*
X134064285Y-127464342D01*
X134064285Y-127464342D02*
X134064285Y-127178628D01*
X134064285Y-127178628D02*
X134111904Y-127083390D01*
X134111904Y-127083390D02*
X134159523Y-127035771D01*
X134159523Y-127035771D02*
X134254761Y-126988152D01*
X134254761Y-126988152D02*
X134445237Y-126988152D01*
X134445237Y-126988152D02*
X134540475Y-127035771D01*
X135445237Y-126988152D02*
X135445237Y-127654819D01*
X135016666Y-126988152D02*
X135016666Y-127511961D01*
X135016666Y-127511961D02*
X135064285Y-127607200D01*
X135064285Y-127607200D02*
X135159523Y-127654819D01*
X135159523Y-127654819D02*
X135302380Y-127654819D01*
X135302380Y-127654819D02*
X135397618Y-127607200D01*
X135397618Y-127607200D02*
X135445237Y-127559580D01*
X136064285Y-127654819D02*
X135969047Y-127607200D01*
X135969047Y-127607200D02*
X135921428Y-127511961D01*
X135921428Y-127511961D02*
X135921428Y-126654819D01*
X136873809Y-127654819D02*
X136873809Y-127131009D01*
X136873809Y-127131009D02*
X136826190Y-127035771D01*
X136826190Y-127035771D02*
X136730952Y-126988152D01*
X136730952Y-126988152D02*
X136540476Y-126988152D01*
X136540476Y-126988152D02*
X136445238Y-127035771D01*
X136873809Y-127607200D02*
X136778571Y-127654819D01*
X136778571Y-127654819D02*
X136540476Y-127654819D01*
X136540476Y-127654819D02*
X136445238Y-127607200D01*
X136445238Y-127607200D02*
X136397619Y-127511961D01*
X136397619Y-127511961D02*
X136397619Y-127416723D01*
X136397619Y-127416723D02*
X136445238Y-127321485D01*
X136445238Y-127321485D02*
X136540476Y-127273866D01*
X136540476Y-127273866D02*
X136778571Y-127273866D01*
X136778571Y-127273866D02*
X136873809Y-127226247D01*
X137778571Y-127654819D02*
X137778571Y-126654819D01*
X137778571Y-127607200D02*
X137683333Y-127654819D01*
X137683333Y-127654819D02*
X137492857Y-127654819D01*
X137492857Y-127654819D02*
X137397619Y-127607200D01*
X137397619Y-127607200D02*
X137350000Y-127559580D01*
X137350000Y-127559580D02*
X137302381Y-127464342D01*
X137302381Y-127464342D02*
X137302381Y-127178628D01*
X137302381Y-127178628D02*
X137350000Y-127083390D01*
X137350000Y-127083390D02*
X137397619Y-127035771D01*
X137397619Y-127035771D02*
X137492857Y-126988152D01*
X137492857Y-126988152D02*
X137683333Y-126988152D01*
X137683333Y-126988152D02*
X137778571Y-127035771D01*
X138254762Y-127654819D02*
X138254762Y-126988152D01*
X138254762Y-127178628D02*
X138302381Y-127083390D01*
X138302381Y-127083390D02*
X138350000Y-127035771D01*
X138350000Y-127035771D02*
X138445238Y-126988152D01*
X138445238Y-126988152D02*
X138540476Y-126988152D01*
X138778572Y-126654819D02*
X139397619Y-126654819D01*
X139397619Y-126654819D02*
X139064286Y-127035771D01*
X139064286Y-127035771D02*
X139207143Y-127035771D01*
X139207143Y-127035771D02*
X139302381Y-127083390D01*
X139302381Y-127083390D02*
X139350000Y-127131009D01*
X139350000Y-127131009D02*
X139397619Y-127226247D01*
X139397619Y-127226247D02*
X139397619Y-127464342D01*
X139397619Y-127464342D02*
X139350000Y-127559580D01*
X139350000Y-127559580D02*
X139302381Y-127607200D01*
X139302381Y-127607200D02*
X139207143Y-127654819D01*
X139207143Y-127654819D02*
X138921429Y-127654819D01*
X138921429Y-127654819D02*
X138826191Y-127607200D01*
X138826191Y-127607200D02*
X138778572Y-127559580D01*
X139730953Y-126988152D02*
X139969048Y-127654819D01*
X139969048Y-127654819D02*
X140207143Y-126988152D01*
X141111905Y-127654819D02*
X140540477Y-127654819D01*
X140826191Y-127654819D02*
X140826191Y-126654819D01*
X140826191Y-126654819D02*
X140730953Y-126797676D01*
X140730953Y-126797676D02*
X140635715Y-126892914D01*
X140635715Y-126892914D02*
X140540477Y-126940533D01*
X129384819Y-129951190D02*
X128908628Y-130284523D01*
X129384819Y-130522618D02*
X128384819Y-130522618D01*
X128384819Y-130522618D02*
X128384819Y-130141666D01*
X128384819Y-130141666D02*
X128432438Y-130046428D01*
X128432438Y-130046428D02*
X128480057Y-129998809D01*
X128480057Y-129998809D02*
X128575295Y-129951190D01*
X128575295Y-129951190D02*
X128718152Y-129951190D01*
X128718152Y-129951190D02*
X128813390Y-129998809D01*
X128813390Y-129998809D02*
X128861009Y-130046428D01*
X128861009Y-130046428D02*
X128908628Y-130141666D01*
X128908628Y-130141666D02*
X128908628Y-130522618D01*
X129384819Y-128998809D02*
X129384819Y-129570237D01*
X129384819Y-129284523D02*
X128384819Y-129284523D01*
X128384819Y-129284523D02*
X128527676Y-129379761D01*
X128527676Y-129379761D02*
X128622914Y-129474999D01*
X128622914Y-129474999D02*
X128670533Y-129570237D01*
X128384819Y-128665475D02*
X128384819Y-127998809D01*
X128384819Y-127998809D02*
X129384819Y-128427380D01*
X128480057Y-127665475D02*
X128432438Y-127617856D01*
X128432438Y-127617856D02*
X128384819Y-127522618D01*
X128384819Y-127522618D02*
X128384819Y-127284523D01*
X128384819Y-127284523D02*
X128432438Y-127189285D01*
X128432438Y-127189285D02*
X128480057Y-127141666D01*
X128480057Y-127141666D02*
X128575295Y-127094047D01*
X128575295Y-127094047D02*
X128670533Y-127094047D01*
X128670533Y-127094047D02*
X128813390Y-127141666D01*
X128813390Y-127141666D02*
X129384819Y-127713094D01*
X129384819Y-127713094D02*
X129384819Y-127094047D01*
X128384819Y-126474999D02*
X128384819Y-126379761D01*
X128384819Y-126379761D02*
X128432438Y-126284523D01*
X128432438Y-126284523D02*
X128480057Y-126236904D01*
X128480057Y-126236904D02*
X128575295Y-126189285D01*
X128575295Y-126189285D02*
X128765771Y-126141666D01*
X128765771Y-126141666D02*
X129003866Y-126141666D01*
X129003866Y-126141666D02*
X129194342Y-126189285D01*
X129194342Y-126189285D02*
X129289580Y-126236904D01*
X129289580Y-126236904D02*
X129337200Y-126284523D01*
X129337200Y-126284523D02*
X129384819Y-126379761D01*
X129384819Y-126379761D02*
X129384819Y-126474999D01*
X129384819Y-126474999D02*
X129337200Y-126570237D01*
X129337200Y-126570237D02*
X129289580Y-126617856D01*
X129289580Y-126617856D02*
X129194342Y-126665475D01*
X129194342Y-126665475D02*
X129003866Y-126713094D01*
X129003866Y-126713094D02*
X128765771Y-126713094D01*
X128765771Y-126713094D02*
X128575295Y-126665475D01*
X128575295Y-126665475D02*
X128480057Y-126617856D01*
X128480057Y-126617856D02*
X128432438Y-126570237D01*
X128432438Y-126570237D02*
X128384819Y-126474999D01*
X129384819Y-125713094D02*
X128384819Y-125713094D01*
X129003866Y-125617856D02*
X129384819Y-125332142D01*
X128718152Y-125332142D02*
X129099104Y-125713094D01*
X129384819Y-124379761D02*
X129384819Y-124951189D01*
X129384819Y-124665475D02*
X128384819Y-124665475D01*
X128384819Y-124665475D02*
X128527676Y-124760713D01*
X128527676Y-124760713D02*
X128622914Y-124855951D01*
X128622914Y-124855951D02*
X128670533Y-124951189D01*
X128424819Y-132851190D02*
X127948628Y-133184523D01*
X128424819Y-133422618D02*
X127424819Y-133422618D01*
X127424819Y-133422618D02*
X127424819Y-133041666D01*
X127424819Y-133041666D02*
X127472438Y-132946428D01*
X127472438Y-132946428D02*
X127520057Y-132898809D01*
X127520057Y-132898809D02*
X127615295Y-132851190D01*
X127615295Y-132851190D02*
X127758152Y-132851190D01*
X127758152Y-132851190D02*
X127853390Y-132898809D01*
X127853390Y-132898809D02*
X127901009Y-132946428D01*
X127901009Y-132946428D02*
X127948628Y-133041666D01*
X127948628Y-133041666D02*
X127948628Y-133422618D01*
X127520057Y-132470237D02*
X127472438Y-132422618D01*
X127472438Y-132422618D02*
X127424819Y-132327380D01*
X127424819Y-132327380D02*
X127424819Y-132089285D01*
X127424819Y-132089285D02*
X127472438Y-131994047D01*
X127472438Y-131994047D02*
X127520057Y-131946428D01*
X127520057Y-131946428D02*
X127615295Y-131898809D01*
X127615295Y-131898809D02*
X127710533Y-131898809D01*
X127710533Y-131898809D02*
X127853390Y-131946428D01*
X127853390Y-131946428D02*
X128424819Y-132517856D01*
X128424819Y-132517856D02*
X128424819Y-131898809D01*
X127424819Y-131279761D02*
X127424819Y-131184523D01*
X127424819Y-131184523D02*
X127472438Y-131089285D01*
X127472438Y-131089285D02*
X127520057Y-131041666D01*
X127520057Y-131041666D02*
X127615295Y-130994047D01*
X127615295Y-130994047D02*
X127805771Y-130946428D01*
X127805771Y-130946428D02*
X128043866Y-130946428D01*
X128043866Y-130946428D02*
X128234342Y-130994047D01*
X128234342Y-130994047D02*
X128329580Y-131041666D01*
X128329580Y-131041666D02*
X128377200Y-131089285D01*
X128377200Y-131089285D02*
X128424819Y-131184523D01*
X128424819Y-131184523D02*
X128424819Y-131279761D01*
X128424819Y-131279761D02*
X128377200Y-131374999D01*
X128377200Y-131374999D02*
X128329580Y-131422618D01*
X128329580Y-131422618D02*
X128234342Y-131470237D01*
X128234342Y-131470237D02*
X128043866Y-131517856D01*
X128043866Y-131517856D02*
X127805771Y-131517856D01*
X127805771Y-131517856D02*
X127615295Y-131470237D01*
X127615295Y-131470237D02*
X127520057Y-131422618D01*
X127520057Y-131422618D02*
X127472438Y-131374999D01*
X127472438Y-131374999D02*
X127424819Y-131279761D01*
X128424819Y-129994047D02*
X128424819Y-130565475D01*
X128424819Y-130279761D02*
X127424819Y-130279761D01*
X127424819Y-130279761D02*
X127567676Y-130374999D01*
X127567676Y-130374999D02*
X127662914Y-130470237D01*
X127662914Y-130470237D02*
X127710533Y-130565475D01*
X127424819Y-129374999D02*
X127424819Y-129279761D01*
X127424819Y-129279761D02*
X127472438Y-129184523D01*
X127472438Y-129184523D02*
X127520057Y-129136904D01*
X127520057Y-129136904D02*
X127615295Y-129089285D01*
X127615295Y-129089285D02*
X127805771Y-129041666D01*
X127805771Y-129041666D02*
X128043866Y-129041666D01*
X128043866Y-129041666D02*
X128234342Y-129089285D01*
X128234342Y-129089285D02*
X128329580Y-129136904D01*
X128329580Y-129136904D02*
X128377200Y-129184523D01*
X128377200Y-129184523D02*
X128424819Y-129279761D01*
X128424819Y-129279761D02*
X128424819Y-129374999D01*
X128424819Y-129374999D02*
X128377200Y-129470237D01*
X128377200Y-129470237D02*
X128329580Y-129517856D01*
X128329580Y-129517856D02*
X128234342Y-129565475D01*
X128234342Y-129565475D02*
X128043866Y-129613094D01*
X128043866Y-129613094D02*
X127805771Y-129613094D01*
X127805771Y-129613094D02*
X127615295Y-129565475D01*
X127615295Y-129565475D02*
X127520057Y-129517856D01*
X127520057Y-129517856D02*
X127472438Y-129470237D01*
X127472438Y-129470237D02*
X127424819Y-129374999D01*
X128424819Y-128613094D02*
X127424819Y-128613094D01*
X128043866Y-128517856D02*
X128424819Y-128232142D01*
X127758152Y-128232142D02*
X128139104Y-128613094D01*
X128424819Y-127279761D02*
X128424819Y-127851189D01*
X128424819Y-127565475D02*
X127424819Y-127565475D01*
X127424819Y-127565475D02*
X127567676Y-127660713D01*
X127567676Y-127660713D02*
X127662914Y-127755951D01*
X127662914Y-127755951D02*
X127710533Y-127851189D01*
X148889580Y-134541666D02*
X148937200Y-134589285D01*
X148937200Y-134589285D02*
X148984819Y-134732142D01*
X148984819Y-134732142D02*
X148984819Y-134827380D01*
X148984819Y-134827380D02*
X148937200Y-134970237D01*
X148937200Y-134970237D02*
X148841961Y-135065475D01*
X148841961Y-135065475D02*
X148746723Y-135113094D01*
X148746723Y-135113094D02*
X148556247Y-135160713D01*
X148556247Y-135160713D02*
X148413390Y-135160713D01*
X148413390Y-135160713D02*
X148222914Y-135113094D01*
X148222914Y-135113094D02*
X148127676Y-135065475D01*
X148127676Y-135065475D02*
X148032438Y-134970237D01*
X148032438Y-134970237D02*
X147984819Y-134827380D01*
X147984819Y-134827380D02*
X147984819Y-134732142D01*
X147984819Y-134732142D02*
X148032438Y-134589285D01*
X148032438Y-134589285D02*
X148080057Y-134541666D01*
X147984819Y-134208332D02*
X147984819Y-133589285D01*
X147984819Y-133589285D02*
X148365771Y-133922618D01*
X148365771Y-133922618D02*
X148365771Y-133779761D01*
X148365771Y-133779761D02*
X148413390Y-133684523D01*
X148413390Y-133684523D02*
X148461009Y-133636904D01*
X148461009Y-133636904D02*
X148556247Y-133589285D01*
X148556247Y-133589285D02*
X148794342Y-133589285D01*
X148794342Y-133589285D02*
X148889580Y-133636904D01*
X148889580Y-133636904D02*
X148937200Y-133684523D01*
X148937200Y-133684523D02*
X148984819Y-133779761D01*
X148984819Y-133779761D02*
X148984819Y-134065475D01*
X148984819Y-134065475D02*
X148937200Y-134160713D01*
X148937200Y-134160713D02*
X148889580Y-134208332D01*
X126684819Y-142576190D02*
X126208628Y-142909523D01*
X126684819Y-143147618D02*
X125684819Y-143147618D01*
X125684819Y-143147618D02*
X125684819Y-142766666D01*
X125684819Y-142766666D02*
X125732438Y-142671428D01*
X125732438Y-142671428D02*
X125780057Y-142623809D01*
X125780057Y-142623809D02*
X125875295Y-142576190D01*
X125875295Y-142576190D02*
X126018152Y-142576190D01*
X126018152Y-142576190D02*
X126113390Y-142623809D01*
X126113390Y-142623809D02*
X126161009Y-142671428D01*
X126161009Y-142671428D02*
X126208628Y-142766666D01*
X126208628Y-142766666D02*
X126208628Y-143147618D01*
X125780057Y-142195237D02*
X125732438Y-142147618D01*
X125732438Y-142147618D02*
X125684819Y-142052380D01*
X125684819Y-142052380D02*
X125684819Y-141814285D01*
X125684819Y-141814285D02*
X125732438Y-141719047D01*
X125732438Y-141719047D02*
X125780057Y-141671428D01*
X125780057Y-141671428D02*
X125875295Y-141623809D01*
X125875295Y-141623809D02*
X125970533Y-141623809D01*
X125970533Y-141623809D02*
X126113390Y-141671428D01*
X126113390Y-141671428D02*
X126684819Y-142242856D01*
X126684819Y-142242856D02*
X126684819Y-141623809D01*
X125684819Y-140719047D02*
X125684819Y-141195237D01*
X125684819Y-141195237D02*
X126161009Y-141242856D01*
X126161009Y-141242856D02*
X126113390Y-141195237D01*
X126113390Y-141195237D02*
X126065771Y-141099999D01*
X126065771Y-141099999D02*
X126065771Y-140861904D01*
X126065771Y-140861904D02*
X126113390Y-140766666D01*
X126113390Y-140766666D02*
X126161009Y-140719047D01*
X126161009Y-140719047D02*
X126256247Y-140671428D01*
X126256247Y-140671428D02*
X126494342Y-140671428D01*
X126494342Y-140671428D02*
X126589580Y-140719047D01*
X126589580Y-140719047D02*
X126637200Y-140766666D01*
X126637200Y-140766666D02*
X126684819Y-140861904D01*
X126684819Y-140861904D02*
X126684819Y-141099999D01*
X126684819Y-141099999D02*
X126637200Y-141195237D01*
X126637200Y-141195237D02*
X126589580Y-141242856D01*
X125780057Y-140290475D02*
X125732438Y-140242856D01*
X125732438Y-140242856D02*
X125684819Y-140147618D01*
X125684819Y-140147618D02*
X125684819Y-139909523D01*
X125684819Y-139909523D02*
X125732438Y-139814285D01*
X125732438Y-139814285D02*
X125780057Y-139766666D01*
X125780057Y-139766666D02*
X125875295Y-139719047D01*
X125875295Y-139719047D02*
X125970533Y-139719047D01*
X125970533Y-139719047D02*
X126113390Y-139766666D01*
X126113390Y-139766666D02*
X126684819Y-140338094D01*
X126684819Y-140338094D02*
X126684819Y-139719047D01*
X125684819Y-139099999D02*
X125684819Y-139004761D01*
X125684819Y-139004761D02*
X125732438Y-138909523D01*
X125732438Y-138909523D02*
X125780057Y-138861904D01*
X125780057Y-138861904D02*
X125875295Y-138814285D01*
X125875295Y-138814285D02*
X126065771Y-138766666D01*
X126065771Y-138766666D02*
X126303866Y-138766666D01*
X126303866Y-138766666D02*
X126494342Y-138814285D01*
X126494342Y-138814285D02*
X126589580Y-138861904D01*
X126589580Y-138861904D02*
X126637200Y-138909523D01*
X126637200Y-138909523D02*
X126684819Y-139004761D01*
X126684819Y-139004761D02*
X126684819Y-139099999D01*
X126684819Y-139099999D02*
X126637200Y-139195237D01*
X126637200Y-139195237D02*
X126589580Y-139242856D01*
X126589580Y-139242856D02*
X126494342Y-139290475D01*
X126494342Y-139290475D02*
X126303866Y-139338094D01*
X126303866Y-139338094D02*
X126065771Y-139338094D01*
X126065771Y-139338094D02*
X125875295Y-139290475D01*
X125875295Y-139290475D02*
X125780057Y-139242856D01*
X125780057Y-139242856D02*
X125732438Y-139195237D01*
X125732438Y-139195237D02*
X125684819Y-139099999D01*
X126684819Y-138338094D02*
X125684819Y-138338094D01*
X126303866Y-138242856D02*
X126684819Y-137957142D01*
X126018152Y-137957142D02*
X126399104Y-138338094D01*
X126684819Y-137004761D02*
X126684819Y-137576189D01*
X126684819Y-137290475D02*
X125684819Y-137290475D01*
X125684819Y-137290475D02*
X125827676Y-137385713D01*
X125827676Y-137385713D02*
X125922914Y-137480951D01*
X125922914Y-137480951D02*
X125970533Y-137576189D01*
X145924819Y-122538095D02*
X145877200Y-122633333D01*
X145877200Y-122633333D02*
X145781961Y-122680952D01*
X145781961Y-122680952D02*
X144924819Y-122680952D01*
X145877200Y-121776190D02*
X145924819Y-121871428D01*
X145924819Y-121871428D02*
X145924819Y-122061904D01*
X145924819Y-122061904D02*
X145877200Y-122157142D01*
X145877200Y-122157142D02*
X145781961Y-122204761D01*
X145781961Y-122204761D02*
X145401009Y-122204761D01*
X145401009Y-122204761D02*
X145305771Y-122157142D01*
X145305771Y-122157142D02*
X145258152Y-122061904D01*
X145258152Y-122061904D02*
X145258152Y-121871428D01*
X145258152Y-121871428D02*
X145305771Y-121776190D01*
X145305771Y-121776190D02*
X145401009Y-121728571D01*
X145401009Y-121728571D02*
X145496247Y-121728571D01*
X145496247Y-121728571D02*
X145591485Y-122204761D01*
X145924819Y-120871428D02*
X144924819Y-120871428D01*
X145877200Y-120871428D02*
X145924819Y-120966666D01*
X145924819Y-120966666D02*
X145924819Y-121157142D01*
X145924819Y-121157142D02*
X145877200Y-121252380D01*
X145877200Y-121252380D02*
X145829580Y-121299999D01*
X145829580Y-121299999D02*
X145734342Y-121347618D01*
X145734342Y-121347618D02*
X145448628Y-121347618D01*
X145448628Y-121347618D02*
X145353390Y-121299999D01*
X145353390Y-121299999D02*
X145305771Y-121252380D01*
X145305771Y-121252380D02*
X145258152Y-121157142D01*
X145258152Y-121157142D02*
X145258152Y-120966666D01*
X145258152Y-120966666D02*
X145305771Y-120871428D01*
X145924819Y-119871428D02*
X145924819Y-120442856D01*
X145924819Y-120157142D02*
X144924819Y-120157142D01*
X144924819Y-120157142D02*
X145067676Y-120252380D01*
X145067676Y-120252380D02*
X145162914Y-120347618D01*
X145162914Y-120347618D02*
X145210533Y-120442856D01*
X141416666Y-152454819D02*
X141416666Y-151454819D01*
X141416666Y-151835771D02*
X141511904Y-151788152D01*
X141511904Y-151788152D02*
X141702380Y-151788152D01*
X141702380Y-151788152D02*
X141797618Y-151835771D01*
X141797618Y-151835771D02*
X141845237Y-151883390D01*
X141845237Y-151883390D02*
X141892856Y-151978628D01*
X141892856Y-151978628D02*
X141892856Y-152264342D01*
X141892856Y-152264342D02*
X141845237Y-152359580D01*
X141845237Y-152359580D02*
X141797618Y-152407200D01*
X141797618Y-152407200D02*
X141702380Y-152454819D01*
X141702380Y-152454819D02*
X141511904Y-152454819D01*
X141511904Y-152454819D02*
X141416666Y-152407200D01*
X142464285Y-152454819D02*
X142369047Y-152407200D01*
X142369047Y-152407200D02*
X142321428Y-152359580D01*
X142321428Y-152359580D02*
X142273809Y-152264342D01*
X142273809Y-152264342D02*
X142273809Y-151978628D01*
X142273809Y-151978628D02*
X142321428Y-151883390D01*
X142321428Y-151883390D02*
X142369047Y-151835771D01*
X142369047Y-151835771D02*
X142464285Y-151788152D01*
X142464285Y-151788152D02*
X142607142Y-151788152D01*
X142607142Y-151788152D02*
X142702380Y-151835771D01*
X142702380Y-151835771D02*
X142749999Y-151883390D01*
X142749999Y-151883390D02*
X142797618Y-151978628D01*
X142797618Y-151978628D02*
X142797618Y-152264342D01*
X142797618Y-152264342D02*
X142749999Y-152359580D01*
X142749999Y-152359580D02*
X142702380Y-152407200D01*
X142702380Y-152407200D02*
X142607142Y-152454819D01*
X142607142Y-152454819D02*
X142464285Y-152454819D01*
X143083333Y-151788152D02*
X143464285Y-151788152D01*
X143226190Y-151454819D02*
X143226190Y-152311961D01*
X143226190Y-152311961D02*
X143273809Y-152407200D01*
X143273809Y-152407200D02*
X143369047Y-152454819D01*
X143369047Y-152454819D02*
X143464285Y-152454819D01*
X143940476Y-152454819D02*
X143845238Y-152407200D01*
X143845238Y-152407200D02*
X143797619Y-152359580D01*
X143797619Y-152359580D02*
X143750000Y-152264342D01*
X143750000Y-152264342D02*
X143750000Y-151978628D01*
X143750000Y-151978628D02*
X143797619Y-151883390D01*
X143797619Y-151883390D02*
X143845238Y-151835771D01*
X143845238Y-151835771D02*
X143940476Y-151788152D01*
X143940476Y-151788152D02*
X144083333Y-151788152D01*
X144083333Y-151788152D02*
X144178571Y-151835771D01*
X144178571Y-151835771D02*
X144226190Y-151883390D01*
X144226190Y-151883390D02*
X144273809Y-151978628D01*
X144273809Y-151978628D02*
X144273809Y-152264342D01*
X144273809Y-152264342D02*
X144226190Y-152359580D01*
X144226190Y-152359580D02*
X144178571Y-152407200D01*
X144178571Y-152407200D02*
X144083333Y-152454819D01*
X144083333Y-152454819D02*
X143940476Y-152454819D01*
X144702381Y-151788152D02*
X144702381Y-152454819D01*
X144702381Y-151883390D02*
X144750000Y-151835771D01*
X144750000Y-151835771D02*
X144845238Y-151788152D01*
X144845238Y-151788152D02*
X144988095Y-151788152D01*
X144988095Y-151788152D02*
X145083333Y-151835771D01*
X145083333Y-151835771D02*
X145130952Y-151931009D01*
X145130952Y-151931009D02*
X145130952Y-152454819D01*
X145559524Y-151550057D02*
X145607143Y-151502438D01*
X145607143Y-151502438D02*
X145702381Y-151454819D01*
X145702381Y-151454819D02*
X145940476Y-151454819D01*
X145940476Y-151454819D02*
X146035714Y-151502438D01*
X146035714Y-151502438D02*
X146083333Y-151550057D01*
X146083333Y-151550057D02*
X146130952Y-151645295D01*
X146130952Y-151645295D02*
X146130952Y-151740533D01*
X146130952Y-151740533D02*
X146083333Y-151883390D01*
X146083333Y-151883390D02*
X145511905Y-152454819D01*
X145511905Y-152454819D02*
X146130952Y-152454819D01*
X133716666Y-114131009D02*
X133859523Y-114178628D01*
X133859523Y-114178628D02*
X133907142Y-114226247D01*
X133907142Y-114226247D02*
X133954761Y-114321485D01*
X133954761Y-114321485D02*
X133954761Y-114464342D01*
X133954761Y-114464342D02*
X133907142Y-114559580D01*
X133907142Y-114559580D02*
X133859523Y-114607200D01*
X133859523Y-114607200D02*
X133764285Y-114654819D01*
X133764285Y-114654819D02*
X133383333Y-114654819D01*
X133383333Y-114654819D02*
X133383333Y-113654819D01*
X133383333Y-113654819D02*
X133716666Y-113654819D01*
X133716666Y-113654819D02*
X133811904Y-113702438D01*
X133811904Y-113702438D02*
X133859523Y-113750057D01*
X133859523Y-113750057D02*
X133907142Y-113845295D01*
X133907142Y-113845295D02*
X133907142Y-113940533D01*
X133907142Y-113940533D02*
X133859523Y-114035771D01*
X133859523Y-114035771D02*
X133811904Y-114083390D01*
X133811904Y-114083390D02*
X133716666Y-114131009D01*
X133716666Y-114131009D02*
X133383333Y-114131009D01*
X134573809Y-113654819D02*
X134764285Y-113654819D01*
X134764285Y-113654819D02*
X134859523Y-113702438D01*
X134859523Y-113702438D02*
X134954761Y-113797676D01*
X134954761Y-113797676D02*
X135002380Y-113988152D01*
X135002380Y-113988152D02*
X135002380Y-114321485D01*
X135002380Y-114321485D02*
X134954761Y-114511961D01*
X134954761Y-114511961D02*
X134859523Y-114607200D01*
X134859523Y-114607200D02*
X134764285Y-114654819D01*
X134764285Y-114654819D02*
X134573809Y-114654819D01*
X134573809Y-114654819D02*
X134478571Y-114607200D01*
X134478571Y-114607200D02*
X134383333Y-114511961D01*
X134383333Y-114511961D02*
X134335714Y-114321485D01*
X134335714Y-114321485D02*
X134335714Y-113988152D01*
X134335714Y-113988152D02*
X134383333Y-113797676D01*
X134383333Y-113797676D02*
X134478571Y-113702438D01*
X134478571Y-113702438D02*
X134573809Y-113654819D01*
X135621428Y-113654819D02*
X135811904Y-113654819D01*
X135811904Y-113654819D02*
X135907142Y-113702438D01*
X135907142Y-113702438D02*
X136002380Y-113797676D01*
X136002380Y-113797676D02*
X136049999Y-113988152D01*
X136049999Y-113988152D02*
X136049999Y-114321485D01*
X136049999Y-114321485D02*
X136002380Y-114511961D01*
X136002380Y-114511961D02*
X135907142Y-114607200D01*
X135907142Y-114607200D02*
X135811904Y-114654819D01*
X135811904Y-114654819D02*
X135621428Y-114654819D01*
X135621428Y-114654819D02*
X135526190Y-114607200D01*
X135526190Y-114607200D02*
X135430952Y-114511961D01*
X135430952Y-114511961D02*
X135383333Y-114321485D01*
X135383333Y-114321485D02*
X135383333Y-113988152D01*
X135383333Y-113988152D02*
X135430952Y-113797676D01*
X135430952Y-113797676D02*
X135526190Y-113702438D01*
X135526190Y-113702438D02*
X135621428Y-113654819D01*
X136335714Y-113654819D02*
X136907142Y-113654819D01*
X136621428Y-114654819D02*
X136621428Y-113654819D01*
X137764285Y-114654819D02*
X137192857Y-114654819D01*
X137478571Y-114654819D02*
X137478571Y-113654819D01*
X137478571Y-113654819D02*
X137383333Y-113797676D01*
X137383333Y-113797676D02*
X137288095Y-113892914D01*
X137288095Y-113892914D02*
X137192857Y-113940533D01*
X148219046Y-118199819D02*
X148219046Y-117676009D01*
X148219046Y-117676009D02*
X148171427Y-117580771D01*
X148171427Y-117580771D02*
X148076189Y-117533152D01*
X148076189Y-117533152D02*
X147885713Y-117533152D01*
X147885713Y-117533152D02*
X147790475Y-117580771D01*
X148219046Y-118152200D02*
X148123808Y-118199819D01*
X148123808Y-118199819D02*
X147885713Y-118199819D01*
X147885713Y-118199819D02*
X147790475Y-118152200D01*
X147790475Y-118152200D02*
X147742856Y-118056961D01*
X147742856Y-118056961D02*
X147742856Y-117961723D01*
X147742856Y-117961723D02*
X147790475Y-117866485D01*
X147790475Y-117866485D02*
X147885713Y-117818866D01*
X147885713Y-117818866D02*
X148123808Y-117818866D01*
X148123808Y-117818866D02*
X148219046Y-117771247D01*
X148695237Y-118199819D02*
X148695237Y-117533152D01*
X148695237Y-117723628D02*
X148742856Y-117628390D01*
X148742856Y-117628390D02*
X148790475Y-117580771D01*
X148790475Y-117580771D02*
X148885713Y-117533152D01*
X148885713Y-117533152D02*
X148980951Y-117533152D01*
X149314285Y-118199819D02*
X149314285Y-117533152D01*
X149314285Y-117723628D02*
X149361904Y-117628390D01*
X149361904Y-117628390D02*
X149409523Y-117580771D01*
X149409523Y-117580771D02*
X149504761Y-117533152D01*
X149504761Y-117533152D02*
X149599999Y-117533152D01*
X150361904Y-118199819D02*
X150361904Y-117676009D01*
X150361904Y-117676009D02*
X150314285Y-117580771D01*
X150314285Y-117580771D02*
X150219047Y-117533152D01*
X150219047Y-117533152D02*
X150028571Y-117533152D01*
X150028571Y-117533152D02*
X149933333Y-117580771D01*
X150361904Y-118152200D02*
X150266666Y-118199819D01*
X150266666Y-118199819D02*
X150028571Y-118199819D01*
X150028571Y-118199819D02*
X149933333Y-118152200D01*
X149933333Y-118152200D02*
X149885714Y-118056961D01*
X149885714Y-118056961D02*
X149885714Y-117961723D01*
X149885714Y-117961723D02*
X149933333Y-117866485D01*
X149933333Y-117866485D02*
X150028571Y-117818866D01*
X150028571Y-117818866D02*
X150266666Y-117818866D01*
X150266666Y-117818866D02*
X150361904Y-117771247D01*
X150838095Y-117533152D02*
X150838095Y-118199819D01*
X150838095Y-117628390D02*
X150885714Y-117580771D01*
X150885714Y-117580771D02*
X150980952Y-117533152D01*
X150980952Y-117533152D02*
X151123809Y-117533152D01*
X151123809Y-117533152D02*
X151219047Y-117580771D01*
X151219047Y-117580771D02*
X151266666Y-117676009D01*
X151266666Y-117676009D02*
X151266666Y-118199819D01*
X152171428Y-118152200D02*
X152076190Y-118199819D01*
X152076190Y-118199819D02*
X151885714Y-118199819D01*
X151885714Y-118199819D02*
X151790476Y-118152200D01*
X151790476Y-118152200D02*
X151742857Y-118104580D01*
X151742857Y-118104580D02*
X151695238Y-118009342D01*
X151695238Y-118009342D02*
X151695238Y-117723628D01*
X151695238Y-117723628D02*
X151742857Y-117628390D01*
X151742857Y-117628390D02*
X151790476Y-117580771D01*
X151790476Y-117580771D02*
X151885714Y-117533152D01*
X151885714Y-117533152D02*
X152076190Y-117533152D01*
X152076190Y-117533152D02*
X152171428Y-117580771D01*
X153028571Y-118199819D02*
X153028571Y-117676009D01*
X153028571Y-117676009D02*
X152980952Y-117580771D01*
X152980952Y-117580771D02*
X152885714Y-117533152D01*
X152885714Y-117533152D02*
X152695238Y-117533152D01*
X152695238Y-117533152D02*
X152600000Y-117580771D01*
X153028571Y-118152200D02*
X152933333Y-118199819D01*
X152933333Y-118199819D02*
X152695238Y-118199819D01*
X152695238Y-118199819D02*
X152600000Y-118152200D01*
X152600000Y-118152200D02*
X152552381Y-118056961D01*
X152552381Y-118056961D02*
X152552381Y-117961723D01*
X152552381Y-117961723D02*
X152600000Y-117866485D01*
X152600000Y-117866485D02*
X152695238Y-117818866D01*
X152695238Y-117818866D02*
X152933333Y-117818866D01*
X152933333Y-117818866D02*
X153028571Y-117771247D01*
X153933333Y-118199819D02*
X153933333Y-117199819D01*
X153933333Y-118152200D02*
X153838095Y-118199819D01*
X153838095Y-118199819D02*
X153647619Y-118199819D01*
X153647619Y-118199819D02*
X153552381Y-118152200D01*
X153552381Y-118152200D02*
X153504762Y-118104580D01*
X153504762Y-118104580D02*
X153457143Y-118009342D01*
X153457143Y-118009342D02*
X153457143Y-117723628D01*
X153457143Y-117723628D02*
X153504762Y-117628390D01*
X153504762Y-117628390D02*
X153552381Y-117580771D01*
X153552381Y-117580771D02*
X153647619Y-117533152D01*
X153647619Y-117533152D02*
X153838095Y-117533152D01*
X153838095Y-117533152D02*
X153933333Y-117580771D01*
X154552381Y-118199819D02*
X154457143Y-118152200D01*
X154457143Y-118152200D02*
X154409524Y-118104580D01*
X154409524Y-118104580D02*
X154361905Y-118009342D01*
X154361905Y-118009342D02*
X154361905Y-117723628D01*
X154361905Y-117723628D02*
X154409524Y-117628390D01*
X154409524Y-117628390D02*
X154457143Y-117580771D01*
X154457143Y-117580771D02*
X154552381Y-117533152D01*
X154552381Y-117533152D02*
X154695238Y-117533152D01*
X154695238Y-117533152D02*
X154790476Y-117580771D01*
X154790476Y-117580771D02*
X154838095Y-117628390D01*
X154838095Y-117628390D02*
X154885714Y-117723628D01*
X154885714Y-117723628D02*
X154885714Y-118009342D01*
X154885714Y-118009342D02*
X154838095Y-118104580D01*
X154838095Y-118104580D02*
X154790476Y-118152200D01*
X154790476Y-118152200D02*
X154695238Y-118199819D01*
X154695238Y-118199819D02*
X154552381Y-118199819D01*
X155314286Y-118199819D02*
X155314286Y-117533152D01*
X155314286Y-117723628D02*
X155361905Y-117628390D01*
X155361905Y-117628390D02*
X155409524Y-117580771D01*
X155409524Y-117580771D02*
X155504762Y-117533152D01*
X155504762Y-117533152D02*
X155600000Y-117533152D01*
X156457143Y-118199819D02*
X155885715Y-118199819D01*
X156171429Y-118199819D02*
X156171429Y-117199819D01*
X156171429Y-117199819D02*
X156076191Y-117342676D01*
X156076191Y-117342676D02*
X155980953Y-117437914D01*
X155980953Y-117437914D02*
X155885715Y-117485533D01*
X131284819Y-138951190D02*
X130808628Y-139284523D01*
X131284819Y-139522618D02*
X130284819Y-139522618D01*
X130284819Y-139522618D02*
X130284819Y-139141666D01*
X130284819Y-139141666D02*
X130332438Y-139046428D01*
X130332438Y-139046428D02*
X130380057Y-138998809D01*
X130380057Y-138998809D02*
X130475295Y-138951190D01*
X130475295Y-138951190D02*
X130618152Y-138951190D01*
X130618152Y-138951190D02*
X130713390Y-138998809D01*
X130713390Y-138998809D02*
X130761009Y-139046428D01*
X130761009Y-139046428D02*
X130808628Y-139141666D01*
X130808628Y-139141666D02*
X130808628Y-139522618D01*
X130380057Y-138570237D02*
X130332438Y-138522618D01*
X130332438Y-138522618D02*
X130284819Y-138427380D01*
X130284819Y-138427380D02*
X130284819Y-138189285D01*
X130284819Y-138189285D02*
X130332438Y-138094047D01*
X130332438Y-138094047D02*
X130380057Y-138046428D01*
X130380057Y-138046428D02*
X130475295Y-137998809D01*
X130475295Y-137998809D02*
X130570533Y-137998809D01*
X130570533Y-137998809D02*
X130713390Y-138046428D01*
X130713390Y-138046428D02*
X131284819Y-138617856D01*
X131284819Y-138617856D02*
X131284819Y-137998809D01*
X130618152Y-137141666D02*
X131284819Y-137141666D01*
X130237200Y-137379761D02*
X130951485Y-137617856D01*
X130951485Y-137617856D02*
X130951485Y-136998809D01*
X131284819Y-136094047D02*
X131284819Y-136665475D01*
X131284819Y-136379761D02*
X130284819Y-136379761D01*
X130284819Y-136379761D02*
X130427676Y-136474999D01*
X130427676Y-136474999D02*
X130522914Y-136570237D01*
X130522914Y-136570237D02*
X130570533Y-136665475D01*
X130284819Y-135474999D02*
X130284819Y-135379761D01*
X130284819Y-135379761D02*
X130332438Y-135284523D01*
X130332438Y-135284523D02*
X130380057Y-135236904D01*
X130380057Y-135236904D02*
X130475295Y-135189285D01*
X130475295Y-135189285D02*
X130665771Y-135141666D01*
X130665771Y-135141666D02*
X130903866Y-135141666D01*
X130903866Y-135141666D02*
X131094342Y-135189285D01*
X131094342Y-135189285D02*
X131189580Y-135236904D01*
X131189580Y-135236904D02*
X131237200Y-135284523D01*
X131237200Y-135284523D02*
X131284819Y-135379761D01*
X131284819Y-135379761D02*
X131284819Y-135474999D01*
X131284819Y-135474999D02*
X131237200Y-135570237D01*
X131237200Y-135570237D02*
X131189580Y-135617856D01*
X131189580Y-135617856D02*
X131094342Y-135665475D01*
X131094342Y-135665475D02*
X130903866Y-135713094D01*
X130903866Y-135713094D02*
X130665771Y-135713094D01*
X130665771Y-135713094D02*
X130475295Y-135665475D01*
X130475295Y-135665475D02*
X130380057Y-135617856D01*
X130380057Y-135617856D02*
X130332438Y-135570237D01*
X130332438Y-135570237D02*
X130284819Y-135474999D01*
X131284819Y-134713094D02*
X130284819Y-134713094D01*
X130903866Y-134617856D02*
X131284819Y-134332142D01*
X130618152Y-134332142D02*
X130999104Y-134713094D01*
X131284819Y-133379761D02*
X131284819Y-133951189D01*
X131284819Y-133665475D02*
X130284819Y-133665475D01*
X130284819Y-133665475D02*
X130427676Y-133760713D01*
X130427676Y-133760713D02*
X130522914Y-133855951D01*
X130522914Y-133855951D02*
X130570533Y-133951189D01*
X145824819Y-125366666D02*
X145348628Y-125699999D01*
X145824819Y-125938094D02*
X144824819Y-125938094D01*
X144824819Y-125938094D02*
X144824819Y-125557142D01*
X144824819Y-125557142D02*
X144872438Y-125461904D01*
X144872438Y-125461904D02*
X144920057Y-125414285D01*
X144920057Y-125414285D02*
X145015295Y-125366666D01*
X145015295Y-125366666D02*
X145158152Y-125366666D01*
X145158152Y-125366666D02*
X145253390Y-125414285D01*
X145253390Y-125414285D02*
X145301009Y-125461904D01*
X145301009Y-125461904D02*
X145348628Y-125557142D01*
X145348628Y-125557142D02*
X145348628Y-125938094D01*
X144824819Y-125033332D02*
X144824819Y-124414285D01*
X144824819Y-124414285D02*
X145205771Y-124747618D01*
X145205771Y-124747618D02*
X145205771Y-124604761D01*
X145205771Y-124604761D02*
X145253390Y-124509523D01*
X145253390Y-124509523D02*
X145301009Y-124461904D01*
X145301009Y-124461904D02*
X145396247Y-124414285D01*
X145396247Y-124414285D02*
X145634342Y-124414285D01*
X145634342Y-124414285D02*
X145729580Y-124461904D01*
X145729580Y-124461904D02*
X145777200Y-124509523D01*
X145777200Y-124509523D02*
X145824819Y-124604761D01*
X145824819Y-124604761D02*
X145824819Y-124890475D01*
X145824819Y-124890475D02*
X145777200Y-124985713D01*
X145777200Y-124985713D02*
X145729580Y-125033332D01*
X149838095Y-100637200D02*
X149933333Y-100684819D01*
X149933333Y-100684819D02*
X150123809Y-100684819D01*
X150123809Y-100684819D02*
X150219047Y-100637200D01*
X150219047Y-100637200D02*
X150266666Y-100541961D01*
X150266666Y-100541961D02*
X150266666Y-100494342D01*
X150266666Y-100494342D02*
X150219047Y-100399104D01*
X150219047Y-100399104D02*
X150123809Y-100351485D01*
X150123809Y-100351485D02*
X149980952Y-100351485D01*
X149980952Y-100351485D02*
X149885714Y-100303866D01*
X149885714Y-100303866D02*
X149838095Y-100208628D01*
X149838095Y-100208628D02*
X149838095Y-100161009D01*
X149838095Y-100161009D02*
X149885714Y-100065771D01*
X149885714Y-100065771D02*
X149980952Y-100018152D01*
X149980952Y-100018152D02*
X150123809Y-100018152D01*
X150123809Y-100018152D02*
X150219047Y-100065771D01*
X151076190Y-100637200D02*
X150980952Y-100684819D01*
X150980952Y-100684819D02*
X150790476Y-100684819D01*
X150790476Y-100684819D02*
X150695238Y-100637200D01*
X150695238Y-100637200D02*
X150647619Y-100541961D01*
X150647619Y-100541961D02*
X150647619Y-100161009D01*
X150647619Y-100161009D02*
X150695238Y-100065771D01*
X150695238Y-100065771D02*
X150790476Y-100018152D01*
X150790476Y-100018152D02*
X150980952Y-100018152D01*
X150980952Y-100018152D02*
X151076190Y-100065771D01*
X151076190Y-100065771D02*
X151123809Y-100161009D01*
X151123809Y-100161009D02*
X151123809Y-100256247D01*
X151123809Y-100256247D02*
X150647619Y-100351485D01*
X151552381Y-100684819D02*
X151552381Y-100018152D01*
X151552381Y-100208628D02*
X151600000Y-100113390D01*
X151600000Y-100113390D02*
X151647619Y-100065771D01*
X151647619Y-100065771D02*
X151742857Y-100018152D01*
X151742857Y-100018152D02*
X151838095Y-100018152D01*
X152076191Y-100018152D02*
X152314286Y-100684819D01*
X152314286Y-100684819D02*
X152552381Y-100018152D01*
X153076191Y-100684819D02*
X152980953Y-100637200D01*
X152980953Y-100637200D02*
X152933334Y-100589580D01*
X152933334Y-100589580D02*
X152885715Y-100494342D01*
X152885715Y-100494342D02*
X152885715Y-100208628D01*
X152885715Y-100208628D02*
X152933334Y-100113390D01*
X152933334Y-100113390D02*
X152980953Y-100065771D01*
X152980953Y-100065771D02*
X153076191Y-100018152D01*
X153076191Y-100018152D02*
X153219048Y-100018152D01*
X153219048Y-100018152D02*
X153314286Y-100065771D01*
X153314286Y-100065771D02*
X153361905Y-100113390D01*
X153361905Y-100113390D02*
X153409524Y-100208628D01*
X153409524Y-100208628D02*
X153409524Y-100494342D01*
X153409524Y-100494342D02*
X153361905Y-100589580D01*
X153361905Y-100589580D02*
X153314286Y-100637200D01*
X153314286Y-100637200D02*
X153219048Y-100684819D01*
X153219048Y-100684819D02*
X153076191Y-100684819D01*
X154361905Y-100684819D02*
X153790477Y-100684819D01*
X154076191Y-100684819D02*
X154076191Y-99684819D01*
X154076191Y-99684819D02*
X153980953Y-99827676D01*
X153980953Y-99827676D02*
X153885715Y-99922914D01*
X153885715Y-99922914D02*
X153790477Y-99970533D01*
X128424819Y-129851190D02*
X127948628Y-130184523D01*
X128424819Y-130422618D02*
X127424819Y-130422618D01*
X127424819Y-130422618D02*
X127424819Y-130041666D01*
X127424819Y-130041666D02*
X127472438Y-129946428D01*
X127472438Y-129946428D02*
X127520057Y-129898809D01*
X127520057Y-129898809D02*
X127615295Y-129851190D01*
X127615295Y-129851190D02*
X127758152Y-129851190D01*
X127758152Y-129851190D02*
X127853390Y-129898809D01*
X127853390Y-129898809D02*
X127901009Y-129946428D01*
X127901009Y-129946428D02*
X127948628Y-130041666D01*
X127948628Y-130041666D02*
X127948628Y-130422618D01*
X128424819Y-128898809D02*
X128424819Y-129470237D01*
X128424819Y-129184523D02*
X127424819Y-129184523D01*
X127424819Y-129184523D02*
X127567676Y-129279761D01*
X127567676Y-129279761D02*
X127662914Y-129374999D01*
X127662914Y-129374999D02*
X127710533Y-129470237D01*
X127853390Y-128327380D02*
X127805771Y-128422618D01*
X127805771Y-128422618D02*
X127758152Y-128470237D01*
X127758152Y-128470237D02*
X127662914Y-128517856D01*
X127662914Y-128517856D02*
X127615295Y-128517856D01*
X127615295Y-128517856D02*
X127520057Y-128470237D01*
X127520057Y-128470237D02*
X127472438Y-128422618D01*
X127472438Y-128422618D02*
X127424819Y-128327380D01*
X127424819Y-128327380D02*
X127424819Y-128136904D01*
X127424819Y-128136904D02*
X127472438Y-128041666D01*
X127472438Y-128041666D02*
X127520057Y-127994047D01*
X127520057Y-127994047D02*
X127615295Y-127946428D01*
X127615295Y-127946428D02*
X127662914Y-127946428D01*
X127662914Y-127946428D02*
X127758152Y-127994047D01*
X127758152Y-127994047D02*
X127805771Y-128041666D01*
X127805771Y-128041666D02*
X127853390Y-128136904D01*
X127853390Y-128136904D02*
X127853390Y-128327380D01*
X127853390Y-128327380D02*
X127901009Y-128422618D01*
X127901009Y-128422618D02*
X127948628Y-128470237D01*
X127948628Y-128470237D02*
X128043866Y-128517856D01*
X128043866Y-128517856D02*
X128234342Y-128517856D01*
X128234342Y-128517856D02*
X128329580Y-128470237D01*
X128329580Y-128470237D02*
X128377200Y-128422618D01*
X128377200Y-128422618D02*
X128424819Y-128327380D01*
X128424819Y-128327380D02*
X128424819Y-128136904D01*
X128424819Y-128136904D02*
X128377200Y-128041666D01*
X128377200Y-128041666D02*
X128329580Y-127994047D01*
X128329580Y-127994047D02*
X128234342Y-127946428D01*
X128234342Y-127946428D02*
X128043866Y-127946428D01*
X128043866Y-127946428D02*
X127948628Y-127994047D01*
X127948628Y-127994047D02*
X127901009Y-128041666D01*
X127901009Y-128041666D02*
X127853390Y-128136904D01*
X128424819Y-126994047D02*
X128424819Y-127565475D01*
X128424819Y-127279761D02*
X127424819Y-127279761D01*
X127424819Y-127279761D02*
X127567676Y-127374999D01*
X127567676Y-127374999D02*
X127662914Y-127470237D01*
X127662914Y-127470237D02*
X127710533Y-127565475D01*
X127424819Y-126374999D02*
X127424819Y-126279761D01*
X127424819Y-126279761D02*
X127472438Y-126184523D01*
X127472438Y-126184523D02*
X127520057Y-126136904D01*
X127520057Y-126136904D02*
X127615295Y-126089285D01*
X127615295Y-126089285D02*
X127805771Y-126041666D01*
X127805771Y-126041666D02*
X128043866Y-126041666D01*
X128043866Y-126041666D02*
X128234342Y-126089285D01*
X128234342Y-126089285D02*
X128329580Y-126136904D01*
X128329580Y-126136904D02*
X128377200Y-126184523D01*
X128377200Y-126184523D02*
X128424819Y-126279761D01*
X128424819Y-126279761D02*
X128424819Y-126374999D01*
X128424819Y-126374999D02*
X128377200Y-126470237D01*
X128377200Y-126470237D02*
X128329580Y-126517856D01*
X128329580Y-126517856D02*
X128234342Y-126565475D01*
X128234342Y-126565475D02*
X128043866Y-126613094D01*
X128043866Y-126613094D02*
X127805771Y-126613094D01*
X127805771Y-126613094D02*
X127615295Y-126565475D01*
X127615295Y-126565475D02*
X127520057Y-126517856D01*
X127520057Y-126517856D02*
X127472438Y-126470237D01*
X127472438Y-126470237D02*
X127424819Y-126374999D01*
X128424819Y-125613094D02*
X127424819Y-125613094D01*
X128043866Y-125517856D02*
X128424819Y-125232142D01*
X127758152Y-125232142D02*
X128139104Y-125613094D01*
X128424819Y-124279761D02*
X128424819Y-124851189D01*
X128424819Y-124565475D02*
X127424819Y-124565475D01*
X127424819Y-124565475D02*
X127567676Y-124660713D01*
X127567676Y-124660713D02*
X127662914Y-124755951D01*
X127662914Y-124755951D02*
X127710533Y-124851189D01*
X138424819Y-116966666D02*
X137948628Y-117299999D01*
X138424819Y-117538094D02*
X137424819Y-117538094D01*
X137424819Y-117538094D02*
X137424819Y-117157142D01*
X137424819Y-117157142D02*
X137472438Y-117061904D01*
X137472438Y-117061904D02*
X137520057Y-117014285D01*
X137520057Y-117014285D02*
X137615295Y-116966666D01*
X137615295Y-116966666D02*
X137758152Y-116966666D01*
X137758152Y-116966666D02*
X137853390Y-117014285D01*
X137853390Y-117014285D02*
X137901009Y-117061904D01*
X137901009Y-117061904D02*
X137948628Y-117157142D01*
X137948628Y-117157142D02*
X137948628Y-117538094D01*
X137424819Y-116109523D02*
X137424819Y-116299999D01*
X137424819Y-116299999D02*
X137472438Y-116395237D01*
X137472438Y-116395237D02*
X137520057Y-116442856D01*
X137520057Y-116442856D02*
X137662914Y-116538094D01*
X137662914Y-116538094D02*
X137853390Y-116585713D01*
X137853390Y-116585713D02*
X138234342Y-116585713D01*
X138234342Y-116585713D02*
X138329580Y-116538094D01*
X138329580Y-116538094D02*
X138377200Y-116490475D01*
X138377200Y-116490475D02*
X138424819Y-116395237D01*
X138424819Y-116395237D02*
X138424819Y-116204761D01*
X138424819Y-116204761D02*
X138377200Y-116109523D01*
X138377200Y-116109523D02*
X138329580Y-116061904D01*
X138329580Y-116061904D02*
X138234342Y-116014285D01*
X138234342Y-116014285D02*
X137996247Y-116014285D01*
X137996247Y-116014285D02*
X137901009Y-116061904D01*
X137901009Y-116061904D02*
X137853390Y-116109523D01*
X137853390Y-116109523D02*
X137805771Y-116204761D01*
X137805771Y-116204761D02*
X137805771Y-116395237D01*
X137805771Y-116395237D02*
X137853390Y-116490475D01*
X137853390Y-116490475D02*
X137901009Y-116538094D01*
X137901009Y-116538094D02*
X137996247Y-116585713D01*
X129284819Y-132951190D02*
X128808628Y-133284523D01*
X129284819Y-133522618D02*
X128284819Y-133522618D01*
X128284819Y-133522618D02*
X128284819Y-133141666D01*
X128284819Y-133141666D02*
X128332438Y-133046428D01*
X128332438Y-133046428D02*
X128380057Y-132998809D01*
X128380057Y-132998809D02*
X128475295Y-132951190D01*
X128475295Y-132951190D02*
X128618152Y-132951190D01*
X128618152Y-132951190D02*
X128713390Y-132998809D01*
X128713390Y-132998809D02*
X128761009Y-133046428D01*
X128761009Y-133046428D02*
X128808628Y-133141666D01*
X128808628Y-133141666D02*
X128808628Y-133522618D01*
X129284819Y-131998809D02*
X129284819Y-132570237D01*
X129284819Y-132284523D02*
X128284819Y-132284523D01*
X128284819Y-132284523D02*
X128427676Y-132379761D01*
X128427676Y-132379761D02*
X128522914Y-132474999D01*
X128522914Y-132474999D02*
X128570533Y-132570237D01*
X129284819Y-131522618D02*
X129284819Y-131332142D01*
X129284819Y-131332142D02*
X129237200Y-131236904D01*
X129237200Y-131236904D02*
X129189580Y-131189285D01*
X129189580Y-131189285D02*
X129046723Y-131094047D01*
X129046723Y-131094047D02*
X128856247Y-131046428D01*
X128856247Y-131046428D02*
X128475295Y-131046428D01*
X128475295Y-131046428D02*
X128380057Y-131094047D01*
X128380057Y-131094047D02*
X128332438Y-131141666D01*
X128332438Y-131141666D02*
X128284819Y-131236904D01*
X128284819Y-131236904D02*
X128284819Y-131427380D01*
X128284819Y-131427380D02*
X128332438Y-131522618D01*
X128332438Y-131522618D02*
X128380057Y-131570237D01*
X128380057Y-131570237D02*
X128475295Y-131617856D01*
X128475295Y-131617856D02*
X128713390Y-131617856D01*
X128713390Y-131617856D02*
X128808628Y-131570237D01*
X128808628Y-131570237D02*
X128856247Y-131522618D01*
X128856247Y-131522618D02*
X128903866Y-131427380D01*
X128903866Y-131427380D02*
X128903866Y-131236904D01*
X128903866Y-131236904D02*
X128856247Y-131141666D01*
X128856247Y-131141666D02*
X128808628Y-131094047D01*
X128808628Y-131094047D02*
X128713390Y-131046428D01*
X128380057Y-130665475D02*
X128332438Y-130617856D01*
X128332438Y-130617856D02*
X128284819Y-130522618D01*
X128284819Y-130522618D02*
X128284819Y-130284523D01*
X128284819Y-130284523D02*
X128332438Y-130189285D01*
X128332438Y-130189285D02*
X128380057Y-130141666D01*
X128380057Y-130141666D02*
X128475295Y-130094047D01*
X128475295Y-130094047D02*
X128570533Y-130094047D01*
X128570533Y-130094047D02*
X128713390Y-130141666D01*
X128713390Y-130141666D02*
X129284819Y-130713094D01*
X129284819Y-130713094D02*
X129284819Y-130094047D01*
X128284819Y-129474999D02*
X128284819Y-129379761D01*
X128284819Y-129379761D02*
X128332438Y-129284523D01*
X128332438Y-129284523D02*
X128380057Y-129236904D01*
X128380057Y-129236904D02*
X128475295Y-129189285D01*
X128475295Y-129189285D02*
X128665771Y-129141666D01*
X128665771Y-129141666D02*
X128903866Y-129141666D01*
X128903866Y-129141666D02*
X129094342Y-129189285D01*
X129094342Y-129189285D02*
X129189580Y-129236904D01*
X129189580Y-129236904D02*
X129237200Y-129284523D01*
X129237200Y-129284523D02*
X129284819Y-129379761D01*
X129284819Y-129379761D02*
X129284819Y-129474999D01*
X129284819Y-129474999D02*
X129237200Y-129570237D01*
X129237200Y-129570237D02*
X129189580Y-129617856D01*
X129189580Y-129617856D02*
X129094342Y-129665475D01*
X129094342Y-129665475D02*
X128903866Y-129713094D01*
X128903866Y-129713094D02*
X128665771Y-129713094D01*
X128665771Y-129713094D02*
X128475295Y-129665475D01*
X128475295Y-129665475D02*
X128380057Y-129617856D01*
X128380057Y-129617856D02*
X128332438Y-129570237D01*
X128332438Y-129570237D02*
X128284819Y-129474999D01*
X129284819Y-128713094D02*
X128284819Y-128713094D01*
X128903866Y-128617856D02*
X129284819Y-128332142D01*
X128618152Y-128332142D02*
X128999104Y-128713094D01*
X129284819Y-127379761D02*
X129284819Y-127951189D01*
X129284819Y-127665475D02*
X128284819Y-127665475D01*
X128284819Y-127665475D02*
X128427676Y-127760713D01*
X128427676Y-127760713D02*
X128522914Y-127855951D01*
X128522914Y-127855951D02*
X128570533Y-127951189D01*
X130988095Y-113254819D02*
X130988095Y-114064342D01*
X130988095Y-114064342D02*
X131035714Y-114159580D01*
X131035714Y-114159580D02*
X131083333Y-114207200D01*
X131083333Y-114207200D02*
X131178571Y-114254819D01*
X131178571Y-114254819D02*
X131369047Y-114254819D01*
X131369047Y-114254819D02*
X131464285Y-114207200D01*
X131464285Y-114207200D02*
X131511904Y-114159580D01*
X131511904Y-114159580D02*
X131559523Y-114064342D01*
X131559523Y-114064342D02*
X131559523Y-113254819D01*
X131988095Y-113350057D02*
X132035714Y-113302438D01*
X132035714Y-113302438D02*
X132130952Y-113254819D01*
X132130952Y-113254819D02*
X132369047Y-113254819D01*
X132369047Y-113254819D02*
X132464285Y-113302438D01*
X132464285Y-113302438D02*
X132511904Y-113350057D01*
X132511904Y-113350057D02*
X132559523Y-113445295D01*
X132559523Y-113445295D02*
X132559523Y-113540533D01*
X132559523Y-113540533D02*
X132511904Y-113683390D01*
X132511904Y-113683390D02*
X131940476Y-114254819D01*
X131940476Y-114254819D02*
X132559523Y-114254819D01*
X129384819Y-123851190D02*
X128908628Y-124184523D01*
X129384819Y-124422618D02*
X128384819Y-124422618D01*
X128384819Y-124422618D02*
X128384819Y-124041666D01*
X128384819Y-124041666D02*
X128432438Y-123946428D01*
X128432438Y-123946428D02*
X128480057Y-123898809D01*
X128480057Y-123898809D02*
X128575295Y-123851190D01*
X128575295Y-123851190D02*
X128718152Y-123851190D01*
X128718152Y-123851190D02*
X128813390Y-123898809D01*
X128813390Y-123898809D02*
X128861009Y-123946428D01*
X128861009Y-123946428D02*
X128908628Y-124041666D01*
X128908628Y-124041666D02*
X128908628Y-124422618D01*
X129384819Y-122898809D02*
X129384819Y-123470237D01*
X129384819Y-123184523D02*
X128384819Y-123184523D01*
X128384819Y-123184523D02*
X128527676Y-123279761D01*
X128527676Y-123279761D02*
X128622914Y-123374999D01*
X128622914Y-123374999D02*
X128670533Y-123470237D01*
X128384819Y-122565475D02*
X128384819Y-121946428D01*
X128384819Y-121946428D02*
X128765771Y-122279761D01*
X128765771Y-122279761D02*
X128765771Y-122136904D01*
X128765771Y-122136904D02*
X128813390Y-122041666D01*
X128813390Y-122041666D02*
X128861009Y-121994047D01*
X128861009Y-121994047D02*
X128956247Y-121946428D01*
X128956247Y-121946428D02*
X129194342Y-121946428D01*
X129194342Y-121946428D02*
X129289580Y-121994047D01*
X129289580Y-121994047D02*
X129337200Y-122041666D01*
X129337200Y-122041666D02*
X129384819Y-122136904D01*
X129384819Y-122136904D02*
X129384819Y-122422618D01*
X129384819Y-122422618D02*
X129337200Y-122517856D01*
X129337200Y-122517856D02*
X129289580Y-122565475D01*
X128480057Y-121565475D02*
X128432438Y-121517856D01*
X128432438Y-121517856D02*
X128384819Y-121422618D01*
X128384819Y-121422618D02*
X128384819Y-121184523D01*
X128384819Y-121184523D02*
X128432438Y-121089285D01*
X128432438Y-121089285D02*
X128480057Y-121041666D01*
X128480057Y-121041666D02*
X128575295Y-120994047D01*
X128575295Y-120994047D02*
X128670533Y-120994047D01*
X128670533Y-120994047D02*
X128813390Y-121041666D01*
X128813390Y-121041666D02*
X129384819Y-121613094D01*
X129384819Y-121613094D02*
X129384819Y-120994047D01*
X128384819Y-120374999D02*
X128384819Y-120279761D01*
X128384819Y-120279761D02*
X128432438Y-120184523D01*
X128432438Y-120184523D02*
X128480057Y-120136904D01*
X128480057Y-120136904D02*
X128575295Y-120089285D01*
X128575295Y-120089285D02*
X128765771Y-120041666D01*
X128765771Y-120041666D02*
X129003866Y-120041666D01*
X129003866Y-120041666D02*
X129194342Y-120089285D01*
X129194342Y-120089285D02*
X129289580Y-120136904D01*
X129289580Y-120136904D02*
X129337200Y-120184523D01*
X129337200Y-120184523D02*
X129384819Y-120279761D01*
X129384819Y-120279761D02*
X129384819Y-120374999D01*
X129384819Y-120374999D02*
X129337200Y-120470237D01*
X129337200Y-120470237D02*
X129289580Y-120517856D01*
X129289580Y-120517856D02*
X129194342Y-120565475D01*
X129194342Y-120565475D02*
X129003866Y-120613094D01*
X129003866Y-120613094D02*
X128765771Y-120613094D01*
X128765771Y-120613094D02*
X128575295Y-120565475D01*
X128575295Y-120565475D02*
X128480057Y-120517856D01*
X128480057Y-120517856D02*
X128432438Y-120470237D01*
X128432438Y-120470237D02*
X128384819Y-120374999D01*
X129384819Y-119613094D02*
X128384819Y-119613094D01*
X129003866Y-119517856D02*
X129384819Y-119232142D01*
X128718152Y-119232142D02*
X129099104Y-119613094D01*
X129384819Y-118279761D02*
X129384819Y-118851189D01*
X129384819Y-118565475D02*
X128384819Y-118565475D01*
X128384819Y-118565475D02*
X128527676Y-118660713D01*
X128527676Y-118660713D02*
X128622914Y-118755951D01*
X128622914Y-118755951D02*
X128670533Y-118851189D01*
X125424819Y-111566666D02*
X124948628Y-111899999D01*
X125424819Y-112138094D02*
X124424819Y-112138094D01*
X124424819Y-112138094D02*
X124424819Y-111757142D01*
X124424819Y-111757142D02*
X124472438Y-111661904D01*
X124472438Y-111661904D02*
X124520057Y-111614285D01*
X124520057Y-111614285D02*
X124615295Y-111566666D01*
X124615295Y-111566666D02*
X124758152Y-111566666D01*
X124758152Y-111566666D02*
X124853390Y-111614285D01*
X124853390Y-111614285D02*
X124901009Y-111661904D01*
X124901009Y-111661904D02*
X124948628Y-111757142D01*
X124948628Y-111757142D02*
X124948628Y-112138094D01*
X124853390Y-110995237D02*
X124805771Y-111090475D01*
X124805771Y-111090475D02*
X124758152Y-111138094D01*
X124758152Y-111138094D02*
X124662914Y-111185713D01*
X124662914Y-111185713D02*
X124615295Y-111185713D01*
X124615295Y-111185713D02*
X124520057Y-111138094D01*
X124520057Y-111138094D02*
X124472438Y-111090475D01*
X124472438Y-111090475D02*
X124424819Y-110995237D01*
X124424819Y-110995237D02*
X124424819Y-110804761D01*
X124424819Y-110804761D02*
X124472438Y-110709523D01*
X124472438Y-110709523D02*
X124520057Y-110661904D01*
X124520057Y-110661904D02*
X124615295Y-110614285D01*
X124615295Y-110614285D02*
X124662914Y-110614285D01*
X124662914Y-110614285D02*
X124758152Y-110661904D01*
X124758152Y-110661904D02*
X124805771Y-110709523D01*
X124805771Y-110709523D02*
X124853390Y-110804761D01*
X124853390Y-110804761D02*
X124853390Y-110995237D01*
X124853390Y-110995237D02*
X124901009Y-111090475D01*
X124901009Y-111090475D02*
X124948628Y-111138094D01*
X124948628Y-111138094D02*
X125043866Y-111185713D01*
X125043866Y-111185713D02*
X125234342Y-111185713D01*
X125234342Y-111185713D02*
X125329580Y-111138094D01*
X125329580Y-111138094D02*
X125377200Y-111090475D01*
X125377200Y-111090475D02*
X125424819Y-110995237D01*
X125424819Y-110995237D02*
X125424819Y-110804761D01*
X125424819Y-110804761D02*
X125377200Y-110709523D01*
X125377200Y-110709523D02*
X125329580Y-110661904D01*
X125329580Y-110661904D02*
X125234342Y-110614285D01*
X125234342Y-110614285D02*
X125043866Y-110614285D01*
X125043866Y-110614285D02*
X124948628Y-110661904D01*
X124948628Y-110661904D02*
X124901009Y-110709523D01*
X124901009Y-110709523D02*
X124853390Y-110804761D01*
X130561905Y-143504819D02*
X130561905Y-142504819D01*
X130561905Y-142504819D02*
X130800000Y-142504819D01*
X130800000Y-142504819D02*
X130942857Y-142552438D01*
X130942857Y-142552438D02*
X131038095Y-142647676D01*
X131038095Y-142647676D02*
X131085714Y-142742914D01*
X131085714Y-142742914D02*
X131133333Y-142933390D01*
X131133333Y-142933390D02*
X131133333Y-143076247D01*
X131133333Y-143076247D02*
X131085714Y-143266723D01*
X131085714Y-143266723D02*
X131038095Y-143361961D01*
X131038095Y-143361961D02*
X130942857Y-143457200D01*
X130942857Y-143457200D02*
X130800000Y-143504819D01*
X130800000Y-143504819D02*
X130561905Y-143504819D01*
X131514286Y-142600057D02*
X131561905Y-142552438D01*
X131561905Y-142552438D02*
X131657143Y-142504819D01*
X131657143Y-142504819D02*
X131895238Y-142504819D01*
X131895238Y-142504819D02*
X131990476Y-142552438D01*
X131990476Y-142552438D02*
X132038095Y-142600057D01*
X132038095Y-142600057D02*
X132085714Y-142695295D01*
X132085714Y-142695295D02*
X132085714Y-142790533D01*
X132085714Y-142790533D02*
X132038095Y-142933390D01*
X132038095Y-142933390D02*
X131466667Y-143504819D01*
X131466667Y-143504819D02*
X132085714Y-143504819D01*
D11*
X129364285Y-144940724D02*
X128935714Y-144940724D01*
X129149999Y-144940724D02*
X129149999Y-144190724D01*
X129149999Y-144190724D02*
X129078571Y-144297867D01*
X129078571Y-144297867D02*
X129007142Y-144369295D01*
X129007142Y-144369295D02*
X128935714Y-144405010D01*
D10*
X135621428Y-144114819D02*
X135621428Y-143114819D01*
X135621428Y-144067200D02*
X135526190Y-144114819D01*
X135526190Y-144114819D02*
X135335714Y-144114819D01*
X135335714Y-144114819D02*
X135240476Y-144067200D01*
X135240476Y-144067200D02*
X135192857Y-144019580D01*
X135192857Y-144019580D02*
X135145238Y-143924342D01*
X135145238Y-143924342D02*
X135145238Y-143638628D01*
X135145238Y-143638628D02*
X135192857Y-143543390D01*
X135192857Y-143543390D02*
X135240476Y-143495771D01*
X135240476Y-143495771D02*
X135335714Y-143448152D01*
X135335714Y-143448152D02*
X135526190Y-143448152D01*
X135526190Y-143448152D02*
X135621428Y-143495771D01*
X136097619Y-144114819D02*
X136097619Y-143448152D01*
X136097619Y-143638628D02*
X136145238Y-143543390D01*
X136145238Y-143543390D02*
X136192857Y-143495771D01*
X136192857Y-143495771D02*
X136288095Y-143448152D01*
X136288095Y-143448152D02*
X136383333Y-143448152D01*
X136716667Y-144114819D02*
X136716667Y-143448152D01*
X136716667Y-143114819D02*
X136669048Y-143162438D01*
X136669048Y-143162438D02*
X136716667Y-143210057D01*
X136716667Y-143210057D02*
X136764286Y-143162438D01*
X136764286Y-143162438D02*
X136716667Y-143114819D01*
X136716667Y-143114819D02*
X136716667Y-143210057D01*
X137097619Y-143448152D02*
X137335714Y-144114819D01*
X137335714Y-144114819D02*
X137573809Y-143448152D01*
X138335714Y-144067200D02*
X138240476Y-144114819D01*
X138240476Y-144114819D02*
X138050000Y-144114819D01*
X138050000Y-144114819D02*
X137954762Y-144067200D01*
X137954762Y-144067200D02*
X137907143Y-143971961D01*
X137907143Y-143971961D02*
X137907143Y-143591009D01*
X137907143Y-143591009D02*
X137954762Y-143495771D01*
X137954762Y-143495771D02*
X138050000Y-143448152D01*
X138050000Y-143448152D02*
X138240476Y-143448152D01*
X138240476Y-143448152D02*
X138335714Y-143495771D01*
X138335714Y-143495771D02*
X138383333Y-143591009D01*
X138383333Y-143591009D02*
X138383333Y-143686247D01*
X138383333Y-143686247D02*
X137907143Y-143781485D01*
X138811905Y-144114819D02*
X138811905Y-143448152D01*
X138811905Y-143638628D02*
X138859524Y-143543390D01*
X138859524Y-143543390D02*
X138907143Y-143495771D01*
X138907143Y-143495771D02*
X139002381Y-143448152D01*
X139002381Y-143448152D02*
X139097619Y-143448152D01*
X139383334Y-143210057D02*
X139430953Y-143162438D01*
X139430953Y-143162438D02*
X139526191Y-143114819D01*
X139526191Y-143114819D02*
X139764286Y-143114819D01*
X139764286Y-143114819D02*
X139859524Y-143162438D01*
X139859524Y-143162438D02*
X139907143Y-143210057D01*
X139907143Y-143210057D02*
X139954762Y-143305295D01*
X139954762Y-143305295D02*
X139954762Y-143400533D01*
X139954762Y-143400533D02*
X139907143Y-143543390D01*
X139907143Y-143543390D02*
X139335715Y-144114819D01*
X139335715Y-144114819D02*
X139954762Y-144114819D01*
X129384819Y-135951190D02*
X128908628Y-136284523D01*
X129384819Y-136522618D02*
X128384819Y-136522618D01*
X128384819Y-136522618D02*
X128384819Y-136141666D01*
X128384819Y-136141666D02*
X128432438Y-136046428D01*
X128432438Y-136046428D02*
X128480057Y-135998809D01*
X128480057Y-135998809D02*
X128575295Y-135951190D01*
X128575295Y-135951190D02*
X128718152Y-135951190D01*
X128718152Y-135951190D02*
X128813390Y-135998809D01*
X128813390Y-135998809D02*
X128861009Y-136046428D01*
X128861009Y-136046428D02*
X128908628Y-136141666D01*
X128908628Y-136141666D02*
X128908628Y-136522618D01*
X128480057Y-135570237D02*
X128432438Y-135522618D01*
X128432438Y-135522618D02*
X128384819Y-135427380D01*
X128384819Y-135427380D02*
X128384819Y-135189285D01*
X128384819Y-135189285D02*
X128432438Y-135094047D01*
X128432438Y-135094047D02*
X128480057Y-135046428D01*
X128480057Y-135046428D02*
X128575295Y-134998809D01*
X128575295Y-134998809D02*
X128670533Y-134998809D01*
X128670533Y-134998809D02*
X128813390Y-135046428D01*
X128813390Y-135046428D02*
X129384819Y-135617856D01*
X129384819Y-135617856D02*
X129384819Y-134998809D01*
X129384819Y-134046428D02*
X129384819Y-134617856D01*
X129384819Y-134332142D02*
X128384819Y-134332142D01*
X128384819Y-134332142D02*
X128527676Y-134427380D01*
X128527676Y-134427380D02*
X128622914Y-134522618D01*
X128622914Y-134522618D02*
X128670533Y-134617856D01*
X128480057Y-133665475D02*
X128432438Y-133617856D01*
X128432438Y-133617856D02*
X128384819Y-133522618D01*
X128384819Y-133522618D02*
X128384819Y-133284523D01*
X128384819Y-133284523D02*
X128432438Y-133189285D01*
X128432438Y-133189285D02*
X128480057Y-133141666D01*
X128480057Y-133141666D02*
X128575295Y-133094047D01*
X128575295Y-133094047D02*
X128670533Y-133094047D01*
X128670533Y-133094047D02*
X128813390Y-133141666D01*
X128813390Y-133141666D02*
X129384819Y-133713094D01*
X129384819Y-133713094D02*
X129384819Y-133094047D01*
X128384819Y-132474999D02*
X128384819Y-132379761D01*
X128384819Y-132379761D02*
X128432438Y-132284523D01*
X128432438Y-132284523D02*
X128480057Y-132236904D01*
X128480057Y-132236904D02*
X128575295Y-132189285D01*
X128575295Y-132189285D02*
X128765771Y-132141666D01*
X128765771Y-132141666D02*
X129003866Y-132141666D01*
X129003866Y-132141666D02*
X129194342Y-132189285D01*
X129194342Y-132189285D02*
X129289580Y-132236904D01*
X129289580Y-132236904D02*
X129337200Y-132284523D01*
X129337200Y-132284523D02*
X129384819Y-132379761D01*
X129384819Y-132379761D02*
X129384819Y-132474999D01*
X129384819Y-132474999D02*
X129337200Y-132570237D01*
X129337200Y-132570237D02*
X129289580Y-132617856D01*
X129289580Y-132617856D02*
X129194342Y-132665475D01*
X129194342Y-132665475D02*
X129003866Y-132713094D01*
X129003866Y-132713094D02*
X128765771Y-132713094D01*
X128765771Y-132713094D02*
X128575295Y-132665475D01*
X128575295Y-132665475D02*
X128480057Y-132617856D01*
X128480057Y-132617856D02*
X128432438Y-132570237D01*
X128432438Y-132570237D02*
X128384819Y-132474999D01*
X129384819Y-131713094D02*
X128384819Y-131713094D01*
X129003866Y-131617856D02*
X129384819Y-131332142D01*
X128718152Y-131332142D02*
X129099104Y-131713094D01*
X129384819Y-130379761D02*
X129384819Y-130951189D01*
X129384819Y-130665475D02*
X128384819Y-130665475D01*
X128384819Y-130665475D02*
X128527676Y-130760713D01*
X128527676Y-130760713D02*
X128622914Y-130855951D01*
X128622914Y-130855951D02*
X128670533Y-130951189D01*
X146760713Y-142817200D02*
X146665475Y-142864819D01*
X146665475Y-142864819D02*
X146474999Y-142864819D01*
X146474999Y-142864819D02*
X146379761Y-142817200D01*
X146379761Y-142817200D02*
X146332142Y-142769580D01*
X146332142Y-142769580D02*
X146284523Y-142674342D01*
X146284523Y-142674342D02*
X146284523Y-142388628D01*
X146284523Y-142388628D02*
X146332142Y-142293390D01*
X146332142Y-142293390D02*
X146379761Y-142245771D01*
X146379761Y-142245771D02*
X146474999Y-142198152D01*
X146474999Y-142198152D02*
X146665475Y-142198152D01*
X146665475Y-142198152D02*
X146760713Y-142245771D01*
X147332142Y-142864819D02*
X147236904Y-142817200D01*
X147236904Y-142817200D02*
X147189285Y-142769580D01*
X147189285Y-142769580D02*
X147141666Y-142674342D01*
X147141666Y-142674342D02*
X147141666Y-142388628D01*
X147141666Y-142388628D02*
X147189285Y-142293390D01*
X147189285Y-142293390D02*
X147236904Y-142245771D01*
X147236904Y-142245771D02*
X147332142Y-142198152D01*
X147332142Y-142198152D02*
X147474999Y-142198152D01*
X147474999Y-142198152D02*
X147570237Y-142245771D01*
X147570237Y-142245771D02*
X147617856Y-142293390D01*
X147617856Y-142293390D02*
X147665475Y-142388628D01*
X147665475Y-142388628D02*
X147665475Y-142674342D01*
X147665475Y-142674342D02*
X147617856Y-142769580D01*
X147617856Y-142769580D02*
X147570237Y-142817200D01*
X147570237Y-142817200D02*
X147474999Y-142864819D01*
X147474999Y-142864819D02*
X147332142Y-142864819D01*
X148094047Y-142198152D02*
X148094047Y-142864819D01*
X148094047Y-142293390D02*
X148141666Y-142245771D01*
X148141666Y-142245771D02*
X148236904Y-142198152D01*
X148236904Y-142198152D02*
X148379761Y-142198152D01*
X148379761Y-142198152D02*
X148474999Y-142245771D01*
X148474999Y-142245771D02*
X148522618Y-142341009D01*
X148522618Y-142341009D02*
X148522618Y-142864819D01*
X149379761Y-142817200D02*
X149284523Y-142864819D01*
X149284523Y-142864819D02*
X149094047Y-142864819D01*
X149094047Y-142864819D02*
X148998809Y-142817200D01*
X148998809Y-142817200D02*
X148951190Y-142721961D01*
X148951190Y-142721961D02*
X148951190Y-142341009D01*
X148951190Y-142341009D02*
X148998809Y-142245771D01*
X148998809Y-142245771D02*
X149094047Y-142198152D01*
X149094047Y-142198152D02*
X149284523Y-142198152D01*
X149284523Y-142198152D02*
X149379761Y-142245771D01*
X149379761Y-142245771D02*
X149427380Y-142341009D01*
X149427380Y-142341009D02*
X149427380Y-142436247D01*
X149427380Y-142436247D02*
X148951190Y-142531485D01*
X150284523Y-142817200D02*
X150189285Y-142864819D01*
X150189285Y-142864819D02*
X149998809Y-142864819D01*
X149998809Y-142864819D02*
X149903571Y-142817200D01*
X149903571Y-142817200D02*
X149855952Y-142769580D01*
X149855952Y-142769580D02*
X149808333Y-142674342D01*
X149808333Y-142674342D02*
X149808333Y-142388628D01*
X149808333Y-142388628D02*
X149855952Y-142293390D01*
X149855952Y-142293390D02*
X149903571Y-142245771D01*
X149903571Y-142245771D02*
X149998809Y-142198152D01*
X149998809Y-142198152D02*
X150189285Y-142198152D01*
X150189285Y-142198152D02*
X150284523Y-142245771D01*
X150570238Y-142198152D02*
X150951190Y-142198152D01*
X150713095Y-141864819D02*
X150713095Y-142721961D01*
X150713095Y-142721961D02*
X150760714Y-142817200D01*
X150760714Y-142817200D02*
X150855952Y-142864819D01*
X150855952Y-142864819D02*
X150951190Y-142864819D01*
X151427381Y-142864819D02*
X151332143Y-142817200D01*
X151332143Y-142817200D02*
X151284524Y-142769580D01*
X151284524Y-142769580D02*
X151236905Y-142674342D01*
X151236905Y-142674342D02*
X151236905Y-142388628D01*
X151236905Y-142388628D02*
X151284524Y-142293390D01*
X151284524Y-142293390D02*
X151332143Y-142245771D01*
X151332143Y-142245771D02*
X151427381Y-142198152D01*
X151427381Y-142198152D02*
X151570238Y-142198152D01*
X151570238Y-142198152D02*
X151665476Y-142245771D01*
X151665476Y-142245771D02*
X151713095Y-142293390D01*
X151713095Y-142293390D02*
X151760714Y-142388628D01*
X151760714Y-142388628D02*
X151760714Y-142674342D01*
X151760714Y-142674342D02*
X151713095Y-142769580D01*
X151713095Y-142769580D02*
X151665476Y-142817200D01*
X151665476Y-142817200D02*
X151570238Y-142864819D01*
X151570238Y-142864819D02*
X151427381Y-142864819D01*
X152189286Y-142864819D02*
X152189286Y-142198152D01*
X152189286Y-142388628D02*
X152236905Y-142293390D01*
X152236905Y-142293390D02*
X152284524Y-142245771D01*
X152284524Y-142245771D02*
X152379762Y-142198152D01*
X152379762Y-142198152D02*
X152475000Y-142198152D01*
X152808334Y-142864819D02*
X152808334Y-142198152D01*
X152808334Y-142293390D02*
X152855953Y-142245771D01*
X152855953Y-142245771D02*
X152951191Y-142198152D01*
X152951191Y-142198152D02*
X153094048Y-142198152D01*
X153094048Y-142198152D02*
X153189286Y-142245771D01*
X153189286Y-142245771D02*
X153236905Y-142341009D01*
X153236905Y-142341009D02*
X153236905Y-142864819D01*
X153236905Y-142341009D02*
X153284524Y-142245771D01*
X153284524Y-142245771D02*
X153379762Y-142198152D01*
X153379762Y-142198152D02*
X153522619Y-142198152D01*
X153522619Y-142198152D02*
X153617858Y-142245771D01*
X153617858Y-142245771D02*
X153665477Y-142341009D01*
X153665477Y-142341009D02*
X153665477Y-142864819D01*
X154284524Y-142864819D02*
X154189286Y-142817200D01*
X154189286Y-142817200D02*
X154141667Y-142769580D01*
X154141667Y-142769580D02*
X154094048Y-142674342D01*
X154094048Y-142674342D02*
X154094048Y-142388628D01*
X154094048Y-142388628D02*
X154141667Y-142293390D01*
X154141667Y-142293390D02*
X154189286Y-142245771D01*
X154189286Y-142245771D02*
X154284524Y-142198152D01*
X154284524Y-142198152D02*
X154427381Y-142198152D01*
X154427381Y-142198152D02*
X154522619Y-142245771D01*
X154522619Y-142245771D02*
X154570238Y-142293390D01*
X154570238Y-142293390D02*
X154617857Y-142388628D01*
X154617857Y-142388628D02*
X154617857Y-142674342D01*
X154617857Y-142674342D02*
X154570238Y-142769580D01*
X154570238Y-142769580D02*
X154522619Y-142817200D01*
X154522619Y-142817200D02*
X154427381Y-142864819D01*
X154427381Y-142864819D02*
X154284524Y-142864819D01*
X154903572Y-142198152D02*
X155284524Y-142198152D01*
X155046429Y-141864819D02*
X155046429Y-142721961D01*
X155046429Y-142721961D02*
X155094048Y-142817200D01*
X155094048Y-142817200D02*
X155189286Y-142864819D01*
X155189286Y-142864819D02*
X155284524Y-142864819D01*
X155760715Y-142864819D02*
X155665477Y-142817200D01*
X155665477Y-142817200D02*
X155617858Y-142769580D01*
X155617858Y-142769580D02*
X155570239Y-142674342D01*
X155570239Y-142674342D02*
X155570239Y-142388628D01*
X155570239Y-142388628D02*
X155617858Y-142293390D01*
X155617858Y-142293390D02*
X155665477Y-142245771D01*
X155665477Y-142245771D02*
X155760715Y-142198152D01*
X155760715Y-142198152D02*
X155903572Y-142198152D01*
X155903572Y-142198152D02*
X155998810Y-142245771D01*
X155998810Y-142245771D02*
X156046429Y-142293390D01*
X156046429Y-142293390D02*
X156094048Y-142388628D01*
X156094048Y-142388628D02*
X156094048Y-142674342D01*
X156094048Y-142674342D02*
X156046429Y-142769580D01*
X156046429Y-142769580D02*
X155998810Y-142817200D01*
X155998810Y-142817200D02*
X155903572Y-142864819D01*
X155903572Y-142864819D02*
X155760715Y-142864819D01*
X156522620Y-142864819D02*
X156522620Y-142198152D01*
X156522620Y-142388628D02*
X156570239Y-142293390D01*
X156570239Y-142293390D02*
X156617858Y-142245771D01*
X156617858Y-142245771D02*
X156713096Y-142198152D01*
X156713096Y-142198152D02*
X156808334Y-142198152D01*
X157094049Y-141960057D02*
X157141668Y-141912438D01*
X157141668Y-141912438D02*
X157236906Y-141864819D01*
X157236906Y-141864819D02*
X157475001Y-141864819D01*
X157475001Y-141864819D02*
X157570239Y-141912438D01*
X157570239Y-141912438D02*
X157617858Y-141960057D01*
X157617858Y-141960057D02*
X157665477Y-142055295D01*
X157665477Y-142055295D02*
X157665477Y-142150533D01*
X157665477Y-142150533D02*
X157617858Y-142293390D01*
X157617858Y-142293390D02*
X157046430Y-142864819D01*
X157046430Y-142864819D02*
X157665477Y-142864819D01*
X130561905Y-146454819D02*
X130561905Y-145454819D01*
X130561905Y-145454819D02*
X130800000Y-145454819D01*
X130800000Y-145454819D02*
X130942857Y-145502438D01*
X130942857Y-145502438D02*
X131038095Y-145597676D01*
X131038095Y-145597676D02*
X131085714Y-145692914D01*
X131085714Y-145692914D02*
X131133333Y-145883390D01*
X131133333Y-145883390D02*
X131133333Y-146026247D01*
X131133333Y-146026247D02*
X131085714Y-146216723D01*
X131085714Y-146216723D02*
X131038095Y-146311961D01*
X131038095Y-146311961D02*
X130942857Y-146407200D01*
X130942857Y-146407200D02*
X130800000Y-146454819D01*
X130800000Y-146454819D02*
X130561905Y-146454819D01*
X132085714Y-146454819D02*
X131514286Y-146454819D01*
X131800000Y-146454819D02*
X131800000Y-145454819D01*
X131800000Y-145454819D02*
X131704762Y-145597676D01*
X131704762Y-145597676D02*
X131609524Y-145692914D01*
X131609524Y-145692914D02*
X131514286Y-145740533D01*
D11*
X129364285Y-147890724D02*
X128935714Y-147890724D01*
X129149999Y-147890724D02*
X129149999Y-147140724D01*
X129149999Y-147140724D02*
X129078571Y-147247867D01*
X129078571Y-147247867D02*
X129007142Y-147319295D01*
X129007142Y-147319295D02*
X128935714Y-147355010D01*
D10*
X120180951Y-141958152D02*
X120419046Y-142624819D01*
X120419046Y-142624819D02*
X120657141Y-141958152D01*
X121180951Y-142624819D02*
X121085713Y-142577200D01*
X121085713Y-142577200D02*
X121038094Y-142529580D01*
X121038094Y-142529580D02*
X120990475Y-142434342D01*
X120990475Y-142434342D02*
X120990475Y-142148628D01*
X120990475Y-142148628D02*
X121038094Y-142053390D01*
X121038094Y-142053390D02*
X121085713Y-142005771D01*
X121085713Y-142005771D02*
X121180951Y-141958152D01*
X121180951Y-141958152D02*
X121323808Y-141958152D01*
X121323808Y-141958152D02*
X121419046Y-142005771D01*
X121419046Y-142005771D02*
X121466665Y-142053390D01*
X121466665Y-142053390D02*
X121514284Y-142148628D01*
X121514284Y-142148628D02*
X121514284Y-142434342D01*
X121514284Y-142434342D02*
X121466665Y-142529580D01*
X121466665Y-142529580D02*
X121419046Y-142577200D01*
X121419046Y-142577200D02*
X121323808Y-142624819D01*
X121323808Y-142624819D02*
X121180951Y-142624819D01*
X122085713Y-142624819D02*
X121990475Y-142577200D01*
X121990475Y-142577200D02*
X121942856Y-142481961D01*
X121942856Y-142481961D02*
X121942856Y-141624819D01*
X122323809Y-141958152D02*
X122704761Y-141958152D01*
X122466666Y-141624819D02*
X122466666Y-142481961D01*
X122466666Y-142481961D02*
X122514285Y-142577200D01*
X122514285Y-142577200D02*
X122609523Y-142624819D01*
X122609523Y-142624819D02*
X122704761Y-142624819D01*
X123466666Y-142624819D02*
X123466666Y-142101009D01*
X123466666Y-142101009D02*
X123419047Y-142005771D01*
X123419047Y-142005771D02*
X123323809Y-141958152D01*
X123323809Y-141958152D02*
X123133333Y-141958152D01*
X123133333Y-141958152D02*
X123038095Y-142005771D01*
X123466666Y-142577200D02*
X123371428Y-142624819D01*
X123371428Y-142624819D02*
X123133333Y-142624819D01*
X123133333Y-142624819D02*
X123038095Y-142577200D01*
X123038095Y-142577200D02*
X122990476Y-142481961D01*
X122990476Y-142481961D02*
X122990476Y-142386723D01*
X122990476Y-142386723D02*
X123038095Y-142291485D01*
X123038095Y-142291485D02*
X123133333Y-142243866D01*
X123133333Y-142243866D02*
X123371428Y-142243866D01*
X123371428Y-142243866D02*
X123466666Y-142196247D01*
X123942857Y-141958152D02*
X123942857Y-142815295D01*
X123942857Y-142815295D02*
X123895238Y-142910533D01*
X123895238Y-142910533D02*
X123800000Y-142958152D01*
X123800000Y-142958152D02*
X123752381Y-142958152D01*
X123942857Y-141624819D02*
X123895238Y-141672438D01*
X123895238Y-141672438D02*
X123942857Y-141720057D01*
X123942857Y-141720057D02*
X123990476Y-141672438D01*
X123990476Y-141672438D02*
X123942857Y-141624819D01*
X123942857Y-141624819D02*
X123942857Y-141720057D01*
X124799999Y-142577200D02*
X124704761Y-142624819D01*
X124704761Y-142624819D02*
X124514285Y-142624819D01*
X124514285Y-142624819D02*
X124419047Y-142577200D01*
X124419047Y-142577200D02*
X124371428Y-142481961D01*
X124371428Y-142481961D02*
X124371428Y-142101009D01*
X124371428Y-142101009D02*
X124419047Y-142005771D01*
X124419047Y-142005771D02*
X124514285Y-141958152D01*
X124514285Y-141958152D02*
X124704761Y-141958152D01*
X124704761Y-141958152D02*
X124799999Y-142005771D01*
X124799999Y-142005771D02*
X124847618Y-142101009D01*
X124847618Y-142101009D02*
X124847618Y-142196247D01*
X124847618Y-142196247D02*
X124371428Y-142291485D01*
X125228571Y-142577200D02*
X125323809Y-142624819D01*
X125323809Y-142624819D02*
X125514285Y-142624819D01*
X125514285Y-142624819D02*
X125609523Y-142577200D01*
X125609523Y-142577200D02*
X125657142Y-142481961D01*
X125657142Y-142481961D02*
X125657142Y-142434342D01*
X125657142Y-142434342D02*
X125609523Y-142339104D01*
X125609523Y-142339104D02*
X125514285Y-142291485D01*
X125514285Y-142291485D02*
X125371428Y-142291485D01*
X125371428Y-142291485D02*
X125276190Y-142243866D01*
X125276190Y-142243866D02*
X125228571Y-142148628D01*
X125228571Y-142148628D02*
X125228571Y-142101009D01*
X125228571Y-142101009D02*
X125276190Y-142005771D01*
X125276190Y-142005771D02*
X125371428Y-141958152D01*
X125371428Y-141958152D02*
X125514285Y-141958152D01*
X125514285Y-141958152D02*
X125609523Y-142005771D01*
X126466666Y-142577200D02*
X126371428Y-142624819D01*
X126371428Y-142624819D02*
X126180952Y-142624819D01*
X126180952Y-142624819D02*
X126085714Y-142577200D01*
X126085714Y-142577200D02*
X126038095Y-142481961D01*
X126038095Y-142481961D02*
X126038095Y-142101009D01*
X126038095Y-142101009D02*
X126085714Y-142005771D01*
X126085714Y-142005771D02*
X126180952Y-141958152D01*
X126180952Y-141958152D02*
X126371428Y-141958152D01*
X126371428Y-141958152D02*
X126466666Y-142005771D01*
X126466666Y-142005771D02*
X126514285Y-142101009D01*
X126514285Y-142101009D02*
X126514285Y-142196247D01*
X126514285Y-142196247D02*
X126038095Y-142291485D01*
X126942857Y-141958152D02*
X126942857Y-142624819D01*
X126942857Y-142053390D02*
X126990476Y-142005771D01*
X126990476Y-142005771D02*
X127085714Y-141958152D01*
X127085714Y-141958152D02*
X127228571Y-141958152D01*
X127228571Y-141958152D02*
X127323809Y-142005771D01*
X127323809Y-142005771D02*
X127371428Y-142101009D01*
X127371428Y-142101009D02*
X127371428Y-142624819D01*
X127800000Y-142577200D02*
X127895238Y-142624819D01*
X127895238Y-142624819D02*
X128085714Y-142624819D01*
X128085714Y-142624819D02*
X128180952Y-142577200D01*
X128180952Y-142577200D02*
X128228571Y-142481961D01*
X128228571Y-142481961D02*
X128228571Y-142434342D01*
X128228571Y-142434342D02*
X128180952Y-142339104D01*
X128180952Y-142339104D02*
X128085714Y-142291485D01*
X128085714Y-142291485D02*
X127942857Y-142291485D01*
X127942857Y-142291485D02*
X127847619Y-142243866D01*
X127847619Y-142243866D02*
X127800000Y-142148628D01*
X127800000Y-142148628D02*
X127800000Y-142101009D01*
X127800000Y-142101009D02*
X127847619Y-142005771D01*
X127847619Y-142005771D02*
X127942857Y-141958152D01*
X127942857Y-141958152D02*
X128085714Y-141958152D01*
X128085714Y-141958152D02*
X128180952Y-142005771D01*
X128800000Y-142624819D02*
X128704762Y-142577200D01*
X128704762Y-142577200D02*
X128657143Y-142529580D01*
X128657143Y-142529580D02*
X128609524Y-142434342D01*
X128609524Y-142434342D02*
X128609524Y-142148628D01*
X128609524Y-142148628D02*
X128657143Y-142053390D01*
X128657143Y-142053390D02*
X128704762Y-142005771D01*
X128704762Y-142005771D02*
X128800000Y-141958152D01*
X128800000Y-141958152D02*
X128942857Y-141958152D01*
X128942857Y-141958152D02*
X129038095Y-142005771D01*
X129038095Y-142005771D02*
X129085714Y-142053390D01*
X129085714Y-142053390D02*
X129133333Y-142148628D01*
X129133333Y-142148628D02*
X129133333Y-142434342D01*
X129133333Y-142434342D02*
X129085714Y-142529580D01*
X129085714Y-142529580D02*
X129038095Y-142577200D01*
X129038095Y-142577200D02*
X128942857Y-142624819D01*
X128942857Y-142624819D02*
X128800000Y-142624819D01*
X129561905Y-142624819D02*
X129561905Y-141958152D01*
X129561905Y-142148628D02*
X129609524Y-142053390D01*
X129609524Y-142053390D02*
X129657143Y-142005771D01*
X129657143Y-142005771D02*
X129752381Y-141958152D01*
X129752381Y-141958152D02*
X129847619Y-141958152D01*
X130561905Y-142577200D02*
X130466667Y-142624819D01*
X130466667Y-142624819D02*
X130276191Y-142624819D01*
X130276191Y-142624819D02*
X130180953Y-142577200D01*
X130180953Y-142577200D02*
X130133334Y-142481961D01*
X130133334Y-142481961D02*
X130133334Y-142101009D01*
X130133334Y-142101009D02*
X130180953Y-142005771D01*
X130180953Y-142005771D02*
X130276191Y-141958152D01*
X130276191Y-141958152D02*
X130466667Y-141958152D01*
X130466667Y-141958152D02*
X130561905Y-142005771D01*
X130561905Y-142005771D02*
X130609524Y-142101009D01*
X130609524Y-142101009D02*
X130609524Y-142196247D01*
X130609524Y-142196247D02*
X130133334Y-142291485D01*
X130990477Y-142577200D02*
X131085715Y-142624819D01*
X131085715Y-142624819D02*
X131276191Y-142624819D01*
X131276191Y-142624819D02*
X131371429Y-142577200D01*
X131371429Y-142577200D02*
X131419048Y-142481961D01*
X131419048Y-142481961D02*
X131419048Y-142434342D01*
X131419048Y-142434342D02*
X131371429Y-142339104D01*
X131371429Y-142339104D02*
X131276191Y-142291485D01*
X131276191Y-142291485D02*
X131133334Y-142291485D01*
X131133334Y-142291485D02*
X131038096Y-142243866D01*
X131038096Y-142243866D02*
X130990477Y-142148628D01*
X130990477Y-142148628D02*
X130990477Y-142101009D01*
X130990477Y-142101009D02*
X131038096Y-142005771D01*
X131038096Y-142005771D02*
X131133334Y-141958152D01*
X131133334Y-141958152D02*
X131276191Y-141958152D01*
X131276191Y-141958152D02*
X131371429Y-142005771D01*
X131800001Y-141720057D02*
X131847620Y-141672438D01*
X131847620Y-141672438D02*
X131942858Y-141624819D01*
X131942858Y-141624819D02*
X132180953Y-141624819D01*
X132180953Y-141624819D02*
X132276191Y-141672438D01*
X132276191Y-141672438D02*
X132323810Y-141720057D01*
X132323810Y-141720057D02*
X132371429Y-141815295D01*
X132371429Y-141815295D02*
X132371429Y-141910533D01*
X132371429Y-141910533D02*
X132323810Y-142053390D01*
X132323810Y-142053390D02*
X131752382Y-142624819D01*
X131752382Y-142624819D02*
X132371429Y-142624819D01*
X130561905Y-152554819D02*
X130561905Y-151554819D01*
X130561905Y-151554819D02*
X130800000Y-151554819D01*
X130800000Y-151554819D02*
X130942857Y-151602438D01*
X130942857Y-151602438D02*
X131038095Y-151697676D01*
X131038095Y-151697676D02*
X131085714Y-151792914D01*
X131085714Y-151792914D02*
X131133333Y-151983390D01*
X131133333Y-151983390D02*
X131133333Y-152126247D01*
X131133333Y-152126247D02*
X131085714Y-152316723D01*
X131085714Y-152316723D02*
X131038095Y-152411961D01*
X131038095Y-152411961D02*
X130942857Y-152507200D01*
X130942857Y-152507200D02*
X130800000Y-152554819D01*
X130800000Y-152554819D02*
X130561905Y-152554819D01*
X132038095Y-151554819D02*
X131561905Y-151554819D01*
X131561905Y-151554819D02*
X131514286Y-152031009D01*
X131514286Y-152031009D02*
X131561905Y-151983390D01*
X131561905Y-151983390D02*
X131657143Y-151935771D01*
X131657143Y-151935771D02*
X131895238Y-151935771D01*
X131895238Y-151935771D02*
X131990476Y-151983390D01*
X131990476Y-151983390D02*
X132038095Y-152031009D01*
X132038095Y-152031009D02*
X132085714Y-152126247D01*
X132085714Y-152126247D02*
X132085714Y-152364342D01*
X132085714Y-152364342D02*
X132038095Y-152459580D01*
X132038095Y-152459580D02*
X131990476Y-152507200D01*
X131990476Y-152507200D02*
X131895238Y-152554819D01*
X131895238Y-152554819D02*
X131657143Y-152554819D01*
X131657143Y-152554819D02*
X131561905Y-152507200D01*
X131561905Y-152507200D02*
X131514286Y-152459580D01*
D11*
X129364285Y-153990724D02*
X128935714Y-153990724D01*
X129149999Y-153990724D02*
X129149999Y-153240724D01*
X129149999Y-153240724D02*
X129078571Y-153347867D01*
X129078571Y-153347867D02*
X129007142Y-153419295D01*
X129007142Y-153419295D02*
X128935714Y-153455010D01*
%TO.C,J2*%
X146770000Y-97090000D02*
X148100000Y-97090000D01*
X146770000Y-98420000D02*
X146770000Y-97090000D01*
X146770000Y-99690000D02*
X146770000Y-112450000D01*
X146770000Y-99690000D02*
X149430000Y-99690000D01*
X146770000Y-112450000D02*
X149430000Y-112450000D01*
X149430000Y-99690000D02*
X149430000Y-112450000D01*
%TO.C,R2210k1*%
X128877500Y-133612258D02*
X128877500Y-133137742D01*
X129922500Y-133612258D02*
X129922500Y-133137742D01*
%TO.C,C6*%
X142890000Y-125040580D02*
X142890000Y-124759420D01*
X143910000Y-125040580D02*
X143910000Y-124759420D01*
%TO.C,xt30*%
X148195000Y-155630000D02*
X148195000Y-154300000D01*
X149525000Y-155630000D02*
X148195000Y-155630000D01*
X150795000Y-152970000D02*
X153395000Y-152970000D01*
X150795000Y-155630000D02*
X150795000Y-152970000D01*
X150795000Y-155630000D02*
X153395000Y-155630000D01*
X153395000Y-155630000D02*
X153395000Y-152970000D01*
%TO.C,U1*%
X134050000Y-127470000D02*
X140470000Y-127470000D01*
X134050000Y-134370000D02*
X140470000Y-134370000D01*
X140470000Y-127470000D02*
X140470000Y-127740000D01*
X140470000Y-134370000D02*
X140470000Y-134100000D01*
X142130000Y-134390000D02*
X141650000Y-134390000D01*
X141890000Y-134060000D01*
X142130000Y-134390000D01*
G36*
X142130000Y-134390000D02*
G01*
X141650000Y-134390000D01*
X141890000Y-134060000D01*
X142130000Y-134390000D01*
G37*
%TO.C,voltajesensores1*%
X124470000Y-103295000D02*
X125800000Y-103295000D01*
X124470000Y-104625000D02*
X124470000Y-103295000D01*
X124470000Y-105895000D02*
X124470000Y-108495000D01*
X124470000Y-105895000D02*
X127130000Y-105895000D01*
X124470000Y-108495000D02*
X127130000Y-108495000D01*
X127130000Y-105895000D02*
X127130000Y-108495000D01*
%TO.C,R4*%
X146377500Y-129037258D02*
X146377500Y-128562742D01*
X147422500Y-129037258D02*
X147422500Y-128562742D01*
%TO.C,C1*%
X144390000Y-134134420D02*
X144390000Y-134415580D01*
X145410000Y-134134420D02*
X145410000Y-134415580D01*
%TO.C,R920k1*%
X126977500Y-115137742D02*
X126977500Y-115612258D01*
X128022500Y-115137742D02*
X128022500Y-115612258D01*
%TO.C,servo2*%
X150770000Y-110030000D02*
X152100000Y-110030000D01*
X150770000Y-111360000D02*
X150770000Y-110030000D01*
X150770000Y-112630000D02*
X150770000Y-117770000D01*
X150770000Y-112630000D02*
X153430000Y-112630000D01*
X150770000Y-117770000D02*
X153430000Y-117770000D01*
X153430000Y-112630000D02*
X153430000Y-117770000D01*
%TO.C,R1410k1*%
X128877500Y-121612258D02*
X128877500Y-121137742D01*
X129922500Y-121612258D02*
X129922500Y-121137742D01*
%TO.C,R1*%
X147877500Y-124862742D02*
X147877500Y-125337258D01*
X148922500Y-124862742D02*
X148922500Y-125337258D01*
%TO.C,negativo1*%
X153960000Y-141630000D02*
X151240000Y-141630000D01*
X151240000Y-151850000D01*
X153960000Y-151850000D01*
X153960000Y-141630000D01*
%TO.C,R2*%
X148077500Y-128487742D02*
X148077500Y-128962258D01*
X149122500Y-128487742D02*
X149122500Y-128962258D01*
%TO.C,led5v1*%
X147765000Y-120600000D02*
X147765000Y-122885000D01*
X147765000Y-122885000D02*
X149235000Y-122885000D01*
X149235000Y-122885000D02*
X149235000Y-120600000D01*
%TO.C,R1120k1*%
X126977500Y-118612258D02*
X126977500Y-118137742D01*
X128022500Y-118612258D02*
X128022500Y-118137742D01*
%TO.C,C5*%
X144390000Y-130840580D02*
X144390000Y-130559420D01*
X145410000Y-130840580D02*
X145410000Y-130559420D01*
%TO.C,C7*%
X142890000Y-121759420D02*
X142890000Y-122040580D01*
X143910000Y-121759420D02*
X143910000Y-122040580D01*
%TO.C,R7*%
X124377500Y-111187742D02*
X124377500Y-111662258D01*
X125422500Y-111187742D02*
X125422500Y-111662258D01*
%TO.C,C4*%
X143440000Y-144063748D02*
X143440000Y-145486252D01*
X146160000Y-144063748D02*
X146160000Y-145486252D01*
%TO.C,R1210k1*%
X128877500Y-118612258D02*
X128877500Y-118137742D01*
X129922500Y-118612258D02*
X129922500Y-118137742D01*
%TO.C,R2610k1*%
X125977500Y-139862742D02*
X125977500Y-140337258D01*
X127022500Y-139862742D02*
X127022500Y-140337258D01*
%TO.C,RESET1*%
X143600000Y-116750000D02*
X143600000Y-116650000D01*
X143600000Y-118450000D02*
X148000000Y-118450000D01*
X148000000Y-114950000D02*
X143600000Y-114950000D01*
X148000000Y-116750000D02*
X148000000Y-116650000D01*
%TO.C,boton1*%
X134200000Y-149450000D02*
X134200000Y-149550000D01*
X134200000Y-151250000D02*
X138600000Y-151250000D01*
X138600000Y-147750000D02*
X134200000Y-147750000D01*
X138600000Y-149450000D02*
X138600000Y-149550000D01*
%TO.C,C2*%
X143340000Y-138463748D02*
X143340000Y-139886252D01*
X146060000Y-138463748D02*
X146060000Y-139886252D01*
%TO.C,positivo1*%
X150960000Y-141630000D02*
X148240000Y-141630000D01*
X148240000Y-151850000D01*
X150960000Y-151850000D01*
X150960000Y-141630000D01*
%TO.C,D4*%
X133200000Y-149850000D02*
X129400000Y-149850000D01*
X133200000Y-149850000D02*
X133200000Y-150600000D01*
X133200000Y-152650000D02*
X129400000Y-152650000D01*
%TO.C,R1010k1*%
X128877500Y-115612258D02*
X128877500Y-115137742D01*
X129922500Y-115612258D02*
X129922500Y-115137742D01*
%TO.C,R1610k1*%
X128877500Y-124612258D02*
X128877500Y-124137742D01*
X129922500Y-124612258D02*
X129922500Y-124137742D01*
%TO.C,R1520k1*%
X126977500Y-124137742D02*
X126977500Y-124612258D01*
X128022500Y-124137742D02*
X128022500Y-124612258D01*
%TO.C,R5*%
X141277500Y-117037258D02*
X141277500Y-116562742D01*
X142322500Y-117037258D02*
X142322500Y-116562742D01*
%TO.C,conectormotor1*%
X150745000Y-132180000D02*
X150745000Y-129580000D01*
X150745000Y-134780000D02*
X150745000Y-133450000D01*
X152075000Y-134780000D02*
X150745000Y-134780000D01*
X153405000Y-129580000D02*
X150745000Y-129580000D01*
X153405000Y-132180000D02*
X150745000Y-132180000D01*
X153405000Y-132180000D02*
X153405000Y-129580000D01*
D10*
%TO.C,driver1*%
X135700000Y-135230000D02*
X139850000Y-135230000D01*
X135700000Y-140380000D02*
X139850000Y-140380000D01*
D11*
X135100000Y-135330000D02*
X134860000Y-135000000D01*
X135340000Y-135000000D01*
X135100000Y-135330000D01*
G36*
X135100000Y-135330000D02*
G01*
X134860000Y-135000000D01*
X135340000Y-135000000D01*
X135100000Y-135330000D01*
G37*
%TO.C,R2320k1*%
X126977500Y-136237742D02*
X126977500Y-136712258D01*
X128022500Y-136237742D02*
X128022500Y-136712258D01*
%TO.C,reguladr3v1*%
X134940000Y-119290000D02*
X134940000Y-120550000D01*
X134940000Y-126110000D02*
X134940000Y-124850000D01*
X138700000Y-119290000D02*
X134940000Y-119290000D01*
X138700000Y-126110000D02*
X134940000Y-126110000D01*
X140220000Y-126340000D02*
X139740000Y-126340000D01*
X139980000Y-126010000D01*
X140220000Y-126340000D01*
G36*
X140220000Y-126340000D02*
G01*
X139740000Y-126340000D01*
X139980000Y-126010000D01*
X140220000Y-126340000D01*
G37*
%TO.C,R1720k1*%
X126977500Y-127237742D02*
X126977500Y-127712258D01*
X128022500Y-127237742D02*
X128022500Y-127712258D01*
%TO.C,R2010k1*%
X128877500Y-130612258D02*
X128877500Y-130137742D01*
X129922500Y-130612258D02*
X129922500Y-130137742D01*
%TO.C,C3*%
X146590000Y-134234420D02*
X146590000Y-134515580D01*
X147610000Y-134234420D02*
X147610000Y-134515580D01*
%TO.C,R2520k1*%
X124277500Y-139862742D02*
X124277500Y-140337258D01*
X125322500Y-139862742D02*
X125322500Y-140337258D01*
%TO.C,led1*%
X146165000Y-120500000D02*
X146165000Y-122785000D01*
X146165000Y-122785000D02*
X147635000Y-122785000D01*
X147635000Y-122785000D02*
X147635000Y-120500000D01*
%TO.C,boton2*%
X141700000Y-149350000D02*
X141700000Y-149450000D01*
X141700000Y-151150000D02*
X146100000Y-151150000D01*
X146100000Y-147650000D02*
X141700000Y-147650000D01*
X146100000Y-149350000D02*
X146100000Y-149450000D01*
%TO.C,BOOT1*%
X133200000Y-116850000D02*
X133200000Y-116750000D01*
X133200000Y-118550000D02*
X137600000Y-118550000D01*
X137600000Y-115050000D02*
X133200000Y-115050000D01*
X137600000Y-116850000D02*
X137600000Y-116750000D01*
%TO.C,arrancador1*%
X150770000Y-118745000D02*
X152100000Y-118745000D01*
X150770000Y-120075000D02*
X150770000Y-118745000D01*
X150770000Y-121345000D02*
X150770000Y-126485000D01*
X150770000Y-121345000D02*
X153430000Y-121345000D01*
X150770000Y-126485000D02*
X153430000Y-126485000D01*
X153430000Y-121345000D02*
X153430000Y-126485000D01*
%TO.C,R2410k1*%
X128877500Y-136237742D02*
X128877500Y-136712258D01*
X129922500Y-136237742D02*
X129922500Y-136712258D01*
%TO.C,R3*%
X146277500Y-125437258D02*
X146277500Y-124962742D01*
X147322500Y-125437258D02*
X147322500Y-124962742D01*
%TO.C,servo1*%
X150770000Y-101230000D02*
X152100000Y-101230000D01*
X150770000Y-102560000D02*
X150770000Y-101230000D01*
X150770000Y-103830000D02*
X150770000Y-108970000D01*
X150770000Y-103830000D02*
X153430000Y-103830000D01*
X150770000Y-108970000D02*
X153430000Y-108970000D01*
X153430000Y-103830000D02*
X153430000Y-108970000D01*
%TO.C,R1810k1*%
X128877500Y-127612258D02*
X128877500Y-127137742D01*
X129922500Y-127612258D02*
X129922500Y-127137742D01*
%TO.C,R6*%
X138877500Y-117037258D02*
X138877500Y-116562742D01*
X139922500Y-117037258D02*
X139922500Y-116562742D01*
%TO.C,R1920k1*%
X126877500Y-130237742D02*
X126877500Y-130712258D01*
X127922500Y-130237742D02*
X127922500Y-130712258D01*
%TO.C,U2*%
X129900000Y-96700000D02*
X145500000Y-96700000D01*
X129900000Y-112300000D02*
X129900000Y-96700000D01*
X145500000Y-96700000D02*
X145500000Y-112300000D01*
X145500000Y-112300000D02*
X129900000Y-112300000D01*
X129725000Y-98550000D02*
X129389000Y-98790000D01*
X129389000Y-98310000D01*
X129725000Y-98550000D01*
G36*
X129725000Y-98550000D02*
G01*
X129389000Y-98790000D01*
X129389000Y-98310000D01*
X129725000Y-98550000D01*
G37*
%TO.C,R1320k1*%
X126977500Y-121137742D02*
X126977500Y-121612258D01*
X128022500Y-121137742D02*
X128022500Y-121612258D01*
%TO.C,R8*%
X125877500Y-111637258D02*
X125877500Y-111162742D01*
X126922500Y-111637258D02*
X126922500Y-111162742D01*
%TO.C,D2*%
X129400000Y-143850000D02*
X133200000Y-143850000D01*
X129400000Y-146650000D02*
X129400000Y-145900000D01*
X129400000Y-146650000D02*
X133200000Y-146650000D01*
D10*
%TO.C,driver2*%
X135700000Y-140920000D02*
X139850000Y-140920000D01*
X135700000Y-146070000D02*
X139850000Y-146070000D01*
D11*
X135100000Y-141020000D02*
X134860000Y-140690000D01*
X135340000Y-140690000D01*
X135100000Y-141020000D01*
G36*
X135100000Y-141020000D02*
G01*
X134860000Y-140690000D01*
X135340000Y-140690000D01*
X135100000Y-141020000D01*
G37*
%TO.C,R2120k1*%
X126977500Y-133237742D02*
X126977500Y-133712258D01*
X128022500Y-133237742D02*
X128022500Y-133712258D01*
%TO.C,conectormotor2*%
X150645000Y-138370000D02*
X150645000Y-135770000D01*
X150645000Y-140970000D02*
X150645000Y-139640000D01*
X151975000Y-140970000D02*
X150645000Y-140970000D01*
X153305000Y-135770000D02*
X150645000Y-135770000D01*
X153305000Y-138370000D02*
X150645000Y-138370000D01*
X153305000Y-138370000D02*
X153305000Y-135770000D01*
%TO.C,D1*%
X129400000Y-146800000D02*
X133200000Y-146800000D01*
X129400000Y-149600000D02*
X129400000Y-148850000D01*
X129400000Y-149600000D02*
X133200000Y-149600000D01*
%TO.C,voltajesensores2*%
X124970000Y-143170000D02*
X126300000Y-143170000D01*
X124970000Y-144500000D02*
X124970000Y-143170000D01*
X124970000Y-145770000D02*
X124970000Y-148370000D01*
X124970000Y-145770000D02*
X127630000Y-145770000D01*
X124970000Y-148370000D02*
X127630000Y-148370000D01*
X127630000Y-145770000D02*
X127630000Y-148370000D01*
%TO.C,D5*%
X129400000Y-152900000D02*
X133200000Y-152900000D01*
X129400000Y-155700000D02*
X129400000Y-154950000D01*
X129400000Y-155700000D02*
X133200000Y-155700000D01*
%TD*%
M02*
